<?xml version="1.0"?>
<svg xmlns="http://www.w3.org/2000/svg" version="1.2" baseProfile="tiny" width="800" height="929" viewBox="0 0 800 929" stroke-linecap="round" stroke-linejoin="round">
<g id="cog_admbnda_adm0_gaul_20190617">
<path d="M 687.4525 2.1189 742.8806 10.1759 782.2526 1 799 44.8777 775.2923 95.8095 739.7785 148.8731 737.0947 229.0695 713.5316 282.8826 715.9279 330.1316 725.6467 350.482 705.753 376.4527 694.6695 411.3856 697.9673 454.4883 660.4655 497.8158 605.4059 527.3687 575.2304 589.248 538.971 620.2252 539.7969 676.9092 533.8849 705.61 536.3242 753.1974 502.5487 816.4717 467.386 825.2334 459.4102 845.4849 429.2959 855.6876 390.1988 909.4604 370.2948 919.8481 343.579 912.2608 343.0906 859.1356 271.3149 869.8666 267.8649 901.0746 236.8867 914.1107 208.9231 884.8046 176.0349 865.7698 128.7651 886.2925 121.1694 906.5194 85.6237 928.0431 67.7484 905.4619 67.4335 885.2888 1 820.126 6.2029 790.8231 36.1879 768.8115 54.081 785.7401 91.496 751.644 80.9859 732.2742 93.7605 710.5831 45.4817 690.7342 54.2342 646.6457 86.2715 643.1123 96.5116 653.7724 136.8159 651.8359 142.3513 615.9844 134.216 593.2495 166.2876 592.645 198.1802 642.4596 248.0302 652.7243 274.0445 619.5832 311.9912 657.4848 324.2139 637.2222 328.5381 604.8902 343.6791 593.3673 352.7253 529.9047 344.9308 489.7643 354.4121 465.321 343.917 443.4799 289.7513 415.0885 289.0343 370.6302 313.782 332.5154 342.1755 324.0382 354.3339 292.8272 321.0288 242.7822 281.017 239.2392 253.4508 255.3093 221.376 251.3108 208.6057 222.8497 210.898 191.3408 225.8353 159.7322 365.9854 156.9211 413.6737 180.1191 435.1312 175.2589 490.1082 187.802 531.6986 209.6647 521.2753 177.876 571.0459 87.742 569.5069 53.7082 579.2347 19.6915 687.4525 2.1189 Z"/>
</g>
</svg>