<?xml version="1.0" encoding="utf-8"?>
<!-- Generator: Adobe Illustrator 23.0.6, SVG Export Plug-In . SVG Version: 6.00 Build 0)  -->
<svg version="1.1" id="Layer_1" xmlns="http://www.w3.org/2000/svg" xmlns:xlink="http://www.w3.org/1999/xlink" x="0px" y="0px"
	 viewBox="0 0 40 40" style="enable-background:new 0 0 40 40;" xml:space="preserve">
<style type="text/css">
	.st0{fill:#FEFCE4;stroke:#000000;stroke-width:2;stroke-miterlimit:10;}
</style>
<path class="st0" d="M7.2,17c-0.1-1.8-0.2-3.6-0.3-5.4C6.8,9.5,6.9,7.3,7,5.1c0-0.8,0.6-1.2,1.4-1.3c0.6-0.1,1.3-0.1,1.9,0
	c0.4,0,0.7,0,1.1,0.2c1,0.5,0.7,2,0.8,2.9c0.1,1.2,0.2,2.5,0.3,3.7c0.2,2.3,0.3,4.6,0.6,6.9c0-0.2,1-4.8,1.1-5
	c0.9-0.9,2.1-0.7,3.2-0.7c0.1,0,0.2,0,0.3,0.1c0.1,0.1,0.2,0.2,0.2,0.4c0.5,1.7,0.4,3.6,0.9,5.2c0.7-0.8,0.9-2.1,1.1-3.1
	c0.2-0.9,0.2-2.1,1.1-2.6c0.4-0.2,0.9-0.3,1.4-0.3c2.4-0.1,2,2,2.2,3.8c0.1,0.8,0,1.8,0.3,2.6c-0.1-0.3,0.7-4.9,0.8-5.1
	c0.4-0.5,0.6-1.2,1.4-1.4c3.1-0.6,3.6,2.9,3.7,5.2c0.3,5.4,1.2,11.4-0.5,16.6c-0.4,1.3-1,2.5-2,3.3c-1.6,1.4-3.6,1.5-5.9,1.5
	c-3.3,0.1-7,0.2-10.1-1c-3.6-1.4-4.2-5.3-4.6-8.7c-0.4-3.2-0.4-6.4-0.6-9.6C7.3,18.2,7.2,17.6,7.2,17z"/>
</svg>
