<?xml version="1.0"?>
<svg xmlns="http://www.w3.org/2000/svg" version="1.2" baseProfile="tiny" width="800" height="862" viewBox="0 0 800 862" stroke-linecap="round" stroke-linejoin="round">
<g id="gab_admbndp0_1m_salb">
<path d="M 407.898 1 554.6765 14.7877 624.8007 7.8209 608.9065 104.4705 625.5556 141.5749 667.3725 146.7879 703.3124 125.8365 755.477 130.4565 798.8979 195.7021 783.046 236.3935 746.0283 247.4446 713.7648 297.1365 714.6987 355.0983 785.3167 392.1128 799 420.5889 786.6386 452.456 796.7999 504.7884 785.0067 587.5272 765.2661 602.5493 743.6949 671.1189 694.2211 621.706 660.3055 664.9127 595.3155 651.5307 553.7347 586.5852 522.529 617.0134 515.3113 663.7553 462.7661 666.2803 407.6474 656.988 396.2356 714.4684 459.1792 740.3457 442.525 768.6246 456.2268 793.8776 407.447 838.3299 384.12 816.2595 312.6696 860.6933 262.2298 792.5782 153.1833 700.2091 71.3707 594.2359 59.4699 548.1371 29.6768 507.2881 1 445.2235 36.4218 423.9651 72.7357 378.1523 78.9968 317.0313 102.0149 285.67 74.1255 242.6245 117.1748 222.8528 108.1307 194.4157 133.588 176.0853 169.9792 186.0628 356.9316 185.8359 356.9072 21.7163 407.898 1 Z"/>
</g>
</svg>