<?xml version="1.0"?>
<svg xmlns="http://www.w3.org/2000/svg" version="1.2" baseProfile="tiny" width="800" height="585" viewBox="0 0 800 585" stroke-linecap="round" stroke-linejoin="round">
<g id="gin_admbnda_adm0_ocha_itos">
<path d="M 17.6235 192.0631 7.7978 204.7226 1 192.6393 14.2693 183.5388 17.6235 192.0631 Z M 173.8225 2.0036 217.8863 7.108 218.5022 22.7033 227.3375 24.021 232.2863 15.9368 247.4127 22.4554 252.1265 27.4826 264.5618 27.8195 270.6952 34.0119 280.3997 30.7392 294.4037 40.5842 314.1946 34.0666 320.8849 28.3517 329.4777 31.0042 342.6555 27.7186 356.8559 31.941 367.348 28.1274 389.2505 26.1863 392.0447 41.6497 385.1666 51.0762 388.7784 59.2226 410.9514 74.3662 417.9744 72.0002 436.9283 51.5011 445.7893 49.5933 461.3879 62.2947 460.5659 69.5247 466.9612 82.2154 473.7502 84.9463 479.2731 76.8632 496.9082 61.0554 512.6828 50.0869 536.1208 54.2728 538.6822 58.6303 555.0618 62.9922 559.122 67.6319 578.0978 71.0034 585.5401 55.0153 601.7556 47.1822 618.9724 43.8333 619.6552 33.9164 609.7649 24.0392 614.34 20.3728 635.8317 21.3867 648.2788 27.5856 656.5207 36.1698 655.4808 52.8596 664.3984 57.8298 662.5258 69.1438 674.0657 73.0046 675.19 81.7283 668.8149 113.4394 686.3804 117.8227 690.296 127.29 706.6091 138.0181 717.9012 139.8391 708.2877 157.045 687.6019 179.6321 697.1251 186.2012 705.2184 183.8641 708.7186 173.8796 719.504 172.709 729.6817 181.3844 730.9134 196.6267 728.1372 219.8953 735.6348 243.4964 759.7531 251.3542 765.9903 261.1777 758.7154 277.7452 745.7534 289.001 749.5966 306.1224 744.0763 332.2538 744.4738 338.3759 754.0125 352.357 774.8117 355.1905 768.4554 372.1489 783.2342 384.0842 769.2545 395.0364 765.3338 409.4847 766.1683 418.3698 784.8802 420.4554 794.0117 444.312 799 462.2699 787.125 462.1102 753.4985 448.4088 734.4727 453.7453 736.9779 477.6629 753.0897 485.4389 759.3443 492.6883 748.1828 519.4259 752.7849 523.3348 737.4257 552.8013 727.9975 545.5375 709.82 550.5629 699.8345 542.9112 700.4256 535.7509 689.7349 535.3718 684.6457 541.3961 684.6533 554.8915 669.7264 572.8003 671.0515 579.6549 651.3806 583.925 632.7704 577.5366 628.7916 568.2904 609.6638 565.0014 608.2549 559.454 615.1385 542.9322 616.2803 529.7385 607.7434 517.5462 608.9932 505.7062 603.9039 491.449 597.944 483.8955 600.6826 474.4168 595.9581 461.6348 570.243 443.5608 566.8791 448.8391 554.5254 449.3305 546.0249 455.6152 532.4114 446.3996 515.1003 450.7491 504.4655 449.8815 498.051 459.476 486.4849 469.7563 473.5603 466.1888 476.1784 451.6592 483.3978 439.3119 495.5144 430.3852 482.9052 416.4611 483.1306 390.8314 467.5578 386.9695 468.25 375.7776 474.6601 372.9327 474.1129 362.2782 467.4451 354.6715 458.2589 353.4139 456.717 339.5998 442.0219 323.1728 434.4249 309.8673 421.393 299.9129 416.3938 288.1182 343.5247 288.4367 341.3003 295.0521 318.3976 301.9148 306.9066 296.2496 284.9493 300.8657 278.6796 306.835 260.7258 337.6136 257.7202 349.242 249.9665 353.7884 246.0639 363.5475 230.9397 364.7086 223.7429 385.0188 214.5717 390.2766 189.0029 376.1881 177.5581 357.7187 159.2154 335.1253 156.9888 317.8083 142.4193 311.8027 129.743 298.2387 109.467 285.0923 101.9059 283.1138 75.9815 263.1575 67.487 265.466 66.942 251.7583 59.253 246.2064 57.1658 237.8628 44.8682 233.0376 50.4253 223.9429 40.8621 220.0393 33.5009 210.4362 35.7509 198.4388 30.3897 196.675 17.3506 175.1309 26.387 159.4672 32.9994 142.9418 44.6253 128.0769 61.1594 127.9602 81.9131 116.3168 88.1521 109.3454 107.9113 113.6735 135.9952 105.2994 147.4209 104.6733 146.981 71.7449 123.6472 58.2277 125.7887 48.2633 138.0919 41.6401 145.7344 47.0195 152.0669 40.1289 156.1722 24.1619 147.6695 9.2377 147.9741 1 173.8225 2.0036 Z"/>
</g>
</svg>