<?xml version="1.0"?>
<svg xmlns="http://www.w3.org/2000/svg" version="1.2" baseProfile="tiny" width="800" height="597" viewBox="0 0 800 597" stroke-linecap="round" stroke-linejoin="round">
<g id="gin_admbnda_adm0_ocha_itos">
<path d="M 160.745 2.0246 205.7305 7.2357 283.8486 41.4122 380.6794 26.7132 472.585 78.4501 506.6936 51.1137 573.477 72.4677 632.4185 21.8131 672.6002 83.4169 666.0917 115.7914 716.2048 142.7433 744.6396 295.0254 743.3332 345.4331 767.8165 379.9126 799 471.9188 758.5148 502.9734 736.1377 564.3439 682.2613 566.4778 648.2927 596.1186 605.7033 576.7993 612.4582 540.7987 591.7108 471.2704 498.3044 459.2713 467.3169 369.8354 408.3904 294.1241 274.1964 307.1383 234.4976 371.1313 176.2429 384.0363 143.5592 324.4353 29.0933 237.8913 1 178.7734 28.8452 130.7351 73.2825 111.6118 133.7912 106.842 134.3559 1 160.745 2.0246 Z"/>
</g>
</svg>