<?xml version="1.0"?>
<svg xmlns="http://www.w3.org/2000/svg" version="1.2" baseProfile="tiny" width="800" height="589" viewBox="0 0 800 589" stroke-linecap="round" stroke-linejoin="round">
<g id="gin_admbnda_adm0_ocha_itos">
<path d="M 20.4113 200.5551 16.1796 195.5467 21.7378 194.7885 20.4113 200.5551 Z M 17.6837 192.0484 11.6957 199.6798 14.9338 201.6827 14.4793 205.2176 7.8588 204.7069 1 197.4629 1.0615 192.6245 8.7696 186.4034 14.3298 183.5247 19.6644 188.6924 17.6837 192.0484 Z M 20.0149 180.7409 18.2534 185.6984 13.4851 182.6794 16.8842 176.037 20.0149 180.7409 Z M 173.8707 2.0035 186.3683 2.7857 202.8681 5.218 209.6244 4.6354 217.9311 7.1075 218.5566 11.102 215.8002 16.7189 218.547 22.7016 227.3816 24.0192 230.403 21.2521 232.33 15.9357 236.0724 15.5451 240.5852 18.235 241.8094 21.3143 247.4552 22.4538 252.1687 27.4805 264.603 27.8174 270.7359 34.0094 280.4396 30.7369 287.9631 33.9901 294.4426 40.5811 306.1237 35.4578 314.232 34.0641 320.9217 28.3496 325.9893 28.1479 329.5139 31.0019 342.6907 27.7166 346.2636 30.4493 356.89 31.9386 362.1624 31.3388 367.3812 28.1254 381.5956 26.0396 389.2821 26.1844 397.8925 29.1811 392.9065 32.1939 391.1984 35.1799 392.0761 41.6466 389.9913 46.4094 385.1985 51.0724 388.81 59.2181 398.8056 62.9048 399.7916 67.1225 410.9813 74.3606 418.0037 71.9947 423.7879 67.1719 424.1946 63.3479 430.7975 59.0379 433.7974 49.8374 436.9562 51.4973 445.8165 49.5896 450.3529 51.846 451.8218 56.2676 455.2262 59.436 461.4139 62.29 460.592 69.5195 464.7464 74.2211 466.9868 82.2092 473.7753 84.9398 477.2226 82.8722 479.2977 76.8573 483.9907 75.0462 484.6409 70.6278 488.746 70.1514 491.9166 60.4885 496.9315 61.0507 506.0848 55.4457 512.7048 50.0831 524.9643 52.0155 529.917 55.0262 536.1411 54.2687 538.7022 58.6259 545.7182 59.7997 549.0368 63.0013 555.0806 62.9874 559.1405 67.6268 566.2929 67.468 570.618 70.1332 578.1148 70.998 580.6972 65.0968 580.1473 61.07 585.5565 55.0111 595.1048 52.8803 601.7708 47.1787 609.0593 45.728 613.9648 47.2709 618.9863 43.83 619.669 33.9139 609.7795 24.0374 614.3543 20.3713 618.9046 19.8391 622.7061 21.8443 626.014 19.6244 635.8443 21.3851 643.9799 26.4376 648.2904 27.5835 656.5317 36.1671 657.737 39.1391 654.5874 43.4319 653.9565 49.7945 655.4919 52.8556 662.4082 53.6604 664.4088 57.8255 662.3157 63.3597 662.5363 69.1386 668.6558 69.0485 674.0753 72.999 672.9152 76.4936 675.1996 81.722 672.2669 98.3065 668.8249 113.4307 678.9317 115.7418 681.7674 113.2226 686.9846 113.1303 686.3891 117.8137 690.3043 127.2802 694.7574 132.2694 698.076 133.2758 703.048 129.5796 706.6162 138.0075 711.526 139.9088 717.9075 139.8284 715.2332 144.8422 721.3876 146.8368 720.0405 150.8946 715.1789 151.827 710.3756 149.8238 706.9185 152.6489 708.2947 157.0329 699.7251 158.8902 699.9426 164.2238 697.6577 167.4823 693.7038 167.9834 693.4362 172.0531 690.7081 177.2321 687.6105 179.6184 687.4613 184.3812 697.133 186.1869 705.2257 183.8501 706.5147 177.4714 708.7256 173.8663 719.5101 172.6958 725.7759 175.6764 729.687 181.3705 730.9186 196.6116 725.1544 205.4334 728.7761 207.5707 728.1426 219.8784 730.6559 225.0639 730.6888 231.1593 735.6397 243.4777 742.9014 245.1161 745.3949 242.9477 750.6518 249.7212 759.7561 251.3349 763.8556 254.4936 765.9928 261.1577 765.5897 265.619 762.8345 268.8668 758.7185 277.7239 749.0429 283.1101 745.7575 288.9788 747.8518 292.6807 742.7349 295.998 747.1288 298.7654 749.6004 306.0989 745.8552 321.3476 746.7768 325.1823 744.0805 332.2283 744.478 338.3499 749.8798 347.4685 754.016 352.3299 763.9096 352.9479 773.0293 348.6958 775.7338 348.9763 774.8136 355.1632 772.4574 358.7081 772.1461 365.3379 768.4578 372.1203 769.0854 375.3837 773.163 378.5197 777.742 379.0129 783.2354 384.0546 777.5563 387.8368 769.2568 395.0061 769.3816 398.9771 765.3364 409.4532 764.506 414.5703 766.1708 418.3376 771.1004 420.6173 777.0631 419.3861 784.8813 420.4231 789.7991 431.1354 794.0121 444.2778 796.8549 448.4558 794.8273 453.9239 799 462.2344 787.1259 462.0747 783.1915 452.9772 778.1923 451.1353 778.6227 455.9463 776.3235 457.6649 768.9384 454.7336 767.1327 448.9677 762.0834 450.8249 753.502 448.3743 743.6481 450.5685 739.363 448.7913 734.4777 453.7104 736.2598 464.0318 734.9559 467.5642 736.9827 477.6262 742.601 481.657 746.9292 481.6827 753.0933 485.4016 755.8401 481.0496 759.5255 485.158 759.3473 492.6504 766.2206 498.1829 756.1179 499.2114 748.1867 519.3859 752.7885 523.2946 750.3991 532.5542 745.4828 535.6396 745.0709 539.6903 742.0441 543.5078 741.9668 547.6161 737.4304 552.7587 728.0029 545.4956 719.7505 547.9005 715.7012 544.7728 709.8269 550.5206 699.8421 542.8695 700.4332 535.7097 689.7433 535.3306 684.6546 541.3544 682.9539 550.777 684.6621 554.8488 676.8062 565.7952 673.4428 566.9613 669.7364 572.7562 671.0613 579.6103 667.8393 582.3296 663.6195 582.0144 651.392 583.8801 646.1134 588.463 640.2498 580.357 636.694 580.6868 632.7832 577.4922 628.8047 568.2467 623.7332 569.3011 621.514 564.678 615.6333 563.9721 612.3577 567.8505 609.6784 564.958 602.6517 568.6984 604.228 563.4832 608.2696 559.411 615.1527 542.8905 613.261 540.7407 613.5778 535.5711 616.2944 529.6978 614.6372 524.6073 611.3071 523.2024 607.7582 517.5064 606.7979 508.3167 609.0078 505.6673 603.9189 491.4112 603.4672 484.9305 597.9595 483.8582 597.7666 476.6903 600.6979 474.3803 597.8739 467.3246 600.9464 461.8543 595.9737 461.5993 591.6007 456.4211 588.1691 459.0844 586.1434 454.3163 581.1942 449.7766 577.5965 451.1346 570.2607 443.5267 566.897 448.8046 554.5442 449.296 546.0444 455.5802 538.7355 457.2894 540.2601 449.8071 532.4319 446.3652 515.1222 450.7144 510.3422 448.7733 504.4882 449.8469 498.0742 459.4406 490.9477 466.6809 486.5089 469.7202 481.8352 467.0811 473.5853 466.153 475.8267 461.1101 476.2033 451.6245 479.1217 444.6111 483.4221 439.2781 489.7921 437.2556 494.2105 434.2902 495.5377 430.3521 489.7664 423.6016 488.4177 419.8502 482.9296 416.4291 481.7204 399.8347 483.1549 390.8013 475.0521 386.6866 467.5833 386.9398 468.2754 375.7488 474.6851 372.904 473.4534 368.586 474.1379 362.2503 469.9964 360.0207 467.4706 354.6442 458.2852 353.3867 459.8538 350.9737 455.4129 347.9319 454.8496 342.7517 456.7434 339.5737 448.1566 330.8528 447.044 325.6962 442.0494 323.148 440.3402 317.6457 434.453 309.8435 421.4221 299.8898 419.8331 290.7375 416.4233 288.0961 384.809 288.1422 343.5598 288.4145 341.3356 295.0294 318.4347 301.8916 316.0957 301.6269 306.9445 296.2268 284.9889 300.8426 278.7197 306.8114 273.7874 318.1266 270.5128 320.0375 267.8487 325.252 267.8218 331.0728 264.6663 330.9365 260.7672 337.5877 261.5011 340.8395 257.7619 349.2151 253.6311 353.0305 250.0088 353.7612 246.1066 363.5196 241.0991 364.8243 237.2838 363.6087 234.6679 366.3608 230.9834 364.6805 228.1454 369.9003 228.9373 375.072 223.7872 384.9892 218.562 386.5728 214.6168 390.2466 207.7671 386.222 197.454 387.3754 191.0109 391.4088 189.2161 388.6112 197.3052 379.9343 190.7533 378.6141 189.0499 376.1591 190.7685 369.6139 185.7055 365.8984 181.4136 366.1979 177.606 357.6912 178.5166 351.4245 172.4461 351.3888 159.2647 335.0996 151.9334 335.5817 156.1396 327.4279 157.0383 317.7838 160.0619 313.2719 154.6826 312.202 150.0632 316.0361 145.6076 315.4047 142.4699 311.7788 145.2569 302.8759 135.3222 304.6333 129.7946 298.2158 118.8341 291.1553 113.211 288.5405 109.5202 285.0704 113.397 275.6784 111.5613 271.7042 108.2132 273.1408 108.288 281.0847 101.9596 283.0921 96.4796 277.6171 91.1831 275.7681 89.5385 272.9329 82.7017 266.9194 76.0372 263.1373 67.5434 265.4457 66.1722 260.7226 67.7885 255.8446 66.9984 251.739 59.31 246.1875 57.223 237.8445 46.8179 237.0456 44.9264 233.0197 50.4829 223.9257 50.4857 215.0953 55.0533 208.9448 55.204 201.8107 48.3827 214.793 40.9205 220.0224 39.1318 213.1448 41.0077 207.151 33.5599 210.42 35.8097 198.4236 30.449 196.6599 29.0324 188.9285 33.7324 185.2438 28.3979 181.974 24.5367 184.8579 17.4108 175.1175 26.4465 159.455 33.0585 142.9309 41.4795 131.2651 44.6834 128.0671 49.6964 126.9583 61.2162 127.9504 81.9684 116.3079 88.2069 109.3371 94.5387 108.6951 101.4308 110.0957 107.9646 113.6649 112.7902 110.6067 117.0124 111.8173 125.2755 108.2556 130.5747 109.1848 136.0463 105.2913 141.2033 107.5259 147.4711 104.6653 146.6025 85.0199 148.0883 73.7332 147.0312 71.7394 137.3596 68.1225 135.8744 64.338 130.3847 62.2726 128.0747 58.9842 123.6993 58.2233 121.206 54.1496 125.8406 48.2597 131.9679 47.649 132.6329 43.2384 138.1428 41.637 145.7848 47.0159 152.1168 40.1259 153.5672 34.7227 152.4092 30.3104 156.2217 24.1601 151.5179 18.1719 147.7197 9.237 148.0243 1 161.9224 1.1323 173.8707 2.0035 Z"/>
</g>
</svg>