<?xml version="1.0"?>
<svg xmlns="http://www.w3.org/2000/svg" version="1.2" baseProfile="tiny" width="800" height="820" viewBox="0 0 800 820" stroke-linecap="round" stroke-linejoin="round">
<g id="lbr_admbnda_admint_ocha">
<path d="M 334.0851 1 337.1854 15.2536 354.1192 11.5009 373.0097 33.291 386.5872 37.8216 382.6501 47.5545 383.281 71.2023 402.579 101.8388 395.8781 117.979 397.5444 133.3004 409.8454 147.2369 410.8961 161.4484 406.3959 173.9812 410.5077 182.0228 398.7373 207.3987 391.3652 214.7065 402.8136 225.4849 422.7938 219.3195 426.0761 229.5471 441.4315 228.9389 441.9479 241.4184 468.4854 262.0197 491.4204 246.7238 506.6228 252.3545 512.5227 246.14 509.1974 234.6352 516.8579 222.5456 537.5541 202.6016 534.6472 194.1905 544.0558 165.9371 562.9062 166.007 566.8461 180.5589 577.3747 188.6369 574.3037 199.4566 596.3096 211.5332 598.6138 238.9915 603.7734 254.1547 618.4617 266.6655 616.662 284.4059 619.5551 304.9113 612.1743 308.3643 613.288 338.7997 587.5959 372.4764 580.4527 374.4193 565.243 399.3896 583.9458 408.2541 597.4432 410.4733 600.2688 427.5422 608.7795 424.5016 641.3643 441.9635 650.2621 442.7954 674.6098 435.2483 695.1067 442.471 706.3096 455.9238 704.8628 477.5525 714.1918 479.266 717.4228 501.7367 725.8005 510.338 758.506 518.0796 764.1154 530.164 776.7838 528.665 785.1674 543.0779 794.3326 585.265 788.2281 600.042 789.1979 619.0602 799 628.1329 791.0953 640.193 779.9467 642.1275 776.0423 669.0645 761.5635 676.7216 766.9345 702.1048 755.0529 711.1686 755.0528 731.7565 761.1693 735.0089 759.2109 758.9619 763.6212 770.0561 760.8503 784.8345 765.189 802.3572 750.5641 819.077 718.4607 811.8387 706.3141 797.8373 685.8084 788.9442 625.9721 776.1861 617.1162 768.2844 596.3095 760.8465 574.8519 744.7934 535.9383 730.6324 521.0665 721.7251 507.3136 707.8386 473.5421 696.5948 435.2954 668.8394 422.1376 663.6596 385.4404 626.5518 384.4387 620.2553 364.3646 608.3736 364.8582 600.5154 327.9049 574.5162 312.7788 557.3294 281.4927 533.1471 272.5267 515.15 250.5212 502.159 241.2744 489.278 214.3811 477.369 208.0497 469.3321 149.5085 452.1295 117.0497 408.122 82.3027 383.7868 74.362 383.769 20.2945 360.5546 30.2279 358.6558 50.9195 366.141 54.4768 358.6992 39.0938 344.5371 22.7722 350.293 11.6639 331.6781 1 324.944 17.5786 298.8605 21.4862 275.5222 38.3865 257.0737 54.7147 250.2853 56.317 242.8306 70.1957 226.1982 120.6537 195.274 129.513 186.9635 149.2005 158.5023 167.1208 151.262 167.1416 99.4511 172.5909 98.0059 187.8304 78.9675 217.9815 76.9684 227.6525 64.2169 226.5805 49.348 232.483 20.7657 254.4251 4.3682 275.9157 9.5347 274.0532 24.0247 303.1151 9.9357 326.133 8.4288 334.0851 1 Z"/>
</g>
</svg>