<?xml version="1.0"?>
<svg xmlns="http://www.w3.org/2000/svg" version="1.2" baseProfile="tiny" width="800" height="825" viewBox="0 0 800 825" stroke-linecap="round" stroke-linejoin="round">
<g id="lbr_admbnda_admint_ocha">
<path d="M 336.0447 1 384.8954 47.8284 404.9416 102.4321 399.8774 134.0788 425.2753 220.6039 471.2358 263.5554 512.1872 236.0098 540.7108 203.7876 547.2507 166.9074 566.212 166.9778 577.6766 200.6242 599.812 212.7719 607.3197 255.644 622.0944 268.2285 616.8902 340.7871 568.5626 401.7334 600.9523 412.8824 645.1317 444.5578 678.5728 437.8031 710.4592 458.6002 721.6377 504.6826 762.9626 521.1217 789.7809 546.267 799 588.7024 780.6021 672.9949 759.4892 715.3467 769.6849 807.0718 754.974 823.8899 722.6817 816.6091 689.8373 793.5798 629.649 780.7467 578.228 749.1693 539.0855 734.9251 424.6152 667.5582 283.1429 536.2779 274.1242 518.1749 209.2678 472.0874 150.3822 454.7837 117.7324 410.5172 22.9003 352.348 1 326.8498 21.6068 277.1372 70.6027 227.5231 121.3576 196.4169 168.0981 152.1461 168.1191 100.0303 188.9295 79.4262 228.986 64.5888 233.8449 20.882 255.916 4.388 328.0458 8.4725 336.0447 1 Z"/>
</g>
</svg>