<?xml version="1.0"?>
<svg xmlns="http://www.w3.org/2000/svg" version="1.2" baseProfile="tiny" width="800" height="813" viewBox="0 0 800 813" stroke-linecap="round" stroke-linejoin="round">
<g id="lbr_admbnda_admint_ocha">
<path d="M 339.0319 2.4182 340.2904 8.7526 340.835 11.4943 340.9977 12.4228 341.6228 13.8967 341.6763 14.0229 341.7102 14.9516 342.0992 16.5201 342.7312 17.0113 343.2912 17.4467 343.6142 18.1827 344.4816 17.5405 345.2234 18.6281 345.8359 19.3316 345.4842 20.4852 345.3974 20.5621 344.0712 21.7369 343.922 22.2605 343.8795 22.4097 345.167 22.8878 346.0032 22.8542 346.8058 21.9881 347.2547 21.1866 348.4434 20.4478 348.8365 19.6999 348.9403 19.5021 348.3599 18.7024 348.2941 17.902 348.8394 17.0362 348.4844 16.3963 349.0302 15.8188 349.0099 15.6073 348.9318 14.7942 349.3162 13.8327 350.0564 14.0235 351.085 13.5733 351.8881 12.9634 352.6272 12.4294 352.9324 12.2089 353.447 12.144 354.1217 11.6303 354.8286 11.1807 355.9228 11.371 356.2132 11.915 356.6634 11.7862 357.1799 12.8421 357.6304 12.9055 358.7558 12.5513 358.8527 12.8073 358.3082 14.2495 357.7931 15.5788 357.6997 15.8199 357.8294 16.4281 357.8842 16.4078 358.6974 16.1064 359.3729 16.0733 360.5308 15.9754 362.2526 16.4369 362.1254 17.3339 362.352 18.2303 363.349 18.1006 364.0918 19.9569 363.932 20.5338 362.4543 21.8172 361.91 23.3234 361.5518 23.6811 361.2677 23.965 360.0468 24.8317 359.1473 25.4737 358.3105 25.1868 357.3161 26.7899 357.377 27.1105 357.5108 27.8145 356.4826 28.4246 356.6449 29.2892 357.2886 29.5763 358.1896 29.8311 358.4799 30.343 358.6449 30.7722 358.7383 31.0152 359.2836 30.0854 359.9271 30.2445 360.7621 29.4745 361.47 29.7296 362.3697 29.1516 362.9493 29.5991 363.4632 29.1499 364.6212 29.2121 364.7402 29.2611 365.9408 29.7546 366.2624 29.7221 367.1617 28.9519 368.0619 28.6623 369.38 28.244 369.5077 27.6673 369.1851 27.0272 369.0546 25.8104 369.4884 25.5054 370.3582 26.4329 371.1636 27.2644 371.9674 27.0391 372.4504 27.4227 374.0923 28.4773 374.0619 29.6624 374.9282 30.4652 375.5112 31.0054 375.4804 31.9663 376.4131 31.965 376.7674 32.3488 376.6394 32.7974 377.0265 33.6296 377.5422 34.3655 377.8314 34.2369 378.7324 34.524 379.7127 34.0902 380.3246 34.698 380.8069 34.5692 381.7379 34.0908 381.9317 33.9911 383.0585 34.7904 384.3121 34.2762 384.956 34.7879 385.5034 35.2997 385.8574 35.5234 387.0156 35.8101 387.562 35.5532 388.4641 36.7371 389.333 37.2485 390.9752 38.8479 391.3306 40.1927 391.011 41.7945 389.5627 40.8994 389.4482 41.3067 389.2745 41.9248 388.4866 41.9097 387.1699 43.3206 385.499 44.3476 385.0824 45.4692 384.0536 45.5986 383.4525 46.2889 383.4114 46.3361 384.1204 47.4883 384.515 47.7626 385.4078 48.3833 387.08 48.4773 387.1952 50.543 386.9734 53.1696 388.8715 54 389.806 55.6323 387.6858 57.1402 387.1569 58.374 386.6121 59.7839 385.9375 60.2653 385.5848 61.0024 386.357 61.5138 387.3537 61.4806 387.2901 62.1212 386.6484 63.1148 385.942 63.8204 386.7468 64.6521 386.3298 65.3893 386.9249 65.6928 386.1225 66.7187 386.7017 67.1023 386.1242 68.064 386.0739 68.1267 384.5836 69.9876 384.4566 71.2049 385.5831 72.3244 386.9974 72.1946 387.7042 71.8734 390.0524 73.1516 391.4983 72.6375 394.135 73.2429 394.9232 73.8026 395.0845 74.2508 395.3119 76.3324 395.0673 78.891 395.0577 78.991 394.7393 81.6178 395.254 82.0336 396.3794 82.3526 396.8783 83.0086 396.4618 84.1942 395.7569 86.1167 395.951 87.3016 397.5277 88.8692 397.4155 90.0844 397.4006 90.2466 398.5432 91.7348 396.4908 95.7727 395.3033 97.1832 395.2813 97.4502 395.1765 98.7208 395.3225 98.8445 395.466 98.966 395.6587 99.1293 396.045 99.4565 398.581 96.9875 399.6729 96.3457 400.8931 95.4156 404.7499 95.764 405.9412 98.0048 405.3482 99.5909 405.4134 100.5516 405.6746 100.8597 406.7968 102.1838 406.3641 103.1863 406.0915 103.818 404.8392 104.7481 403.3791 106.6873 403.2522 107.9987 404.6365 110.9139 404.5419 112.6757 403.0646 113.3497 402.1146 114.2185 401.5276 114.9433 400.1672 118.1522 400.3733 120.8744 400.3867 120.9258 400.4542 121.1836 401.3395 122.9283 401.3094 124.8181 400.6413 126.1803 400.5893 126.2865 400.5147 126.4385 400.5081 126.6461 400.5089 127.4452 400.7935 128.5352 400.7083 128.5497 401.9576 130.2789 401.8158 133.3106 405.2222 137.4937 405.0788 139.0096 406.256 139.8363 407.413 140.7106 407.4891 140.7846 407.5889 140.8267 407.6383 140.8942 408.1034 141.5308 408.04 142.4597 408.5226 143.3241 408.5235 144.2209 409.7767 144.9885 410.9969 144.7311 411.735 144.0258 412.7955 144.7616 411.9931 145.3067 413.1179 146.2026 413.022 146.7152 413.9858 147.0987 414.4849 148.5877 413.8124 150.7662 414.9683 150.5091 415.6438 151.7896 415.0985 152.5589 415.7729 152.5903 415.5484 153.0069 415.0902 153.3606 414.8424 153.552 414.875 154.1605 415.3891 154.4483 415.5184 155.5373 416.8993 155.5361 416.4342 156.2251 414.8303 158.3085 415.0254 161.159 413.678 162.6335 413.2136 163.931 411.738 165.6299 411.4825 167.2637 411.677 169.2173 411.2931 170.9152 411.9201 171.8916 410.5731 173.5584 411.152 174.7109 410.7036 175.9284 411.1855 176.3444 411.4757 177.8176 411.5656 177.902 413.2108 179.4496 414.4465 179.1122 414.6411 181.5144 413.0692 182.8289 413.2953 184.4943 412.1408 185.8084 410.9859 186.6743 410.8426 187.9716 410.2333 188.7088 409.4321 190.0868 410.075 191.1753 409.4342 192.489 408.3757 193.3549 407.7678 195.5655 406.4683 196.031 406.3177 197.0756 406.1494 198.2414 404.8414 201.9012 404.7409 202.1824 403.907 202.8559 403.6036 204.3135 402.8988 205.7235 402.996 206.6203 401.4895 208.5114 401.7793 209.5682 401.3301 209.6967 400.8819 210.7222 399.7908 210.7552 399.6952 211.3959 398.7973 212.1335 398.7018 212.8383 397.595 213.1757 397.1464 213.8488 395.7024 213.8502 395.1587 215.6444 394.1647 216.3822 394.2937 217.0547 394.1433 217.3224 393.429 218.5931 394.0239 219.7935 393.0296 220.1789 392.6133 220.9801 393.2239 221.8443 392.7506 223.2944 392.6802 223.5104 392.6812 224.5354 392.1676 224.2476 392.0093 226.2337 391.3207 227.4035 390.5193 228.109 390.6292 228.1747 391.1614 228.4927 390.9378 229.4218 390.7411 230.0292 391.2174 229.6343 391.7783 229.7553 391.9014 229.782 391.9903 229.5741 392.1973 228.5647 392.7913 227.9409 393.147 226.9017 393.4431 225.8033 393.4419 224.6755 393.7685 224.2596 395.7595 223.3078 396.1462 223.4855 396.5622 223.2476 396.9479 222.4459 397.6615 222.4451 398.9096 221.7613 399.6225 221.1373 399.6223 220.8999 399.8299 220.4248 400.2755 219.9495 400.6029 220.3647 400.9898 220.7501 401.198 220.7499 401.6733 220.334 402.119 220.0071 402.2373 219.443 402.4743 218.4931 403.0097 218.641 403.4255 218.1954 403.8715 218.2247 404.2286 218.5508 404.2292 219.1147 404.2001 219.8864 404.3786 219.9753 404.7355 220.0343 404.7356 220.153 405.0636 221.2212 405.2421 221.2804 405.4205 221.2505 405.7771 221.0721 406.1936 221.3389 405.481 222.408 405.6299 222.6453 406.4331 223.1491 405.3943 225.1979 405.6623 225.6132 406.0192 225.8207 406.2372 225.867 406.4356 225.9093 406.6432 225.3156 407.0289 224.5139 407.5343 224.454 408.0992 224.4535 408.6639 224.186 408.8723 224.5123 409.4968 224.6601 409.6452 224.3928 410.2081 221.9883 410.5647 221.8693 411.0702 221.9282 411.1593 221.8094 412.0208 220.8293 412.4968 221.185 412.8237 221.0364 413.1208 220.7393 413.5672 221.2434 413.7454 220.9168 413.745 220.5014 413.12 219.7598 412.941 219.0774 413.3869 218.899 413.7731 218.5128 413.4456 218.0679 413.5049 217.771 413.8912 217.5036 414.6344 217.2952 415.2295 217.7993 415.6754 217.7396 416.4776 216.9079 416.597 217.5608 416.7458 217.7388 417.073 217.8869 417.3705 218.0054 417.7869 218.1237 418.441 218.0639 418.9464 218.0042 419.3625 217.7664 420.1359 218.2703 420.5227 218.5669 420.6415 218.3591 420.3735 217.9437 420.4923 217.6765 420.8788 217.6168 421.1762 217.676 421.4139 217.4978 421.5922 217.2603 422.2163 216.8145 422.6625 217.0814 423.1382 217.0514 423.7328 216.9322 423.9708 217.1101 424.2091 217.6739 424.5067 218.1782 424.5964 218.8905 424.7795 218.9978 425.1021 219.1869 425.459 219.1867 425.875 218.8896 426.1721 218.5333 426.7965 218.4141 427.5402 219.0666 427.8082 219.6897 427.7789 220.2833 427.6904 221.3814 428.0475 221.8858 428.5532 222.2119 428.7024 223.132 428.3761 224.2006 427.7821 225.1211 427.9013 225.5959 428.4076 227.0202 428.527 227.6434 429.1517 228.3256 429.6899 228.4506 430.0438 228.5328 431.4111 227.968 431.8868 228.1162 432.2733 228.0269 433.373 227.5514 433.7295 227.0466 434.3238 226.4527 434.8292 226.4524 435.6915 226.63 436.1374 226.5407 437.0289 225.6202 438.2476 225.1149 438.4953 225.2589 439.3183 225.7376 439.6749 225.5891 441.6971 226.3894 442.8268 226.2999 443.5402 225.9136 443.9861 225.8243 444.4917 226.0022 444.938 226.7144 445.2358 227.9311 444.5523 228.6141 444.3746 229.8607 445.1776 230.6914 444.8806 231.3742 444.0784 232.443 444.4056 232.8881 444.7927 234.1048 445.2096 235.8261 444.9126 236.4495 444.8243 238.349 445.6571 239.2094 445.6712 239.3777 445.7467 240.2779 446.3117 240.6931 447.4714 241.494 448.5716 242.4137 449.2852 242.9475 449.6423 243.7192 450.0587 244.4017 450.6532 244.4904 451.1886 245.3213 451.6942 245.974 451.9917 246.7456 452.2593 247.1611 452.4114 247.2242 452.6161 247.3093 453.1512 247.6059 453.6566 247.7244 453.8648 247.9916 454.1323 248.2586 454.6674 248.4365 455.0539 248.5254 455.6483 248.2283 455.9752 248.1393 456.213 248.2579 457.1047 248.2576 458.7989 247.8416 459.3042 247.8415 459.8095 247.7819 460.077 247.9599 460.1069 248.4942 460.0774 249.1472 460.1964 249.4736 460.1965 249.8891 459.9588 250.2157 459.5725 250.7797 459.6618 251.2843 459.8105 251.4029 460.2267 251.7887 460.3457 252.0261 460.4319 252.0835 460.7024 252.2635 461.0294 252.5008 461.4456 252.7678 461.5348 252.7678 461.832 252.7083 462.3372 252.5895 462.575 252.6785 462.4859 252.8566 462.1888 253.3019 461.9809 253.8658 461.9215 254.1626 462.1296 254.222 462.3972 254.6078 462.3378 254.9046 462.4865 255.2607 462.635 254.8748 463.1996 254.6372 463.5266 254.6668 463.705 255.1417 463.4972 255.8838 463.7648 256.4476 463.6163 256.9522 463.8542 257.4567 464.3299 258.1987 463.7059 258.7627 463.7357 259.2969 463.6169 259.5642 462.8147 260.425 462.6069 261.642 463.4605 262.3237 463.464 262.307 463.8987 261.066 464.9519 260.2566 465.8432 259.7708 468.1125 261.9553 468.6796 261.3078 469.7332 262.4406 470.0571 260.9839 471.2725 260.8219 472.0018 260.6599 472.2518 260.4329 472.893 259.8506 473.9463 258.7984 474.5136 258.8793 474.9515 258.4731 475.648 257.8272 475.9721 257.3415 475.5669 256.9369 475.5668 256.0468 476.3435 256.0467 477.1064 256.0467 477.5115 254.3472 478.565 253.9425 478.7271 253.1332 479.8616 253.7805 480.2667 252.9713 481.4013 253.5377 483.3643 253.0673 483.4273 253.0521 483.8325 252.162 484.4644 252.0623 484.8222 252.006 485.2027 251.9459 485.3723 251.9192 486.0861 252.045 486.75 252.1621 486.9931 251.8383 487.1281 251.8704 488.6949 252.243 489.0306 252.1141 489.7484 251.8384 490.5589 250.9484 491.1263 250.301 491.256 249.7993 490.2835 249.6697 490.9967 248.8929 491.4507 247.9866 492.4232 247.8572 492.877 248.4399 493.4278 248.0149 493.9143 248.44 494.329 248.8541 494.4978 249.0227 494.8056 248.9716 494.8868 248.958 494.822 248.6991 494.8221 247.6632 495.7947 247.3397 495.2113 246.498 494.6927 245.5268 495.1466 245.1384 495.7301 245.4621 496.573 245.527 497.8698 245.1388 499.1018 244.88 500.1394 243.6502 500.7226 245.0746 500.7225 246.0457 500.1388 247.0166 500.5926 247.1462 501.2408 247.729 501.6298 247.5996 501.7366 248.0798 501.7594 248.1823 501.046 249.4123 501.1107 249.9949 502.0833 249.8009 502.4072 250.772 502.4316 250.967 502.4719 251.29 503.4447 249.9307 504.4821 249.6719 505.3467 250.0099 505.9731 250.2549 507.0751 251.1616 507.7779 251.1618 508.5014 251.162 509.0203 250.3205 509.7333 251.0976 509.9696 250.8617 510.3169 250.5151 510.7063 249.3499 512.3918 249.9331 513.6778 249.0348 513.4946 248.1207 515.1155 247.8624 515.2549 246.5215 515.5704 244.9492 514.9871 244.3016 514.9873 243.6542 514.3523 242.6311 513.8858 241.6987 515.0268 242.2688 515.4419 241.9064 514.6121 241.3882 515.2504 241.0062 515.3903 240.9224 515.0794 240.1971 514.1458 239.8343 513.4716 239.2125 513.5756 238.5911 513.6149 238.48 513.8872 237.7108 514.3025 236.8822 513.9395 236.416 513.6283 236.2086 513.421 235.6389 513.4212 234.9656 513.0581 234.9655 512.2802 234.2919 512.2804 233.5669 513.1323 232.508 513.7336 231.8582 514.3043 231.5476 515.4982 229.5282 516.7957 228.2857 516.8997 227.6642 517.3149 227.3536 517.543 226.7975 517.7822 226.2144 518.1459 224.9198 519.028 224.6612 519.1321 223.8325 519.5995 222.6415 519.8594 221.6059 520.5855 222.2794 520.6371 222.8491 521.0524 222.3832 522.194 221.9694 522.1943 221.3996 522.091 220.3119 523.4917 220.6233 523.4396 221.1413 524.4258 220.2095 524.685 220.7275 525.2559 220.5206 525.9302 220.7799 525.982 221.0906 526.2414 221.039 526.0863 220.0032 526.8129 219.4855 527.0249 217.6546 527.0422 217.4451 526.7935 216.6992 527.7904 215.4153 527.9154 214.6281 527.459 214.1306 527.3347 213.5919 527.9578 212.8465 529.0375 212.1427 529.6598 212.8474 530.1168 212.1019 530.6152 211.5635 530.6986 210.8592 531.6949 210.8183 532.4013 209.7 532.9829 208.8717 533.6474 208.4163 534.1873 208.1266 534.1878 207.2151 535.018 207.2984 535.0599 206.5941 535.3096 205.6827 536.8047 204.7721 537.9678 203.6127 538.7158 202.5774 539.4634 202.1222 539.7988 202.0267 540.3353 201.8741 540.1282 201.2525 539.9629 200.0094 539.1829 199.4537 538.7847 198.7574 539.0512 197.5974 539.4997 196.7037 539.8161 196.0732 539.7838 194.7805 539.5186 193.9848 539.0203 194.0839 538.4884 194.8459 538.2226 194.8458 537.7248 194.2819 537.4594 193.5526 537.6922 193.1218 538.1248 191.962 537.6277 190.205 537.7276 189.8403 538.5586 188.946 538.5258 188.2499 538.4927 188.1505 538.9582 187.521 539.2231 186.5651 539.5911 184.8366 539.7091 184.3975 539.8708 183.7959 539.0741 183.0529 538.9148 182.7612 539.234 182.2575 539.6064 181.8601 539.9783 182.0724 540.4837 181.3833 540.3776 180.9856 540.75 180.6146 540.8301 180.0578 540.4054 179.2354 540.1402 178.4927 539.7685 177.9356 539.3701 177.4846 539.6627 176.981 540.0618 176.5039 540.5671 176.0005 541.2851 175.3911 541.1791 174.9668 541.2858 174.3834 541.7644 174.2777 542.2431 173.7478 542.3625 173.6084 543.3338 172.4757 543.9988 171.7603 545.1049 171.2413 545.2804 171.0742 545.5944 170.775 545.9567 169.5873 545.6807 169.0568 545.8725 168.5478 546.0858 167.5933 545.9585 167.2114 546.2143 166.4267 546.5761 166.1937 546.7678 165.5998 548.9794 165.7288 550.3616 165.7723 551.4675 165.6459 552.2969 165.6466 554.1044 165.7118 555.359 165.7128 557.4856 165.5874 557.6586 165.618 557.8471 165.6514 559.2433 165.686 560.8808 165.7267 560.9519 165.7284 563.2487 165.4336 565.4176 165.6691 565.7051 165.5985 567.3107 165.2043 568.161 165.4385 568.6938 165.3778 569.267 165.3124 570.5428 165.3986 570.9461 166.1202 569.2218 167.7943 569.5608 169.0461 569.7189 169.8921 569.7511 170.0646 570.2607 170.8076 570.7251 171.7034 570.8475 171.9395 570.6833 173.3536 570.4273 174.0639 570.4422 174.1636 570.6385 175.4854 570.5651 175.7625 570.3183 176.6942 570.0623 177.6061 569.6145 178.8148 569.3156 180.0661 569.9314 180.788 571.058 180.98 571.695 181.7232 572.4172 182.4452 573.221 182.6516 574.0742 183.6455 575.1071 184.4509 577.8484 186.5888 579.7321 188.0581 579.3831 189.1667 579.1913 189.5483 578.8705 191.2874 579.1247 192.0302 579.1025 192.8893 578.677 193.1645 578.0794 195.2428 577.5042 196.3876 577.1417 197.469 576.6938 198.7626 576.6426 199.501 576.629 199.6959 576.9043 200.672 577.3177 201.1927 577.4774 201.3939 578.7514 202.615 579.3889 202.8066 580.8341 202.9356 582.5979 203.3407 582.8741 203.3622 584.8506 203.5342 585.7858 203.6626 588.4635 203.9629 588.6967 204.4935 589.3768 204.5792 592.1909 206.6433 594.9827 208.691 595.981 209.1377 597.1706 209.5636 597.9565 210.0313 598.4655 210.7107 598.5918 211.6867 598.4846 212.3867 598.3969 214.4124 597.9909 215.9816 597.2038 216.5957 597.1815 217.3168 597.457 217.996 597.5833 218.8871 598.0079 219.2483 598.6234 219.7794 599.3029 220.2046 599.3447 220.6925 599.6352 221.4299 599.6624 221.4991 599.6615 222.2204 600.1253 224.8831 600.2077 226.856 600.1412 227.6885 600.0131 229.2953 600.2016 231.3319 600.2435 231.4633 600.3708 231.8625 599.9658 232.912 600.3008 234.0389 600.3254 234.1216 600.7066 235.0342 600.5996 235.5432 600.5979 236.7735 600.7452 237.8768 600.9997 238.2378 601.1058 238.3016 601.5387 238.7682 602.209 239.4909 602.8023 240.6797 603.2685 241.5712 604.829 242.2973 604.7206 243.8616 605.6232 244.075 606.2593 244.9774 606.3033 245.4234 606.3378 245.773 606.8157 245.9328 607.4523 246.3579 607.7167 247.2068 608.1133 248.4005 607.8201 249.1957 607.9252 249.9647 607.3134 250.7328 607.025 251.4717 606.8422 251.7888 606.6555 252.0562 606.488 252.2962 606.2814 252.4847 605.929 252.8064 605.8499 252.8785 606.5123 253.8871 607.0954 254.6702 607.3374 254.7435 608.2367 255.0165 608.7926 256.1575 609.9614 255.8674 610.093 256.6366 611.1547 256.9297 611.6319 257.4343 611.5776 258.2562 611.7279 258.7339 612.3997 258.9202 612.2127 259.742 612.1326 260.0601 612.177 260.5781 612.1848 260.67 613.1137 260.963 613.8299 261.3884 614.0431 260.8053 615.0516 261.178 615.5028 261.2052 615.9 261.9747 615.5357 262.8953 615.2604 263.5912 615.3852 263.5556 617.5712 262.9318 618.2072 263.7018 619.7998 263.9295 620.1727 264.7795 620.3819 265.2563 621.1251 265.39 621.365 264.754 621.5779 264.4361 622.2404 265.2326 623.0631 265.393 622.5568 266.5853 622.6878 267.7258 622.5015 268.0171 622.8186 268.9722 623.0831 269.556 623.2657 270.8927 623.2931 271.0942 619.5568 273.7261 619.3249 275.9288 618.6013 282.8078 618.0494 283.5271 617.9654 284.0737 618.3367 284.249 618.6619 284.6707 618.7077 284.7301 618.5543 285.0357 618.6404 285.8659 619.2519 286.4347 619.4909 287.3742 619.0639 287.9017 618.9433 288.0506 619.3141 288.6627 619.8227 289.9781 619.8803 290.127 620.1464 291.262 620.3882 292.2935 620.8158 293.1645 620.6618 293.8633 621.417 294.5619 621.5132 294.6509 621.1402 295.0146 620.4842 295.6541 621.0066 297.1839 622.122 296.9235 623.2144 297.362 622.5357 297.9944 622.6873 298.912 623.8448 299.6783 623.6251 300.377 622.2913 300.5496 621.9303 301.66 622.0166 301.9113 622.3968 303.018 621.4636 303.095 620.2963 304.2817 619.0498 304.5202 618.655 305.437 617.8015 306.0691 616.8655 306.0588 615.5281 306.0439 614.1614 306.5113 614.4417 307.8852 615.1089 308.7082 614.6049 309.5594 615.1065 310.412 615.3329 311.5116 615.147 312.64 615.2294 313.0132 615.3207 313.4266 615.826 313.9052 615.5202 315.051 616.3337 315.9007 616.7398 316.5794 617.8237 317.7166 617.6102 318.7756 616.8457 319.622 615.6162 319.4508 613.7929 319.4482 614.4696 320.7628 614.1716 321.5251 612.6442 322.1585 612.2137 323.0162 612.0915 323.2596 613.1935 323.6001 613.2664 324.7917 613.2764 324.9562 613.7852 324.9146 614.4631 325.3393 613.4869 325.9735 614.4607 327.0343 614.7642 327.3853 615.0109 327.6706 615.3069 328.3067 615.8159 328.1379 616.242 326.6131 616.9203 326.6564 617.4707 327.2928 616.6209 328.5204 617.0442 329.0295 617.0009 329.5379 616.2787 330.6387 615.8536 331.3797 613.6797 332.1712 613.3077 332.9121 613.3899 333.2593 613.5711 334.0249 614.7882 335.2449 615.2632 336.6227 614.2898 337.0589 614.2027 337.0979 613.9716 336.8936 613.4259 336.411 613.303 336.3021 613.1531 336.4682 612.8253 336.8311 613.6705 338.7922 612.5575 338.8436 612.0791 339.9024 609.5354 339.9519 609.7429 341.3117 609.8506 342.018 609.6899 343.3951 610.2842 344.6936 610.328 344.8588 610.8114 346.6806 609.8174 347.0104 610.1503 345.7529 608.1627 346.1474 607.5671 345.7494 606.6382 346.94 607.4324 347.4707 607.364 347.7594 607.3446 347.8414 607.1659 348.596 606.7015 349.1913 606.5014 350.2504 605.9047 350.7131 605.9727 349.389 605.3102 349.5206 604.78 349.7847 604.779 350.5741 604.7784 351.0427 603.5192 351.6371 603.1205 351.7112 602.4592 351.8343 602.5904 352.8277 603.9149 352.9618 603.0513 355.0132 601.0662 353.5541 600.9447 353.5843 600.5363 353.6858 601.3949 355.5408 600.7988 355.5401 599.8704 356.5984 598.4141 356.0007 598.2061 356.2772 597.817 356.7945 597.4182 357.9858 598.6753 358.9805 598.4202 359.1763 597.8136 359.6417 598.8707 361.7617 597.6125 361.6278 595.6725 364.125 594.3289 362.7785 594.0177 363.4764 592.591 366.8372 591.2994 365.2839 591.2997 365.0649 589.5628 366.1525 589.478 367.9363 589.8456 369.0119 589.8445 369.941 588.4859 370.4398 586.913 370.6525 586.8565 370.8776 586.6976 371.51 585.9833 371.0804 584.9114 370.7219 585.0539 371.2939 584.1236 372.222 584.0524 371.8645 582.7774 371.8632 582.7172 371.826 582.336 372.792 582.7634 374.1504 583.2634 374.5798 582.8337 375.2942 581.1895 375.4354 581.19 375.0066 581.0478 374.2202 579.4032 374.7189 579.0262 377.3399 578.9715 377.7204 577.6125 378.6483 576.6123 378.147 575.3967 378.6462 576.0417 376.7885 574.113 375.5 573.2484 376.4246 573.1113 376.5712 573.9673 378.4304 573.7992 379.2672 573.5936 380.29 573.5365 380.5743 574.7498 382.5052 573.6072 383.6458 573.1759 384.0762 572.96 385.6486 571.5303 385.9332 570.7449 385.0032 570.1023 384.3594 569.0876 384.1048 568.6731 384.0008 568.5202 384.1624 568.1553 384.5481 567.457 385.2863 567.3011 386.3705 567.2412 386.7871 569.0995 386.7887 569.6707 387.4325 569.0985 388.0038 567.4536 389.2174 567.4528 390.0751 566.9511 391.7902 566.5213 392.9334 564.5917 392.9318 563.3778 391.7157 561.6619 392.5721 561.4461 394.2874 560.5869 396.288 559.8674 396.9309 559.4491 397.3047 559.8672 397.162 560.0611 397.0958 563.094 396.7227 567.7296 396.5677 569.4909 397.0891 570.4009 397.6839 570.8186 397.9569 572.2617 399.0559 574.2531 400.5598 575.5379 400.9221 577.1551 401.1258 578.3104 400.9825 578.7724 401.0985 579.7534 401.995 580.2433 403.0642 580.7909 404.1625 581.8588 404.799 583.2159 405.0314 583.4963 405.0251 584.4288 405.0038 585.0496 405.1056 585.5401 405.4816 586.2334 405.3379 587.0714 404.7898 587.881 403.9819 588.4305 403.1448 588.548 401.2962 588.2602 400.4004 588.7226 400.1121 589.878 399.9689 591.0042 399.999 591.466 400.2306 591.7833 400.6065 591.927 401.2999 592.1574 401.8489 592.8781 402.9763 593.9456 403.873 595.3884 404.8568 597.1344 405.9131 597.9712 406.4918 599.5871 407.5335 599.962 407.9673 599.4993 408.5733 598.7769 408.9769 598.0828 409.8426 597.678 410.2754 597.3888 410.7085 597.2151 411.026 597.2723 411.4883 597.4474 411.5213 597.7343 411.5754 598.0811 411.3448 598.3706 410.6807 598.4866 410.2186 598.7466 410.1612 599.0061 410.5081 599.2067 411.8083 599.3064 413.0071 599.9696 413.8167 600.7195 414.5976 600.6608 415.3485 600.5588 416.1427 600.4426 416.7491 600.9904 417.4431 601.7978 418.4261 602.3163 419.38 602.1999 420.1598 601.3617 420.881 600.0045 421.0527 599.5136 421.081 598.6176 421.8022 597.7798 422.2345 597.0869 422.1759 596.8845 422.4067 596.7976 422.7822 597.317 423.0139 598.299 422.7261 599.1209 423.6081 599.3624 424.2708 599.3768 424.365 599.5526 424.7929 600.7062 425.8631 601.4566 426.1528 602.0342 426.009 602.1791 425.5471 602.0645 424.8536 602.3826 424.4207 603.3065 424.3352 604.2013 424.5961 604.375 424.2786 604.3754 423.8743 604.4914 423.4989 604.7512 423.4992 605.3286 423.5577 605.9056 423.9917 606.1937 424.4253 606.5404 424.3102 606.6274 423.9926 607.3209 423.5312 608.4757 423.6193 609.1694 423.0136 610.181 422.1483 610.615 421.3979 610.8027 421.4125 611.062 421.9039 611.1769 422.3662 611.6966 422.3957 612.6204 422.4258 613.3993 422.9179 614.8122 424.364 615.3026 424.6535 616.0828 424.2213 616.2851 424.106 616.6308 424.6552 616.9182 425.6378 617.2635 426.5626 618.1293 426.7659 618.5046 426.7664 618.7362 426.3624 618.8814 425.7849 619.8052 425.8149 621.6813 426.2219 622.1716 426.5403 622.2996 427.9993 622.3281 428.2303 622.992 428.3468 623.5696 428.2321 624.4062 428.6954 624.9829 429.1873 624.8954 429.8226 623.4225 430.196 622.3826 430.599 622.0932 431.1186 622.0636 431.5807 622.6117 431.957 623.3786 432.0046 623.5643 432.0161 624.1419 431.8724 625.5269 432.4232 626.2778 432.1932 626.5669 431.9048 626.7983 431.6162 627.7795 431.9065 628.7603 432.4567 629.165 432.024 629.7143 431.5049 630.2912 431.8524 630.3485 432.1412 632.3097 433.444 633.2286 434.2004 633.5928 434.5002 634.5451 434.8193 635.267 434.6471 635.7008 434.1567 636.0763 434.0417 636.3354 434.5043 636.3059 434.8509 636.3057 435.0242 636.6521 435.0825 637.3161 435.0257 637.663 434.7085 638.1251 434.6225 638.3552 435.1139 638.5857 435.4032 639.2497 435.4042 640.0863 435.7521 640.432 436.2437 640.7627 437.0674 641.0505 437.5877 642.0607 437.7338 643.0407 438.6885 643.0104 439.6416 643.3271 440.1621 644.7702 440.2799 645.1745 440.1939 645.5215 439.7612 645.8107 439.4728 646.4746 439.5028 647.3981 439.6486 648.4657 439.9103 649.2165 439.7672 649.8522 439.3927 650.2277 439.2778 651.8438 439.5116 653.8798 438.9805 654.6317 438.1731 655.2963 437.7698 655.9893 437.6266 657.2595 437.6866 657.7796 437.312 658.4744 436.2444 658.8799 435.3786 659.5446 434.9754 660.1509 434.9187 660.6696 435.4395 661.3615 436.0184 662.2277 435.8755 663.1237 435.2706 663.9614 434.9832 664.5682 434.6088 665.7374 434.6253 666.7761 434.8583 667.5556 434.8597 668.1054 434.1675 668.5972 433.5329 670.0701 433.1891 671.0225 433.3064 672.3805 432.7024 673.1856 432.4547 673.5936 432.3291 674.6909 432.1868 675.9324 432.0448 676.6538 432.2194 677.3599 432.8707 677.8774 433.8826 678.049 434.7494 678.1611 436.4826 678.7089 436.8303 678.9977 436.7731 679.5181 436.3697 679.6922 435.9079 680.443 435.7649 680.7891 435.939 680.8612 436.5261 680.9027 436.8634 681.1619 437.1816 681.4509 437.0378 681.7975 436.8941 681.885 436.461 682.0301 436.0857 682.5205 436.2311 683.1536 437.2145 684.1035 438.5739 684.8821 438.9509 685.3441 438.894 686.0092 438.26 686.6179 437.0192 686.9659 436.2112 687.3702 436.1253 689.3426 438.5699 690.0336 439.4378 690.8987 439.815 691.5928 439.1521 692.1428 438.4313 692.3177 437.5651 692.6643 437.4792 693.1544 437.769 693.2392 438.6646 693.2367 439.8776 693.2636 440.802 693.7533 441.3229 693.8688 441.3231 694.0996 441.3236 694.3022 441.0641 694.4767 440.4001 694.5937 439.7072 694.8258 439.13 695.0859 438.9861 695.7789 438.8431 696.2111 439.1907 696.2524 440.1872 696.423 441.3717 697.5437 443.7713 698.1476 444.8124 698.6093 444.8711 699.0428 444.6121 699.3026 444.5837 699.7056 445.1334 700.0788 446.0584 700.482 446.5214 702.3995 447.3197 704.2725 448.7679 705.3675 449.579 706.0294 450.418 706.2297 451.2271 706.9221 451.402 707.2948 452.5002 709.3693 454.0644 710.4206 455.0054 711.2846 455.8449 711.4565 456.394 711.1379 456.9132 710.5317 456.9696 709.4935 456.6496 707.7332 456.588 707.2996 456.9048 707.2986 457.3669 707.5286 457.7428 708.163 457.9752 708.7101 458.583 708.0427 460.2278 708.0848 460.7622 708.5012 461.257 708.7181 461.5146 709.3224 462.2956 708.8019 462.7856 707.8196 463.3033 706.6933 463.7051 706.1436 464.3683 705.9109 465.2054 705.9373 466.3607 706.1234 467.0399 706.1508 467.7331 705.6581 468.714 705.6519 471.6023 705.7356 472.9887 705.8634 473.8988 705.4289 474.7066 705.1677 475.428 705.3976 475.8907 706.292 475.9503 706.955 476.2117 706.9541 476.6449 706.4628 476.9905 705.9124 478.0291 706.0263 478.7802 706.174 478.8711 706.5448 479.099 707.036 478.8112 707.4695 478.4944 708.0473 478.1202 708.4518 477.8901 708.9146 477.3134 709.1772 475.9855 709.5827 475.2931 710.3333 475.0926 710.8523 475.267 712.062 476.2517 713.0702 477.0625 713.6466 477.3238 713.9648 477.0068 713.9663 476.2847 713.9962 475.8226 714.4871 475.5927 715.0931 475.594 715.3808 475.9701 716.7758 477.9227 716.8895 478.7028 717.1772 479.0789 717.2913 479.6568 716.8274 480.6955 715.7865 481.6752 715.9583 482.311 716.1011 482.9178 717.325 483.9747 718.5356 484.4973 719.573 485.0772 720.869 486.0621 721.2144 486.4384 721.2411 487.3337 719.3916 488.7159 718.15 489.2619 717.5141 489.8092 717.4548 490.4734 718.5057 491.4432 718.7353 491.9924 718.3581 492.9448 717.3764 493.3469 716.769 494.0676 717.1775 495.9152 717.2546 496.2637 718.2897 497.8255 720.8267 498.4955 722.3118 498.7154 722.916 499.4388 722.8269 500.565 722.6508 501.922 722.7937 502.5289 723.4555 503.2524 725.1845 504.0361 725.9902 504.9332 726.5783 506.3353 727.4419 507.0592 728.2215 506.7145 728.5392 506.542 729.577 506.8331 730.135 507.195 730.8731 507.6737 732.0239 508.9471 732.5698 509.8436 733.9812 510.6557 735.2911 511.7417 736.6442 512.8134 738.0273 513.3365 738.7773 513.3095 739.4703 512.9357 739.8472 512.1568 739.9068 511.3772 739.3037 510.2494 738.7 509.4393 738.3559 508.5721 738.5304 507.9371 739.0497 507.9094 739.5982 507.7086 740.4363 507.0175 740.9305 505.4013 741.337 504.3048 742.0309 503.6423 742.5215 503.528 742.6363 503.7593 742.8934 504.7707 743.668 506.5054 743.4046 508.0932 742.9397 509.4784 743.0245 510.2294 743.3698 510.5769 743.8606 510.347 744.2654 509.9437 744.7563 509.685 745.3901 510.0042 746.065 510.6359 747.0447 511.5533 748.0834 511.4114 748.9478 511.7601 750.5338 511.8796 751.7738 511.9981 752.4047 513.4438 752.4902 513.7905 753.2404 513.7058 753.8455 513.9094 754.1612 514.5167 754.5054 515.2973 754.6786 515.2111 755.0544 514.8655 755.2579 514.2306 755.7214 513.4232 756.9478 513.1519 758.9357 513.9945 760.5751 515.7315 762.5306 517.9602 763.5082 519.0601 763.5641 519.7534 762.9867 519.9829 762.2376 519.721 761.1724 518.9964 760.3366 518.8209 759.9616 518.8488 759.6424 519.5989 759.7562 520.2057 760.5923 520.3233 761.3712 520.2098 762.7636 522.6248 763.883 524.7069 764.4854 525.9503 764.7347 526.0343 765.004 526.1249 765.3507 525.8659 765.6981 525.3181 765.7001 524.5672 765.818 523.5857 765.9911 523.5572 766.5102 523.5586 766.7987 523.5016 767.3188 523.0986 768.0124 522.5228 768.7636 521.9762 769.0819 521.5727 769.9473 521.4884 771.2149 521.9537 771.8764 522.6486 771.8597 523.4716 771.5404 524.2505 770.2993 524.7093 769.8659 524.9969 769.7213 525.1986 770.153 525.4886 770.6721 525.49 772.1711 525.6672 772.8897 526.5354 773.147 527.3736 773.9235 528.1843 775.3622 529.3144 775.5639 529.3726 775.7087 529.1709 777.0189 524.4673 777.6822 524.4402 778.5186 524.3847 778.7201 524.5296 779.2959 524.8778 779.8713 525.3702 780.3024 525.8623 780.329 526.6999 779.8047 528.6333 779.4565 529.4409 780.5039 531.3064 781.9699 532.9853 780.7251 534.8301 780.8449 534.9847 782.3629 536.9427 783.2972 537.9703 784.1319 538.4924 785.3133 538.7267 785.5685 540.3157 785.7667 541.6446 786.0523 542.656 785.9632 543.5799 786.7537 544.4629 786.7793 545.6469 787.3831 546.2261 787.1502 547.0917 787.2343 547.9294 787.7223 548.7105 788.1536 549.1448 788.0917 550.6752 788.2616 551.8019 788.9913 553.782 789.3344 554.8514 789.3326 555.5155 789.9072 556.2102 789.8743 557.6829 790.4468 559.186 790.5173 559.7494 791.12 560.7329 791.0877 561.9745 791.5466 562.8421 791.6572 564.5461 792.3452 565.9918 792.3425 566.9737 793.302 569.1854 793.6445 570.457 794.4483 571.6142 795.9139 573.2065 795.5095 573.523 794.6162 573.4628 794.1549 573.4905 793.8375 573.634 793.3319 574.1091 793.53 575.438 793.9574 577.2585 794.153 579.5113 794.381 580.4649 794.2631 581.4464 794.39 582.4431 794.46 583.2374 794.1762 583.3609 793.8209 585.7672 792.7981 587.8436 792.8964 587.8712 792.76 588.4654 792.3277 588.9994 791.9356 589.9462 792.1129 590.6036 791.9891 591.7851 791.5989 592.5969 790.6441 593.6192 789.6572 593.3692 789.2913 593.3542 788.9747 593.7316 788.3414 595.0846 788.3602 596.6789 788.4272 597.5108 789.7771 600.305 789.7721 601.2156 789.3857 601.9028 789.1367 602.6178 789.2689 602.7661 789.0256 603.0856 789.1346 603.4162 788.9409 603.9387 788.5747 604.185 786.1404 603.4634 785.7848 602.9119 785.7318 602.141 785.4478 601.4367 785.0197 601.2859 784.6897 601.4502 784.6252 601.5173 784.0562 602.1092 783.4366 602.9021 783.475 603.8144 783.8785 604.9196 785.5287 606.3523 785.7775 606.6866 785.3538 606.7834 786.3662 607.4466 787.2441 609.5457 787.7507 611.4108 788.7229 612.9975 789.3009 613.9004 789.479 613.7821 789.6565 613.9882 790.5337 614.6512 791.898 615.6188 792.6435 616.2602 793.4269 616.4239 794.3483 615.8173 795.0287 615.0296 794.9081 613.5621 795.3329 612.7156 796.3028 612.1954 797.4952 612.124 796.4746 614.9302 795.9901 618.1339 795.9327 619.0972 795.9278 620.52 796.5408 621.2235 797.2461 621.7561 798.8104 621.8349 799 622.3811 798.9987 622.8766 798.31 623.7005 797.6486 624.5521 797.2363 625.4898 797.2054 625.9824 796.6001 626.4212 795.7419 627.2033 795.4174 627.1338 795.5288 626.501 795.2004 626.0872 794.478 626.2293 793.8036 627.7209 794.344 629.3321 794.6677 630.2975 794.5561 630.9855 793.7861 631.3963 792.7505 631.6759 791.1781 634.8082 789.6839 636.522 788.7185 637.1367 787.6472 637.2991 787.3459 636.9955 787.4015 636.748 788.2276 635.8142 789.2426 634.2806 788.8647 633.641 787.7396 633.3353 787.3556 633.1417 787.3574 632.4259 787.8803 631.9868 788.5945 631.9061 789.1008 631.4426 789.6977 630.0646 789.8909 629.6521 789.7025 629.2039 788.052 629.2345 786.7052 629.6715 785.6869 630.5499 785.0536 631.2089 784.5029 631.2404 784.3668 631.3448 783.7899 631.3984 782.9653 631.6716 781.975 632.3849 781.3967 632.9891 781.2583 633.4292 781.2852 633.6771 780.955 633.9515 780.2148 633.4267 779.2832 632.5434 778.5681 632.9821 778.1271 633.6417 777.8423 635.2976 778.89 636.1212 780.1482 636.7222 779.9287 638.1058 780.3382 639.0978 780.3954 639.5719 780.5113 640.5316 780.3058 641.1074 779.6457 641.5737 778.2161 642.2309 777.1147 643.4945 776.6165 645.1175 777.3274 646.358 778.5588 647.0237 779.2742 647.5465 779.601 648.6209 778.4711 650.3525 779.292 651.8795 778.9079 656.7325 778.2321 658.4178 777.037 660.4619 776.2854 663.3725 775.0109 664.1548 774.3462 664.5628 774.1941 665.8319 772.9747 667.4375 771.7295 668.8134 770.6011 668.0534 771.064 666.7209 770.1147 665.7809 768.5328 666.2669 767.8495 666.913 767.1146 667.6079 766.3585 668.1579 765.8984 668.4927 764.3565 668.7218 763.9726 669.5383 763.5225 670.1588 762.7884 670.5298 761.9606 670.9481 762.1075 672.1699 762.3293 672.4827 762.8532 673.2217 762.78 674.3193 763.298 674.9798 763.5216 675.7399 763.5718 676.8234 763.9546 677.6385 764.4445 678.3467 764.8704 679.0335 763.6592 680.8184 763.3854 681.5384 763.3044 681.7515 762.984 683.0573 763.8331 684.2599 764.7286 685.1191 765.325 686.0204 765.7304 687.1708 764.6072 689.9315 763.5837 690.7738 762.0426 692.0133 762.5959 693.0217 763.5142 693.238 764.3046 693.3041 765.0462 693.517 765.7123 694.4858 767.2745 696.0612 766.3681 697.4231 766.366 698.4087 766.7475 699.8453 767.4724 700.5327 768.7516 701.5159 768.3762 702.934 766.7191 703.0811 765.6202 703.4508 764.6813 702.4228 763.9658 701.7465 762.961 702.0443 761.9002 702.0984 761.463 703.1554 761.2997 704.3375 760.8397 704.8255 760.1065 705.2311 758.9387 704.6285 758.3025 704.3327 757.0803 704.4318 755.5194 705.0285 754.676 706.579 754.5342 707.8809 754.9991 708.6491 755.7913 709.0694 756.3647 710.1984 756.2235 711.1902 756.3001 711.5237 756.562 711.8808 757.4968 711.9913 757.6351 712.3559 757.4902 713.1279 757.281 713.5526 757.4191 714.0334 757.403 714.3667 756.3272 715.1705 755.7844 716.0918 756.3989 717.8758 757.593 719.6145 757.4908 720.4436 756.6395 721.0774 755.7641 721.5907 755.4962 722.2142 755.6625 723.3713 755.5652 724.5535 755.5192 725.3973 755.7248 725.8418 756.3879 726.391 756.7071 726.7334 756.874 726.8065 757.375 727.1925 758.2519 727.7791 758.9746 727.9582 759.6092 727.9596 760.1994 728.0201 760.9368 728.2141 761.5706 728.6151 761.8206 729.0301 761.6132 729.4294 761.6119 730.0512 761.4633 730.4802 761.2561 730.8055 760.8492 731.3302 760.5973 731.8182 760.8031 732.2331 761.3186 732.6636 761.3768 733.1078 761.346 733.7 761.2875 733.9161 761.1379 734.4694 761.0556 734.9947 761.0549 735.3056 761.1279 735.7203 761.8927 736.9211 762.0467 737.4173 762.222 738.2616 762.0277 739.4307 761.6186 740.4381 761.5532 740.5993 761.4411 741.243 761.4105 741.7907 761.7481 742.6353 762.3946 743.9542 762.4669 744.6946 762.5471 745.1463 762.549 745.3009 762.5597 746.2271 762.3227 746.6559 761.9534 746.892 761.5549 746.9208 761.0533 746.8754 760.7139 746.8895 760.4186 746.9925 759.99 747.3025 759.7532 747.6425 759.9585 748.2796 760.3189 748.8799 760.819 749.5915 761.2608 750.0662 762.0559 750.8672 762.114 751.2967 761.7153 751.4736 761.0509 751.6646 760.4604 751.8263 759.6331 752.3131 759.1154 752.9783 758.9173 753.2456 758.9322 753.8153 759.076 754.4389 759.5724 754.6684 760.2562 754.4829 761.1257 754.5262 761.7248 755.1922 762.4054 756.5649 762.7142 757.3965 762.9812 758.4983 763.1037 759.3503 762.9886 760.0046 763.1065 760.4822 763.1939 760.836 763.8342 761.6476 764.2473 762.0848 764.2673 762.4588 763.9964 763.2893 763.4565 764.0777 763.1342 764.773 762.6772 765.5201 762.0757 766.0591 761.4749 766.2241 761.1265 766.2234 760.626 766.2224 759.6832 766.584 759.4133 766.9575 759.3711 767.3937 759.4738 767.7887 759.9286 768.1012 760.8379 768.9964 761.9222 770.3595 762.4591 771.0462 762.6031 771.462 762.3746 771.8771 762.1254 772.2298 761.9177 772.5826 761.896 773.0396 762.0606 773.5801 762.4731 774.3912 762.7619 774.932 762.7197 775.3059 762.5121 775.6171 762.1807 775.658 761.9323 775.6575 761.6633 775.5739 761.3836 775.6876 761.2166 776.3937 761.1883 776.925 761.1735 777.2039 761.255 777.9104 761.5021 778.5342 762.0182 779.2832 762.6173 779.9908 763.02 780.4591 763.4537 781.0001 763.515 781.3742 763.5348 781.8729 763.2028 782.267 762.9324 782.8482 762.6419 783.2216 762.6818 784.0112 762.8261 784.582 762.9077 784.905 763.3207 785.4876 763.3715 785.9136 762.7074 786.7433 762.023 787.4276 761.8558 788.196 761.44 789.1509 761.0248 789.7734 760.8372 790.4171 760.6803 791.2375 760.7246 791.4367 760.865 792.0689 761.4012 793.1088 761.7634 793.3608 762.2695 793.713 763.2206 794.2758 764.0067 794.5474 764.9478 794.9337 765.5475 795.2465 765.8778 795.7043 765.9804 796.1616 765.5243 796.5554 764.7162 796.9278 763.5761 797.7358 762.7049 798.6483 762.4352 798.9594 761.47 800.36 760.7845 801.6052 760.7 802.5192 760.6786 802.914 760.8762 803.694 761.0481 804.4521 761.409 805.1904 761.6115 805.4912 761.8012 805.7729 762.4006 806.1896 763.848 806.9611 764.8615 807.3994 765.8543 807.7545 766.8673 808.3383 767.5911 808.7136 767.818 809.0881 768.737 810.1598 768.7982 810.617 768.1777 810.4289 767.4327 810.3235 765.7562 810.3618 763.3964 810.378 761.9477 810.3336 760.1155 810.5483 759.7585 810.5476 759.2668 810.5467 758.0043 810.5027 757.0356 810.5768 756.3893 810.8113 755.706 810.9555 755.3683 811.1309 755.188 811.2247 755.1253 811.5777 754.6283 811.6599 753.9037 811.7624 753.4589 811.6474 752.838 811.6046 752.1959 811.8736 752.1173 811.8389 751.865 811.7275 751.5962 811.5816 751.2857 811.581 751.0783 811.7884 750.6033 811.2473 750.1073 810.7893 749.6731 810.4768 749.0733 810.268 748.3906 810.0589 747.0454 809.9111 746.6287 809.8972 746.3831 809.8891 744.6758 809.6886 743.3514 809.5408 743.0615 809.5209 742.7304 809.4981 741.6336 809.3092 740.3713 809.1615 739.3158 809.035 738.4673 808.9296 737.8877 808.9286 737.3702 808.9484 737.1216 809.0518 737.0321 808.9968 736.7494 808.8226 736.2086 808.7703 735.7663 808.7275 733.5065 808.6076 732.9308 808.5771 732.0821 808.5341 731.4493 808.5034 731.1921 808.491 730.9962 808.5609 730.6122 808.6978 730.1152 808.8216 729.9494 808.9252 729.9491 809.0706 730.2181 809.2166 730.0314 809.4448 729.7411 809.6729 729.327 809.7553 729.0788 809.6302 729.1206 809.4017 729.3897 809.4229 729.5969 809.2779 729.5559 809.0076 729.349 808.9657 729.4944 808.6751 729.9085 808.6135 730.2193 808.4686 730.3436 808.3441 730.3604 808.2729 730.1581 807.9698 729.9518 807.4915 729.7896 807.31 729.3318 806.8879 728.67 806.5751 728.0909 806.2417 726.3837 805.896 726.0026 805.8384 725.411 805.7489 724.0038 805.4972 722.8863 805.2875 722.1719 805.201 722.0171 805.1822 721.1686 805.0146 719.8028 804.7214 719.3165 804.6271 718.9439 804.6265 718.5301 804.522 718.6121 804.3169 718.731 804.2787 718.8448 804.2447 718.8449 804.1421 718.7882 804.0279 718.7588 803.8575 718.8003 803.7158 718.8685 803.6516 718.9142 803.4805 719.0963 803.2641 719.0967 803.0474 718.9152 802.8417 718.8359 802.6819 718.5863 802.4533 718.3251 802.259 718.0866 802.1559 717.78 802.0527 717.6551 801.9613 717.4621 801.8583 717.2351 801.6754 717.1251 801.6016 716.8774 801.4866 716.5593 801.372 716.298 801.3031 715.8662 801.2112 715.6391 801.1766 715.571 801.1194 715.5711 801.0282 715.5713 800.9141 715.4692 800.7884 715.3332 800.5715 715.1402 800.4115 714.8336 800.2285 714.5723 800.1482 714.4475 800.0795 714.2543 800.0336 713.5955 799.85 713.2772 799.8153 712.9024 799.655 712.5047 799.5973 711.8003 799.4365 711.022 799.2927 710.8062 799.2353 710.6187 799.2292 710.4823 799.229 710.3913 799.2517 710.289 799.2858 710.1867 799.2514 710.1756 799.1487 710.3006 799.1033 710.3689 799.0578 710.4258 799.0008 710.426 798.8753 710.4149 798.7384 710.4152 798.5331 710.5403 798.4648 710.6199 798.4308 710.6995 798.3967 710.7586 798.3597 710.8816 798.26 711.0066 798.2374 711.1204 798.1463 711.1661 798.0552 711.2759 797.9352 711.7611 797.7476 711.9685 797.5194 712.0726 797.1456 712.3214 796.8966 712.3219 796.5849 711.9916 796.0026 711.7647 795.4828 711.4861 794.8901 711.0734 794.0791 710.6186 793.642 710.2053 793.1634 709.8953 792.8097 709.5233 792.4143 709.3373 792.2062 709.5148 792.215 709.5018 792.0775 709.4315 792.1009 709.1633 792.042 708.9072 791.8308 708.2779 791.4787 707.6721 791.0329 707.2993 790.7748 706.5767 790.3756 705.9006 790.1639 704.9681 789.7878 704.0356 789.3883 703.1964 789.0593 702.1238 788.7533 701.0279 788.4238 699.3843 787.754 698.0319 787.354 696.3998 786.8131 695.4205 786.4838 694.4879 786.2014 694.2376 786.1076 694.0549 786.0233 693.4785 785.7908 692.7751 785.5583 692.3945 785.4882 692.2099 785.4879 692.1981 785.6384 692.0942 785.673 691.9444 785.5802 691.91 785.4528 691.9218 785.2675 691.7719 785.1747 691.4375 785.1047 691.0452 785.0578 690.7339 784.9879 690.6186 784.9646 690.5949 784.9026 690.1044 784.6966 689.3074 784.5524 688.533 784.4141 688.6247 784.0484 688.7738 783.8139 688.7275 783.6838 688.6601 783.5287 688.4482 783.2378 688.1301 782.8982 687.8024 782.5732 687.4119 782.2529 687.0118 781.9763 686.7899 781.8742 686.4715 781.7285 686.1628 781.6117 685.9794 781.5727 685.6996 781.519 685.4921 781.4413 685.2509 781.4022 685.0579 781.368 684.7733 781.2513 684.2475 781.0374 684.0737 780.9887 683.8791 780.9023 683.7708 780.8775 682.2355 780.454 681.1944 780.2069 680.2062 779.8892 679.3415 779.6246 678.5121 779.4834 677.5592 779.1481 676.7473 778.9893 676.1297 778.8304 675.7062 778.7599 675.6066 778.7463 675.1856 778.6893 674.7091 778.5657 674.1091 778.4422 673.3151 778.3186 672.115 778.001 670.6856 777.8069 669.0974 777.4893 667.4386 777.1187 666.6092 776.854 666.3798 776.5716 666.253 776.6018 666.0092 776.6599 665.4621 776.6951 664.7209 776.5363 664.2444 776.3951 663.8916 776.3246 663.4151 776.1658 662.8151 776.0069 661.8621 775.7775 660.9887 775.5834 660.3004 775.4069 659.6298 775.2657 658.924 775.0893 658.1475 774.8775 656.8416 774.5598 656.0651 774.5069 655.5181 774.4187 654.6711 774.2422 653.7533 774.0128 653.224 773.9422 652.7299 773.7834 652.0593 773.7128 651.1593 773.5893 650.5946 773.554 650.4682 773.5319 649.8887 773.4305 649.0769 773.3246 648.2829 773.2893 647.7093 773.1481 647.1269 773.0599 646.1387 772.9893 645.1152 772.9363 644.2681 772.8834 642.9799 772.7246 641.8152 772.5481 640.827 772.5481 640.0329 772.5481 639.7682 772.4246 639.327 772.1775 638.6212 771.9834 638.218 771.9483 637.6681 771.8599 637.1918 771.6658 636.8211 771.6128 636.2387 771.5246 635.7976 771.4717 635.3211 771.3304 635.254 771.3103 634.7917 771.1716 633.9182 770.6423 633.4899 770.6264 632.8241 770.4305 632.4468 770.2761 631.9594 770.1834 631.2006 770.0599 630.3888 769.9011 629.7712 769.7952 628.7477 769.8128 628.3947 769.5834 627.8124 769.354 627.8829 769.1069 627.83 768.9305 627.6101 768.6664 627.5476 768.4011 627.0888 768.154 626.4889 767.7305 625.9771 767.554 626.03 767.2188 625.73 766.7952 625.5006 766.3893 625.0947 766.0717 624.4417 765.9129 623.5594 765.6128 622.6065 765.2246 622.0241 764.9776 621.1419 764.607 620.6301 764.3776 620.383 764.2187 620.3124 763.9717 620.3477 763.7247 620.3565 763.5129 620.2859 763.054 620.0036 762.6305 619.7919 762.2952 619.3376 761.9077 619.0507 761.5364 618.5742 761.2717 618.0272 761.1305 617.6742 760.9894 617.6212 760.7246 617.4624 760.5129 616.9507 760.16 616.4389 759.7717 615.9624 759.4188 615.448 759.3097 615.3801 759.2953 615.1154 758.9776 614.4095 758.5541 613.7213 758.3247 612.8918 758.06 611.8684 757.6717 611.3919 757.6011 611.3037 757.3541 611.2161 757.3262 610.9154 757.2306 610.333 757.0364 609.8919 756.8247 609.2566 756.56 608.4449 756.3482 607.6154 756.1188 606.3183 755.9247 605.3654 755.607 604.289 755.3776 603.0537 755.1659 602.2419 755.0247 600.8831 754.7776 600.5971 754.6346 600.4949 754.5835 600.089 754.5835 599.736 754.4247 599.0831 754.2482 598.4654 754.1776 598.1655 753.7012 597.6008 753.3659 596.9831 752.9953 596.189 752.6777 595.1302 752.4482 594.3663 752.2191 594.0714 752.1306 593.842 751.813 593.6282 751.448 592.7831 750.9306 592.2891 750.86 591.989 751.0012 591.8832 750.6482 591.6361 750.4718 591.1949 750.3129 590.8597 750.1894 590.3126 750.0306 590.0126 749.8718 590.0126 749.5012 590.145 749.0953 589.8979 748.5483 589.2097 748.1777 588.6096 748.1071 588.4331 747.7894 587.7803 747.2953 587.1803 747.0483 586.7214 746.8895 586.3509 746.5718 586.0332 745.8307 586.0509 745.2836 585.7332 744.7895 585.7218 744.6306 585.7156 744.5424 585.2568 744.4366 584.8332 744.2777 584.5156 743.9071 584.0745 743.4659 583.7568 742.9895 583.492 742.6365 582.945 742.46 582.592 742.213 582.2215 741.8248 581.5509 741.6307 580.8803 741.4189 580.4391 741.1718 579.7686 740.6954 579.2833 740.2603 578.8773 739.8307 578.4185 739.1425 577.8539 738.6483 577.2362 738.2954 576.2127 738.0836 574.6128 737.3592 574.3421 737.2366 573.8695 737.0815 573.7536 737.0761 573.6928 737.0311 573.6003 737.0233 573.2129 736.9905 573.0397 736.9295 572.7885 736.7032 572.639 736.5102 572.5286 736.4422 572.1301 736.2246 571.5583 735.946 571.0989 735.7805 570.755 735.6076 570.1458 735.4407 569.6433 735.2143 568.9414 734.9008 568.8249 734.7079 568.4656 734.5719 567.3892 734.166 566.6039 733.9366 566.506 733.9059 565.1393 733.4777 563.9569 732.7719 563.1227 732.5205 562.6686 732.3837 561.3452 731.2013 559.5098 730.319 559.0157 730.1072 557.0217 729.5425 555.0628 728.8895 553.8098 728.5719 552.557 728.1484 551.4827 727.8308 551.3736 727.7864 550.071 727.2572 548.571 726.772 547.6224 726.3087 546.5636 725.7572 545.8798 725.7131 544.6224 725.4264 543.6519 725.1617 542.6151 725.0072 541.2696 724.6984 540.0784 724.3896 540.1721 724.2858 539.3639 724.2854 538.7367 724.2852 538.2355 723.4462 537.4413 723.0264 538.0687 722.4815 537.6928 721.4329 537.2749 720.7617 536.9386 720.4015 536.6481 720.0904 535.185 719.5446 532.7603 718.7887 529.9175 718.1167 529.2213 717.8432 527.033 716.9834 524.0232 715.4726 523.9397 714.9273 523.9817 714.2563 523.3131 713.4593 521.6986 712.492 521.3066 711.8231 521.3068 711.0682 520.3453 710.313 519.4881 709.8757 519.0702 709.6626 516.52 708.3618 514.4714 707.3548 513.259 706.5996 513.2173 706.1801 513.9282 705.8867 513.7971 705.4169 513.6357 704.8381 513.4544 704.5522 513.0505 703.9154 512.1726 703.0764 510.751 702.447 510.4166 702.1534 510.4167 701.7339 508.6188 700.7271 506.7791 699.8459 502.0332 698.1047 500.4444 697.3077 499.6721 696.8749 499.5601 696.901 498.2282 696.4686 494.8411 695.4197 493.9515 695.1648 492.4994 694.7485 490.7012 694.2452 489.8231 693.9096 489.1854 693.7968 488.4013 693.6579 487.8995 693.4483 485.7463 692.7837 484.3115 692.341 484.07 692.2654 481.7355 691.5358 478.3231 690.8984 478.2196 690.8436 478.0437 690.8555 477.5879 690.7867 477.4164 690.7326 477.3527 690.6786 477.2202 690.6383 477.0047 690.6098 476.8772 690.6983 476.8233 690.7916 476.6469 690.8113 476.6028 690.6835 476.6028 690.482 476.5489 690.31 476.3969 690.2117 476.1126 690.1429 475.9705 690.074 475.843 690.0544 475.6911 689.9708 475.4362 689.9905 475.4362 689.8185 475.4411 689.7448 475.3186 689.6464 475.2156 689.5383 475.2891 689.4499 475.4117 689.5629 475.6127 689.6317 475.7058 689.5285 475.7597 689.4793 475.8479 689.4793 475.8479 689.3614 475.9263 689.3565 476.0292 689.2777 476.0733 689.0419 476.0733 688.8648 476.0194 688.7518 475.9213 688.6585 475.8331 688.57 475.8454 688.4889 475.914 688.4004 475.9973 688.3464 475.9973 688.2431 475.9875 688.1743 476.1248 688.1693 476.2522 688.2086 476.1542 688.366 476.1885 688.4741 476.3699 688.6264 476.5218 688.6215 476.6296 688.5625 476.7126 688.4649 476.7058 688.3496 476.7515 688.2342 476.6851 688.2172 476.6592 687.9796 476.6663 687.8621 476.7203 687.5868 476.6712 687.2968 476.6303 687.1524 476.5891 687.0066 476.6009 686.9387 476.6142 686.8624 476.5487 686.7365 476.5045 686.6038 476.3918 686.4563 476.4187 686.2081 476.2667 685.7657 476.0805 685.5741 475.8229 685.3584 475.5805 685.2153 475.3887 685.0268 475.1884 684.9007 474.9237 684.8172 474.757 684.6991 474.4409 684.5001 474.2702 684.4205 474.1566 684.3674 473.8674 684.2299 473.5095 683.9693 473.485 683.8858 473.3453 683.8194 472.7277 683.5343 472.4336 683.3771 472.2865 683.3526 471.2319 682.7825 470.5105 682.3936 470.0948 682.2338 468.2871 681.5387 468.068 681.4545 466.8133 680.8339 464.9061 680.029 463.0323 679.2912 461.9442 679.0108 461.8612 678.9894 461.4597 678.8217 461.2589 678.5533 460.5897 678.0837 460.1881 677.7483 459.7531 677.5135 460.0207 677.3793 460.2214 676.8759 460.2548 676.5068 460.8253 676.2683 460.9239 676.0706 460.5558 675.8022 460.6156 675.738 460.3885 675.6345 459.853 675.1313 459.2172 674.6953 458.9459 674.5788 458.7488 674.4941 458.1464 674.1587 457.3099 674.0583 456.4064 673.7564 455.2687 673.287 455.001 673.1529 454.7657 672.958 454.1575 672.8653 453.8893 672.6683 452.811 671.8756 450.5668 671.1563 450.387 669.8063 449.3997 669.7165 446.886 668.1873 446.7968 668.1116 446.4243 668.1604 446.3647 668.1328 445.6689 667.182 445.46 666.9727 445.1637 666.7204 444.9333 666.5715 442.3073 665.1287 439.165 663.1498 438.0878 662.9701 436.023 662.161 435.4828 662.1195 434.856 662.0714 430.2772 659.8233 426.1472 658.0252 427.8524 657.3944 429.1984 656.2237 428.21 653.9742 426.5035 652.085 422.5525 649.6569 420.4874 649.028 417.704 648.0395 416.7822 646.9318 416.3565 646.4202 414.1851 645.2784 413.7022 644.7488 413.1962 644.104 411.9547 643.4135 411.2193 643.2757 411.0811 642.815 411.4488 642.7687 411.449 643.0913 411.7707 643.045 411.9542 642.4458 411.6779 641.4784 411.7235 641.0175 410.5279 640.1427 409.3785 639.8669 408.5511 639.7292 407.6773 639.0386 406.2974 637.6571 405.1025 636.5237 404.7797 636.3218 404.1819 635.9996 403.5838 635.2627 403.5831 634.1862 403.4387 634.3645 403.5677 634.923 401.9379 633.5061 400.0517 633.3355 398.1207 630.4151 395.6332 628.6123 394.3036 627.4962 394.6456 626.3357 393.1419 624.6277 391.9857 623.5448 390.5786 622.0804 389.8406 621.3122 389.4532 619.336 389.6238 618.1758 389.3653 616.6291 388.8864 615.193 388.8496 615.0827 387.4338 613.7518 386.4039 612.5497 384.5172 612.1645 384.0885 612.1219 383.8301 610.7472 380.6128 608.6875 377.958 606.6855 377.8242 606.5846 373.7496 604.7838 368.9891 603.3275 369.9742 602.2524 369.7594 601.7799 370.3591 601.3067 370.7878 601.2633 371.1586 600.7629 371.1207 599.9833 371.0256 598.0278 370.7306 597.4274 369.7522 596.891 369.7411 596.2588 369.4775 595.553 369.0522 595.2856 368.9845 595.3007 368.8954 595.2499 362.8973 591.708 362.3377 591.3776 361.5589 590.9178 361.7297 590.316 360.0565 589.3726 357.7825 588.1721 357.0527 587.3564 356.1089 586.9278 355.7223 586.3697 354.9499 585.855 353.8775 585.5125 352.6749 583.7092 350.1861 582.2943 349.6143 581.837 349.1131 581.4362 348.3833 580.8356 346.5819 580.494 345.5948 579.8078 344.3071 578.8211 343.9629 577.8763 343.6538 577.3787 343.1895 576.6312 343.1091 576.4193 343.1807 577.2896 342.1096 576.5026 341.1386 575.885 339.3314 574.504 337.4182 573.3714 335.5396 571.9581 334.406 571.1053 332.9174 569.8304 331.9244 568.5549 330.7189 567.2442 330.6665 567.1826 329.5132 565.8271 327.741 564.3399 326.2771 562.78 326.1454 562.6395 324.727 561.1164 323.4864 560.1605 322.1747 558.921 320.5964 556.4543 320.5423 556.3696 318.8403 554.7407 317.9523 552.8266 317.904 552.7901 314.8912 550.8221 313.9551 550.3109 312.3301 549.4119 311.1289 548.6713 309.7259 547.6847 309.0972 547.2426 307.577 545.7247 306.605 544.8601 305.4564 543.9958 304.52 543.3256 302.3637 541.3846 300.4544 539.4964 299.5528 538.5787 298.7814 537.7611 298.0002 537.0235 297.6235 536.7217 296.5125 535.6648 296.0066 535.2696 292.6018 532.9704 290.6511 531.3068 289.1266 530.3165 286.9992 528.9017 286.999 528.7881 286.9957 526.951 286.6325 525.9114 286.4261 525.3206 281.8059 521.8669 281.77 521.8096 281.6163 521.5644 281.1056 521.3004 280.5566 520.7526 280.2348 520.5072 279.5721 519.8082 279.5778 519.663 279.5901 519.354 280.0526 519.0598 280.3948 518.4611 280.4858 518.302 280.4943 517.9473 280.5132 517.1617 280.5209 516.8447 280.5145 516.8008 280.484 516.5895 280.4574 516.406 280.4358 516.256 280.4251 516.1825 280.4496 515.8947 280.4623 515.7443 280.4814 515.5202 280.4991 515.3118 280.2339 515.0284 279.912 514.6695 279.4336 513.8688 279.3811 513.781 279.0021 513.214 278.6233 512.8362 278.2826 512.5341 278.206 512.0611 278.0539 511.5315 278.1286 511.0961 278.0245 511.0111 277.6741 510.6239 277.3513 510.3923 276.5953 509.85 273.8789 507.6506 273.0841 507.1412 271.4958 506.8226 270.3223 505.9545 269.442 505.2466 268.7795 504.7747 268.1928 504.3785 268.1159 503.7732 267.7179 503.244 266.6772 502.6595 264.9657 502.1994 263.377 501.6917 262.9992 501.5464 261.7123 501.0517 260.3312 500.3733 259.3283 499.8835 257.9283 499.2051 256.3574 498.2433 256.339 498.1955 254.8272 494.2443 253.33 492.4687 252.8715 492.085 250.6126 490.1944 249.1526 488.1728 248.4705 487.4552 248.4222 487.3642 247.6636 485.9336 247.209 485.4994 245.4677 484.5193 244.4078 483.954 242.6959 482.9659 241.6158 482.3425 235.7399 479.6976 229.8651 477.5828 227.8598 476.9822 224.8694 475.5515 223.6317 475.1316 223.3273 474.9971 220.6019 473.7173 219.2096 472.6139 218.432 471.6697 217.8823 471.0656 218.2022 470.516 218.8716 469.9576 218.8239 469.8156 218.225 468.981 217.2075 467.7891 215.8323 466.7176 214.3379 465.7658 210.5154 464.5216 209.4397 464.158 205.0801 462.6846 198.8685 460.7307 198.816 460.7127 194.2401 459.146 193.8509 459.0127 191.7561 458.4492 187.6996 457.3581 183.0996 455.6395 182.3661 455.4439 177.7842 454.2219 173.962 453.2779 173.3817 453.144 169.3637 452.217 169.3629 451.9518 169.3055 451.9452 168.3718 451.7384 168.1589 451.6551 168.0096 451.5966 167.4285 451.5317 166.9141 451.4475 166.7416 451.4033 166.3995 451.3158 166.1641 451.3406 166.0912 451.2936 165.9043 451.2792 165.7328 451.232 165.4847 451.0708 165.4644 451.0599 165.1509 450.8908 164.7983 450.7967 164.6721 450.6826 163.1126 450.3561 162.7937 450.2894 162.2006 450.1103 162.043 450.1368 161.8644 450.0977 161.7528 450.0732 161.3381 449.9133 161.1308 449.8633 160.7696 449.9496 160.7399 449.9567 160.6438 449.8316 160.6072 449.8327 160.4818 449.7526 160.253 449.6676 160.0812 449.5538 160.0344 449.54 159.8239 449.4784 159.7952 449.4785 159.6716 449.4788 159.4523 449.3938 159.0711 449.2712 158.7851 449.1672 158.566 449.1298 158.3564 449.1019 157.9561 448.9508 157.9748 448.8649 157.8819 448.8706 157.6416 448.8851 157.5863 448.877 157.3844 448.8477 157.1098 448.7904 157.1041 448.9272 156.4197 448.7464 156.3487 448.6387 156.2858 448.5432 156.1382 448.4787 155.8018 448.1372 155.4508 447.5793 155.0445 447.1892 154.7433 446.9177 154.725 446.8891 154.4836 446.5132 154.3654 446.2328 154.2866 446.0456 154.1967 445.8728 154.1741 445.8293 154.0894 445.5571 154.0793 445.452 154.0678 445.3335 154.0707 445.2722 153.8724 445.075 153.737 444.9389 153.3665 444.5316 153.032 444.316 152.7121 444.1784 152.6311 444.111 152.6252 444.1091 152.3836 444.0316 152.0722 443.928 151.7252 443.778 151.6334 443.7384 151.1521 443.5452 150.673 443.373 150.2251 443.2099 149.8628 443.0856 149.8501 443.0812 149.3479 442.9066 149.2411 442.9007 149.1037 442.8676 148.9304 442.8312 148.9042 442.8194 148.8971 442.8302 148.8394 442.8094 148.5668 442.716 148.5057 442.6953 148.158 442.5812 148.1452 442.5764 148.1123 442.5655 147.7176 442.4346 147.6009 442.3945 147.4448 442.3408 147.0588 442.1966 146.6755 442.0873 146.3863 442.0048 146.3797 441.9679 146.3757 441.981 146.1376 441.9289 145.9722 441.8864 145.7804 441.8441 145.5699 441.7987 145.5291 441.7821 145.4098 441.7197 145.2874 441.6803 145.1353 441.6445 144.9732 441.5822 144.6259 441.4776 144.5493 441.4548 144.3513 441.3959 143.8716 441.2288 143.6464 441.0907 143.5753 441.0342 143.4973 440.9721 143.3582 440.8734 143.3873 440.708 143.3607 440.6617 143.2051 440.5498 143.0032 440.4612 142.8277 440.3725 142.7217 440.2969 142.6089 440.1683 142.4828 439.9739 142.4242 440.027 142.3467 439.9465 142.1035 439.7065 141.9443 439.5494 141.8234 439.4446 141.7541 439.3846 141.61 439.2597 141.6035 439.2541 141.5325 439.2188 141.4263 439.1661 141.293 439.0997 141.2021 439.0546 141.1138 439.0107 140.993 438.9507 140.8926 438.9008 140.8293 438.8693 140.6822 438.786 140.4844 438.6739 140.1814 438.5021 140.1781 438.51 139.777 438.3204 139.7629 438.314 139.5769 438.2302 139.3839 438.1434 139.166 438.0451 138.9967 437.9642 138.8855 437.911 138.5768 437.7748 138.4257 437.7082 138.1863 437.6027 138.0725 437.5527 137.7705 437.4199 137.5272 437.3021 137.5231 437.3111 137.4696 437.2942 137.3326 437.2035 137.0855 437.0096 136.9286 436.8516 136.5737 436.6477 136.2559 436.3793 136.2176 436.2795 136.2126 436.2852 136.1618 436.1806 136.1514 436.1368 136.0479 435.9669 135.9907 435.886 135.9829 435.8427 135.902 435.7625 135.8205 435.5371 135.6549 435.3479 135.4394 435.2152 135.2558 435.0493 135.0761 434.9389 135.0354 434.9132 135.0439 434.8862 135.0303 434.8935 134.919 434.8354 134.6595 434.6999 134.4638 434.5977 134.2927 434.5082 134.2829 434.4732 134.0087 434.3397 133.9207 434.3098 133.8753 434.3989 133.5978 434.2271 133.007 433.8869 133.0035 433.8833 132.7552 433.627 132.7184 433.337 132.8437 432.8509 132.8253 432.6896 132.8734 432.4874 132.8694 432.2755 132.8946 432.0244 132.9608 431.8498 133.0549 431.7484 133.0613 431.7534 133.2756 431.6269 133.3632 431.6015 133.3716 431.592 133.509 431.6055 133.6816 431.67 133.8679 431.6857 134.1265 431.7035 134.2609 431.5306 134.3064 431.4363 134.3817 431.2804 134.4412 431.1571 134.4445 431.1431 134.476 431.0063 134.485 430.9674 134.4979 430.9112 134.5043 430.8832 134.5066 430.8694 134.5112 430.8412 134.5201 430.7262 134.5246 430.6688 134.529 430.5481 134.5309 430.4964 134.5648 430.3483 134.5734 430.311 134.6848 430.2058 134.7652 430.1548 134.8644 430.0921 134.9032 430.0676 134.9577 430.0434 135.0566 429.9995 135.2174 430.0105 135.3405 430.0314 135.3525 430.0334 135.4946 430.0492 135.6275 430.0953 135.6475 430.1176 135.6983 430.1743 135.742 430.223 135.7451 430.2631 135.7494 430.3185 135.7387 430.356 135.7148 430.4398 135.6609 430.5381 135.6547 430.5496 135.5874 430.636 135.5663 430.6504 135.4945 430.6992 135.418 430.795 135.4141 430.7979 135.3267 430.8639 135.3232 430.8595 135.2171 430.9831 135.1516 431.1024 135.1385 431.1156 135.1432 431.1171 135.1276 431.14 135.0707 431.1731 135.0267 431.2102 135.0239 431.2255 135.0225 431.233 135.0269 431.273 135.0099 431.2958 135.0097 431.3003 135.0086 431.3372 135.0113 431.353 135.0144 431.3713 135.0112 431.3835 135.0088 431.3928 134.9961 431.4227 134.9962 431.4556 134.9806 431.4784 134.9579 431.5112 134.9935 431.5226 135.0065 431.5553 135.0308 431.5709 135.0313 431.5849 135.0324 431.6122 135.0169 431.6778 135.064 431.7033 135.0884 431.7332 135.0332 431.7445 135.0766 431.7444 135.1172 431.753 135.0826 431.7965 135.1233 431.8341 135.1697 431.86 135.1755 431.8773 135.2016 431.8743 135.2052 431.8707 135.2189 431.8569 135.2595 431.8741 135.2683 431.9262 135.2483 431.9785 135.2571 432.0276 135.2746 432.0826 135.3123 432.0912 135.3675 432.1315 135.3879 432.1806 135.4284 432.1921 135.443 432.2037 135.4837 432.2441 135.5648 432.2611 135.5997 432.3044 135.5968 432.3393 135.6259 432.3653 135.7012 432.391 135.7679 432.4226 135.8259 432.4514 135.8723 432.4657 135.9273 432.4655 135.9402 432.4719 136.0181 432.5123 136.0589 432.5529 136.094 432.5619 136.1329 432.597 136.2106 432.6078 136.2441 432.6614 136.2646 432.6928 136.3056 432.709 136.3109 432.7111 136.3757 432.746 136.4572 432.7772 136.4686 432.7881 136.5035 432.8214 136.5591 432.8435 136.6128 432.8728 136.6759 432.9392 136.6987 432.9769 136.7038 432.9854 136.7223 433.0093 136.7105 433.0492 136.7106 433.0844 136.755 433.0971 136.7735 433.1575 136.7942 433.2154 136.8203 433.2616 136.8352 433.3022 136.8169 433.3596 136.8116 433.4206 136.8321 433.489 136.836 433.5464 136.8271 433.6222 136.8337 433.657 136.8374 433.6768 136.845 433.693 136.829 433.7543 136.8308 433.887 136.8388 433.9312 136.8465 433.9742 136.8391 434.046 136.8413 434.0553 136.8541 434.1068 136.8735 434.1488 136.9014 434.2091 136.9066 434.2237 136.9352 434.3029 137.0414 434.4304 137.0895 434.4906 137.1203 434.5518 137.1425 434.5872 137.2058 434.646 137.2519 434.6957 137.3802 434.8289 137.4167 434.8566 137.4913 434.9136 137.5501 434.9586 137.6122 435.0661 137.6126 435.1812 137.6127 435.2012 137.6205 435.3713 137.6342 435.4631 137.649 435.5876 137.6566 435.5948 137.7061 435.6406 137.7379 435.6989 137.7174 435.802 137.7382 435.9101 137.761 436.0149 137.8169 436.1134 137.8309 436.13 137.9293 436.2462 137.9215 436.2535 137.9545 436.2534 138.0035 436.2532 138.076 436.2569 138.1406 436.2567 138.1565 436.2777 138.1976 436.3329 138.231 436.3485 138.2731 436.365 138.3055 436.3776 138.3287 436.39 138.4075 436.4322 138.4503 436.4579 138.4913 436.4824 138.6771 436.37 138.7259 436.3501 138.8643 436.2938 139.0719 436.1992 139.2918 436.0853 139.4951 436.0535 139.7122 435.9708 139.794 435.9575 139.8716 435.9096 140.0095 435.8339 140.0633 435.8044 140.1086 435.782 140.1618 435.7557 140.1958 435.7389 140.2307 435.7471 140.2815 435.759 140.3739 435.7806 140.4926 435.7859 140.4977 435.8073 140.5704 435.821 140.6438 435.854 140.7881 435.9191 140.7936 435.924 140.9767 436.088 140.9893 436.0993 141.0404 436.1726 141.0775 436.2827 141.0786 436.3524 141.1271 436.3405 141.1777 436.2951 141.3187 436.2296 141.4121 436.2717 141.5084 436.3589 141.6673 436.4253 141.7406 436.5192 141.7563 436.5353 141.7743 436.488 141.7819 436.4648 141.7651 436.4487 141.7243 436.4096 141.5791 436.2797 141.5113 436.1704 141.4791 436.1296 141.4733 436.1271 141.3585 436.0781 141.2533 436.0187 141.1953 435.9674 141.149 435.904 141.1312 435.85 141.1134 435.8069 141.0922 435.7617 140.9929 435.6537 140.9265 435.6207 140.8447 435.6165 140.742 435.6213 140.6623 435.5917 140.576 435.5456 140.5041 435.5403 140.3903 435.5562 140.3085 435.531 140.3005 435.4503 140.3544 435.3805 140.4038 435.2852 140.4393 435.1679 140.471 435.0682 140.4797 435.0512 140.5347 434.9432 140.5829 434.8169 140.6844 434.6076 140.7008 434.5788 140.7404 434.4979 140.7964 434.4037 140.8569 434.3317 140.9724 434.3236 141.6144 434.3258 141.6263 434.3255 142.0332 434.3157 142.152 434.3129 142.1885 434.3127 142.324 434.312 142.4608 434.3112 142.6852 434.31 142.8078 434.3073 142.8455 434.3393 142.996 434.3842 143.0757 434.4115 143.1477 434.4798 143.1701 434.556 143.1748 434.6312 143.1649 434.6655 143.1385 434.7109 143.1288 434.7673 143.1135 434.8183 143.1126 434.8924 143.0968 434.9621 143.0794 435.0384 143.084 435.1286 143.1001 435.2617 143.1274 435.3346 143.1285 435.3464 143.1354 435.4175 143.1411 435.4615 143.1679 435.4542 143.2805 435.51 143.4057 435.6695 143.6452 435.855 143.7787 435.9632 143.7759 435.9504 143.9225 436.0131 144.0665 436.0428 144.1769 436.023 144.2381 436.012 144.3337 435.9308 144.4773 435.8444 144.6613 435.7934 144.8002 435.8055 144.9822 435.8807 145.1113 435.9787 145.2404 436.0944 145.3037 436.1649 145.3329 436.2054 145.4508 436.369 145.5253 436.5012 145.6342 436.364 145.7289 436.2535 145.8894 436.3631 146.0799 436.4577 146.0656 436.648 146.2046 437.2682 146.2211 437.2574 146.4889 437.3516 146.6418 437.5375 146.7286 437.6432 146.9048 437.8934 147.4469 437.9607 147.5323 438.0088 147.6009 438.0907 147.6132 438.1054 147.648 438.1974 147.66 438.3448 147.6811 438.4644 147.6837 438.5221 147.6173 438.6421 147.5876 438.7229 147.5696 438.8266 147.5808 438.9339 147.5838 438.9625 147.5946 438.9751 147.6231 439.0084 147.6623 439.0406 147.7062 439.0934 147.7342 439.1762 147.7322 439.2776 147.7165 439.3635 147.7141 439.3768 147.6846 439.492 147.6566 439.579 147.6549 439.5843 147.6183 439.6559 147.6002 439.7389 147.5474 439.8013 147.4831 439.8429 147.3263 439.9268 147.3855 439.9611 147.4086 439.9744 147.5358 440.0349 147.5182 440.3316 147.4978 440.5595 147.5166 440.6468 147.4968 440.7112 147.4669 440.8085 147.3922 440.9763 147.3995 440.9785 147.4533 440.8579 147.4688 440.863 147.604 440.9162 147.6329 440.7089 148.0848 440.0625 148.4203 439.6804 148.7853 439.3421 149.049 439.3413 149.2542 439.3992 149.4003 439.5354 149.4892 439.6182 149.5398 439.5252 149.7367 439.1631 150.1028 439.1619 150.3381 439.4543 150.2659 439.7476 150.3254 439.8025 150.4715 439.9374 150.483 440.1332 150.5499 440.1423 150.7103 440.2137 150.9188 440.0833 151.2003 440.0103 151.4214 439.7817 151.7567 439.6546 152.1703 439.6533 152.428 439.6284 152.5671 439.7178 152.6322 439.7597 152.6835 439.7479 152.8382 439.712 152.8454 439.7103 152.9556 439.7691 152.846 439.692 152.7742 439.6416 152.3502 439.4404 151.9134 439.0734 151.7866 438.9326 151.4572 438.965 150.8583 438.5027 150.7841 438.0755 150.6405 437.2475 150.6514 437.0145 150.4365 436.9003 150.3112 436.7341 150.2356 436.5429 150.2348 436.3097 150.2509 436.1348 150.3666 435.893 150.4245 435.7762 150.4431 435.5967 150.4487 435.543 150.4649 435.4264 150.4899 435.3915 150.0193 435.0441 149.895 434.6994 149.8624 434.6196 149.8019 434.4717 149.634 434.3337 149.573 434.1766 149.5825 434.1026 149.627 433.7574 149.706 433.4305 149.9329 433.1277 150.011 433.0327 149.888 433.115 149.7497 433.2516 149.6223 433.3718 149.481 433.4104 149.4729 433.416 149.2856 433.5472 149.2096 433.6345 149.1449 433.8089 149.1127 433.9342 149.0423 434.0406 148.9094 434.1363 148.8414 434.1474 148.7131 434.0281 148.5905 433.9442 148.5329 433.9506 148.4409 433.9609 148.2942 434.0268 148.2805 434.0395 148.1532 434.1579 147.8843 434.2949 147.7863 434.2652 147.8024 434.1863 147.8263 434.0147 147.8147 433.8242 147.8548 433.5982 147.8742 433.5352 147.9059 433.4319 147.9619 433.0886 147.3533 432.7919 147.2859 432.7605 147.2397 432.7389 147.3416 433.0555 147.3885 433.2622 147.3236 433.3631 147.0787 433.3503 146.918 433.3046 146.7899 433.2397 146.6507 433.1041 146.5484 433.0949 146.5338 433.0936 146.4764 433.0475 146.3647 432.9771 146.2365 432.8877 146.1275 432.8364 146.13 432.7764 146.2385 432.6755 146.252 432.6264 146.2352 432.6164 146.1566 432.5695 146.1346 432.5151 146.0721 432.5181 146.004 432.4993 146.0691 432.4555 146.0798 432.4092 146.0419 432.3793 146.0008 432.3468 145.9325 432.2791 145.9783 432.1455 146.2228 432.025 146.247 431.9623 146.1707 431.9299 146.0455 431.9112 145.9338 431.8436 145.9524 431.7129 145.979 431.697 145.9846 431.54 145.8795 431.5022 145.8762 431.5161 145.6254 431.5094 145.5464 431.3786 145.4747 431.2179 145.4413 431.1188 145.4369 431.1056 145.3019 431.0499 145.2867 430.9713 145.2492 430.9227 145.2453 430.8966 145.1854 430.8892 145.1405 430.9006 145.1857 430.9904 145.1522 431.0392 145.066 431.017 144.9983 430.9162 145.0248 430.9984 145.1487 431.1141 145.1302 431.1816 144.88 431.3471 144.6369 431.4042 144.5904 431.3669 144.5206 431.3109 144.4563 431.1201 144.4454 431.0916 144.4336 431.0603 144.3741 431.1504 144.3069 431.2143 144.1778 431.2204 144.0725 431.0897 143.8584 430.8694 143.7943 430.7198 143.759 430.6261 143.5734 430.6173 142.7816 430.5801 142.5165 430.7885 142.2772 430.8252 142.0553 430.6823 141.9477 430.6387 141.498 430.4566 141.2867 430.4045 140.923 430.3149 140.5339 430.2983 140.5121 430.2941 140.1686 430.2276 139.7738 430.2829 139.8154 430.1869 139.8177 430.0241 139.7674 430.1989 139.6945 430.342 139.6656 430.3989 139.5278 430.635 139.3843 430.8101 139.3096 430.8492 139.0765 430.9278 139.0689 430.9304 138.9138 430.9448 138.8139 430.9229 138.7166 430.8262 138.6553 430.7044 138.533 430.6051 138.4159 430.5349 138.4096 430.537 138.333 430.4969 138.2543 430.478 138.1778 430.4889 138.0907 430.4573 138.0344 430.4242 137.9608 430.3918 137.9433 430.3712 137.9068 430.3412 137.872 430.3227 137.872 430.3355 137.8741 430.4072 137.8687 430.5357 137.8358 430.596 137.7882 430.6431 137.7331 430.6976 137.6672 430.7483 137.5819 430.809 137.4907 430.8618 137.4482 430.8671 137.4298 430.8693 137.3964 430.8988 137.3511 430.9165 137.2777 430.9447 137.2095 430.9662 137.1711 430.9784 137.1503 431.0134 137.0891 431.0259 137.0534 431.0477 137.0403 431.0558 137.0053 431.0611 136.9792 431.091 136.96 431.0944 136.9285 431.0999 136.8688 431.1191 136.8569 431.1229 136.7853 431.1424 136.7484 431.1668 136.7065 431.141 136.6912 431.1746 136.6946 431.1836 136.646 431.1877 136.6091 431.2053 136.6054 431.254 136.5799 431.2762 136.5695 431.3101 136.5367 431.3275 136.5301 431.3497 136.5276 431.3539 136.5147 431.375 136.4961 431.4056 136.4525 431.4124 136.4089 431.4287 136.3227 431.4427 136.2951 431.466 136.2569 431.4936 136.2355 431.5233 136.1866 431.5369 136.1076 431.5647 136.0875 431.5842 136.0702 431.6198 136.0655 431.6392 136.0643 431.6574 136.0489 431.6702 136.0235 431.6965 136.031 431.7233 136.031 431.738 136.0244 431.7528 136.0084 431.779 135.9676 431.8134 135.9461 431.8202 135.9039 431.8244 135.8764 431.8325 135.8469 431.8346 135.818 431.8327 135.8113 431.82 135.8094 431.8062 135.7518 431.7691 135.7112 431.7693 135.5114 431.6997 135.4743 431.6518 135.4004 431.6336 135.4147 431.4894 135.4625 431.4263 135.5211 431.2894 135.5648 431.1934 135.5834 431.1524 135.6314 431.1264 135.6685 431.178 135.6869 431.1705 135.6646 431.1078 135.7051 431.0854 135.7532 431.1001 135.7863 431.0741 135.7861 431.0075 135.8514 430.9304 135.8928 430.8815 135.9516 430.7963 136.0179 430.7332 136.0398 430.6518 136.069 430.5445 136.1205 430.4778 136.1532 430.3299 136.1972 430.2261 136.2341 430.1704 136.2486 430.1484 136.3149 429.9841 136.3292 429.9485 136.3332 429.9298 136.3396 429.899 136.3363 429.8938 136.3289 429.8784 136.3505 429.5772 136.4534 429.0655 136.4344 429.0583 136.4827 428.9607 136.648 428.5423 136.7895 428.3094 136.7482 428.272 136.91 427.9323 137.0176 427.6508 137.1403 427.373 137.2224 427.279 137.2614 427.1946 137.2798 427.0746 137.3464 426.857 137.3511 426.5815 137.3839 426.3153 137.2973 426.2144 137.2858 426.117 137.2762 426.0551 137.3426 425.7438 137.496 425.6909 137.5259 425.672 137.5255 425.5596 137.4538 425.4211 137.2543 425.137 137.0925 424.9352 137.2607 424.8334 137.7169 424.6167 137.6941 424.6173 137.6323 424.6216 137.56 424.6218 137.5531 424.6219 137.5366 424.5135 137.5346 424.4197 137.5214 424.3275 137.5292 424.2732 137.5306 424.1826 137.5142 424.1293 137.548 424.0669 137.5668 423.966 137.5519 423.923 137.5376 423.8231 137.5361 423.8122 137.5277 423.765 137.5204 423.7481 137.5153 423.7232 137.5038 423.6536 137.502 423.6431 137.4954 423.6087 137.4831 423.5547 137.4709 423.5089 137.4668 423.4851 137.4657 423.4788 137.4531 423.4551 137.4404 423.4075 137.4355 423.3824 137.4231 423.3432 137.4241 423.3393 137.3777 423.2751 137.3495 423.2098 137.3385 423.1847 137.311 423.1166 137.2663 423.0457 137.2593 423.0344 137.2459 422.9653 137.2395 422.9407 137.2305 422.9067 137.21 422.8255 137.1947 422.7754 137.1353 422.6556 137.0989 422.618 137.0084 422.4518 136.9867 422.4119 136.8679 422.2721 136.8104 422.2043 136.7999 422.1924 136.6844 422.0615 136.615 421.9606 136.6123 421.903 136.6119 421.8956 136.6661 421.7612 136.6599 421.6288 136.6393 421.5392 136.6422 421.5242 136.6479 421.4862 136.6472 421.4604 136.6444 421.4321 136.6266 421.3782 136.6359 421.354 136.6192 421.3229 136.6189 421.3009 136.6133 421.285 136.6099 421.2755 136.5978 421.2528 136.5911 421.196 136.5825 421.151 136.5739 421.1153 136.5696 421.097 136.5645 421.0421 136.5694 420.9939 136.5754 420.9394 136.5934 420.8969 136.6133 420.8419 136.6313 420.8154 136.6646 420.7591 136.7171 420.7022 136.732 420.682 136.7601 420.6747 136.7913 420.6782 136.8128 420.6956 136.8321 420.7084 136.8539 420.7043 136.8893 420.6917 136.921 420.6854 136.95 420.6888 136.9751 420.7057 137.0155 420.718 137.0629 420.7228 137.1027 420.7329 137.1466 420.7464 137.1789 420.7563 137.2107 420.7763 137.2424 420.79 137.2665 420.7936 137.2875 420.8007 137.3239 420.8134 137.3364 420.8174 137.357 420.8344 137.3883 420.8414 137.4115 420.8471 137.4756 420.8496 137.4926 420.8437 137.5171 420.8427 137.5442 420.8484 137.5507 420.836 137.5965 420.8081 137.6605 420.7619 137.6912 420.7513 137.7021 420.6956 137.7865 420.6074 137.983 420.3088 138.0154 420.1721 138.0622 420.081 138.1465 419.9678 138.2151 419.8671 138.233 419.7467 138.2365 419.7228 138.2987 419.5846 138.3858 419.3741 138.3632 419.1828 138.3826 419.1148 138.474 419.0343 138.5356 418.98 138.6605 419.028 138.7375 419.0419 138.9101 418.9658 138.9597 418.9439 139.0222 418.8778 139.023 418.8612 139.0251 418.815 139.0782 418.7584 139.1185 418.6076 139.1203 418.5957 139.1437 418.4439 139.1645 418.3095 139.1671 418.1401 139.3013 417.9734 139.4934 417.9268 139.4898 417.9136 139.5112 417.8947 139.5615 417.9224 139.6521 417.9214 139.7653 417.9103 139.8222 417.9273 139.8783 417.9428 139.9322 417.9336 140.0293 417.9373 140.0886 417.9371 140.1835 417.9829 140.2503 418.0124 140.367 418.0729 140.4186 418.0901 140.4573 418.1023 140.553 418.1275 140.6988 418.1386 140.7593 418.1432 140.9874 418.14 141.1357 418.151 141.1342 418.1563 141.0824 418.3316 140.9533 418.5207 140.9452 418.5302 140.8475 418.643 140.6859 418.8274 140.6482 418.8663 140.5641 418.953 140.4832 419.025 140.3249 419.2165 140.3024 419.2439 140.1962 419.3868 140.1173 419.5576 140.1002 419.6256 140.0689 419.7497 140.0493 419.8923 140.0216 420.1083 140.0162 420.3258 139.9932 420.4701 139.9541 420.5757 139.9204 420.7298 139.9012 420.9518 139.9098 420.9514 139.9851 421.2877 140.1107 421.5796 140.1273 421.6183 140.2243 421.9328 140.2477 421.9637 140.2569 421.9583 140.3611 422.2008 140.3911 422.2705 140.3165 422.335 140.3418 422.4013 140.5241 422.4564 140.8046 422.8573 141.1049 423.1391 141.3987 423.4149 141.4192 423.434 141.4774 423.6411 141.5519 423.9062 141.6811 424.3661 141.6593 424.1884 141.5988 423.7627 141.5686 423.5854 141.5152 423.5265 141.3541 423.3364 141.3252 423.3024 141.366 423.1189 141.1881 422.948 141.1167 422.8417 141.0633 422.7592 140.9649 422.6614 140.9268 422.6236 140.8077 422.3579 140.6002 422.1871 140.4232 422.2824 140.405 422.2338 140.2859 421.9161 140.3055 421.9035 140.2755 421.8679 140.3846 421.7179 140.4809 421.651 140.6433 421.5075 140.6996 421.4573 140.7058 421.3143 140.6753 421.1247 140.6549 421.025 140.6513 421.0034 140.6414 420.9451 140.6677 420.8653 140.631 420.8454 140.5247 420.869 140.4185 420.9261 140.3255 420.9496 140.2224 420.9633 140.2022 420.8802 140.2852 420.8533 140.4016 420.8329 140.5344 420.7959 140.6139 420.7058 140.6604 420.679 140.6236 420.6226 140.6168 420.5693 140.5867 420.5228 140.5301 420.4998 140.5133 420.4466 140.5097 420.3602 140.4922 420.3761 140.4732 420.3936 140.4402 420.4635 140.4171 420.5102 140.3637 420.4571 140.3867 420.3772 140.3633 420.3639 140.2736 420.3743 140.2402 420.3112 140.2866 420.2778 140.4295 420.2407 140.496 420.2437 140.4892 420.2171 140.4791 420.164 140.5387 420.1138 140.4523 420.1208 140.3093 420.1146 140.2392 420.0351 140.2889 419.9983 140.4354 420.0244 140.4586 420.0077 140.5084 419.9776 140.4413 419.8081 140.3541 419.6055 140.3703 419.489 140.4032 419.3658 140.5256 419.2123 140.5751 419.0825 140.6913 419.0355 140.8343 419.0383 140.8568 419.0903 140.8645 419.108 140.9076 419.078 140.9405 418.9747 141.0201 418.9013 141.1695 418.8376 141.2324 418.7542 141.3056 418.7639 141.3586 418.7205 141.4684 418.7167 141.518 418.7631 141.5781 418.7116 141.8137 418.7005 141.9349 418.6088 141.1299 418.3804 141.2539 418.1342 141.2748 418.0929 141.4735 417.8879 141.6578 417.7754 141.9738 417.7451 142.1879 417.7882 142.4599 417.7094 142.824 417.5136 143.2027 417.3517 143.5281 417.229 143.8246 417.189 144.0871 417.1444 144.2865 417.1486 144.4762 417.182 144.5572 417.2068 144.6174 417.2253 144.8803 417.3265 145.1236 417.3598 145.3571 417.3978 145.477 417.4168 145.8452 416.766 145.9013 416.7183 147.0174 416.4296 147.0418 416.3532 147.5521 414.7615 147.4389 415.0473 147.0189 416.3553 145.3307 416.8102 143.452 417.0327 142.4912 417.1466 140.9581 417.5928 140.4832 417.6529 140.218 417.6829 140.1527 417.6893 139.4523 417.7835 139.3018 417.8026 139.0895 418.0083 138.6245 418.4587 138.4557 418.6222 138.0022 419.6526 136.6008 420.3761 135.9986 420.2369 134.9959 418.4461 134.9279 418.3473 134.2147 417.3125 133.9044 416.697 133.7958 416.4816 133.7732 416.4368 133.6906 415.5999 132.3892 413.9334 132.1691 413.6516 130.4399 412.3261 129.891 411.9053 129.1308 411.1106 128.7967 410.6034 127.7681 409.0422 126.4269 407.3925 125.3565 406.2893 124.3064 405.2072 123.2276 404.4549 121.3491 403.1448 118.1518 400.8841 115.1555 399.1012 114.4866 398.2465 112.1855 396.9156 111.9059 396.7435 110.3315 395.7745 108.7331 394.7599 106.8799 393.8422 106.0802 393.2074 105.6628 392.4754 105.9296 391.374 106.0196 390.9517 106.2428 389.9056 106.5559 388.4053 107.0351 387.2081 106.6408 387.9246 105.6029 388.1036 105.708 388.1481 105.7816 389.2779 105.6004 390.1089 105.1874 390.641 104.587 390.4358 103.9167 390.0463 101.7237 389.4553 101.4449 388.949 101.0549 388.6688 100.0583 388.1934 99.226 387.6663 98.856 387.391 98.6707 387.1842 98.2323 387.1397 97.9102 387.3024 97.4723 387.3734 97.3996 386.4973 95.9411 385.0733 95.0946 384.5026 95.0626 384.5464 94.4627 384.4566 93.7697 384.1595 93.3276 383.1927 92.8879 382.8255 91.6169 382.185 91.1557 382.1868 90.86 383.2027 90.4219 383.2045 89.8878 382.2842 90.185 381.6603 90.1838 381.3625 89.9292 381.131 89.1452 381.1803 88.3854 381.4601 88.1318 381.4843 88.0909 382.7528 87.6998 382.985 86.8213 382.4582 85.7813 381.9091 85.0302 382.1324 84.9998 382.2433 84.534 383.3201 83.5729 382.3836 83.2525 382.0491 82.073 381.1134 79.885 379.947 76.2836 378.182 75.0388 377.6651 73.962 377.2179 70.0252 375.589 66.8664 374.3217 66.7951 374.2931 64.5076 373.497 62.2173 372.0629 61.0035 371.6189 59.223 370.9678 56.4969 369.7373 51.1966 367.511 49.7662 367.0496 49.2456 366.8818 46.1162 365.6534 43.0527 364.1563 40.4606 362.9258 38.3116 362.0077 35.9506 360.9991 33.2918 359.9035 31.3063 359.107 28.5809 358.1461 27.2664 357.2122 26.3876 356.0746 26.3507 355.4032 25.9099 354.5322 25.3018 353.83 24.9129 353.5949 24.6954 353.4635 24.0017 352.4258 23.277 351.4219 23.1562 351.2547 23.084 350.214 23.4816 349.1039 23.9819 348.3627 24.9006 347.713 24.9862 347.6525 25.3968 347.0632 25.9508 346.174 26.0593 345.8467 26.0826 345.7756 26.3483 345.9566 26.3488 345.9598 26.3541 345.9633 26.3858 346.1839 26.3976 346.2555 26.3635 346.4049 26.3207 346.603 26.1531 347.0894 26.2032 347.3968 26.2091 347.4084 26.3262 347.6058 26.4048 347.7384 26.6158 348.0631 26.6218 348.0723 26.674 348.0877 26.7416 348.1075 27.2074 347.9379 27.3258 347.961 27.3272 347.9612 28.1439 347.3653 28.4411 347.2298 28.6214 347.1476 28.6517 347.1484 28.9923 347.1578 29.34 347.3116 29.6526 347.621 29.7959 347.7683 29.9552 347.9322 29.9652 347.9425 30.4086 348.0839 30.4822 348.1191 30.591 348.171 30.5978 348.1843 30.7575 348.4999 30.8874 348.7564 31.1106 348.9142 31.6378 349.3637 31.6923 349.38 31.876 349.4349 32.3075 349.9253 32.6113 350.3211 32.5494 350.6708 32.4561 351.1003 32.411 351.6407 32.4602 351.9424 32.6204 352.2116 32.5589 352.6409 32.529 353.0383 32.8006 353.3388 33.1824 353.4323 33.5953 353.3669 34.2926 352.9345 35.0419 353.4394 35.7593 353.9126 36.2866 354.4979 37.2755 355.2559 37.9777 355.8882 38.4086 356.2675 39.3007 356.724 39.6979 356.7062 40.0472 356.6252 40.4616 356.8774 40.6743 357.1013 40.9726 357.4153 41.4504 357.6196 41.9741 357.4742 42.3547 357.2817 43.2935 357.5475 43.9475 358.0528 44.4905 358.6381 45.1684 359.1673 45.7742 359.5776 46.2046 359.8616 46.8106 360.3196 47.3049 360.6828 47.7032 360.9034 48.4195 361.1384 48.9755 361.1041 49.7715 361.4024 50.3916 361.479 51.2039 361.8725 51.8566 362.1079 52.2544 362.2173 52.5798 362.1443 53.5341 362.3147 54.4556 362.263 55.3289 362.0842 56.1238 362.1441 56.3944 362.2383 56.7456 362.6021 57.1438 362.7911 57.7002 362.8363 58.4008 363.1349 58.88 363.673 58.9766 363.9428 59.2137 363.6557 59.2598 363.3059 59.5941 362.7929 59.6544 362.7004 59.985 361.9997 60.0161 361.8407 59.7756 361.3652 60.0761 361.046 60.6931 360.4235 61.1517 359.8971 61.8168 359.3698 62.1327 358.9235 62.3847 358.4139 62.4924 357.619 62.5067 357.2376 62.3608 356.6185 62.3994 356.3104 61.523 355.6426 60.9176 355.4774 60.244 355.1109 59.3344 354.544 59.802 353.9374 59.7006 353.8297 58.8569 352.9341 58.385 352.6004 57.5782 352.4697 56.5699 352.3735 56.1985 351.9722 57.64 351.2939 57.9372 350.1507 57.3962 349.3807 57.545 348.8426 57.1713 347.9376 56.9322 347.7007 56.4288 347.202 55.5535 346.8031 54.7434 346.5821 54.3425 346.4728 53.3982 345.7046 53.6962 344.7292 53.8948 344.0902 53.3532 343.2196 53.2607 342.879 52.8908 342.9065 52.6393 342.8599 52.3056 343.1485 51.8393 343.2224 51.1083 342.9985 50.6172 342.9051 50.2946 343.0023 50.0334 343.434 49.7355 343.6986 49.4478 343.5922 49.2077 343.426 49.0515 343.2951 49.0622 343.008 49.1446 342.7325 49.0364 342.6014 48.6892 342.5791 48.3066 342.6287 47.8872 342.523 47.4674 342.2977 47.1802 342.299 46.7147 342.5525 46.5956 342.6726 46.3568 342.7813 46.263 343.1885 46.0372 343.5244 45.7508 343.6932 45.5112 343.6226 45.1637 343.5165 44.9488 343.6132 44.7578 343.7098 44.6013 343.5191 44.3015 343.3771 44.0019 343.2708 43.4889 343.5961 43.1392 343.7145 42.9767 344.1009 42.7758 344.6282 42.6684 344.6885 42.5362 344.5695 42.4992 344.3304 42.4382 344.0915 42.2102 343.949 42.0187 343.926 41.8644 344.1899 41.6029 344.5619 41.4542 344.736 40.9039 344.7626 40.7155 344.7884 40.2701 344.8493 39.7919 344.9352 39.1701 345.022 38.788 345.1792 37.8915 345.3629 37.318 345.5451 37.1736 345.6726 37.1274 345.7134 36.6509 346.1582 36.1851 346.3399 35.7318 346.6171 35.3633 347.1212 35.0478 347.4396 34.7015 347.5968 34.3905 347.5982 33.9827 347.4088 33.5148 347.136 33.0835 347.0065 32.8555 346.8641 32.7111 346.7093 32.4494 347.0215 32.0692 347.5735 31.2925 347.7686 31.0323 347.9937 30.4702 347.6399 30.4621 347.6316 30.455 347.6273 30.1281 347.3037 29.8547 347.2001 29.7712 347.1255 29.7644 347.1222 29.3638 346.7752 29.1003 346.6888 28.6766 346.6033 28.3986 346.7513 28.3308 346.7987 28.3062 346.8003 27.7446 346.8523 27.5271 347.359 27.1751 347.3607 26.833 347.0785 26.7296 346.8519 26.732 346.8453 26.8491 346.4983 27.0212 346.0914 27.021 346.042 26.9966 345.8829 26.9616 345.7796 26.8648 345.6572 26.803 345.5913 26.5549 345.4136 26.5246 345.3932 26.4354 345.3319 26.2626 345.2268 26.2842 345.1612 25.945 344.4913 25.8964 344.3547 25.7065 343.8208 25.5972 342.0751 25.693 341.0671 25.7882 339.9249 25.4475 338.9527 24.1412 336.3399 23.5839 335.4359 22.8203 334.1972 21.6332 331.9532 20.0422 329.5769 18.6336 328.3018 18.4559 328.1409 15.2874 326.142 13.7801 325.2255 12.2204 324.2772 10.9405 323.6794 9.4918 322.9144 9.4537 322.0416 8.4114 320.2924 7.3392 319.2319 5.5178 317.8982 5.3802 317.8391 4.2044 317.3341 1.4745 315.7703 1 315.0005 1.6699 314.594 2.7791 314.6554 3.9551 314.6493 6.307 314.6034 7.3151 314.5981 8.7628 315.1279 9.1968 314.5884 9.6617 313.5114 10.2298 312.9041 11.6716 312.2922 13.3493 311.8135 14.7605 311.7726 15.8043 312.1702 16.0202 312.2451 16.3766 312.3688 16.577 312.1328 16.4388 311.3947 16.2315 310.2876 15.5535 309.1494 14.79 308.2433 14.7082 308.1463 13.8976 307.3446 14.3118 306.2007 14.6807 306.0645 15.7236 306.2606 16.9673 306.3214 17.2674 305.8498 17.2277 304.6747 17.2558 303.6 18.0229 302.4542 19.3022 302.8843 20.2117 303.2826 20.5644 302.4185 20.61 302.3067 20.7043 301.0302 21.0708 300.3903 22.1399 299.1425 23.2136 298.7676 23.4199 298.7602 24.3196 298.7285 24.7587 298.5918 25.0162 298.3046 25.3658 297.9146 25.894 297.1085 25.9356 296.8217 26.0888 295.7643 26.0489 294.5219 26.1588 293.2767 26.2921 291.7665 26.3078 291.5883 27.1527 291.0595 27.2601 290.9923 26.4406 290.084 26.4462 290.0201 25.9832 289.5622 25.4327 289.0178 24.6541 287.9473 24.9184 287.0392 25.8538 285.8927 26.5226 285.2176 27.7317 285.01 28.6399 285.1062 29.6152 285.2019 30.2531 285.0308 31.3308 285.4284 32.6104 285.8585 33.1188 285.7606 33.2121 285.1838 32.9717 284.1776 32.9004 283.372 32.9648 282.8008 33.1297 282.1618 33.0575 281.1883 32.5492 280.3849 32.8494 279.9133 32.9414 279.6748 33.148 279.1394 32.9431 278.5024 32.2685 278.0692 31.6917 277.0312 30.505 275.0559 29.76 274.0186 29.6393 273.4148 29.8705 272.6077 30.6412 272.1 31.3819 272.2977 32.4263 272.729 33.2679 272.9262 33.7691 272.3192 33.8655 271.4456 33.0875 270.5092 33.0515 270.0393 33.8862 268.8932 34.7395 268.4403 35.2275 268.1812 35.3933 267.7102 35.2896 267.1735 35.7235 266.5332 37.1632 265.317 37.1931 264.578 37.1542 263.5372 37.2495 262.4285 37.4466 261.5208 37.476 260.6811 37.6745 260.042 38.6637 259.4997 39.0345 259.6657 39.3067 260.3024 39.2425 260.9073 39.7488 261.2741 40.1519 261.2049 40.6884 260.9 41.2941 260.9641 41.2979 261.7364 40.4929 262.1435 40.1596 262.716 40.7986 262.7464 40.8431 262.7397 41.7058 262.6076 42.1737 262.0344 42.1665 260.5903 42.4296 259.4137 42.8985 259.0419 43.1975 258.3015 43.8667 257.6265 44.1325 256.9871 44.2984 256.5497 44.5982 255.9773 44.595 255.3392 44.5908 254.4997 45.431 254.3948 45.9055 255.1312 46.4804 255.7665 47.3556 255.93 48.2661 255.8915 49.3051 255.7189 49.8087 255.5485 50.7783 254.4018 51.4797 253.4245 53.1223 252.3416 54.5688 252.4018 55.2264 252.3222 56.0141 252.2268 57.358 251.9515 58.5673 251.6434 59.469 251.0583 59.506 251.0343 60.1758 250.4266 61.4193 250.2527 61.8876 249.713 62.283 249.3764 62.6348 249.0504 62.4021 248.3 62.1631 247.5623 62.4307 247.2587 63.268 246.5158 63.2971 245.5753 62.6545 244.8396 62.8535 244.2676 63.8257 243.5912 64.0575 242.8513 64.22 241.675 64.9929 241.5034 66.0356 241.4983 66.7407 241.2262 67.7458 240.3818 67.7833 240.3225 68.2799 239.5397 68.6132 238.8998 69.2165 238.4268 69.4173 238.1738 69.6177 237.9211 69.6478 237.1821 69.3375 235.6051 69.7034 234.7301 70.4745 234.189 71.7829 233.4439 72.2342 232.8372 73.0014 231.4566 73.7013 230.0762 75.3132 229.464 75.4097 228.5231 75.542 228.0522 76.3466 227.4439 77.2172 226.5665 77.5825 225.5572 77.951 225.2196 78.5909 225.351 79.129 225.3149 79.6994 224.9763 80.4064 225.0737 81.5832 224.9003 83.1294 224.5908 84.6733 223.7775 85.8135 222.9662 86.96 222.0478 87.1209 221.9189 87.8054 221.2293 88.1592 220.873 88.6617 220.4003 89.0286 219.6934 89.6638 218.8171 90.2692 218.7471 90.8389 218.2407 91.1715 217.3996 91.134 216.56 91.4364 216.4578 91.8749 216.691 92.2807 217.1257 92.5485 216.8222 92.6462 216.1164 93.7052 215.9101 94.1751 215.6392 95.0142 215.1652 95.6198 215.1288 95.6507 214.5241 96.0499 213.5146 96.8548 212.9064 97.6612 212.634 98.5664 211.891 100.209 210.4728 102.0574 209.9272 102.2228 209.2882 102.3185 208.1122 103.1209 206.933 104.4295 206.0538 106.005 204.636 108.4212 203.0465 109.6962 202.1677 110.4683 201.694 111.2808 202.7653 111.6222 203.8722 112.3311 204.3393 113.1364 203.7648 114.8828 202.9175 116.2262 202.2398 117.1634 201.0265 118.0664 199.7125 119.6986 199.6384 121.1087 198.7925 121.7201 198.2305 121.8798 198.0838 121.9206 198.1296 121.9826 198.1241 122.1872 198.2058 122.2648 198.2178 124.8982 196.7206 127.872 194.6245 127.9668 193.5327 128.3632 193.2334 129.253 192.0391 131.1413 191.8327 130.9361 190.3453 132.4251 189.7438 131.9704 188.0094 133.357 186.7138 133.1548 185.9209 136.6371 186.4025 137.8241 184.9093 138.12 184.3128 137.8154 182.8258 138.3098 182.1293 137.9071 180.9403 141.3708 176.8581 141.0655 175.1727 141.5607 174.6745 142.5609 176.0594 142.5564 174.968 144.9371 173.4701 146.3282 173.1668 146.0733 171.6298 148.0511 168.8437 149.0457 168.8397 150.5332 167.7423 150.3319 167.1477 150.6258 166.0551 152.4118 164.9566 152.109 163.8664 153.4009 163.5634 154.2865 161.1786 154.1331 160.1374 156.115 158.2442 159.2931 156.9418 161.478 156.0402 163.6565 153.4519 166.6359 152.1504 167.2831 152.2967 168.9759 152.6871 171.5595 151.8348 173.8446 151.081 173.7869 145.6205 173.6108 129.0041 173.6889 124.688 173.7275 123.0317 173.6507 123.05 173.5393 115.0312 173.5227 106.6906 173.5803 104.9934 173.613 103.9092 173.6372 103.1042 173.6976 102.1433 173.7889 100.8622 173.8652 99.8215 174.6345 99.4022 175.6948 99.4621 176.6891 99.0741 177.2021 98.8159 178.1649 98.588 179.2564 98.3917 179.9292 97.9089 180.2636 97.1551 181.2544 95.8386 181.9575 94.8754 182.4032 93.817 182.9138 92.9185 183.617 91.9873 184.2803 91.6146 184.707 91.3749 184.8658 90.8941 185.5713 90.5392 185.7773 89.8179 186.0009 89.4649 186.4164 88.8869 186.6732 88.822 187.0266 88.8207 187.0574 88.4683 187.4051 86.9621 188.2082 86.9271 188.1096 86.3511 188.3976 86.0298 188.2344 85.3581 188.8266 84.7635 189.5003 84.5048 189.5945 83.9281 188.6612 83.5153 189.2044 82.7129 189.9756 82.71 190.3275 82.3245 192.9549 80.3294 194.3337 79.5559 195.3235 79.5074 195.7474 79.4866 197.1931 79.4173 197.335 78.6644 198.781 78.6591 199.5521 78.6242 199.8065 77.9189 200.77 77.7553 201.6993 77.0475 202.1194 77.6863 203.3083 77.6501 204.672 77.0848 205.1891 77.9155 205.3239 77.8666 205.9914 77.6245 206.0255 78.1687 207.0523 77.7487 207.601 78.4193 207.9239 78.8665 208.5027 78.9605 209.5304 78.7967 210.1093 78.9228 211.0091 78.9196 211.8771 79.0127 213.3862 78.6873 213.9655 78.9094 214.8641 78.5861 215.8288 78.7749 216.5019 78.2603 215.5696 78.1354 215.3753 77.7197 216.1439 76.9487 216.03 76.5488 216.6067 76.0345 218.0197 75.7415 218.2134 75.997 218.3862 75.9514 218.9519 75.8023 219.1476 76.6663 220.1758 76.5988 220.1136 77.2074 220.9174 77.3327 221.8852 78.4182 223.0109 78.7026 223.0658 78.6453 223.7795 77.8995 224.164 77.5781 224.7394 76.6476 225.4121 76.0049 225.9901 75.8749 225.9879 75.2024 226.5184 75.2807 226.2908 74.481 226.9656 74.4467 226.7708 73.871 227.5081 73.2922 227.7939 72.2666 228.8519 71.4625 228.9007 71.3001 229.2811 70.0362 230.5659 69.8078 232.4401 69.6559 232.6223 69.6411 232.5854 68.1682 233.128 67.0136 233.4465 66.1159 233.7321 64.9623 233.5512 63.698 232.4883 63.0289 232.5458 60.9474 231.1325 61.2722 231.2002 60.2082 231.2242 59.8309 231.2519 58.4859 230.6721 58.1036 230.6839 56.8066 229.7495 56.1693 229.7776 54.9524 229.6916 54.2846 229.6127 53.6721 228.9666 52.7456 229.8471 51.67 231.0026 51.1218 232.6714 50.2517 232.2396 48.9472 232.1844 48.7803 233.1794 48.2967 233.1137 47.8807 233.4943 46.2783 233.2185 45.5267 233.7974 45.5889 233.9246 45.1722 233.5042 44.405 233.9183 43.2509 234.3039 43.1856 234.9123 42.4151 234.9192 42.0894 234.9262 41.7586 234.3791 41.6003 234.3442 40.7678 234.7595 39.966 234.2753 39.3591 233.6932 38.3683 234.046 38.079 234.0441 37.5026 234.6839 36.5078 235.0886 36.0467 235.3886 35.705 235.1781 35.2414 234.7238 33.994 235.1782 33.3778 235.3927 32.0385 237.0302 31.2967 236.3833 30.146 236.8652 30.0163 236.3637 29.0733 237.3913 28.6537 237.5174 27.8528 237.3866 27.6426 237.2587 27.4373 237.9313 26.6025 237.8007 25.9946 236.6094 25.5821 236.6368 24.109 237.3448 24.2669 237.3109 23.7226 237.9034 22.9681 238.5112 21.9736 238.1557 21.4623 237.7355 20.8233 237.4935 19.6745 237.3108 18.8073 236.4417 18.586 236.021 17.8188 237.1783 17.655 237.1755 16.7903 237.5176 16.4268 237.7043 16.2283 237.54 15.1721 237.183 14.1805 236.7321 14.0219 237.3736 13.4755 237.6602 12.6099 238.2713 12.6079 239.0759 12.7334 239.5273 13.0521 240.269 13.6582 241.1367 13.4312 241.9076 13.1085 242.9993 12.5286 243.0592 12.4721 243.5445 12.0145 244.5111 12.5237 244.7723 13.7398 245.9291 13.3839 246.3593 12.1177 247.4542 12.5305 247.3927 13.4273 246.3992 14.5512 247.2729 14.8271 248.1056 15.0902 249.1011 14.5747 250.1316 14.9879 251.1606 14.8886 251.7693 14.1182 252.3749 12.323 253.6892 10.878 256.0015 9.5327 257.3795 8.731 258.586 8.0291 259.9692 8.025 260.1605 7.448 259.1284 6.5864 259.288 6.1697 260.2197 5.7506 261.3152 6.3558 262.4179 6.4309 262.6666 6.4479 264.4383 7.2753 265.1119 6.6008 265.3751 6.7509 265.9497 7.0787 266.4949 6.5327 266.9105 5.6348 267.7435 4.4476 268.3893 5.2783 269.3877 5.6918 269.4221 6.4602 269.7598 6.7809 270.2124 7.2105 271.0841 8.2969 272.1774 8.1337 273.3574 7.6539 274.7158 7.1018 275.5546 7.9641 276.3577 7.5776 276.7167 9.4019 276.8871 9.3436 278.2272 8.8854 280.2581 10.4491 281.4815 10.8621 282.5497 13.3251 281.8441 14.0635 281.737 15.4338 281.2865 16.0345 280.2921 17.03 279.8441 17.8958 280.297 18.8552 280.0748 19.9127 279.339 21.3878 279.4994 22.8415 279.6358 24.077 279.6375 24.6931 279.6388 25.1978 280.8293 25.3868 281.5679 24.9685 283.4105 24.9636 284.202 23.7446 286.4058 24.011 287.7866 23.1748 287.9155 23.0913 288.8783 22.4674 289.8434 22.529 290.8079 22.3985 291.4175 21.7884 292.7683 21.785 292.798 20.7921 293.3362 20.2535 293.6642 19.9253 294.6762 19.4583 295.0607 18.849 296.1686 18.1577 297.038 18.5078 297.5516 18.0902 298.0301 16.5198 298.7047 16.1338 300.1825 15.3617 301.4025 14.4299 302.1692 13.8162 302.3656 13.659 303.2353 14.1052 303.2988 13.7848 303.3771 12.9039 305.1133 12.5155 305.5942 11.8418 306.4955 12.0959 307.0085 11.3901 308.3439 11.2633 308.3915 11.2588 309.8714 11.3194 310.8688 11.4131 312.0597 11.6666 312.5278 12.3861 313.5973 11.5366 314.1991 11.7739 315.0997 11.6758 315.9035 11.5138 316.7403 11.7041 317.0941 11.6714 317.7691 11.4136 318.9911 11.2188 320.2179 13.1697 321.0232 13.6804 320.3171 14.4185 321.1537 14.5128 321.7951 13.6146 322.0822 12.4931 323.5935 12.2017 323.1887 10.9695 329.1709 10.2524 331.1644 9.7679 331.1732 9.6463 331.2739 8.2464 331.2055 8.2054 329.8888 7.4166 330.2413 6.7434 329.8058 6.1518 328.97 6.5057 329.1293 5.7687 329.4828 5.5439 330.3487 4.261 332.1195 4.8339 332.7281 3.5196 333.2098 3.1023 333.7865 1.9162 334.2522 1.5149 335.4739 1 336.3436 1.5427 337.535 2.0208 339.0319 2.4182 Z M 146.6771 418.6612 146.5063 418.7804 146.5091 418.7859 146.4518 418.8882 146.3663 418.9581 146.3424 419.0418 146.3065 419.1423 146.318 419.2428 146.3769 419.3375 146.3938 419.3989 146.3187 419.466 146.2715 419.5388 146.2384 419.645 146.1939 419.6813 146.0244 419.785 145.9322 419.8414 145.6324 420.0001 145.598 420.0183 145.3363 420.1476 145.1579 420.1984 145.1364 420.2109 145.0465 420.263 144.9462 420.3108 144.8461 420.3837 144.8131 420.4297 144.7878 420.4648 144.5062 420.5467 144.4672 420.558 144.4329 420.556 144.4281 420.5669 144.1996 420.5743 144.1122 420.5772 143.9331 420.6037 143.8391 420.6502 143.7968 420.7279 143.8395 420.7888 143.8859 420.8348 143.8841 420.8644 143.8473 420.8978 143.7515 420.9776 143.751 420.9904 143.7498 421.0256 143.724 421.0571 143.6225 421.052 143.5208 421.032 143.4193 421.0675 143.2994 421.1418 143.1133 421.2588 142.8733 421.3262 142.7994 421.3246 142.7911 421.3147 142.6903 421.4347 142.7265 421.6475 142.8276 421.8186 142.9049 421.9545 142.9114 422.1081 142.912 422.3034 142.9477 422.3683 142.954 422.4569 143.0131 422.4686 143.1078 422.5215 142.9958 422.6047 142.8128 422.6645 142.7895 422.7887 142.9025 422.9717 142.9315 423.0324 142.9561 423.0839 142.9799 423.1429 143.0159 423.3084 143.0814 423.4443 143.1822 423.5266 143.2417 423.627 143.1119 423.7102 143.065 423.8109 142.923 423.7937 142.8703 423.9417 142.764 423.9657 142.7643 424.0604 142.6643 424.1908 142.641 424.3033 142.6827 424.4037 142.866 424.4031 142.9313 424.4679 143.0796 424.633 142.9734 424.7103 142.7549 424.7524 142.7728 424.8115 142.7081 424.8944 142.6016 424.8771 142.5241 424.8052 142.5126 424.7946 142.4182 424.8304 142.3181 424.9431 142.2593 425.0439 142.2123 425.1328 142.2838 425.2863 142.1838 425.4344 142.2609 425.5052 142.3143 425.5878 142.5508 425.5752 142.5869 425.7584 142.5162 425.8355 142.5164 425.9064 142.4514 425.9007 142.2919 425.9427 142.1975 425.9962 142.1383 425.961 142.0496 425.9435 142.0494 425.8903 142.0253 425.7603 141.954 425.654 141.9307 425.7546 141.8601 425.8377 141.9078 425.9559 141.8192 425.9916 141.7484 426.0274 141.5532 426.0102 141.2334 425.9959 141.2083 426.0001 141.1554 426.07 141.0788 426.1354 140.8089 426.3661 140.749 426.4173 140.6757 426.4796 140.6798 426.4823 140.587 426.6239 140.5387 426.7062 140.5226 426.7336 140.5202 426.7386 140.4452 426.8952 140.4422 426.9013 140.364 427.0326 140.3487 427.071 140.5471 426.8011 140.5534 426.801 140.7944 426.8002 140.8863 426.8378 140.9446 426.8616 141.0238 426.7642 141.1162 426.6754 141.2883 426.6705 141.2135 426.7458 141.1831 426.8784 141.2023 426.8934 141.2451 426.9268 141.3595 426.8381 141.474 426.7493 141.4746 426.9215 141.5024 426.9962 141.5058 427.0054 141.6329 426.7488 141.7697 426.7262 142.1675 426.6777 142.1668 426.6718 142.1867 426.6443 142.1949 426.6329 142.258 426.4646 142.4037 426.2817 142.6349 425.9373 142.6316 425.6136 142.6437 425.3252 142.8155 425.2291 142.9795 425.1143 143.1282 425.1356 143.3123 425.191 143.3962 425.051 143.3961 424.7966 143.4306 424.5969 143.5102 424.5215 143.6494 424.496 143.8827 424.5265 143.9427 424.5454 143.9499 424.5215 144.1151 424.491 144.1531 424.4708 144.5197 424.4081 144.7546 424.3929 144.7617 424.3925 144.7906 424.1502 144.6784 424.0016 144.6409 423.916 144.4956 423.8867 144.3534 423.7009 144.3529 423.5482 144.4803 423.2255 144.6883 423.0609 144.8778 422.9559 145.0234 423.0709 144.9062 423.2403 145.0253 423.1646 145.3261 422.964 145.5649 422.7679 145.8568 422.5363 146.0153 422.2342 146.2713 421.8784 146.3676 421.5322 146.4066 421.2392 146.5119 420.9373 146.6753 420.7193 146.7152 420.6649 146.8386 420.497 146.9485 420.2305 147.0895 419.9773 147.1107 419.6977 147.1145 419.4937 147.2606 419.4354 147.5856 419.4243 147.5484 419.3192 147.517 419.1996 147.7323 418.6177 147.4854 418.0942 147.4733 418.0685 147.0225 418.5048 146.6771 418.6612 Z"/>
</g>
</svg>