<?xml version="1.0"?>
<svg xmlns="http://www.w3.org/2000/svg" version="1.2" baseProfile="tiny" width="800" height="813" viewBox="0 0 800 813" stroke-linecap="round" stroke-linejoin="round">
<g id="lbr_admbnda_admint_ocha">
<path d="M 338.7588 2.419 341.8279 16.5294 345.5669 19.3425 348.6731 19.5131 349.0492 13.8404 354.565 11.1868 358.5914 12.8144 357.4377 15.8287 361.9934 16.4461 363.8337 19.9683 361.6505 23.3367 357.0539 26.8053 356.3823 29.306 365.6837 29.7717 370.9096 27.2801 373.8402 28.4937 377.292 34.3854 381.6842 34.0108 387.3179 35.5738 390.7331 38.8705 384.8368 45.4957 386.8356 48.5056 387.4417 57.1737 386.457 67.1418 384.3377 70.0288 387.4601 71.9156 394.6834 73.846 394.4994 81.6659 398.3056 91.7889 400.6569 95.4719 404.516 95.8205 406.5642 102.2442 403.1444 106.7503 404.3079 112.7423 399.9306 118.2221 401.1036 123.001 400.2783 126.5134 401.5802 133.3895 407.3567 140.9101 408.2918 144.3064 413.7575 147.1859 415.4164 151.8796 414.7976 161.2545 411.5083 165.7281 410.3427 173.6613 411.2459 177.923 414.4131 181.6221 410.7557 186.7851 409.8443 191.2887 406.2355 196.1474 402.7611 206.7429 398.4643 212.9647 395.4631 213.9772 391.9262 224.3808 403.9659 220.017 406.7964 224.6472 417.5608 218.2533 423.5103 217.0611 426.5757 218.5438 429.825 228.6686 438.0337 225.2486 445.0261 228.0665 443.868 232.5811 445.5373 240.4206 452.0538 247.3079 459.3713 250.9287 464.1316 258.3521 468.4838 261.4631 471.808 260.8148 477.3211 254.4983 488.5111 252.3929 494.5125 245.6726 500.546 245.2202 500.8695 249.5605 509.562 251.2468 514.9475 248.0096 515.4026 245.0947 512.1107 233.7056 516.6287 228.4213 519.6942 221.7375 526.6518 219.6159 527.174 213.7188 529.5004 212.9738 535.1536 205.8048 540.1823 201.994 539.6628 196.1896 537.3047 193.6675 540.6774 180.1646 539.2165 177.5899 545.4446 170.8763 546.6187 165.698 565.2796 165.7673 569.0861 167.8938 570.7127 172.0415 569.1799 180.1729 579.6026 188.1697 576.5625 198.8806 578.6213 202.7353 588.3392 204.084 598.3472 210.8359 597.0848 216.7243 600.008 225.0167 600.6282 238.0181 607.3394 246.5042 607.8125 250.1132 605.736 253.0288 611.5215 257.5873 612.0747 260.8249 615.3947 261.3605 620.2766 265.4139 622.9595 265.5507 623.1896 271.2553 619.451 273.8887 618.495 282.9759 620.379 295.8299 622.5834 299.0898 621.359 303.2752 617.6947 306.2511 614.0524 306.6935 615.718 314.0919 617.7169 317.9055 613.6838 319.6382 613.3776 326.1673 616.8937 329.7339 613.5704 332.3687 615.1549 336.8229 611.9689 340.1046 609.4237 340.1541 610.0389 345.9585 608.0501 346.3533 602.9357 355.2244 597.2993 358.1988 597.4937 361.843 594.2081 362.9943 589.7211 370.1611 582.6497 372.0845 579.2736 374.9418 577.4818 378.8736 571.3959 386.1628 567.1043 387.0172 566.3839 393.1672 561.5216 392.8056 559.9198 397.3321 567.5929 396.8037 574.1204 400.7982 578.6423 401.3371 581.7306 405.0399 586.1077 405.5791 590.8814 400.237 592.7565 403.2161 599.4694 407.776 599.1886 413.2529 602.2003 419.6296 597.6611 422.4858 602.2666 424.6733 608.3634 423.8715 610.6918 421.6633 617.1564 426.8165 622.0675 426.7942 625.4247 432.6806 629.6147 431.7617 633.4954 434.7588 638.0304 434.8812 642.9489 438.9496 651.7574 439.7732 664.4893 434.8674 675.8603 432.3019 678.0904 436.7424 687.3049 436.3849 690.8355 440.0768 696.1511 439.4521 698.0888 445.0772 705.3129 449.8466 707.2414 452.7696 709.2702 462.5708 705.8567 465.4823 705.8092 474.1809 708.8622 477.5976 710.801 475.5499 715.0444 475.8772 717.2439 479.9423 716.053 483.2053 721.1693 486.728 717.4668 490.1008 716.7213 494.3618 718.2428 498.1219 722.2674 499.0123 722.6066 502.2209 726.5364 506.6368 730.8337 507.9759 736.6083 513.1187 739.8728 511.6816 738.4956 508.2396 752.4638 514.0964 758.9131 514.3006 763.4883 519.3692 761.3501 520.5195 764.4661 526.2635 769.9313 521.7989 773.1329 527.6876 777.0071 524.7796 780.2926 526.1754 779.4461 529.7561 780.7155 535.1486 785.3065 539.0475 788.2565 552.1305 793.6426 570.7967 794.3795 580.8106 791.9863 592.1376 788.3364 595.439 789.7729 600.6625 788.9362 604.2984 783.4286 603.2612 789.2964 614.2661 792.641 616.6272 796.4744 615.2964 795.9273 620.8896 799 623.2475 793.8018 628.0948 794.5547 631.3613 791.1748 635.1863 782.957 632.0479 780.1383 637.1014 780.296 641.4892 776.6045 645.5018 779.2637 647.9322 778.8972 657.1237 776.2731 663.7677 771.7145 669.2117 770.0988 666.1774 761.9398 671.3478 764.8513 679.438 762.9639 683.4642 765.7118 687.5801 762.0218 692.4256 767.2568 696.4758 765.6016 703.8698 761.8793 702.5166 760.0846 705.6513 755.4947 705.4485 754.509 708.3026 757.6117 712.7802 755.7599 716.5184 757.5696 720.0432 755.4946 725.8295 761.5496 729.0491 761.3893 742.2327 762.5393 746.6716 759.7311 748.088 759.6109 752.7613 762.6939 757.8478 763.9768 763.744 759.4515 768.2461 762.5827 771.9216 761.2338 778.3739 763.4338 781.4654 763.3516 786.3818 760.6587 791.7089 765.5289 795.7203 760.763 802.0828 761.7803 806.253 767.5737 809.1955 767.4152 810.8063 757.0119 811.0598 751.051 812.2721 748.3618 810.5416 731.1529 808.9727 728.0499 806.7221 719.2703 805.1066 714.3983 800.5562 711.0222 794.5522 707.2459 791.2459 691.7093 785.6425 686.9463 782.4422 676.0577 779.2944 652.6439 774.2444 639.2331 772.6376 627.7115 769.8124 624.9923 766.5281 620.2778 764.674 618.9446 761.9901 609.1447 757.0107 598.3471 754.6269 586.5961 747.3344 585.5897 744.9859 577.1052 738.7352 562.529 732.82 558.8739 730.5421 545.7301 726.1454 538.5828 724.7167 536.4929 720.5194 523.8605 715.8988 520.1804 710.7361 514.303 707.7761 510.2458 702.152 499.3828 697.3161 481.5475 691.9477 476.8139 691.0212 476.0755 686.1742 470.3159 682.8001 459.9873 678.1521 459.652 675.5335 450.3603 671.556 444.7234 666.9685 438.9516 663.5448 434.6401 662.4657 425.9261 658.4171 428.9791 656.6146 426.2826 652.4734 417.4778 648.4255 397.8829 630.7906 389.5978 621.6823 388.6062 615.4491 386.1591 612.9145 377.5743 606.9459 368.7339 603.6868 370.9047 601.1207 369.2226 595.9077 361.2992 591.2697 352.4099 584.0568 332.6407 570.1698 321.8915 559.2539 317.6667 553.1558 310.8392 548.998 302.0687 541.707 295.7078 535.5883 286.6951 529.2166 286.1216 525.6334 279.2635 520.1177 280.1911 515.6186 277.8192 511.4004 266.3609 502.9588 256.035 498.54 254.5038 494.5386 246.8811 485.7885 235.4052 479.9831 220.2581 473.9993 216.8617 468.0675 213.9904 466.0431 182.7335 455.9107 156.0377 449.0135 152.2468 444.3753 143.4821 441.4914 132.3591 433.8851 136.2189 433.1305 137.3678 436.2745 142.4177 434.5658 148.3987 439.6036 150.1044 435.6506 143.3694 430.8824 136.2153 431.4619 137.0308 423.5913 131.7726 413.8977 123.9052 405.4484 114.0795 398.4835 106.4683 394.0765 104.7748 390.8734 96.9823 386.7273 89.5075 381.3578 81.6466 381.3402 61.7791 372.2843 45.6684 365.871 28.1226 358.3591 22.6947 351.4637 23.5208 348.5699 28.1631 347.3541 37.9562 356.4794 42.844 357.7602 46.8578 360.8973 58.4398 363.8894 61.9613 356.5224 57.1991 351.5029 53.4516 344.2949 46.733 342.5026 30.5755 348.2007 26.5024 345.9853 25.3283 340.1271 19.5788 329.7729 9.0221 323.1065 7.9411 320.4829 1 315.9581 6.8441 314.7852 15.7658 310.4721 16.5021 306.5035 19.7484 303.4629 21.6778 299.3203 25.4341 297.2852 25.8482 291.7617 24.1935 288.1185 26.0631 285.3872 32.1545 286.0284 32.6925 279.3054 29.3024 274.1815 36.71 265.4747 37.2216 260.1966 40.8434 261.1192 46.0328 255.9185 49.3631 255.7003 52.6786 252.4916 58.1269 251.7929 62.1968 249.1984 63.783 241.8186 67.3108 240.5246 69.2696 234.8695 77.5222 225.3533 84.2485 223.9104 90.4177 218.3703 91.0156 216.5863 101.643 210.0518 102.7071 207.0558 110.0589 201.8137 111.9227 204.4606 127.4729 194.74 132.0287 189.8564 132.7589 186.0312 136.2432 186.5131 137.514 181.0476 142.1661 175.0718 145.9402 173.2695 147.6641 168.9439 150.1477 167.8418 155.7328 158.338 161.099 156.1327 163.2788 153.5429 173.473 151.1705 173.1509 106.7537 173.4936 99.8804 178.888 98.4498 183.2512 92.0416 186.6628 88.8731 188.2984 83.5645 193.9743 79.6028 204.3187 77.1302 207.5726 78.9129 214.517 78.6324 218.6072 75.847 223.8224 77.6238 228.5131 71.5046 232.2858 69.682 233.3961 65.0005 230.795 61.3081 229.5089 51.7002 232.3349 50.2811 234.4242 39.9892 235.0578 32.057 236.6962 31.3148 238.1781 21.9861 236.8445 17.6649 239.937 13.6657 244.1816 12.5306 246.0708 14.5593 250.835 14.8969 253.3652 10.8838 259.8996 5.7534 265.633 7.0823 267.4278 4.4496 270.7704 8.3012 274.4043 7.1054 281.1741 10.8679 282.243 13.3324 279.5357 17.9059 279.3303 25.2122 283.1042 24.9779 292.4973 20.8039 303.0827 12.911 308.1001 11.265 322.9062 10.9755 330.8866 9.7731 331.8422 4.8362 335.1986 1 338.7588 2.419 Z"/>
</g>
</svg>