<?xml version="1.0"?>
<svg xmlns="http://www.w3.org/2000/svg" version="1.2" baseProfile="tiny" width="800" height="642" viewBox="0 0 800 642" stroke-linecap="round" stroke-linejoin="round">
<g id="nga_admbnda_adm0_osgof_20161215">
<path d="M 188.8189 1 230.9049 17.7217 240.7816 15.4696 250.5415 20.8212 266.6249 37.466 282.9001 61.1881 294.5614 59.6994 303.3905 52.3025 315.7615 54.0703 341.1238 38.4763 364.2659 42.5352 382.1392 56.9655 388.6024 56.0212 397.3609 64.4708 418.6889 71.6817 463.9937 73.6332 487.4737 49.4013 501.3518 42.7359 518.4822 41.77 535.333 36.1731 585.6875 36.0559 612.6027 43.9918 624.2913 52.4603 652.7693 55.9521 659.8934 42.0701 665.5158 42.3998 682.2181 28.3713 699.5774 25.1867 709.8232 13.4293 729.2839 13.1647 759.3252 55.0617 768.8323 103.202 784.8035 103.4788 799 117.0991 797.624 130.0674 791.0282 146.7675 793.8871 159.4486 765.0419 178.241 752.2004 173.4058 739.8515 193.3339 733.32 197.3272 722.5045 220.4645 719.5768 245.7804 703.9829 258.4817 707.0153 273.8457 703.6834 286.6626 690.3778 292.9489 680.7596 303.4334 679.1041 324.8868 673.2641 332.405 674.4894 340.8956 659.6033 353.7772 653.2535 352.0473 646.3876 363.4737 637.0883 364.1831 637.7711 382.0346 635.3328 394.2714 621.922 416.668 623.2766 425.2473 610.2722 435.5876 608.6081 456.1977 601.6928 456.4038 592.6669 466.4628 590.1961 482.9013 575.6859 492.7779 560.8475 490.6761 561.1148 481.3161 548.6166 479.4871 543.5274 464.6485 531.6068 456.5635 519.0517 465.9449 501.7355 467.3217 494.7985 460.5965 479.7593 475.159 473.1881 473.6872 467.9333 492.5505 443.9364 507.3095 440.0045 515.0798 428.7904 521.424 410.5108 538.1161 408.6321 545.5949 413.9106 554.726 406.9775 584.453 390.1604 606.503 381.1171 611.0535 372.0953 624.3804 350.0806 624.0474 300.8895 634.5714 288.1553 634.508 226.6174 641.4536 201.6889 625.491 191.6341 612.4174 178.2322 581.2706 176.177 566.1691 165.4961 557.1909 152.9645 531.7401 131.7537 512.9366 115.627 502.7992 74.5879 497.509 1.6732 501.835 4.2957 431.8714 1 398.3612 4.9493 379.448 4.1444 363.8062 6.7268 322.5592 27.2318 320.0385 31.9339 307.8712 30.1403 296.8189 44.9253 272.048 56.4624 269.5758 66.5937 249.2162 60.3598 241.5923 63.7601 231.8522 73.7883 233.2931 77.5394 213.7727 71.1372 204.6494 71.944 193.9296 54.4948 174.3544 55.6036 149.5768 65.6621 140.0391 62.6996 131.9831 65.0384 105.9965 64.2588 92.4314 83.9827 76.3717 94.8191 59.4803 96.5844 29.0757 101.5523 28.8047 118.9174 13.7655 145.9356 8.4885 170.5528 10.7629 188.8189 1 Z"/>
</g>
</svg>