<?xml version="1.0"?>
<svg xmlns="http://www.w3.org/2000/svg" version="1.2" baseProfile="tiny" width="800" height="810" viewBox="0 0 800 810" stroke-linecap="round" stroke-linejoin="round">
<g id="sle_admbnda_adm3_1m_gov_ocha">
<path d="M 426.6472 730.8747 422.697 726.9396 428.6215 723.7704 434.9447 721.6314 437.7392 733.7982 426.6472 730.8747 Z M 416.9849 730.5189 415.0823 743.5574 403.9903 747.5986 399.2612 741.6657 388.5991 740.118 371.4831 733.5056 375.6272 718.2586 381.2905 723.0071 387.1374 719.0518 396.9396 727.3923 400.8089 719.0518 410.0558 708.6938 410.3532 714.9246 416.9849 730.5189 Z"/>
<path d="M 156.9304 370.2536 160.8487 381.5208 174.2935 391.8697 186.4731 395.8225 178.1443 427.7561 174.6645 429.7401 168.6507 427.631 149.309 434.4941 136.8825 423.3675 131.8911 424.3034 119.6205 434.7021 112.0814 448.1165 112.4974 452.796 99.0105 457.4125 104.5943 447.8046 101.2667 439.5895 103.3465 430.7506 91.4399 428.7748 72.0562 428.946 71.0201 427.5982 64.4031 425.8632 58.8191 416.3236 47.1229 411.4985 47.1932 406.6255 67.2002 392.0339 74.4762 382.4602 84.203 379.1669 96.3423 387.4099 103.7968 380.9419 112.2 376.3906 135.9937 381.4324 142.2738 371.3488 156.9304 370.2536 Z"/>
<path d="M 150.6972 257.8494 159.8315 256.3167 162.2198 260.3855 177.4335 258.7934 182.2984 260.7393 181.6792 266.3118 157.3549 289.3978 159.4954 294.5634 151.5613 296.872 140.5932 291.7418 140.3278 301.2062 121.1337 307.1325 118.3474 303.0195 104.2393 305.8942 102.5899 304.4123 104.4064 291.7135 100.3017 286.6062 117.0023 272.1413 122.0863 259.5225 131.3423 255.0883 142.0005 264.9713 150.6972 257.8494 Z"/>
<path d="M 449.3041 636.8508 455.237 642.9557 450.7658 657.0571 458.8719 667.7476 448.9602 677.5214 442.1733 678.7103 431.2904 682.6375 428.8828 680.4019 416.5011 684.4431 418.5111 693.0351 424.6354 694.5275 429.6137 701.2531 418.6937 711.9151 428.6215 723.7704 422.697 726.9396 416.9849 730.5189 410.3532 714.9246 410.0558 708.6938 407.3007 701.2961 388.9861 711.0983 387.1374 719.0518 381.2905 723.0071 375.6272 718.2586 371.4529 712.4396 370.4245 700.6354 373.8787 697.4364 389.502 681.6916 401.4538 676.8765 402.9155 662.5171 422.8639 662.2592 436.5784 657.573 443.9731 639.0004 449.3041 636.8508 Z"/>
<path d="M 484.5168 709.1878 472.4339 722.0613 475.7443 731.0467 472.3909 741.0208 464.7383 753.5746 468.4356 764.5806 462.3307 774.4688 456.9997 768.1059 439.5449 768.3639 450.2929 756.412 451.1957 745.707 444.5749 735.9908 448.0573 725.1997 443.1562 714.0217 434.2998 707.229 428.9258 696.6099 432.7951 690.677 428.8398 685.26 431.2904 682.6375 442.1733 678.7103 448.9602 677.5214 458.8719 667.7476 469.4244 661.6143 469.5104 669.1809 475.7873 672.4483 475.9592 679.0691 485.4605 695.2772 487.6101 704.3055 484.5168 709.1878 Z"/>
<path d="M 462.3307 774.4688 459.3213 788.5702 454.1281 797.9194 432.9431 778.5639 433.139 768.1489 429.2697 756.885 426.6472 730.8747 437.7392 733.7982 434.9447 721.6314 428.6215 723.7704 418.6937 711.9151 429.6137 701.2531 424.6354 694.5275 428.8398 685.26 432.7951 690.677 428.9258 696.6099 434.2998 707.229 443.1562 714.0217 448.0573 725.1997 444.5749 735.9908 451.1957 745.707 450.2929 756.412 439.5449 768.3639 456.9997 768.1059 462.3307 774.4688 Z"/>
<path d="M 372.2076 661.6714 371.9992 673.1268 376.6032 685.5682 373.8787 697.4364 370.4245 700.6354 358.5199 699.5345 346.3409 702.6191 341.4705 700.5609 333.4971 686.478 331.2634 675.0435 325.9058 670.529 327.7267 661.2956 332.8589 657.1739 337.9911 650.3398 354.7494 649.6957 366.5342 648.3621 376.2796 655.0501 372.2076 661.6714 Z"/>
<path d="M 502.183 466.87 506.9157 475.2509 502.329 485.8631 485.132 482.0015 466.6127 483.2133 467.3134 463.7423 454.8396 458.0533 453.4625 450.8529 471.5537 433.4653 482.7936 441.5853 486.0546 455.8764 492.289 464.3168 502.183 466.87 Z"/>
<path d="M 471.5537 433.4653 453.4625 450.8529 454.8396 458.0533 453.8348 462.395 458.048 475.7791 450.2879 476.8373 438.8634 472.3106 431.7696 474.2702 426.8368 483.3457 403.3614 488.635 392.8515 486.1981 396.6545 473.4482 396.061 462.237 386.6744 452.6965 401.9743 451.5095 400.3696 437.1768 392.4998 439.3311 391.0184 432.3333 396.2936 426.0309 408.4081 420.2888 416.3678 407.5441 415.8289 399.3117 427.035 402.5022 443.2811 401.3818 451.7154 397.8864 452.2931 403.4119 461.8365 413.195 463.7548 429.0207 471.5537 433.4653 Z"/>
<path d="M 515.0891 666.9391 517.7616 675.7978 524.7621 679.5444 522.2188 683.4543 510.9549 687.2376 514.7382 695.4921 509.1492 706.8421 496.4343 708.5635 484.5168 709.1878 487.6101 704.3055 485.4605 695.2772 475.9592 679.0691 475.7873 672.4483 469.5104 669.1809 469.4244 661.6143 474.5175 646.7409 488.5426 646.5174 501.2799 626.0764 509.4304 616.9463 511.5618 628.2249 520.217 634.4861 513.3112 640.8087 510.9786 650.753 515.0891 666.9391 Z"/>
<path d="M 251.6711 289.1971 261.2399 309.6487 255.9429 317.9085 247.2792 318.5369 248.7518 326.0038 244.6572 329.732 235.6351 327.5207 222.9864 334.8623 216.1756 332.651 208.1265 339.6387 197.2327 341.4184 200.2984 331.7222 193.2576 326.707 195.9201 315.4028 201.0503 310.8033 201.2272 300.6313 225.9295 286.4854 231.9627 281.7451 239.6479 282.6788 241.1562 288.1374 251.6711 289.1971 Z"/>
<path d="M 190.2313 105.689 200.2325 110.9131 221.7425 128.5474 228.4067 132.0733 221.1468 138.6199 208.3111 141.3079 191.1263 155.2308 183.3947 168.0968 166.814 170.0599 157.1193 175.4056 147.6359 184.1036 144.0117 192.4393 134.8606 195.9125 126.1535 205.1393 109.8537 207.0871 106.0535 195.5966 113.6111 186.8764 122.461 189.9182 132.0206 188.8142 141.9036 176.412 148.1075 173.0248 147.823 158.3853 158.9065 160.0374 167.2548 148.56 166.7077 142.2578 174.9684 129.2486 172.4738 122.5306 179.706 113.5478 182.4523 104.6306 190.2313 105.689 Z"/>
<path d="M 351.5172 617.0511 342.9734 624.5529 345.2473 632.6932 357.1391 630.6256 347.3683 643.8525 354.7494 649.6957 337.9911 650.3398 332.8589 657.1739 328.2851 649.5155 329.6413 633.8529 321.9797 622.9377 322.9942 614.7607 315.5074 612.4722 316.1883 610.6198 331.4127 607.3935 338.8651 616.298 342.1899 613.5082 351.5172 617.0511 Z"/>
<path d="M 370.4245 700.6354 371.4529 712.4396 375.6272 718.2586 371.4831 733.5056 360.7614 729.046 355.2909 738.4686 320.0454 725.4932 324.0304 706.1026 331.4932 697.791 341.4705 700.5609 346.3409 702.6191 358.5199 699.5345 370.4245 700.6354 Z"/>
<path d="M 331.4932 697.791 324.0304 706.1026 320.0454 725.4932 273.8104 707.6203 241.4402 695.8265 216.1384 689.0991 219.1801 682.1842 229.2216 676.5064 237.2734 677.3397 250.435 687.6093 259.0521 678.8742 263.463 670.3464 279.0638 663.6357 292.3086 660.3065 292.4395 670.4166 298.7151 680.7873 297.7046 687.1693 314.0586 685.3877 317.8878 691.557 331.4932 697.791 Z"/>
<path d="M 209.1503 644.8992 213.1953 652.5556 214.0504 658.6589 205.2029 665.9846 205.0877 686.2544 195.138 685.3223 196.3784 676.1446 192.1772 670.4188 169.3211 659.4149 147.0314 652.1526 117.1256 644.3082 130.8465 635.6797 131.5431 626.6739 137.1725 623.9069 157.5435 624.05 162.6509 621.1681 180.1637 620.7399 190.555 622.1423 195.6671 627.9214 211.7865 635.0703 209.1503 644.8992 Z"/>
<path d="M 526.0732 735.3993 520.7571 726.3605 497.4553 726.9624 493.844 722.1473 496.4343 708.5635 509.1492 706.8421 514.7382 695.4921 510.9549 687.2376 522.2188 683.4543 524.7621 679.5444 541.4867 690.2232 569.6337 699.493 562.1475 708.9201 558.0524 720.3616 545.9231 722.8625 526.0732 735.3993 Z"/>
<path d="M 417.309 643.8193 411.471 648.3727 402.9155 662.5171 401.4538 676.8765 389.502 681.6916 373.8787 697.4364 376.6032 685.5682 371.9992 673.1268 372.2076 661.6714 380.7728 661.0441 378.318 650.0512 390.8051 647.5965 384.5082 641.6197 390.1114 635.4295 399.1832 635.2161 405.2667 630.8403 413.6814 614.2525 419.1853 622.6159 412.4175 635.0026 417.309 643.8193 Z"/>
<path d="M 426.6472 730.8747 429.2697 756.885 433.139 768.1489 432.9431 778.5639 400.0761 759.6089 355.2909 738.4686 360.7614 729.046 371.4831 733.5056 388.5991 740.118 399.2612 741.6657 403.9903 747.5986 415.0823 743.5574 416.9849 730.5189 422.697 726.9396 426.6472 730.8747 Z"/>
<path d="M 449.3041 636.8508 443.9731 639.0004 436.5784 657.573 422.8639 662.2592 402.9155 662.5171 411.471 648.3727 417.309 643.8193 425.0113 635.8564 431.6284 622.729 445.7164 621.6617 454.5748 624.1164 460.765 613.3369 472.9642 613.2198 471.5931 618.01 469.0805 631.1758 464.7813 634.0133 457.3006 629.6281 449.3041 636.8508 Z"/>
<path d="M 410.0558 708.6938 400.8089 719.0518 396.9396 727.3923 387.1374 719.0518 388.9861 711.0983 407.3007 701.2961 410.0558 708.6938 Z M 431.2904 682.6375 428.8398 685.26 424.6354 694.5275 418.5111 693.0351 416.5011 684.4431 428.8828 680.4019 431.2904 682.6375 Z"/>
<path d="M 689.9948 450.851 687.6045 460.396 674.473 457.3605 668.9042 455.1058 668.7445 440.844 664.7001 427.8594 669.3945 418.0418 674.8665 417.3392 683.0068 410.155 699.1714 403.9236 701.0224 406.9525 701.9959 421.8773 691.6787 428.7181 686.6322 443.6331 689.9948 450.851 Z"/>
<path d="M 474.5175 646.7409 469.4244 661.6143 458.8719 667.7476 450.7658 657.0571 455.237 642.9557 449.3041 636.8508 457.3006 629.6281 464.7813 634.0133 469.0805 631.1758 471.5931 618.01 478.8322 626.3901 474.5175 646.7409 Z"/>
<path d="M 496.4343 708.5635 493.844 722.1473 497.4553 726.9624 520.7571 726.3605 526.0732 735.3993 525.4472 739.8996 514.5997 752.4353 519.5702 759.4377 520.0703 768.0345 511.3426 767.8199 510.3612 783.8848 493.8737 797.451 492.249 804.3677 476.6177 809.2051 454.1281 797.9194 459.3213 788.5702 462.3307 774.4688 468.4356 764.5806 464.7383 753.5746 472.3909 741.0208 475.7443 731.0467 472.4339 722.0613 484.5168 709.1878 496.4343 708.5635 Z"/>
<path d="M 263.1835 650.7212 267.2265 659.84 263.463 670.3464 259.0521 678.8742 250.435 687.6093 237.2734 677.3397 229.2216 676.5064 222.2527 677.2789 216.0158 671.3343 224.421 656.1562 231.6568 649.8462 244.8615 647.8972 252.5115 643.1221 263.1835 650.7212 Z"/>
<path d="M 599.8089 79.5668 587.3623 78.6947 579.8152 72.2892 573.8537 74.065 570.7778 87.8906 564.2227 94.6056 548.4221 95.6914 538.37 89.2225 531.0132 80.9144 522.8954 83.5146 508.7209 93.4082 490.9949 92.8374 483.6156 95.6214 482.0613 87.7016 488.2307 75.5099 498.056 67.1285 489.6746 58.1837 492.5623 46.6328 499.4646 58.7471 505.4513 60.5079 506.05 38.2514 504.5005 35.082 510.3815 21.3478 498.4786 14.0933 491.5762 1 549.3988 1 563.5863 11.7328 566.1353 33.8693 570.898 38.565 581.5638 41.0469 595.6758 57.4492 605.7109 67.0316 599.8089 79.5668 Z"/>
<path d="M 131.5431 626.6739 130.8465 635.6797 117.1256 644.3082 105.9102 635.9618 104.2992 631.0379 115.3227 626.5785 131.5431 626.6739 Z"/>
<path d="M 270.8538 594.783 279.4989 606.6592 279.8274 610.8822 269.2037 619.4992 265.751 628.736 269.7053 643.8453 263.1835 650.7212 252.5115 643.1221 244.8615 647.8972 233.3377 642.847 222.8012 643.2956 217.1555 625.4613 203.3804 618.1634 201.0936 609.7714 208.3915 607.2659 215.6784 593.3485 221.7618 599.4975 227.1415 591.3746 232.5606 589.3413 247.1284 584.4167 251.437 576.8107 266.2533 578.5693 266.3852 587.1865 270.8538 594.783 Z"/>
<path d="M 315.5074 612.4722 322.9942 614.7607 321.9797 622.9377 311.5855 631.8054 309.1391 642.8144 310.3889 655.7113 298.529 654.0095 292.3086 660.3065 279.0638 663.6357 263.463 670.3464 267.2265 659.84 263.1835 650.7212 269.7053 643.8453 265.751 628.736 269.2037 619.4992 279.8274 610.8822 279.4989 606.6592 288.4118 608.9054 295.6441 614.5769 313.0764 614.6209 315.5074 612.4722 Z"/>
<path d="M 352.1989 133.2959 350.68 144.6033 346.0681 151.7472 347.782 157.2385 346.3854 166.5636 332.5887 166.889 320.8421 163.2446 315.1152 175.9349 307.0656 178.4079 295.494 176.6508 286.3504 167.6049 278.6061 174.0477 266.8269 169.9477 256.8699 171.5096 247.0771 167.16 247.2413 158.4986 258.2284 154.7681 263.4347 147.6095 270.756 151.1888 281.738 148.2603 290.0599 141.8989 297.2836 132.3323 308.6398 127.126 332.6213 126.6705 331.7101 120.2274 335.8135 118.7764 352.1989 133.2959 Z"/>
<path d="M 332.8589 657.1739 327.7267 661.2956 325.9058 670.529 313.6331 668.6881 309.5911 662.8911 310.3889 655.7113 309.1391 642.8144 311.5855 631.8054 321.9797 622.9377 329.6413 633.8529 328.2851 649.5155 332.8589 657.1739 Z"/>
<path d="M 310.3889 655.7113 309.5911 662.8911 313.6331 668.6881 325.9058 670.529 331.2634 675.0435 333.4971 686.478 341.4705 700.5609 331.4932 697.791 317.8878 691.557 314.0586 685.3877 297.7046 687.1693 298.7151 680.7873 292.4395 670.4166 292.3086 660.3065 298.529 654.0095 310.3889 655.7113 Z"/>
<path d="M 326.6673 503.4408 331.968 508.3846 335.4 529.6705 329.9811 533.241 320.6824 531.5264 310.5704 533.0212 307.8085 540.7756 297.1714 551.8333 287.4066 540.0829 283.3946 530.835 277.1886 528.2836 273.4821 521.683 270.9371 516.3918 277.6952 506.9757 291.5002 510.7342 291.949 505.0766 306.3786 498.875 311.7506 503.1726 326.6673 503.4408 Z"/>
<path d="M 419.5645 507.7262 402.5953 509.8574 400.2919 512.6864 403.7772 506.5843 403.3614 488.635 426.8368 483.3457 431.6552 496.4192 422.2598 502.2655 419.5645 507.7262 Z"/>
<path d="M 273.4821 521.683 277.1886 528.2836 267.2621 538.4694 272.8765 547.4725 266.2617 555.0002 253.7198 557.6261 246.8049 551.3739 241.6281 551.9991 235.2634 561.5274 231.9872 573.0064 224.147 582.1847 232.5606 589.3413 227.1415 591.3746 221.7327 598.4815 213.7893 592.3762 190.5172 609.0836 180.9873 606.0966 187.1801 594.6739 197.9401 592.4605 196.7522 579.631 190.2875 574.1541 188.6994 565.7762 181.4844 562.0749 184.3979 553.5469 175.0571 549.4955 192.5758 536.8661 193.1911 522.7601 193.5886 519.0348 205.9804 515.3336 216.9468 518.9348 224.4744 523.5864 231.6519 516.2839 240.8301 514.9334 257.2108 528.038 268.1521 528.3381 273.4821 521.683 Z"/>
<g/>
<path d="M 178.2922 454.5499 181.0418 466.7317 186.8861 474.0802 184.827 484.8317 178.3292 488.9252 188.7109 502.7838 197.1814 509.3679 193.5886 519.0348 193.1911 522.7601 187.8355 525.8897 176.973 520.4893 173.5453 523.917 163.1513 521.1798 153.3245 527.0734 148.1091 521.1058 132.0434 514.8423 125.1018 519.0344 118.1602 516.1493 106.906 517.8644 108.539 502.696 114.8435 502.1427 118.9986 493.7831 124.2757 492.7967 128.6404 483.3029 127.3335 478.6669 147.357 466.781 148.7256 461.208 157.8619 451.5168 174.581 448.1138 178.2922 454.5499 Z"/>
<path d="M 533.5868 493.294 519.2069 501.0479 516.5071 492.5153 501.3528 490.2134 502.329 485.8631 506.9157 475.2509 502.183 466.87 509.2452 464.1391 515.5761 466.7552 519.1862 452.3146 526.6681 453.518 544.8055 445.6985 540.2687 472.5975 545.8162 476.8905 547.1542 484.3057 542.694 490.773 533.5868 493.294 Z"/>
<path d="M 301.0817 437.2351 290.6205 437.8562 289.7077 459.2386 287.8445 465.3408 293.0839 475.7694 287.1193 492.7003 280.0605 497.5054 275.6153 490.8747 252.3822 487.1234 244.3669 479.7958 239.015 459.5137 226.9733 462.4147 223.0729 449.3876 230.0754 443.8642 240.1358 443.0706 252.0635 433.1736 258.856 439.1958 267.8194 440.4096 273.5848 434.6675 284.929 435.6478 298.6775 431.3529 301.0817 437.2351 Z"/>
<path d="M 630.7131 588.9316 625.3624 608.807 629.9604 616.9344 612.6638 630.0588 598.1906 627.6943 580.3141 631.0619 559.7216 617.8321 568.7364 606.502 587.4511 604.8384 591.0455 588.9161 595.0261 582.3808 608.4911 573.8067 616.7498 578.6628 621.8313 588.7683 630.7131 588.9316 Z"/>
<path d="M 193.1911 522.7601 192.5758 536.8661 175.0571 549.4955 171.2433 553.922 170.6056 564.1256 160.4645 574.8543 142.3332 573.929 135.968 578.1458 132.7267 581.7913 117.4635 572.896 108.3604 561.32 101.9159 559.9743 96.1061 550.8601 107.3319 540.9692 115.4941 538.2995 106.906 517.8644 118.1602 516.1493 125.1018 519.0344 132.0434 514.8423 148.1091 521.1058 153.3245 527.0734 163.1513 521.1798 173.5453 523.917 176.973 520.4893 187.8355 525.8897 193.1911 522.7601 Z"/>
<path d="M 754.5776 439.1282 751.0087 446.9043 765.1503 455.1726 768.7427 458.765 759.0489 472.1082 753.1082 485.2922 738.8911 488.042 718.9856 513.4985 711.1209 515.8937 706.0904 499.4044 710.0443 489.2943 702.3366 488.1431 693.8531 481.987 678.749 481.9264 680.6648 476.6049 690.8822 469.0483 687.6045 460.396 689.9948 450.851 690.6694 443.521 696.1644 434.4374 706.3695 437.8017 715.5653 437.4652 723.8639 446.2124 736.2557 438.9231 744.3601 430.6164 754.5776 439.1282 Z"/>
<path d="M 533.5868 493.294 544.8182 512.1822 552.1553 514.9476 551.2638 535.5551 546.9329 534.7621 538.4999 537.7205 513.6955 537.3451 508.1147 519.4669 518.5692 520.6179 518.9528 510.7332 519.2069 501.0479 533.5868 493.294 Z"/>
<path d="M 375.5511 527.9212 346.7978 522.7773 339.8293 523.8324 335.4 529.6705 331.968 508.3846 338.6081 497.7749 352.7728 494.4037 371.7394 481.8254 376.7822 490.2429 371.3305 498.6403 367.3516 510.9946 375.6391 518.6445 375.5511 527.9212 Z"/>
<path d="M 280.0605 497.5054 277.6952 506.9757 270.9371 516.3918 273.4821 521.683 268.1521 528.3381 257.2108 528.038 240.8301 514.9334 231.6519 516.2839 224.4744 523.5864 216.9468 518.9348 221.5214 499.1526 215.8194 486.173 208.7669 480.346 213.2935 467.2414 223.3095 460.239 226.9733 462.4147 239.015 459.5137 244.3669 479.7958 252.3822 487.1234 275.6153 490.8747 280.0605 497.5054 Z"/>
<path d="M 307.8085 540.7756 309.6471 546.4746 308.6826 576.999 297.6174 579.2125 288.7393 585.0646 280.674 586.1399 270.8538 594.783 266.3852 587.1865 266.2533 578.5693 251.437 576.8107 247.1284 584.4167 232.5606 589.3413 224.147 582.1847 231.9872 573.0064 235.2634 561.5274 241.6281 551.9991 246.8049 551.3739 253.7198 557.6261 266.2617 555.0002 272.8765 547.4725 267.2621 538.4694 277.1886 528.2836 283.3946 530.835 287.4066 540.0829 297.1714 551.8333 307.8085 540.7756 Z"/>
<path d="M 223.0729 449.3876 226.9733 462.4147 223.3095 460.239 213.2935 467.2414 208.7669 480.346 215.8194 486.173 221.5214 499.1526 216.9468 518.9348 205.9804 515.3336 193.5886 519.0348 197.1814 509.3679 188.7109 502.7838 178.3292 488.9252 184.827 484.8317 186.8861 474.0802 181.0418 466.7317 178.2922 454.5499 187.4532 452.0347 197.0828 453.7855 200.8672 448.925 209.0443 450.8668 223.0729 449.3876 Z"/>
<path d="M 391.0184 432.3333 392.4998 439.3311 400.3696 437.1768 401.9743 451.5095 386.6744 452.6965 396.061 462.237 396.6545 473.4482 392.8515 486.1981 385.0696 485.6266 376.7822 490.2429 371.7394 481.8254 352.7728 494.4037 338.6081 497.7749 331.968 508.3846 326.6673 503.4408 342.1493 490.0976 342.1635 485.1116 354.0052 471.8818 355.6199 454.9692 353.4875 431.3044 362.6812 434.6675 371.8779 432.0065 379.8842 434.2473 391.0184 432.3333 Z"/>
<path d="M 491.5696 606.9398 490.8345 616.3339 478.8322 626.3901 471.5931 618.01 472.9642 613.2198 482.9374 601.4727 491.5696 606.9398 Z"/>
<path d="M 372.2076 661.6714 376.2796 655.0501 366.5342 648.3621 354.7494 649.6957 347.3683 643.8525 357.1391 630.6256 364.2395 624.4032 370.1849 626.4267 377.3298 620.5126 395.8752 613.5659 396.0734 607.3598 403.7815 601.091 413.7605 614.1359 413.6814 614.2525 405.2667 630.8403 399.1832 635.2161 390.1114 635.4295 384.5082 641.6197 390.8051 647.5965 378.318 650.0512 380.7728 661.0441 372.2076 661.6714 Z"/>
<path d="M 353.4875 431.3044 355.6199 454.9692 354.0052 471.8818 342.1635 485.1116 342.1493 490.0976 326.6673 503.4408 311.7506 503.1726 306.3786 498.875 291.949 505.0766 291.5002 510.7342 277.6952 506.9757 280.0605 497.5054 287.1193 492.7003 293.0839 475.7694 287.8445 465.3408 289.7077 459.2386 290.6205 437.8562 301.0817 437.2351 309.9283 446.1984 334.6008 460.9506 335.7445 454.7416 326.8512 442.5104 332.9902 433.9672 345.5248 423.4633 353.4875 431.3044 Z"/>
<path d="M 608.4911 573.8067 595.0261 582.3808 591.0455 588.9161 587.4511 604.8384 568.7364 606.502 559.7216 617.8321 549.5762 621.7649 536.0303 618.8002 539.0603 603.769 544.1697 599.6696 546.1006 591.1738 553.3204 581.6522 563.0632 574.7677 574.2194 560.0776 596.539 559.7823 600.7016 558.4519 608.4911 573.8067 Z"/>
<path d="M 174.6645 429.7401 185.4689 436.6282 188.9235 444.938 200.8672 448.925 197.0828 453.7855 187.4532 452.0347 178.2922 454.5499 174.581 448.1138 157.8619 451.5168 148.7256 461.208 147.357 466.781 127.3335 478.6669 128.6404 483.3029 124.2757 492.7967 118.9986 493.7831 114.8435 502.1427 108.539 502.696 105.6215 501.5795 96.1734 485.6705 83.5114 471.4258 88.4802 457.3063 99.0105 457.4125 112.4974 452.796 112.0814 448.1165 119.6205 434.7021 131.8911 424.3034 136.8825 423.3675 149.309 434.4941 168.6507 427.631 174.6645 429.7401 Z"/>
<path d="M 518.9528 510.7332 518.5692 520.6179 508.1147 519.4669 513.6955 537.3451 504.8056 543.0616 506.2443 548.6245 489.8911 551.7897 488.2606 560.9014 482.5705 564.5127 471.5846 571.7018 454.9722 575.4016 458.5357 556.2632 447.8975 560.9902 437.2752 562.4872 436.247 554.0016 445.5756 551.142 459.6168 540.271 462.4229 529.3679 468.2978 526.9627 485.5274 527.2053 486.0765 523.7478 496.5109 521.0756 499.5232 515.5543 514.271 509.1067 518.9528 510.7332 Z"/>
<path d="M 563.8687 502.5121 562.7038 511.0226 552.1553 514.9476 544.8182 512.1822 533.5868 493.294 542.694 490.773 547.1542 484.3057 545.8162 476.8905 540.2687 472.5975 544.8055 445.6985 546.8601 437.7799 555.4328 430.2321 560.3016 430.4683 562.0571 444.654 568.1453 459.1052 568.346 469.9882 563.8188 474.3593 569.8848 480.1576 566.6288 499.9611 563.8687 502.5121 Z"/>
<path d="M 180.9873 606.0966 157.8245 604.9697 146.1501 592.6388 138.524 589.1704 135.968 578.1458 142.3332 573.929 160.4645 574.8543 170.6056 564.1256 171.2433 553.922 175.0571 549.4955 184.3979 553.5469 181.4844 562.0749 188.6994 565.7762 190.2875 574.1541 196.7522 579.631 197.9401 592.4605 187.1801 594.6739 180.9873 606.0966 Z"/>
<path d="M 316.1883 610.6198 315.5074 612.4722 313.0764 614.6209 295.6441 614.5769 288.4118 608.9054 279.4989 606.6592 270.8538 594.783 280.674 586.1399 288.7393 585.0646 297.6174 579.2125 308.6826 576.999 308.8557 588.5934 316.2199 602.5744 316.1883 610.6198 Z"/>
<path d="M 513.3407 381.2736 519.716 390.1595 526.1624 386.6749 538.8811 391.0306 538.8811 400.0905 546.3729 408.105 541.4945 412.9834 544.215 430.6128 536.809 426.3954 517.755 428.3518 503.8909 424.5063 496.9955 425.9232 488.4944 433.0074 482.7936 441.5853 471.5537 433.4653 463.7548 429.0207 461.8365 413.195 452.2931 403.4119 451.7154 397.8864 454.9418 387.8078 467.3466 384.7623 477.9672 385.8827 486.6738 382.0547 500.1421 381.0743 507.4715 386.6764 513.3407 381.2736 Z"/>
<path d="M 540.0814 579.2032 553.3204 581.6522 546.1006 591.1738 544.1697 599.6696 539.0603 603.769 536.0303 618.8002 549.5762 621.7649 550.3281 627.8714 546.0228 635.5711 549.0862 645.0096 532.3826 658.5256 515.0891 666.9391 510.9786 650.753 513.3112 640.8087 520.217 634.4861 511.5618 628.2249 509.4304 616.9463 521.7479 609.4252 527.0057 593.6999 530.6388 587.477 538.048 590.0541 540.0814 579.2032 Z"/>
<path d="M 627.7469 426.4843 625.4677 434.1228 619.4031 439.1441 618.7184 449.7735 627.3915 463.794 622.5332 469.2717 621.151 483.1593 610.5018 489.2916 607.1108 499.6602 611.9043 505.2788 611.4611 510.9776 600.8234 511.864 600.2535 506.9251 582.9039 503.9491 563.8687 502.5121 566.6288 499.9611 569.8848 480.1576 563.8188 474.3593 568.346 469.9882 568.1453 459.1052 562.0571 444.654 560.3016 430.4683 572.333 436.6785 578.6052 435.2847 591.5853 438.4208 608.4854 429.0125 623.6433 423.7856 626.9457 425.9199 627.7469 426.4843 Z"/>
<path d="M 642.1642 462.8438 637.2191 472.3257 636.9033 482.1441 632.3778 488.0001 621.7738 502.5273 616.9577 504.364 611.9043 505.2788 607.1108 499.6602 610.5018 489.2916 621.151 483.1593 622.5332 469.2717 627.3915 463.794 618.7184 449.7735 619.4031 439.1441 625.4677 434.1228 627.7469 426.4843 635.1424 427.6186 645.4219 423.2629 640.3771 429.9516 640.5494 440.0571 633.5731 447.0046 644.8844 452.4019 642.1642 462.8438 Z"/>
<path d="M 527.0057 593.6999 521.7479 609.4252 509.4304 616.9463 501.2799 626.0764 488.5426 646.5174 474.5175 646.7409 478.8322 626.3901 490.8345 616.3339 491.5696 606.9398 495.5021 604.6379 497.9958 593.5119 501.5446 590.155 515.5414 580.6907 527.0057 593.6999 Z"/>
<path d="M 656.6561 518.6963 651.5168 521.9069 645.1492 532.193 615.556 551.7857 613.1886 558.0717 605.5148 553.2552 600.7016 558.4519 596.539 559.7823 602.8548 545.1885 604.8357 535.5423 608.8549 531.5805 619.2475 508.4413 616.9577 504.364 621.7738 502.5273 632.3778 488.0001 639.9016 492.5696 636.085 500.5775 655.5662 508.6151 656.6561 518.6963 Z"/>
<path d="M 658.6025 627.2265 648.2902 644.8082 628.9253 656.7608 624.3956 654.3537 605.9704 669.9122 599.7669 664.5938 594.4649 652.5567 598.2265 639.5165 598.1906 627.6943 612.6638 630.0588 629.9604 616.9344 651.1142 621.324 658.6025 627.2265 Z"/>
<path d="M 611.9043 505.2788 616.9577 504.364 619.2475 508.4413 608.8549 531.5805 604.8357 535.5423 602.8548 545.1885 596.539 559.7823 574.2194 560.0776 563.0632 574.7677 553.3204 581.6522 540.0814 579.2032 550.6806 565.4686 539.4273 557.2088 534.4659 545.4013 546.9329 534.7621 551.2638 535.5551 552.1553 514.9476 562.7038 511.0226 563.8687 502.5121 582.9039 503.9491 600.2535 506.9251 600.8234 511.864 611.4611 510.9776 611.9043 505.2788 Z M 551.4689 565.7301 558.6521 565.6813 563.6364 558.7384 563.3308 549.3686 555.0033 554.2063 551.4689 565.7301 Z"/>
<path d="M 540.0814 579.2032 538.048 590.0541 530.6388 587.477 527.0057 593.6999 515.5414 580.6907 501.5446 590.155 495.55 572.8906 481.367 584.0876 480.0121 570.3968 482.5705 564.5127 488.2606 560.9014 489.8911 551.7897 506.2443 548.6245 504.8056 543.0616 513.6955 537.3451 538.4999 537.7205 546.9329 534.7621 534.4659 545.4013 539.4273 557.2088 550.6806 565.4686 540.0814 579.2032 Z"/>
<path d="M 544.215 430.6128 546.8601 437.7799 544.8055 445.6985 526.6681 453.518 519.1862 452.3146 515.5761 466.7552 509.2452 464.1391 502.183 466.87 492.289 464.3168 486.0546 455.8764 482.7936 441.5853 488.4944 433.0074 496.9955 425.9232 503.8909 424.5063 517.755 428.3518 536.809 426.3954 544.215 430.6128 Z"/>
<path d="M 559.7216 617.8321 580.3141 631.0619 598.1906 627.6943 598.2265 639.5165 594.4649 652.5567 599.7669 664.5938 605.9704 669.9122 592.3156 682.4947 580.4662 686.7072 569.6337 699.493 541.4867 690.2232 524.7621 679.5444 517.7616 675.7978 515.0891 666.9391 532.3826 658.5256 549.0862 645.0096 546.0228 635.5711 550.3281 627.8714 549.5762 621.7649 559.7216 617.8321 Z"/>
<path d="M 551.4689 565.7301 555.0033 554.2063 563.3308 549.3686 563.6364 558.7384 558.6521 565.6813 551.4689 565.7301 Z"/>
<path d="M 710.8193 531.8065 710.8827 560.8473 700.4628 560.5705 692.031 553.406 684.8094 529.5974 686.6572 517.4089 695.8568 516.5166 701.0677 525.5079 710.8193 531.8065 Z"/>
<path d="M 655.2767 555.2142 648.9261 570.6021 630.7131 588.9316 621.8313 588.7683 616.7498 578.6628 608.4911 573.8067 600.7016 558.4519 605.5148 553.2552 613.1886 558.0717 615.556 551.7857 645.1492 532.193 651.5168 521.9069 656.6561 518.6963 656.7604 518.592 664.0957 526.3165 654.8872 545.868 655.2767 555.2142 Z"/>
<path d="M 754.5776 439.1282 744.3601 430.6164 765.1887 408.7565 770.4034 396.645 776.0993 399.3169 775.441 418.4074 767.6895 430.6138 754.5776 439.1282 Z"/>
<path d="M 796.5864 403.9354 791.352 416.9106 786.3056 419.0774 783.1123 427.5738 776.1841 435.6709 765.1503 455.1726 751.0087 446.9043 754.5776 439.1282 767.6895 430.6138 775.441 418.4074 776.0993 399.3169 785.7671 393.3929 797.0936 398.4393 796.5864 403.9354 Z"/>
<path d="M 753.1082 485.2922 759.0489 472.1082 768.7427 458.765 765.1503 455.1726 776.1841 435.6709 783.1123 427.5738 786.3056 419.0774 791.352 416.9106 796.5864 403.9354 799 409.3172 796.9814 422.2137 792.72 432.7552 794.1778 438.1381 791.0939 448.231 786.1596 451.5953 792.1032 467.1833 777.4685 486.9205 772.0856 482.5469 766.0298 486.3598 753.1082 485.2922 Z"/>
<path d="M 687.6045 460.396 690.8822 469.0483 680.6648 476.6049 678.749 481.9264 670.9796 489.4831 671.4053 497.7847 666.5329 504.2557 663.8763 512.0891 656.7604 518.592 656.6561 518.6963 655.5662 508.6151 636.085 500.5775 639.9016 492.5696 650.9705 497.0397 659.1657 495.8689 657.9417 481.2879 673.055 464.2589 674.473 457.3605 687.6045 460.396 Z"/>
<path d="M 674.473 457.3605 673.055 464.2589 657.9417 481.2879 659.1657 495.8689 650.9705 497.0397 639.9016 492.5696 632.3778 488.0001 636.9033 482.1441 637.2191 472.3257 642.1642 462.8438 654.0038 463.6203 668.9042 455.1058 674.473 457.3605 Z"/>
<path d="M 692.031 553.406 700.4628 560.5705 710.8827 560.8473 710.6309 585.3825 700.9866 586.7282 684.1651 597.6061 681.6979 604.2226 661.679 627.4103 658.6025 627.2265 651.1142 621.324 629.9604 616.9344 625.3624 608.807 630.7131 588.9316 648.9261 570.6021 655.2767 555.2142 663.1646 552.5445 676.4367 542.8721 683.8778 555.1385 692.031 553.406 Z"/>
<path d="M 686.6572 517.4089 684.8094 529.5974 692.031 553.406 683.8778 555.1385 676.4367 542.8721 663.1646 552.5445 655.2767 555.2142 654.8872 545.868 664.0957 526.3165 656.7604 518.592 663.8763 512.0891 666.5329 504.2557 673.3445 504.1876 678.9981 512.3615 686.6572 517.4089 Z"/>
<path d="M 106.0535 195.5966 109.8537 207.0871 105.867 208.8388 106.8335 221.5235 96.7763 239.1311 90.8568 243.7217 87.9192 251.42 72.9472 251.6648 67.816 241.2623 82.1102 231.1689 89.4977 217.9744 93.3607 215.1688 91.7495 201.9995 93.8713 190.1698 102.4931 189.5352 106.0535 195.5966 Z"/>
<path d="M 711.1209 515.8937 710.8193 531.8065 701.0677 525.5079 695.8568 516.5166 686.6572 517.4089 678.9981 512.3615 673.3445 504.1876 666.5329 504.2557 671.4053 497.7847 670.9796 489.4831 678.749 481.9264 693.8531 481.987 702.3366 488.1431 710.0443 489.2943 706.0904 499.4044 711.1209 515.8937 Z"/>
<path d="M 482.5705 564.5127 480.0121 570.3968 481.367 584.0876 462.9246 595.5758 453.2176 607.8429 444.3853 609.0803 419.1853 622.6159 413.6814 614.2525 413.7605 614.1359 415.8926 599.1627 420.3412 584.2085 418.0758 572.2801 433.3615 563.3356 437.2752 562.4872 447.8975 560.9902 458.5357 556.2632 454.9722 575.4016 471.5846 571.7018 482.5705 564.5127 Z"/>
<path d="M 669.3945 418.0418 664.7001 427.8594 668.7445 440.844 668.9042 455.1058 654.0038 463.6203 642.1642 462.8438 644.8844 452.4019 633.5731 447.0046 640.5494 440.0571 640.3771 429.9516 645.4219 423.2629 649.7776 418.3845 669.3945 418.0418 Z"/>
<path d="M 502.329 485.8631 501.3528 490.2134 516.5071 492.5153 519.2069 501.0479 518.9528 510.7332 514.271 509.1067 499.5232 515.5543 496.5109 521.0756 486.0765 523.7478 476.1469 515.3282 485.0598 502.5642 481.464 495.4237 485.132 482.0015 502.329 485.8631 Z"/>
<path d="M 485.132 482.0015 481.464 495.4237 485.0598 502.5642 476.1469 515.3282 486.0765 523.7478 485.5274 527.2053 468.2978 526.9627 457.26 526.0119 450.5417 517.5724 443.2985 505.9724 452.8024 493.9052 463.2428 488.749 466.6127 483.2133 485.132 482.0015 Z"/>
<path d="M 375.5511 527.9212 379.2864 531.345 384.5538 537.5669 383.686 562.0712 376.659 573.3771 367.4202 582.6641 360.9054 588.1664 364.3767 598.4357 358.7298 609.6392 351.5172 617.0511 342.1899 613.5082 338.8651 616.298 331.4127 607.3935 316.1883 610.6198 316.2199 602.5744 308.8557 588.5934 308.6826 576.999 309.6471 546.4746 307.8085 540.7756 310.5704 533.0212 320.6824 531.5264 329.9811 533.241 335.4 529.6705 339.8293 523.8324 346.7978 522.7773 375.5511 527.9212 Z"/>
<path d="M 392.8515 486.1981 403.3614 488.635 403.7772 506.5843 400.2919 512.6864 397.7347 513.5938 379.2864 531.345 375.5511 527.9212 375.6391 518.6445 367.3516 510.9946 371.3305 498.6403 376.7822 490.2429 385.0696 485.6266 392.8515 486.1981 Z"/>
<path d="M 419.5645 507.7262 437.6297 516.9847 450.5417 517.5724 457.26 526.0119 468.2978 526.9627 462.4229 529.3679 459.6168 540.271 445.5756 551.142 436.247 554.0016 437.2752 562.4872 433.3615 563.3356 423.898 556.7113 424.0158 547.6183 417.1044 542.7722 421.152 535.2474 413.602 530.2666 407.1746 532.8315 408.511 539.3222 402.3575 531.7583 402.3275 524.9446 397.7347 513.5938 400.2919 512.6864 402.5953 509.8574 419.5645 507.7262 Z"/>
<path d="M 437.6323 249.4255 436.089 264.2155 423.9512 268.0726 422.0201 276.6212 416.8254 286.2031 408.4902 281.8993 402.5847 268.2143 394.3064 259.6351 400.0062 257.711 406.5714 247.4985 393.6655 241.775 386.0342 231.6747 388.355 222.2155 397.8739 208.3319 397.9858 202.8636 409.972 199.1469 418.9119 187.4416 421.0128 203.2551 421.3863 224.7297 418.8653 233.7397 426.5449 236.0739 435.835 242.7964 437.6323 249.4255 Z"/>
<path d="M 260.3758 334.4684 239.1805 350.7474 232.1855 353.8795 221.6597 352.1989 211.8415 356.7984 210.1609 361.4864 201.8464 362.8132 196.7161 355.2947 184.2444 355.3832 182.21 361.7518 175.1338 364.6707 173.7628 370.2874 156.9304 370.2536 142.2738 371.3488 146.7406 350.253 155.232 345.4765 175.9299 346.3611 178.9815 342.7787 191.807 338.7099 197.2327 341.4184 208.1265 339.6387 216.1756 332.651 222.9864 334.8623 235.6351 327.5207 244.6572 329.732 248.7518 326.0038 260.3758 334.4684 Z"/>
<path d="M 403.7815 601.091 396.0734 607.3598 395.8752 613.5659 377.3298 620.5126 370.1849 626.4267 364.2395 624.4032 357.1391 630.6256 345.2473 632.6932 342.9734 624.5529 351.5172 617.0511 358.7298 609.6392 364.3767 598.4357 360.9054 588.1664 367.4202 582.6641 372.2084 591.7349 386.4043 593.3099 394.78 590.4207 405.7529 596.1991 403.7815 601.091 Z"/>
<path d="M 408.511 539.3222 417.1044 542.7722 424.0158 547.6183 423.898 556.7113 433.3615 563.3356 418.0758 572.2801 420.3412 584.2085 415.8926 599.1627 413.7605 614.1359 403.7815 601.091 405.7529 596.1991 394.78 590.4207 386.4043 593.3099 372.2084 591.7349 367.4202 582.6641 376.659 573.3771 383.686 562.0712 384.5538 537.5669 379.2864 531.345 397.7347 513.5938 402.3275 524.9446 402.3575 531.7583 408.511 539.3222 Z"/>
<path d="M 466.6127 483.2133 463.2428 488.749 452.8024 493.9052 443.2985 505.9724 450.5417 517.5724 437.6297 516.9847 419.5645 507.7262 422.2598 502.2655 431.6552 496.4192 426.8368 483.3457 431.7696 474.2702 438.8634 472.3106 450.2879 476.8373 458.048 475.7791 453.8348 462.395 454.8396 458.0533 467.3134 463.7423 466.6127 483.2133 Z"/>
<path d="M 159.4954 294.5634 164.2542 302.4888 162.0429 308.8573 165.5809 317.791 171.8168 321.8156 193.2576 326.707 200.2984 331.7222 197.2327 341.4184 191.807 338.7099 178.9815 342.7787 175.9299 346.3611 155.232 345.4765 146.7406 350.253 142.2738 371.3488 135.9937 381.4324 112.2 376.3906 103.7968 380.9419 95.8448 371.7599 108.2639 358.6559 114.6325 345.565 113.0845 331.3684 108.485 323.9384 102.028 320.5772 100.6128 311.9974 104.2393 305.8942 118.3474 303.0195 121.1337 307.1325 140.3278 301.2062 140.5932 291.7418 151.5613 296.872 159.4954 294.5634 Z"/>
<path d="M 501.5446 590.155 497.9958 593.5119 495.5021 604.6379 491.5696 606.9398 482.9374 601.4727 472.9642 613.2198 460.765 613.3369 454.5748 624.1164 445.7164 621.6617 431.6284 622.729 425.0113 635.8564 417.309 643.8193 412.4175 635.0026 419.1853 622.6159 444.3853 609.0803 453.2176 607.8429 462.9246 595.5758 481.367 584.0876 495.55 572.8906 501.5446 590.155 Z"/>
<path d="M 417.1044 542.7722 408.511 539.3222 407.1746 532.8315 413.602 530.2666 421.152 535.2474 417.1044 542.7722 Z"/>
<path d="M 202.2886 263.6454 196.6277 271.3536 199.9004 288.8671 179.2026 296.1202 170.7112 291.9629 164.2542 302.4888 159.4954 294.5634 157.3549 289.3978 181.6792 266.3118 182.2984 260.7393 189.5833 257.7886 200.6115 256.6785 202.2886 263.6454 Z"/>
<path d="M 454.9418 387.8078 451.7154 397.8864 443.2811 401.3818 427.035 402.5022 415.8289 399.3117 415.624 390.7197 410.9726 385.9172 416.9595 373.2163 410.5606 359.9336 414.5963 347.0025 421.9984 346.2034 430.5616 341.3646 434.4692 346.2492 433.8434 354.0187 440.6665 358.888 447.5965 350.9811 460.4795 348.1114 468.9206 350.63 463.4102 358.8574 462.418 370.9925 454.9418 387.8078 Z"/>
<path d="M 410.9726 385.9172 415.624 390.7197 415.8289 399.3117 416.3678 407.5441 408.4081 420.2888 396.2936 426.0309 391.0184 432.3333 379.8842 434.2473 371.8779 432.0065 362.6812 434.6675 353.4875 431.3044 345.5248 423.4633 326.9454 408.0615 322.5485 396.0087 318.5654 396.9657 326.2501 393.2665 338.662 387.5252 349.0577 375.5494 353.661 381.7361 365.2833 381.6997 381.3412 372.2346 390.5155 369.3381 402.5862 373.9192 410.9726 385.9172 Z"/>
<path d="M 394.3064 259.6351 402.5847 268.2143 408.4902 281.8993 416.8254 286.2031 422.0201 276.6212 426.3047 280.2976 427.8301 292.9584 431.3276 300.7706 441.8964 300.9668 459.7981 305.7282 456.257 316.3079 456.3768 327.7811 447.4424 336.781 433.7682 334.1551 429.0395 335.8766 420.1953 328.0317 416.3242 321.5924 408.8824 318.8139 407.3368 313.4588 398.4988 310.7838 391.3474 313.1967 374.7098 311.3654 379.5251 295.3063 378.0662 286.5347 380.2546 265.0056 394.3064 259.6351 Z"/>
<path d="M 297.0235 331.3112 304.2221 339.9719 308.9356 341.2064 314.4346 351.8677 310.9976 357.5881 301.0811 359.9784 296.2639 365.8253 282.0149 368.4452 276.4259 361.3285 268.305 375.3539 253.3853 360.7994 240.9055 354.9641 239.1805 350.7474 260.3758 334.4684 263.664 328.0536 278.1186 331.8244 284.1339 338.2885 297.0235 331.3112 Z"/>
<path d="M 296.2639 365.8253 317.9109 369.9929 323.3287 366.3156 332.9265 370.9857 329.9846 378.8306 323.5126 382.2383 326.2501 393.2665 318.5654 396.9657 316.2795 407.74 311.5194 411.2953 305.3537 407.2793 301.4441 399.3065 278.9547 395.9047 272.3638 379.3921 268.3617 375.4926 268.305 375.3539 276.4259 361.3285 282.0149 368.4452 296.2639 365.8253 Z"/>
<path d="M 407.3368 313.4588 392.5394 318.9344 391.3396 325.4424 380.1536 347.3661 368.0707 351.2078 361.4415 359.7519 352.437 366.8416 349.0577 375.5494 338.662 387.5252 326.2501 393.2665 323.5126 382.2383 329.9846 378.8306 332.9265 370.9857 323.3287 366.3156 317.9109 369.9929 296.2639 365.8253 301.0811 359.9784 310.9976 357.5881 314.4346 351.8677 323.3004 346.8176 326.9744 341.0941 335.5329 347.7154 343.2764 347.2665 345.5771 340.7575 370.1543 328.5249 376.3267 319.3225 374.7098 311.3654 391.3474 313.1967 398.4988 310.7838 407.3368 313.4588 Z"/>
<path d="M 515.1977 353.0172 514.6142 360.2999 518.4656 373.0446 513.3407 381.2736 507.4715 386.6764 500.1421 381.0743 486.6738 382.0547 477.9672 385.8827 467.3466 384.7623 454.9418 387.8078 462.418 370.9925 463.4102 358.8574 468.9206 350.63 460.4795 348.1114 447.5965 350.9811 440.6665 358.888 433.8434 354.0187 434.4692 346.2492 430.5616 341.3646 421.9984 346.2034 420.1953 328.0317 429.0395 335.8766 433.7682 334.1551 447.4424 336.781 456.3768 327.7811 456.257 316.3079 459.7981 305.7282 460.6008 301.152 477.337 305.1195 487.4674 297.9768 491.1088 299.8909 502.6397 323.4196 508.3585 344.9876 515.1977 353.0172 Z"/>
<path d="M 482.0613 87.7016 474.3828 69.3631 468.1651 63.7886 466.9322 52.3178 473.0428 44.8136 472.8284 38.0598 464.8418 17.7984 449.2973 9.2222 444.2588 1 491.5762 1 498.4786 14.0933 510.3815 21.3478 504.5005 35.082 506.05 38.2514 505.4513 60.5079 499.4646 58.7471 492.5623 46.6328 489.6746 58.1837 498.056 67.1285 488.2307 75.5099 482.0613 87.7016 Z"/>
<path d="M 488.9624 220.1268 490.6186 223.796 491.7624 256.8949 482.3089 284.1117 468.2803 287.3329 460.6008 301.152 459.7981 305.7282 441.8964 300.9668 431.3276 300.7706 427.8301 292.9584 426.3047 280.2976 422.0201 276.6212 423.9512 268.0726 436.089 264.2155 437.6323 249.4255 457.6364 227.6708 473.0187 220.0146 477.3604 214.7393 485.39 215.6263 488.9624 220.1268 Z"/>
<path d="M 420.1953 328.0317 421.9984 346.2034 414.5963 347.0025 410.5606 359.9336 416.9595 373.2163 410.9726 385.9172 402.5862 373.9192 390.5155 369.3381 381.3412 372.2346 365.2833 381.6997 353.661 381.7361 349.0577 375.5494 352.437 366.8416 361.4415 359.7519 368.0707 351.2078 380.1536 347.3661 391.3396 325.4424 392.5394 318.9344 407.3368 313.4588 408.8824 318.8139 416.3242 321.5924 420.1953 328.0317 Z"/>
<path d="M 318.5654 396.9657 322.5485 396.0087 326.9454 408.0615 345.5248 423.4633 332.9902 433.9672 326.8512 442.5104 335.7445 454.7416 334.6008 460.9506 309.9283 446.1984 301.0817 437.2351 298.6775 431.3529 284.929 435.6478 273.5848 434.6675 267.8194 440.4096 258.856 439.1958 252.0635 433.1736 240.1358 443.0706 230.0754 443.8642 223.0729 449.3876 209.0443 450.8668 200.8672 448.925 188.9235 444.938 185.4689 436.6282 174.6645 429.7401 178.1443 427.7561 186.4731 395.8225 191.6037 399.6871 196.0122 409.3984 213.2411 405.0964 227.446 397.6852 236.2415 397.3445 246.2297 393.4685 256.3882 383.672 268.3617 375.4926 272.3638 379.3921 278.9547 395.9047 301.4441 399.3065 305.3537 407.2793 311.5194 411.2953 316.2795 407.74 318.5654 396.9657 Z"/>
<path d="M 54.2311 366.8016 48.031 376.7379 45.8563 387.2064 38.5919 388.1839 31.2831 378.6528 26.1369 364.3936 18.3366 353.4878 17.3076 339.4836 27.7724 337.6927 36.5291 341.0539 37.679 352.2874 48.2048 358.5675 54.2311 366.8016 Z"/>
<path d="M 43.0101 301.783 51.0189 303.9218 67.103 304.3094 82.4119 302.1778 91.5197 306.441 102.5899 304.4123 104.2393 305.8942 100.6128 311.9974 102.028 320.5772 108.485 323.9384 113.0845 331.3684 114.6325 345.565 108.2639 358.6559 95.8448 371.7599 75.8876 367.963 67.5792 375.4472 58.1627 372.8428 54.2311 366.8016 48.2048 358.5675 37.679 352.2874 36.5291 341.0539 27.7724 337.6927 17.3076 339.4836 19.2503 335.0011 16.3728 314.9457 17.8936 309.5297 27.9377 300.0326 41.341 304.7234 43.0101 301.783 Z"/>
<path d="M 268.305 375.3539 268.3617 375.4926 256.3882 383.672 246.2297 393.4685 236.2415 397.3445 227.446 397.6852 213.2411 405.0964 196.0122 409.3984 191.6037 399.6871 186.4731 395.8225 174.2935 391.8697 160.8487 381.5208 156.9304 370.2536 173.7628 370.2874 175.1338 364.6707 182.21 361.7518 184.2444 355.3832 196.7161 355.2947 201.8464 362.8132 210.1609 361.4864 211.8415 356.7984 221.6597 352.1989 232.1855 353.8795 239.1805 350.7474 240.9055 354.9641 253.3853 360.7994 268.305 375.3539 Z"/>
<path d="M 229.4564 195.4466 239.1451 197.4237 237.0492 215.606 226.0372 227.3025 224.098 235.4904 219.4294 227.7334 209.4099 240.0871 202.6585 245.4021 198.0617 242.5292 189.5833 257.7886 182.2984 260.7393 177.4335 258.7934 162.2198 260.3855 159.8315 256.3167 150.6972 257.8494 150.9145 251.6002 162.3442 235.3223 169.4209 235.1286 173.2966 219.8196 171.5525 211.2931 198.4885 202.9604 204.6896 203.7356 209.7279 192.4961 229.4564 195.4466 Z"/>
<path d="M 670.9556 336.7618 671.1104 354.7663 666.1618 360.8196 666.0323 377.4211 650.0478 375.4347 643.2116 383.1663 627.9812 383.4464 631.8251 370.0361 631.5142 358.3734 636.1041 345.9478 643.3116 334.2829 652.321 328.4031 651.6997 324.1243 656.1165 331.7773 670.9556 336.7618 Z"/>
<path d="M 225.9295 286.4854 201.2272 300.6313 201.0503 310.8033 195.9201 315.4028 193.2576 326.707 171.8168 321.8156 165.5809 317.791 162.0429 308.8573 164.2542 302.4888 170.7112 291.9629 179.2026 296.1202 199.9004 288.8671 196.6277 271.3536 202.2886 263.6454 210.0204 256.9658 214.0785 275.8555 225.9295 286.4854 Z"/>
<path d="M 735.325 326.7422 727.8344 333.3173 720.4143 338.3936 704.0985 332.5127 694.2602 337.3502 687.4617 331.3361 683.0819 336.7618 670.9556 336.7618 656.1165 331.7773 651.6997 324.1243 650.5304 320.5742 656.4947 311.6957 658.4777 301.2399 657.3059 288.7111 659.068 280.9395 664.7613 278.3048 671.5562 281.2666 693.0734 280.2302 703.4553 280.0581 716.2871 275.9963 722.5017 301.8835 723.2239 313.6563 733.6072 320.626 735.325 326.7422 Z"/>
<path d="M 720.4143 338.3936 715.7993 342.2315 710.2428 358.4924 710.496 383.6261 705.3214 393.5869 706.2203 398.4412 701.0224 406.9525 699.1714 403.9236 683.0068 410.155 681.6154 404.6964 673.248 402.0292 666.0049 391.8837 666.0323 377.4211 666.1618 360.8196 671.1104 354.7663 670.9556 336.7618 683.0819 336.7618 687.4617 331.3361 694.2602 337.3502 704.0985 332.5127 720.4143 338.3936 Z"/>
<path d="M 683.0068 410.155 674.8665 417.3392 669.3945 418.0418 649.7776 418.3845 645.4219 423.2629 635.1424 427.6186 627.7469 426.4843 626.9457 425.9199 623.5507 411.5807 617.3189 407.7278 619.3522 394.9818 627.9812 383.4464 643.2116 383.1663 650.0478 375.4347 666.0323 377.4211 666.0049 391.8837 673.248 402.0292 681.6154 404.6964 683.0068 410.155 Z"/>
<path d="M 733.4927 363.4234 722.814 368.9816 719.245 375.824 710.496 383.6261 710.2428 358.4924 715.7993 342.2315 720.4143 338.3936 727.8344 333.3173 726.6263 342.9669 733.4927 363.4234 Z"/>
<path d="M 650.5304 320.5742 651.6997 324.1243 652.321 328.4031 643.3116 334.2829 636.1041 345.9478 631.5142 358.3734 621.8102 356.6393 613.3479 352.981 609.1171 357.5467 604.5253 354.4417 609.0869 341.8812 620.3848 332.6206 611.791 328.8423 610.1316 323.8068 615.6489 318.2431 634.3394 313.9166 641.8386 319.1084 650.5304 320.5742 Z"/>
<path d="M 610.1316 323.8068 611.791 328.8423 620.3848 332.6206 609.0869 341.8812 604.5253 354.4417 600.5672 355.3645 582.9351 338.9919 582.7869 333.4147 591.9108 325.4539 603.5635 321.7043 610.1316 323.8068 Z"/>
<path d="M 733.4927 363.4234 726.6263 342.9669 727.8344 333.3173 735.325 326.7422 739.2748 339.4669 747.5574 347.4869 746.2633 355.7795 740.9642 361.5 733.4927 363.4234 Z"/>
<path d="M 582.7869 333.4147 582.9351 338.9919 600.5672 355.3645 604.5253 354.4417 609.1171 357.5467 608.8554 364.6797 607.9386 383.1462 601.8266 398.2594 602.7876 410.5678 590.7648 416.8321 582.9352 416.8321 576.0766 406.8781 569.2484 410.2163 562.4146 407.5785 553.1532 373.2188 559.0799 361.069 559.3873 348.5632 570.134 348.9324 568.6919 340.8563 574.1721 334.2223 582.7869 333.4147 Z"/>
<path d="M 631.5142 358.3734 631.8251 370.0361 627.9812 383.4464 619.3522 394.9818 617.3189 407.7278 611.6136 411.7337 602.7876 410.5678 601.8266 398.2594 607.9386 383.1462 608.8554 364.6797 611.0117 360.1515 621.8102 356.6393 631.5142 358.3734 Z"/>
<path d="M 621.8102 356.6393 611.0117 360.1515 608.8554 364.6797 609.1171 357.5467 613.3479 352.981 621.8102 356.6393 Z"/>
<path d="M 559.3873 348.5632 559.0799 361.069 553.1532 373.2188 562.4146 407.5785 560.5083 410.7625 546.3729 408.105 538.8811 400.0905 538.8811 391.0306 526.1624 386.6749 519.716 390.1595 513.3407 381.2736 518.4656 373.0446 514.6142 360.2999 515.1977 353.0172 519.9466 352.0475 526.9844 353.9512 542.3002 342.2985 552.6261 348.8748 559.3873 348.5632 Z"/>
<path d="M 659.068 280.9395 657.3059 288.7111 658.4777 301.2399 656.4947 311.6957 650.5304 320.5742 641.8386 319.1084 634.3394 313.9166 615.6489 318.2431 610.1316 323.8068 603.5635 321.7043 591.9108 325.4539 582.7869 333.4147 574.1721 334.2223 568.6919 340.8563 570.134 348.9324 559.3873 348.5632 552.6261 348.8748 542.3002 342.2985 526.9844 353.9512 519.9466 352.0475 515.2731 342.0724 518.0608 322.3846 526.9465 315.7639 530.2568 300.2576 536.529 299.7349 540.0136 287.3646 548.725 279.8728 561.0953 280.047 574.7722 269.2449 571.719 261.3463 579.8248 245.724 585.7486 247.1178 592.7177 243.1106 623.8175 257.2231 625.2114 266.8057 634.2202 270.2718 642.6888 277.0554 659.068 280.9395 Z"/>
<path d="M 716.2871 275.9963 703.4553 280.0581 693.0734 280.2302 687.6723 272.5552 691.8538 259.4881 701.4364 257.0489 706.6632 252.5189 715.7444 252.0887 717.6657 259.6281 714.6349 266.0507 716.2871 275.9963 Z"/>
<path d="M 460.5813 141.8703 465.3425 149.1797 466.168 165.9331 486.2769 166.4187 490.3254 173.765 489.427 181.9632 505.7112 196.226 500.6785 212.2504 494.6141 219.101 488.9624 220.1268 485.39 215.6263 477.3604 214.7393 473.0187 220.0146 457.6364 227.6708 437.6323 249.4255 435.835 242.7964 426.5449 236.0739 418.8653 233.7397 421.3863 224.7297 421.0128 203.2551 418.9119 187.4416 423.5953 175.4034 415.1953 167.9011 415.1953 159.6935 420.2026 148.7482 424.0821 143.3908 433.319 138.4645 444.7208 137.0482 460.5813 141.8703 Z"/>
<path d="M 482.0613 87.7016 483.6156 95.6214 473.266 95.86 466.1818 89.0885 450.5302 94.0198 439.1317 92.3927 441.6859 76.9745 426.7847 66.3614 429.6256 58.75 423.1934 46.9577 416.7612 51.353 408.9354 42.0263 406.4697 10.8303 409.5768 1.1013 444.2588 1 449.2973 9.2222 464.8418 17.7984 472.8284 38.0598 473.0428 44.8136 466.9322 52.3178 468.1651 63.7886 474.3828 69.3631 482.0613 87.7016 Z"/>
<path d="M 375.3065 78.7426 375.1039 85.6915 380.3452 100.1391 391.9169 98.2672 396.3839 102.0109 404.8073 116.2202 420.2683 118.4305 414.2294 125.9485 426.3143 134.0308 420.2026 148.7482 415.1953 159.6935 415.1953 167.9011 423.5953 175.4034 418.9119 187.4416 409.972 199.1469 397.9858 202.8636 387.5492 202.1596 384.463 182.408 395.0122 172.4199 390.7476 167.5943 393.8899 159.0652 386.3147 146.2715 377.8979 140.9969 379.469 129.9989 374.8117 122.0309 361.9058 122.592 354.8356 126.6321 352.1989 133.2959 335.8135 118.7764 331.7101 120.2274 327.1722 112.3795 308.9917 108.5639 315.4446 103.626 321.2803 94.3113 333.1762 88.9245 342.8275 88.0267 350.5711 82.5277 375.3065 78.7426 Z"/>
<path d="M 439.1317 92.3927 436.1189 105.074 425.6533 117.2413 420.2683 118.4305 404.8073 116.2202 396.3839 102.0109 391.9169 98.2672 380.3452 100.1391 375.1039 85.6915 375.3065 78.7426 377.1965 61.0646 373.1984 44.3712 374.7415 31.6056 368.4289 15.4732 371.4263 1.5625 409.5768 1.1013 406.4697 10.8303 408.9354 42.0263 416.7612 51.353 423.1934 46.9577 429.6256 58.75 426.7847 66.3614 441.6859 76.9745 439.1317 92.3927 Z"/>
<path d="M 599.8089 79.5668 610.2071 80.4231 627.6144 98.2664 631.7734 107.1881 647.3025 126.7085 644.4516 132.0078 648.2081 145.4239 667.6278 159.5107 680.4402 165.9504 677.5222 172.1218 686.2426 173.8659 698.7866 182.318 703.0462 190.8372 697.1432 205.5278 697.1096 212.37 685.2338 223.6771 675.1831 219.7812 668.619 212.1321 672.4435 206.2731 668.7004 194.9351 658.0404 188.6964 655.4364 180.2878 641.6842 180.1793 635.9881 187.0147 606.4494 180.6675 602.219 182.8546 588.5211 176.9415 557.8876 178.2805 563.8703 170.718 568.5839 146.5801 568.3249 137.9299 559.7524 129.7976 564.2227 94.6056 570.7778 87.8906 573.8537 74.065 579.8152 72.2892 587.3623 78.6947 599.8089 79.5668 Z"/>
<path d="M 685.2338 223.6771 679.8364 233.9028 678.8302 243.0257 700.6984 241.7512 715.2548 247.9896 715.7444 252.0887 706.6632 252.5189 701.4364 257.0489 691.8538 259.4881 687.6723 272.5552 693.0734 280.2302 671.5562 281.2666 664.7613 278.3048 659.068 280.9395 642.6888 277.0554 634.2202 270.2718 625.2114 266.8057 623.8175 257.2231 592.7177 243.1106 585.7486 247.1178 579.8248 245.724 571.719 261.3463 565.1381 255.4362 569.2436 244.1019 578.9981 229.2058 585.9176 223.4395 588.3202 203.8102 602.219 182.8546 606.4494 180.6675 635.9881 187.0147 641.6842 180.1793 655.4364 180.2878 658.0404 188.6964 668.7004 194.9351 672.4435 206.2731 668.619 212.1321 675.1831 219.7812 685.2338 223.6771 Z"/>
<path d="M 564.2227 94.6056 559.7524 129.7976 568.3249 137.9299 568.5839 146.5801 563.8703 170.718 557.8876 178.2805 545.0417 181.2848 546.3367 169.1122 542.2447 166.0044 542.6849 147.7197 515.7759 145.2334 512.6162 150.206 502.7746 156.1109 494.461 157.4577 486.2769 166.4187 466.168 165.9331 465.3425 149.1797 460.5813 141.8703 466.0811 132.1411 465.5038 110.9732 473.266 95.86 483.6156 95.6214 490.9949 92.8374 508.7209 93.4082 522.8954 83.5146 531.0132 80.9144 538.37 89.2225 548.4221 95.6914 564.2227 94.6056 Z"/>
<path d="M 557.8876 178.2805 588.5211 176.9415 602.219 182.8546 588.3202 203.8102 585.9176 223.4395 578.9981 229.2058 569.2436 244.1019 565.1381 255.4362 571.719 261.3463 574.7722 269.2449 561.0953 280.047 548.725 279.8728 540.0136 287.3646 536.529 299.7349 530.2568 300.2576 526.9465 315.7639 518.0608 322.3846 515.2731 342.0724 519.9466 352.0475 515.1977 353.0172 508.3585 344.9876 502.6397 323.4196 491.1088 299.8909 487.4674 297.9768 477.337 305.1195 460.6008 301.152 468.2803 287.3329 482.3089 284.1117 491.7624 256.8949 490.6186 223.796 488.9624 220.1268 494.6141 219.101 500.6785 212.2504 505.7112 196.226 489.427 181.9632 490.3254 173.765 486.2769 166.4187 494.461 157.4577 502.7746 156.1109 512.6162 150.206 515.7759 145.2334 542.6849 147.7197 542.2447 166.0044 546.3367 169.1122 545.0417 181.2848 557.8876 178.2805 Z"/>
<path d="M 100.3017 286.6062 104.4064 291.7135 102.5899 304.4123 91.5197 306.441 82.4119 302.1778 67.103 304.3094 51.0189 303.9218 43.0101 301.783 32.5438 293.9855 45.2029 290.5171 53.6168 282.3877 59.5423 282.5495 66.7559 284.2524 81.0454 277.0285 89.0145 282.7725 100.3017 286.6062 Z"/>
<path d="M 473.266 95.86 465.5038 110.9732 466.0811 132.1411 460.5813 141.8703 444.7208 137.0482 433.319 138.4645 424.0821 143.3908 420.2026 148.7482 426.3143 134.0308 414.2294 125.9485 420.2683 118.4305 425.6533 117.2413 436.1189 105.074 439.1317 92.3927 450.5302 94.0198 466.1818 89.0885 473.266 95.86 Z"/>
<path d="M 397.9858 202.8636 397.8739 208.3319 388.355 222.2155 376.9398 225.2645 376.6469 250.58 365.8113 259.4958 355.7242 259.0402 349.5742 249.3435 335.0617 254.9403 333.5886 250.0475 332.7514 239.9071 341.3743 214.4614 340.9584 204.15 346.2227 197.6061 344.6283 191.2284 352.1123 185.5015 360.6701 169.8826 360.54 161.1621 347.782 157.2385 346.0681 151.7472 350.68 144.6033 352.1989 133.2959 354.8356 126.6321 361.9058 122.592 374.8117 122.0309 379.469 129.9989 377.8979 140.9969 386.3147 146.2715 393.8899 159.0652 390.7476 167.5943 395.0122 172.4199 384.463 182.408 387.5492 202.1596 397.9858 202.8636 Z"/>
<path d="M 307.0656 178.4079 310.4519 182.2274 304.9606 191.2422 304.609 200.9175 289.7878 198.3524 274.9861 204.5818 249.8899 206.0697 237.0492 215.606 239.1451 197.4237 229.4564 195.4466 231.4317 188.4266 238.6986 188.6204 235.9857 176.412 240.8303 169.242 247.0771 167.16 256.8699 171.5096 266.8269 169.9477 278.6061 174.0477 286.3504 167.6049 295.494 176.6508 307.0656 178.4079 Z"/>
<path d="M 343.3408 299.1717 347.7358 299.7657 337.8804 311.2025 343.2825 314.136 350.7773 324.7612 326.9744 341.0941 323.3004 346.8176 314.4346 351.8677 308.9356 341.2064 304.2221 339.9719 297.0235 331.3112 300.0705 322.8278 308.3991 321.8677 317.3277 313.9471 320.4239 306.0266 327.9632 297.6517 335.6225 300.4029 336.9257 291.3564 343.3408 299.1717 Z"/>
<path d="M 340.9584 204.15 341.3743 214.4614 332.7514 239.9071 333.5886 250.0475 330.7927 251.7827 327.0394 268.1812 320.568 273.9603 311.9513 271.7041 302.5907 274.4883 290.6618 282.6489 283.4373 281.0168 273.7406 287.1132 272.5666 278.0539 270.6924 274.1043 256.4353 271.8961 249.5678 251.5696 243.6132 244.4355 260.5381 239.1124 274.4601 238.2935 281.0489 232.8586 288.1961 220.7234 296.0722 214.9753 298.136 224.381 305.6906 221.9051 314.261 213.9061 315.425 201.5909 332.9571 201.2092 340.9584 204.15 Z"/>
<path d="M 224.098 235.4904 234.0713 242.5371 243.6132 244.4355 249.5678 251.5696 256.4353 271.8961 270.6924 274.1043 272.5666 278.0539 270.756 287.5252 251.6711 289.1971 241.1562 288.1374 239.6479 282.6788 231.9627 281.7451 225.9295 286.4854 214.0785 275.8555 210.0204 256.9658 202.2886 263.6454 200.6115 256.6785 189.5833 257.7886 198.0617 242.5292 202.6585 245.4021 209.4099 240.0871 219.4294 227.7334 224.098 235.4904 Z"/>
<path d="M 340.9584 204.15 332.9571 201.2092 315.425 201.5909 314.261 213.9061 305.6906 221.9051 298.136 224.381 296.0722 214.9753 298.5169 206.6054 304.609 200.9175 304.9606 191.2422 310.4519 182.2274 307.0656 178.4079 315.1152 175.9349 320.8421 163.2446 332.5887 166.889 346.3854 166.5636 347.782 157.2385 360.54 161.1621 360.6701 169.8826 352.1123 185.5015 344.6283 191.2284 346.2227 197.6061 340.9584 204.15 Z"/>
<path d="M 378.0662 286.5347 379.5251 295.3063 374.7098 311.3654 376.3267 319.3225 370.1543 328.5249 345.5771 340.7575 343.2764 347.2665 335.5329 347.7154 326.9744 341.0941 350.7773 324.7612 343.2825 314.136 337.8804 311.2025 347.7358 299.7657 356.9066 295.8018 361.5869 286.3451 378.0662 286.5347 Z"/>
<path d="M 343.3408 299.1717 336.9257 291.3564 327.9187 291.7783 327.9632 297.6517 320.4239 306.0266 317.3277 313.9471 308.3991 321.8677 300.0705 322.8278 297.0235 331.3112 284.1339 338.2885 278.1186 331.8244 263.664 328.0536 260.3758 334.4684 248.7518 326.0038 247.2792 318.5369 255.9429 317.9085 261.2399 309.6487 251.6711 289.1971 270.756 287.5252 272.5666 278.0539 273.7406 287.1132 283.4373 281.0168 290.6618 282.6489 302.5907 274.4883 311.9513 271.7041 320.568 273.9603 327.0394 268.1812 329.2566 273.5282 347.6899 281.4008 343.3408 299.1717 Z"/>
<path d="M 394.3064 259.6351 380.2546 265.0056 378.0662 286.5347 361.5869 286.3451 356.9066 295.8018 347.7358 299.7657 343.3408 299.1717 347.6899 281.4008 329.2566 273.5282 327.0394 268.1812 330.7927 251.7827 333.5886 250.0475 335.0617 254.9403 349.5742 249.3435 355.7242 259.0402 365.8113 259.4958 376.6469 250.58 376.9398 225.2645 388.355 222.2155 386.0342 231.6747 393.6655 241.775 406.5714 247.4985 400.0062 257.711 394.3064 259.6351 Z"/>
<path d="M 304.609 200.9175 298.5169 206.6054 296.0722 214.9753 288.1961 220.7234 281.0489 232.8586 274.4601 238.2935 260.5381 239.1124 243.6132 244.4355 234.0713 242.5371 224.098 235.4904 226.0372 227.3025 237.0492 215.606 249.8899 206.0697 274.9861 204.5818 289.7878 198.3524 304.609 200.9175 Z"/>
<path d="M 308.9917 108.5639 327.1722 112.3795 331.7101 120.2274 332.6213 126.6705 308.6398 127.126 297.2836 132.3323 290.0599 141.8989 281.738 148.2603 270.756 151.1888 263.4347 147.6095 258.2284 154.7681 247.2413 158.4986 238.1173 153.5455 239.4738 147.9258 234.8207 139.3605 242.2538 135.3745 242.9499 127.0211 253.5077 120.524 259.6568 124.4686 263.9495 116.1152 294.6947 106.7176 296.0289 115.8832 308.9917 108.5639 Z"/>
<path d="M 375.3065 78.7426 350.5711 82.5277 342.8275 88.0267 333.1762 88.9245 321.2803 94.3113 315.4446 103.626 308.9917 108.5639 296.0289 115.8832 294.6947 106.7176 263.9495 116.1152 259.6568 124.4686 253.5077 120.524 242.9499 127.0211 242.2538 135.3745 234.8207 139.3605 228.4067 132.0733 221.7425 128.5474 200.2325 110.9131 190.2313 105.689 196.1635 79.5818 205.9832 74.3914 206.9651 67.7981 216.0834 50.263 214.6806 41.285 233.8991 28.2388 248.7689 28.5194 253.2579 32.5875 261.3943 30.4833 270.5827 23.8901 286.9956 18.9803 287.8373 24.5915 306.635 34.6918 331.8856 24.8721 341.1442 19.2608 350.4027 16.876 366.4649 8.3189 371.4263 1.5625 368.4289 15.4732 374.7415 31.6056 373.1984 44.3712 377.1965 61.0646 375.3065 78.7426 Z"/>
<path d="M 336.9257 291.3564 335.6225 300.4029 327.9632 297.6517 327.9187 291.7783 336.9257 291.3564 Z"/>
<path d="M 126.1928 210.1979 114.8671 221.7047 115.441 231.5807 125.7699 245.2318 122.0863 259.5225 117.0023 272.1413 100.3017 286.6062 89.0145 282.7725 81.0454 277.0285 83.9104 270.2992 92.6085 265.7085 88.1085 259.4568 87.9192 251.42 90.8568 243.7217 96.7763 239.1311 106.8335 221.5235 105.867 208.8388 109.8537 207.0871 126.1535 205.1393 126.1928 210.1979 Z"/>
<path d="M 162.3442 235.3223 150.9145 251.6002 150.6972 257.8494 142.0005 264.9713 131.3423 255.0883 122.0863 259.5225 125.7699 245.2318 115.441 231.5807 114.8671 221.7047 126.1928 210.1979 138.4546 208.2046 157.9045 219.8624 156.636 228.5001 162.3442 235.3223 Z"/>
<path d="M 67.816 241.2623 72.9472 251.6648 87.9192 251.42 88.1085 259.4568 92.6085 265.7085 83.9104 270.2992 81.0454 277.0285 66.7559 284.2524 59.5423 282.5495 46.6691 282.0485 39.4806 287.8802 30.1477 286.4907 19.3048 275.6697 4.3699 275.7026 6.1862 264.4986 1 251.0846 5.6352 247.2883 29.3238 237.8973 35.0041 237.8226 44.3094 249.8559 57.2401 249.1553 59.7435 243.2787 67.816 241.2623 Z"/>
<path d="M 247.2413 158.4986 247.0771 167.16 240.8303 169.242 235.9857 176.412 238.6986 188.6204 231.4317 188.4266 229.4564 195.4466 209.7279 192.4961 204.6896 203.7356 198.4885 202.9604 171.5525 211.2931 173.2966 219.8196 169.4209 235.1286 162.3442 235.3223 156.636 228.5001 157.9045 219.8624 138.4546 208.2046 126.1928 210.1979 126.1535 205.1393 134.8606 195.9125 144.0117 192.4393 147.6359 184.1036 157.1193 175.4056 166.814 170.0599 183.3947 168.0968 191.1263 155.2308 208.3111 141.3079 221.1468 138.6199 228.4067 132.0733 234.8207 139.3605 239.4738 147.9258 238.1173 153.5455 247.2413 158.4986 Z"/>
<path d="M 99.0105 457.4125 88.4802 457.3063 84.5132 464.0678 77.3062 463.3169 71.4802 455.5737 73.449 436.4224 72.0562 428.946 91.4399 428.7748 103.3465 430.7506 101.2667 439.5895 104.5943 447.8046 99.0105 457.4125 Z"/>
<path d="M 26.214 403.1337 36.6177 419.0864 31.1751 425.2779 18.2554 411.0339 17.1669 405.3744 23.1323 403.3074 22.6459 400.3991 26.214 403.1337 Z"/>
<path d="M 71.0201 427.5982 72.0562 428.946 73.449 436.4224 71.4802 455.5737 66.1738 457.413 58.209 453.9992 44.8024 442.041 35.5799 428.127 31.1751 425.2779 36.6177 419.0864 42.4466 421.7297 46.6935 416.4049 57.6181 418.1627 63.9999 427.791 71.0201 427.5982 Z"/>
<path d="M 18.2554 411.0339 31.1751 425.2779 35.5799 428.127 44.8024 442.041 58.209 453.9992 66.1738 457.413 71.4802 455.5737 77.3062 463.3169 61.9073 465.0229 59.9331 468.8477 48.3469 474.309 40.5563 470.5691 36.4004 451.9075 28.6372 438.4827 20.3204 435.4595 7.6775 416.3851 8.2508 410.3695 18.2554 411.0339 Z"/>
<path d="M 22.6459 400.3991 23.1323 403.3074 19.7316 401.0628 21.1793 397.3314 22.1518 397.2176 22.6459 400.3991 Z"/>
<path d="M 27.3666 398.7047 26.7226 399.9611 23.6007 397.3405 27.3666 398.7047 Z"/>
<path d="M 23.6007 397.3405 26.7226 399.9611 26.214 403.1337 22.6459 400.3991 22.1518 397.2176 23.6007 397.3405 Z"/>
<path d="M 21.1793 397.3314 19.7316 401.0628 18.6173 400.6745 18.6295 398.1284 21.1793 397.3314 Z"/>
<path d="M 14.1123 398.245 17.1669 405.3744 18.2554 411.0339 8.2508 410.3695 5.9295 394.9883 14.1123 398.245 Z"/>
<path d="M 18.6295 398.1284 18.6173 400.6745 16.0147 398.8736 18.6295 398.1284 Z"/>
<path d="M 16.0147 398.8736 18.6173 400.6745 19.7316 401.0628 23.1323 403.3074 17.1669 405.3744 14.1123 398.245 16.0147 398.8736 Z"/>
<path d="M 602.7876 410.5678 611.6136 411.7337 617.3189 407.7278 623.5507 411.5807 626.9457 425.9199 623.6433 423.7856 608.4854 429.0125 591.5853 438.4208 578.6052 435.2847 572.333 436.6785 560.3016 430.4683 555.4328 430.2321 546.8601 437.7799 544.215 430.6128 541.4945 412.9834 546.3729 408.105 560.5083 410.7625 562.4146 407.5785 569.2484 410.2163 576.0766 406.8781 582.9352 416.8321 590.7648 416.8321 602.7876 410.5678 Z"/>
<path d="M 46.6935 416.4049 42.4466 421.7297 36.6177 419.0864 26.214 403.1337 26.7226 399.9611 27.3666 398.7047 32.5419 399.589 46.6935 416.4049 Z"/>
<g/>
</g>
</svg>