<?xml version="1.0" encoding="utf-8"?>
<!-- Generator: Adobe Illustrator 23.0.3, SVG Export Plug-In . SVG Version: 6.00 Build 0)  -->
<svg version="1.1" id="Layer_1" xmlns="http://www.w3.org/2000/svg" xmlns:xlink="http://www.w3.org/1999/xlink" x="0px" y="0px"
	 viewBox="0 0 800 810" style="enable-background:new 0 0 800 810;" xml:space="preserve">
<style type="text/css">
	.SLE{fill:none;stroke:#000000;stroke-miterlimit:10;}
</style>
<g id="sle_admbnda_adm2_1m_gov_ocha">
	<path id="_Pujehun" class="SLE" d="M569.6,699.5l-55,52.9l-4.2,31.4l-33.7,25.3l-43.4-30.4l-78-40.3l21-22.1l-4.1-54.7l17.9-26.2
		l27.5,9.2l14-21.9l41.3-9.5l29.6,10.8l15.2,51.7L569.6,699.5z"/>
	<path id="Port_Loko" class="SLE" d="M229.5,195.4l7.7,20.3L210,257l4.1,18.9l37.3,12.8l9,45.8l-21.2,16.3l29.2,24.7l-22.1,18
		L196,409.4l-21.3,20.3l-37.8-6.4l-37.9,34l-28-29.8l-23.8-21l0.8-29.9l-29.7-23.3l-2-38.5L43,301.8l61.7,1.8l-4.7-17.4L142,265
		l29.6-53.7L229.5,195.4z"/>
	<path id="Bonthe" class="SLE" d="M185.7,621.5l30.3,33.2l-23.9,15.7l-95-31.2l18.2-12.6L185.7,621.5z M316.2,610.6l56,51.1
		l4.1,54.7l-21,22.1l-139.2-49.4l1-63.6l10-34.1l39.2-4.2l29.3,27.4L316.2,610.6z"/>
	<path id="Bo" class="SLE" d="M473,613.2l-41.3,9.5l-14,21.9l-27.5-9.2l-17.9,26.2l-56-51.1l-5.6-77.6l57.2-7l27.9-46.1l-4.6-47.6
		l25.3-24.8l35.3-9.7l12,31.1l52.8,63.5l2.1,28.1l-16.6,66.5L473,613.2z"/>
	<path id="Kambia" class="SLE" d="M190.2,105.7l43.1,28.5l14,24.6l-18,36.7l-57.9,15.8L142,265l-42.1,21.1l4.7,17.4L43,301.8
		L1,251.1l28.3-13.2l27.9,11.3l36.1-34l0.5-25l38.1-1.4l26.9-28.8L190.2,105.7z"/>
	<path id="Kailahun" class="SLE" d="M658.6,627.2l-28.4-9.2l-28.7-58.8l3.3-23.7l39.9-77.1l0.7-35.2L701,407l-4.9,27.5l40.1,4.5
		l49.5-45.5l13.2,15.9l-6.9,57.9l-14.6,19.7l-38.6,1.1l-27.8,27.6l-0.5,69.8L658.6,627.2z"/>
	<path id="Koinadugu" class="SLE" d="M715.7,252.1l-22.7,28.7l-50.4-3.7l-50-33.9l-44,36.8l-30.7,42.5l-2.9,30.6l-32.9-68.9
		l8.3-60.3l-13.3-9.1l-38.2,32L398,202.9l-4.1-43.8l-41.3-25.5l-31.3-39.3l54.1-15l-3.9-77.7l178-0.6l97.9,125.7l0.9,18.7l54.8,45.4
		L678.8,243L715.7,252.1z"/>
	<path id="Bombali" class="SLE" d="M398,202.9l-12,28.8l-15.9,96.9l-55.7,23.3L297,331.3l-36.6,3.2l-9-45.8l-37.3-12.8L210,257
		l27.1-41.2l-7.7-20.3l18-36.7l-14-24.6l-43.1-28.5l24.4-64.4l73.2-16.7l18.8,10.1l64.8-33.1l3.9,77.7l-54.1,15l31.3,39.3l41.3,25.5
		L398,202.9z"/>
	<path id="Moyamba" class="SLE" d="M174.7,429.7l34.4,21.1l43-17.7l86.1-4.2l52.8,3.3l4.6,47.6L367.7,526l-57.2,7l5.6,77.6l-20.5,4
		l-29.3-27.4l-39.2,4.2l-36.6,17.7l-32.7-4.1l-61.7-54.1l19.4-12.6l-27-81l10.5,0.1l37.9-34L174.7,429.7z"/>
	<path id="Kenema" class="SLE" d="M513.3,381.3l25.5,9.8l4.9,42.2l47.8,5.2l53.8-15.2l-0.7,35.2l-39.9,77.1l-3.3,23.7l28.7,58.8
		l28.4,9.2l-89,72.3l-51.9-23.7l-15.2-51.7L473,613.2l29-26.1l16.6-66.5l-2.1-28.1L463.8,429l-12-31.1L513.3,381.3z"/>
	<path id="Tonkolili" class="SLE" d="M515.2,353l-1.9,28.3l-61.6,16.6l-35.3,9.7L391,432.3l-52.8-3.3l-86.1,4.2l-43,17.7l-34.4-21.1
		l21.3-20.3l50.2-15.9l22.1-18l-29.2-24.7l21.2-16.3l36.6-3.2l17.5,20.6l55.7-23.3l15.9-96.9l12-28.8l41.2,43.9l38.2-32l13.3,9.1
		l-8.3,60.3L515.2,353z"/>
	<path id="Kono" class="SLE" d="M715.7,252.1l7.5,61.6l24.3,33.8L701,407l-55.6,16.3l-53.8,15.2l-47.8-5.2l-4.9-42.2l-25.5-9.8
		l1.9-28.3l2.9-30.6l30.7-42.5l44-36.8l50,33.9l50.4,3.7L715.7,252.1z"/>
	<path id="Western_Area" d="M46.7,416.4L71,427.6l28,29.8l-10.5-0.1l-40.1,17L8.3,410.4L46.7,416.4z"/>
</g>
</svg>
