<?xml version="1.0"?>
<svg xmlns="http://www.w3.org/2000/svg" version="1.2" baseProfile="tiny" width="800" height="813" viewBox="0 0 800 813" stroke-linecap="round" stroke-linejoin="round">
<g id="sle_admbnda_adm3_1m_gov_ocha">
<path d="M 427.9385 733.089 423.9763 729.142 429.9188 725.9632 427.9385 733.089 Z M 418.2469 732.7321 416.3386 745.8101 372.6071 735.7278 376.7637 720.4346 388.3089 721.2303 411.2968 710.8408 418.2469 732.7321 Z"/>
<path d="M 157.4034 371.3738 187.0358 397.0203 175.1913 431.0408 137.2947 424.6489 99.3078 458.7971 103.657 432.0544 72.2717 430.2443 71.2325 428.8924 47.3333 407.8561 84.4554 380.3141 104.1086 382.0946 142.7024 372.4724 157.4034 371.3738 Z"/>
<path d="M 151.1514 258.6287 182.8484 261.5273 159.9763 295.454 104.5525 306.8192 102.8981 305.3327 100.6029 287.4727 122.4537 260.3068 151.1514 258.6287 Z"/>
<path d="M 450.6642 638.7798 460.261 669.7704 450.3192 679.5738 443.5117 680.7664 432.5958 684.7054 425.9206 696.6315 429.9188 725.9632 423.9763 729.142 418.2469 732.7321 411.2968 710.8408 388.3089 721.2303 376.7637 720.4346 371.5453 702.758 375.01 699.5493 402.6687 678.927 404.1349 664.524 437.8999 659.5649 450.6642 638.7798 Z"/>
<path d="M 485.9837 711.3362 466.1452 755.8577 463.7303 776.8153 451.656 758.7038 449.4136 727.3968 430.1378 687.3359 432.5958 684.7054 443.5117 680.7664 450.3192 679.5738 460.261 669.7704 470.8455 663.6184 485.9837 711.3362 Z"/>
<path d="M 463.7303 776.8153 455.5028 800.3371 434.2535 780.9229 427.9385 733.089 429.9188 725.9632 425.9206 696.6315 430.1378 687.3359 449.4136 727.3968 451.656 758.7038 463.7303 776.8153 Z"/>
<path d="M 373.3337 663.6758 375.01 699.5493 371.5453 702.758 342.5034 702.6832 326.8915 672.5602 333.8657 659.1646 355.8226 651.6638 373.3337 663.6758 Z"/>
<path d="M 503.7035 468.2833 503.8499 487.334 486.6008 483.4608 468.0253 484.6762 456.2165 459.4399 472.9813 434.7774 484.2552 442.922 503.7035 468.2833 Z"/>
<path d="M 472.9813 434.7774 456.2165 459.4399 428.1287 484.809 404.5821 490.1144 394.0403 487.6701 401.5812 438.5 392.2016 433.6419 417.0874 400.5201 453.0827 399.0905 472.9813 434.7774 Z"/>
<path d="M 516.6488 668.9594 526.3511 681.603 497.9374 710.7101 485.9837 711.3362 470.8455 663.6184 475.9541 648.7 490.0217 648.4758 510.9729 618.8149 516.6488 668.9594 Z"/>
<path d="M 252.4316 290.0714 262.0295 310.5851 249.5034 326.9898 197.828 342.4511 193.8409 327.6951 201.8346 301.5403 226.6119 287.3516 252.4316 290.0714 Z"/>
<path d="M 190.8054 106.0066 229.0966 132.4709 208.94 141.7335 183.9481 168.6037 167.317 170.5728 126.5332 205.7587 110.1839 207.7123 106.3723 196.187 132.4181 189.384 159.3856 160.5199 190.8054 106.0066 Z"/>
<path d="M 352.5806 618.92 358.2196 632.5357 355.8226 651.6638 333.8657 659.1646 322.9535 624.8246 316.4615 614.3273 317.1445 612.4693 352.5806 618.92 Z"/>
<path d="M 371.5453 702.758 376.7637 720.4346 372.6071 735.7278 356.3658 740.7059 321.0133 727.6911 332.4959 699.9049 342.5034 702.6832 371.5453 702.758 Z"/>
<path d="M 332.4959 699.9049 321.0133 727.6911 242.1696 697.9345 229.914 678.5558 251.1918 689.6923 264.2593 672.377 293.1924 662.3067 298.6048 689.251 332.4959 699.9049 Z"/>
<path d="M 209.7818 646.8526 213.8391 654.5323 192.7572 672.4497 117.4779 646.2599 131.9391 628.5721 191.1301 624.0268 209.7818 646.8526 Z"/>
<path d="M 527.6662 737.6273 498.9615 729.1648 497.9374 710.7101 526.3511 681.603 571.3589 701.6121 559.7423 722.544 527.6662 737.6273 Z"/>
<path d="M 418.572 645.7695 404.1349 664.524 402.6687 678.927 375.01 699.5493 373.3337 663.6758 414.9334 616.113 420.454 624.5018 418.572 645.7695 Z"/>
<path d="M 427.9385 733.089 434.2535 780.9229 356.3658 740.7059 372.6071 735.7278 416.3386 745.8101 418.2469 732.7321 423.9763 729.142 427.9385 733.089 Z"/>
<path d="M 450.6642 638.7798 437.8999 659.5649 404.1349 664.524 418.572 645.7695 432.9348 624.6152 474.3961 615.0771 473.0208 619.8819 450.6642 638.7798 Z"/>
<g/>
<path d="M 692.085 452.2158 689.6875 461.7897 676.5161 458.745 670.9304 456.4834 671.4222 419.3071 685.0759 411.3963 703.1461 408.184 692.085 452.2158 Z"/>
<path d="M 475.9541 648.7 470.8455 663.6184 460.261 669.7704 450.6642 638.7798 473.0208 619.8819 480.2818 628.2874 475.9541 648.7 Z"/>
<path d="M 497.9374 710.7101 498.9615 729.1648 527.6662 737.6273 511.9065 786.26 478.0606 811.657 455.5028 800.3371 463.7303 776.8153 466.1452 755.8577 485.9837 711.3362 497.9374 710.7101 Z"/>
<path d="M 263.979 652.6924 264.2593 672.377 251.1918 689.6923 229.914 678.5558 245.6013 649.8598 263.979 652.6924 Z"/>
<path d="M 601.6256 79.8052 575.5916 74.2866 565.9314 94.8896 532.6211 81.1568 485.0797 95.9085 483.5208 87.9647 506.9817 60.6885 511.9269 21.4095 493.0645 1 551.0625 1 567.8498 33.9691 607.5455 67.2319 601.6256 79.8052 Z"/>
<g/>
<path d="M 271.6725 596.5844 280.3438 608.4966 263.979 652.6924 245.6013 649.8598 223.4741 645.2442 203.9944 620.0358 227.8276 593.1657 233.2631 591.1262 252.1968 578.5576 271.6725 596.5844 Z"/>
<path d="M 316.4615 614.3273 322.9535 624.8246 311.3275 657.6976 293.1924 662.3067 264.2593 672.377 263.979 652.6924 280.3438 608.4966 316.4615 614.3273 Z"/>
<path d="M 353.2644 133.6973 348.834 157.7125 321.8124 163.7368 307.9941 178.9461 247.8236 167.6641 247.9883 158.9764 282.5897 148.7071 298.1825 132.7308 332.7134 120.5891 353.2644 133.6973 Z"/>
<path d="M 333.8657 659.1646 326.8915 672.5602 311.3275 657.6976 322.9535 624.8246 333.8657 659.1646 Z"/>
<path d="M 311.3275 657.6976 326.8915 672.5602 342.5034 702.6832 332.4959 699.9049 298.6048 689.251 293.1924 662.3067 311.3275 657.6976 Z"/>
<path d="M 327.6553 504.9651 332.9721 509.9239 336.4145 531.2743 308.7392 542.4132 278.0265 529.8832 274.3087 523.2626 278.5347 508.5107 327.6553 504.9651 Z"/>
<path d="M 420.8344 509.2635 401.5033 514.2387 404.5821 490.1144 428.1287 484.809 420.8344 509.2635 Z"/>
<path d="M 274.3087 523.2626 278.0265 529.8832 273.7013 549.1304 242.3581 553.6707 233.2631 591.1262 227.8276 593.1657 181.5333 607.9324 197.3461 581.3864 175.5852 551.1595 193.7741 524.343 194.1729 520.6065 217.6019 520.5061 274.3087 523.2626 Z"/>
<g/>
<path d="M 178.8301 455.9259 178.8672 490.4055 194.1729 520.6065 193.7741 524.343 107.2273 519.4325 108.8653 504.218 158.3378 452.8836 178.8301 455.9259 Z"/>
<path d="M 535.2026 494.7876 520.779 502.5649 503.8499 487.334 503.7035 468.2833 546.4553 447.0476 535.2026 494.7876 Z"/>
<path d="M 301.9921 438.5585 293.97 477.2098 280.9071 499.0117 253.1448 488.5982 227.6588 463.8146 223.7467 450.748 252.8252 434.4847 301.9921 438.5585 Z"/>
<path d="M 632.6235 590.7153 631.8686 618.803 600.0024 629.5956 561.4166 619.7034 589.2302 606.6704 610.3341 575.5444 632.6235 590.7153 Z"/>
<path d="M 193.7741 524.343 175.5852 551.1595 160.9483 576.5953 136.3775 579.8968 96.3946 552.5283 115.8414 539.9296 107.2273 519.4325 193.7741 524.343 Z"/>
<path d="M 756.8638 440.4574 767.4685 456.5505 755.39 486.7614 741.1297 489.5195 713.2753 517.4558 712.1954 490.7757 680.8052 483.3855 689.6875 461.7897 692.085 452.2158 698.2734 435.7523 726.0569 447.5631 746.6154 431.9198 756.8638 440.4574 Z"/>
<path d="M 535.2026 494.7876 553.8274 516.5068 548.5892 536.3814 515.2509 538.9722 520.5242 512.2796 520.779 502.5649 535.2026 494.7876 Z"/>
<path d="M 376.6875 529.5198 336.4145 531.2743 332.9721 509.9239 339.6324 499.282 377.9222 491.7272 376.6875 529.5198 Z"/>
<path d="M 280.9071 499.0117 278.5347 508.5107 274.3087 523.2626 217.6019 520.5061 222.1904 500.6639 209.3973 481.8002 227.6588 463.8146 253.1448 488.5982 280.9071 499.0117 Z"/>
<path d="M 308.7392 542.4132 309.6161 578.7465 271.6725 596.5844 252.1968 578.5576 233.2631 591.1262 242.3581 553.6707 273.7013 549.1304 278.0265 529.8832 308.7392 542.4132 Z"/>
<path d="M 223.7467 450.748 227.6588 463.8146 209.3973 481.8002 222.1904 500.6639 217.6019 520.5061 194.1729 520.6065 178.8672 490.4055 178.8301 455.9259 201.4736 450.2839 223.7467 450.748 Z"/>
<path d="M 392.2016 433.6419 401.5812 438.5 394.0403 487.6701 377.9222 491.7272 339.6324 499.282 332.9721 509.9239 327.6553 504.9651 355.0761 473.3104 354.5569 432.6098 392.2016 433.6419 Z"/>
<path d="M 493.0579 608.7781 480.2818 628.2874 473.0208 619.8819 474.3961 615.0771 493.0579 608.7781 Z"/>
<path d="M 373.3337 663.6758 355.8226 651.6638 358.2196 632.5357 397.0732 615.4243 405.0035 602.9116 415.0127 615.9961 414.9334 616.113 373.3337 663.6758 Z"/>
<path d="M 354.5569 432.6098 355.0761 473.3104 327.6553 504.9651 278.5347 508.5107 280.9071 499.0117 293.97 477.2098 301.9921 438.5585 327.8398 443.8498 346.57 424.745 354.5569 432.6098 Z"/>
<path d="M 610.3341 575.5444 589.2302 606.6704 561.4166 619.7034 551.2404 623.6482 540.6927 605.5977 554.9961 583.4138 575.9585 561.7737 598.3457 561.4775 602.521 560.1431 610.3341 575.5444 Z"/>
<path d="M 175.1913 431.0408 201.4736 450.2839 178.8301 455.9259 158.3378 452.8836 108.8653 504.218 83.7617 472.8529 88.7456 458.6906 99.3078 458.7971 137.2947 424.6489 175.1913 431.0408 Z"/>
<path d="M 520.5242 512.2796 515.2509 538.9722 484.0315 566.2223 456.3494 577.1442 438.5988 564.1906 469.7155 528.5584 487.5481 525.3338 520.5242 512.2796 Z"/>
<path d="M 565.5764 504.0336 553.8274 516.5068 535.2026 494.7876 546.4553 447.0476 548.5161 439.105 561.9984 431.7713 571.6107 481.6113 565.5764 504.0336 Z"/>
<path d="M 181.5333 607.9324 158.3003 606.802 136.3775 579.8968 160.9483 576.5953 175.5852 551.1595 197.3461 581.3864 181.5333 607.9324 Z"/>
<path d="M 317.1445 612.4693 316.4615 614.3273 280.3438 608.4966 271.6725 596.5844 309.6161 578.7465 317.1445 612.4693 Z"/>
<path d="M 514.895 382.4273 540.5129 392.2139 548.0275 409.3401 545.863 431.9162 498.5003 427.2123 484.2552 442.922 472.9813 434.7774 453.0827 399.0905 456.319 388.9813 514.895 382.4273 Z"/>
<path d="M 541.7168 580.9573 554.9961 583.4138 540.6927 605.5977 551.2404 623.6482 550.749 646.9634 516.6488 668.9594 510.9729 618.8149 528.6015 595.498 541.7168 580.9573 Z"/>
<path d="M 629.6483 427.7752 629.2918 465.198 613.7577 506.8087 565.5764 504.0336 571.6107 481.6113 561.9984 431.7713 593.377 439.7479 628.8447 427.209 629.6483 427.7752 Z"/>
<path d="M 644.1093 464.245 634.2932 489.4776 618.8264 505.8911 613.7577 506.8087 629.2918 465.198 629.6483 427.7752 647.3769 424.544 644.1093 464.245 Z"/>
<path d="M 528.6015 595.498 510.9729 618.8149 490.0217 648.4758 475.9541 648.7 480.2818 628.2874 493.0579 608.7781 503.0631 591.9423 528.6015 595.498 Z"/>
<path d="M 658.6452 520.2669 647.1034 533.8045 602.521 560.1431 598.3457 561.4775 618.8264 505.8911 634.2932 489.4776 641.8399 494.0609 658.6452 520.2669 Z"/>
<path d="M 660.5976 629.1264 650.2539 646.7613 607.8057 671.9416 596.2653 654.5334 600.0024 629.5956 631.8686 618.803 660.5976 629.1264 Z"/>
<path d="M 613.7577 506.8087 618.8264 505.8911 598.3457 561.4775 575.9585 561.7737 554.9961 583.4138 541.7168 580.9573 552.3482 567.1811 548.5892 536.3814 553.8274 516.5068 565.5764 504.0336 613.7577 506.8087 Z"/>
<path d="M 541.7168 580.9573 528.6015 595.498 503.0631 591.9423 482.8244 585.8566 484.0315 566.2223 515.2509 538.9722 548.5892 536.3814 552.3482 567.1811 541.7168 580.9573 Z"/>
<path d="M 545.863 431.9162 548.5161 439.105 546.4553 447.0476 503.7035 468.2833 484.2552 442.922 498.5003 427.2123 545.863 431.9162 Z"/>
<path d="M 561.4166 619.7034 600.0024 629.5956 596.2653 654.5334 607.8057 671.9416 571.3589 701.6121 526.3511 681.603 516.6488 668.9594 550.749 646.9634 551.2404 623.6482 561.4166 619.7034 Z"/>
<g/>
<path d="M 712.9728 533.4168 713.0364 562.5458 694.1275 555.0819 688.7373 518.9755 712.9728 533.4168 Z"/>
<path d="M 657.2617 556.8956 632.6235 590.7153 610.3341 575.5444 602.521 560.1431 647.1034 533.8045 658.6452 520.2669 658.7498 520.1622 657.2617 556.8956 Z"/>
<path d="M 756.8638 440.4574 746.6154 431.9198 778.4508 400.5253 777.7905 419.6738 756.8638 440.4574 Z"/>
<path d="M 799 405.1578 767.4685 456.5505 756.8638 440.4574 777.7905 419.6738 778.4508 400.5253 799 405.1578 Z"/>
<path d="M 755.39 486.7614 767.4685 456.5505 799 405.1578 794.5032 468.5976 779.8241 488.3947 755.39 486.7614 Z"/>
<path d="M 689.6875 461.7897 680.8052 483.3855 668.552 505.7825 658.7498 520.1622 658.6452 520.2669 641.8399 494.0609 676.5161 458.745 689.6875 461.7897 Z"/>
<path d="M 676.5161 458.745 641.8399 494.0609 634.2932 489.4776 644.1093 464.245 670.9304 456.4834 676.5161 458.745 Z"/>
<path d="M 694.1275 555.0819 713.0364 562.5458 703.1102 588.5052 660.5976 629.1264 631.8686 618.803 632.6235 590.7153 657.2617 556.8956 678.4858 544.5161 694.1275 555.0819 Z"/>
<path d="M 688.7373 518.9755 694.1275 555.0819 678.4858 544.5161 657.2617 556.8956 658.7498 520.1622 668.552 505.7825 688.7373 518.9755 Z"/>
<path d="M 106.3723 196.187 110.1839 207.7123 88.1829 252.1798 68.0187 241.9912 106.3723 196.187 Z"/>
<path d="M 713.2753 517.4558 712.9728 533.4168 688.7373 518.9755 668.552 505.7825 680.8052 483.3855 712.1954 490.7757 713.2753 517.4558 Z"/>
<path d="M 484.0315 566.2223 482.8244 585.8566 420.454 624.5018 414.9334 616.113 415.0127 615.9961 419.3412 574.0132 434.6732 565.0416 438.5988 564.1906 456.3494 577.1442 484.0315 566.2223 Z"/>
<path d="M 671.4222 419.3071 670.9304 456.4834 644.1093 464.245 647.3769 424.544 671.4222 419.3071 Z"/>
<path d="M 503.8499 487.334 520.779 502.5649 520.5242 512.2796 487.5481 525.3338 486.6008 483.4608 503.8499 487.334 Z"/>
<path d="M 486.6008 483.4608 487.5481 525.3338 469.7155 528.5584 451.9055 519.1396 444.6403 507.5044 468.0253 484.6762 486.6008 483.4608 Z"/>
<path d="M 376.6875 529.5198 380.4341 532.954 384.847 563.7733 368.5318 584.4287 352.5806 618.92 317.1445 612.4693 309.6161 578.7465 308.7392 542.4132 336.4145 531.2743 376.6875 529.5198 Z"/>
<path d="M 394.0403 487.6701 404.5821 490.1144 401.5033 514.2387 398.9384 515.1489 380.4341 532.954 376.6875 529.5198 377.9222 491.7272 394.0403 487.6701 Z"/>
<path d="M 420.8344 509.2635 451.9055 519.1396 469.7155 528.5584 438.5988 564.1906 434.6732 565.0416 418.3668 544.4158 409.7473 540.9554 398.9384 515.1489 401.5033 514.2387 420.8344 509.2635 Z"/>
<path d="M 438.957 250.1792 423.2973 277.4574 395.4996 260.4198 389.5301 222.8866 399.1902 203.476 420.1798 188.0072 420.1331 234.4458 438.957 250.1792 Z"/>
<path d="M 261.1627 335.4801 239.9031 351.8084 202.4557 363.9108 184.8003 356.4583 157.4034 371.3738 142.7024 372.4724 147.1828 351.3125 197.828 342.4511 249.5034 326.9898 261.1627 335.4801 Z"/>
<path d="M 405.0035 602.9116 397.0732 615.4243 358.2196 632.5357 352.5806 618.92 368.5318 584.4287 405.0035 602.9116 Z"/>
<path d="M 409.7473 540.9554 418.3668 544.4158 434.6732 565.0416 419.3412 574.0132 415.0127 615.9961 405.0035 602.9116 368.5318 584.4287 384.847 563.7733 380.4341 532.954 398.9384 515.1489 409.7473 540.9554 Z"/>
<path d="M 468.0253 484.6762 444.6403 507.5044 451.9055 519.1396 420.8344 509.2635 428.1287 484.809 456.2165 459.4399 468.0253 484.6762 Z"/>
<path d="M 159.9763 295.454 164.7494 303.4034 166.0802 318.7521 193.8409 327.6951 197.828 342.4511 147.1828 351.3125 142.7024 372.4724 104.1086 382.0946 96.1325 372.8848 114.9772 346.6103 104.5525 306.8192 159.9763 295.454 Z"/>
<path d="M 503.0631 591.9423 493.0579 608.7781 474.3961 615.0771 432.9348 624.6152 418.572 645.7695 420.454 624.5018 482.8244 585.8566 503.0631 591.9423 Z"/>
<g/>
<path d="M 202.8993 264.4422 200.5038 289.7404 164.7494 303.4034 159.9763 295.454 182.8484 261.5273 190.1554 258.5676 202.8993 264.4422 Z"/>
<path d="M 456.319 388.9813 453.0827 399.0905 417.0874 400.5201 412.2164 387.0849 423.2756 347.2507 461.8734 349.1645 456.319 388.9813 Z"/>
<path d="M 412.2164 387.0849 417.0874 400.5201 392.2016 433.6419 354.5569 432.6098 346.57 424.745 319.5288 398.167 327.2368 394.4566 350.1136 376.6858 366.3885 382.8547 391.6972 370.4556 412.2164 387.0849 Z"/>
<path d="M 395.4996 260.4198 423.2973 277.4574 432.6331 301.6801 461.19 306.6527 448.7968 337.7997 421.467 329.0239 408.5695 314.4067 375.8435 312.307 379.2101 287.4009 395.4996 260.4198 Z"/>
<path d="M 297.9216 332.3133 315.3855 352.9322 297.1596 366.9321 269.1159 376.4896 239.9031 351.8084 261.1627 335.4801 297.9216 332.3133 Z"/>
<path d="M 297.1596 366.9321 333.9335 372.1082 327.2368 394.4566 319.5288 398.167 279.798 397.1028 269.1729 376.6288 269.1159 376.4896 297.1596 366.9321 Z"/>
<path d="M 408.5695 314.4067 393.7272 319.899 381.3038 348.4169 350.1136 376.6858 327.2368 394.4566 333.9335 372.1082 297.1596 366.9321 315.3855 352.9322 327.9633 342.1259 336.5478 348.7673 371.2743 329.5186 375.8435 312.307 408.5695 314.4067 Z"/>
<path d="M 516.7577 354.0852 514.895 382.4273 456.319 388.9813 461.8734 349.1645 423.2756 347.2507 421.467 329.0239 448.7968 337.7997 461.19 306.6527 461.9951 302.0626 492.5957 300.7976 516.7577 354.0852 Z"/>
<path d="M 483.5208 87.9647 468.3458 52.4735 466.249 17.8494 445.6035 1 493.0645 1 511.9269 21.4095 506.9817 60.6885 483.5208 87.9647 Z"/>
<path d="M 490.4428 220.7916 493.2512 257.6713 483.769 284.9706 461.9951 302.0626 461.19 306.6527 432.6331 301.6801 423.2973 277.4574 438.957 250.1792 478.8055 215.3878 490.4428 220.7916 Z"/>
<path d="M 421.467 329.0239 423.2756 347.2507 412.2164 387.0849 391.6972 370.4556 366.3885 382.8547 350.1136 376.6858 381.3038 348.4169 393.7272 319.899 408.5695 314.4067 421.467 329.0239 Z"/>
<path d="M 319.5288 398.167 346.57 424.745 327.8398 443.8498 301.9921 438.5585 252.8252 434.4847 223.7467 450.748 201.4736 450.2839 175.1913 431.0408 187.0358 397.0203 196.6038 410.6374 246.9736 394.6591 269.1729 376.6288 279.798 397.1028 319.5288 398.167 Z"/>
<path d="M 54.3926 367.9113 38.7059 389.3585 17.3571 340.5105 54.3926 367.9113 Z"/>
<path d="M 43.1376 302.6955 102.8981 305.3327 104.5525 306.8192 114.9772 346.6103 96.1325 372.8848 54.3926 367.9113 17.3571 340.5105 16.4194 315.8981 43.1376 302.6955 Z"/>
<path d="M 269.1159 376.4896 269.1729 376.6288 246.9736 394.6591 196.6038 410.6374 187.0358 397.0203 157.4034 371.3738 184.8003 356.4583 202.4557 363.9108 239.9031 351.8084 269.1159 376.4896 Z"/>
<path d="M 230.1495 196.0365 237.7653 216.257 224.7748 236.2018 190.1554 258.5676 182.8484 261.5273 151.1514 258.6287 162.8336 236.0332 172.0699 211.9311 210.3612 193.0771 230.1495 196.0365 Z"/>
<path d="M 672.9881 337.7805 668.0499 378.5631 629.8834 384.6067 633.427 359.4576 653.6738 325.1046 672.9881 337.7805 Z"/>
<path d="M 226.6119 287.3516 201.8346 301.5403 193.8409 327.6951 166.0802 318.7521 164.7494 303.4034 200.5038 289.7404 202.8993 264.4422 226.6119 287.3516 Z"/>
<path d="M 737.5528 327.7304 730.0394 334.3254 722.5968 339.4172 672.9881 337.7805 653.6738 325.1046 652.501 321.5437 661.0644 281.7888 695.173 281.0774 718.4571 276.8306 725.415 314.6049 737.5528 327.7304 Z"/>
<path d="M 722.5968 339.4172 712.6485 384.7869 703.1461 408.184 685.0759 411.3963 668.0499 378.5631 672.9881 337.7805 722.5968 339.4172 Z"/>
<path d="M 685.0759 411.3963 671.4222 419.3071 647.3769 424.544 629.6483 427.7752 628.8447 427.209 619.1887 408.9617 629.8834 384.6067 668.0499 378.5631 685.0759 411.3963 Z"/>
<path d="M 735.715 364.5229 712.6485 384.7869 722.5968 339.4172 730.0394 334.3254 735.715 364.5229 Z"/>
<path d="M 652.501 321.5437 653.6738 325.1046 633.427 359.4576 623.6936 357.7182 610.962 358.6284 606.3562 355.514 611.9796 324.7861 652.501 321.5437 Z"/>
<path d="M 611.9796 324.7861 606.3562 355.514 584.552 334.4232 611.9796 324.7861 Z"/>
<path d="M 735.715 364.5229 730.0394 334.3254 737.5528 327.7304 748.5243 356.8559 735.715 364.5229 Z"/>
<path d="M 584.552 334.4232 606.3562 355.514 610.962 358.6284 610.6995 365.783 604.6133 411.8104 564.1178 408.812 554.8283 374.3481 561.0814 349.6176 584.552 334.4232 Z"/>
<path d="M 633.427 359.4576 629.8834 384.6067 619.1887 408.9617 604.6133 411.8104 610.6995 365.783 623.6936 357.7182 633.427 359.4576 Z"/>
<path d="M 623.6936 357.7182 610.6995 365.783 610.962 358.6284 623.6936 357.7182 Z"/>
<path d="M 561.0814 349.6176 554.8283 374.3481 564.1178 408.812 548.0275 409.3401 540.5129 392.2139 514.895 382.4273 516.7577 354.0852 521.521 353.1125 561.0814 349.6176 Z"/>
<path d="M 661.0644 281.7888 652.501 321.5437 611.9796 324.7861 584.552 334.4232 561.0814 349.6176 521.521 353.1125 519.6295 323.3596 550.3867 280.7189 573.4504 262.1361 594.5129 243.8451 627.1051 267.6121 661.0644 281.7888 Z"/>
<path d="M 718.4571 276.8306 695.173 281.0774 693.9497 260.2723 717.9128 252.8505 718.4571 276.8306 Z"/>
<path d="M 461.9756 142.2976 467.5792 166.4335 487.7492 166.9206 507.2424 196.8182 490.4428 220.7916 478.8055 215.3878 438.957 250.1792 420.1331 234.4458 420.1798 188.0072 421.4743 149.1965 461.9756 142.2976 Z"/>
<path d="M 483.5208 87.9647 485.0797 95.9085 474.6988 96.1477 440.4609 92.67 443.0229 77.205 410.173 42.1508 410.8163 1.1016 445.6035 1 466.249 17.8494 468.3458 52.4735 483.5208 87.9647 Z"/>
<path d="M 376.442 78.9784 406.0324 116.5698 421.5402 118.7868 421.4743 149.1965 420.1798 188.0072 399.1902 203.476 385.6264 182.9583 395.0819 159.5447 379.0413 141.4216 353.2644 133.6973 332.7134 120.5891 309.9261 108.8902 322.252 94.5944 376.442 78.9784 Z"/>
<path d="M 440.4609 92.67 421.5402 118.7868 406.0324 116.5698 376.442 78.9784 372.5501 1.5642 410.8163 1.1016 410.173 42.1508 443.0229 77.205 440.4609 92.67 Z"/>
<path d="M 601.6256 79.8052 612.0553 80.664 649.2632 127.0898 650.1716 145.862 682.5014 166.4509 705.1761 191.4132 687.3096 224.3526 657.4218 180.8317 637.9145 187.579 604.043 183.4064 559.5771 178.8183 570.0461 138.3453 565.9314 94.8896 575.5916 74.2866 601.6256 79.8052 Z"/>
<path d="M 687.3096 224.3526 717.9128 252.8505 693.9497 260.2723 695.173 281.0774 661.0644 281.7888 627.1051 267.6121 594.5129 243.8451 573.4504 262.1361 570.9675 244.8395 587.6922 224.1144 604.043 183.4064 637.9145 187.579 657.4218 180.8317 687.3096 224.3526 Z"/>
<path d="M 565.9314 94.8896 570.0461 138.3453 559.5771 178.8183 544.3283 148.1648 517.3376 145.671 487.7492 166.9206 467.5792 166.4335 461.9756 142.2976 474.6988 96.1477 485.0797 95.9085 532.6211 81.1568 565.9314 94.8896 Z"/>
<path d="M 559.5771 178.8183 604.043 183.4064 587.6922 224.1144 570.9675 244.8395 573.4504 262.1361 550.3867 280.7189 519.6295 323.3596 521.521 353.1125 516.7577 354.0852 492.5957 300.7976 461.9951 302.0626 483.769 284.9706 493.2512 257.6713 490.4428 220.7916 507.2424 196.8182 487.7492 166.9206 517.3376 145.671 544.3283 148.1648 559.5771 178.8183 Z"/>
<path d="M 100.6029 287.4727 102.8981 305.3327 43.1376 302.6955 59.7199 283.4036 81.2882 277.8659 100.6029 287.4727 Z"/>
<path d="M 474.6988 96.1477 461.9756 142.2976 421.4743 149.1965 421.5402 118.7868 440.4609 92.67 474.6988 96.1477 Z"/>
<path d="M 399.1902 203.476 389.5301 222.8866 366.9181 260.28 334.5976 250.803 341.9898 204.7664 361.7613 170.395 348.834 157.7125 353.2644 133.6973 379.0413 141.4216 395.0819 159.5447 385.6264 182.9583 399.1902 203.476 Z"/>
<path d="M 307.9941 178.9461 305.5301 201.5241 250.645 206.6919 237.7653 216.257 230.1495 196.0365 247.8236 167.6641 307.9941 178.9461 Z"/>
<path d="M 344.3794 300.0763 348.7877 300.6721 351.8385 325.7434 327.9633 342.1259 315.3855 352.9322 297.9216 332.3133 328.9551 298.5517 337.9449 292.2372 344.3794 300.0763 Z"/>
<path d="M 341.9898 204.7664 334.5976 250.803 328.0285 268.9917 291.5406 283.5033 273.3905 278.8944 257.2103 272.7179 244.3492 245.1741 275.2897 239.0134 296.9674 215.6244 316.3789 202.1994 341.9898 204.7664 Z"/>
<path d="M 224.7748 236.2018 244.3492 245.1741 257.2103 272.7179 273.3905 278.8944 252.4316 290.0714 226.6119 287.3516 202.8993 264.4422 190.1554 258.5676 224.7748 236.2018 Z"/>
<path d="M 341.9898 204.7664 316.3789 202.1994 296.9674 215.6244 305.5301 201.5241 307.9941 178.9461 321.8124 163.7368 348.834 157.7125 361.7613 170.395 341.9898 204.7664 Z"/>
<path d="M 379.2101 287.4009 375.8435 312.307 371.2743 329.5186 336.5478 348.7673 327.9633 342.1259 351.8385 325.7434 348.7877 300.6721 379.2101 287.4009 Z"/>
<path d="M 344.3794 300.0763 337.9449 292.2372 328.9551 298.5517 297.9216 332.3133 261.1627 335.4801 249.5034 326.9898 262.0295 310.5851 252.4316 290.0714 273.3905 278.8944 291.5406 283.5033 328.0285 268.9917 348.7417 282.2515 344.3794 300.0763 Z"/>
<path d="M 395.4996 260.4198 379.2101 287.4009 348.7877 300.6721 344.3794 300.0763 348.7417 282.2515 328.0285 268.9917 334.5976 250.803 366.9181 260.28 389.5301 222.8866 395.4996 260.4198 Z"/>
<path d="M 305.5301 201.5241 296.9674 215.6244 275.2897 239.0134 244.3492 245.1741 224.7748 236.2018 237.7653 216.257 250.645 206.6919 305.5301 201.5241 Z"/>
<path d="M 309.9261 108.8902 332.7134 120.5891 298.1825 132.7308 282.5897 148.7071 247.9883 158.9764 235.53 139.7803 243.684 127.4034 295.5857 107.0383 309.9261 108.8902 Z"/>
<path d="M 376.442 78.9784 322.252 94.5944 309.9261 108.8902 295.5857 107.0383 243.684 127.4034 235.53 139.7803 229.0966 132.4709 190.8054 106.0066 215.3289 41.4072 234.6057 28.3215 254.0232 32.6834 288.7075 24.6631 307.5622 34.794 351.4628 16.9242 372.5501 1.5642 376.442 78.9784 Z"/>
<g/>
<path d="M 126.5726 210.8325 115.2126 222.3743 122.4537 260.3068 100.6029 287.4727 81.2882 277.8659 88.1829 252.1798 110.1839 207.7123 126.5332 205.7587 126.5726 210.8325 Z"/>
<path d="M 162.8336 236.0332 151.1514 258.6287 122.4537 260.3068 115.2126 222.3743 126.5726 210.8325 158.3805 220.5264 162.8336 236.0332 Z"/>
<path d="M 68.0187 241.9912 88.1829 252.1798 81.2882 277.8659 59.7199 283.4036 30.2361 287.3568 4.3801 276.5359 1 251.8433 29.4097 238.616 44.4408 250.6109 68.0187 241.9912 Z"/>
<path d="M 247.9883 158.9764 247.8236 167.6641 230.1495 196.0365 210.3612 193.0771 172.0699 211.9311 162.8336 236.0332 158.3805 220.5264 126.5726 210.8325 126.5332 205.7587 167.317 170.5728 183.9481 168.6037 208.94 141.7335 229.0966 132.4709 235.53 139.7803 247.9883 158.9764 Z"/>
<path d="M 99.3078 458.7971 88.7456 458.6906 77.5377 464.7194 71.694 456.9528 72.2717 430.2443 103.657 432.0544 99.3078 458.7971 Z"/>
<path d="M 26.2905 404.3537 36.7258 420.3548 31.2666 426.5651 18.3077 412.2779 17.2159 406.6012 23.1994 404.5279 22.7115 401.6107 26.2905 404.3537 Z"/>
<path d="M 71.2325 428.8924 72.2717 430.2443 71.694 456.9528 58.3825 455.3735 31.2666 426.5651 36.7258 420.3548 46.8322 417.6652 71.2325 428.8924 Z"/>
<path d="M 18.3077 412.2779 31.2666 426.5651 58.3825 455.3735 71.694 456.9528 77.5377 464.7194 40.6763 471.9936 36.5078 453.2754 8.2728 411.6115 18.3077 412.2779 Z"/>
<path d="M 22.7115 401.6107 23.1994 404.5279 19.7885 402.2765 21.2405 398.5338 22.2159 398.4197 22.7115 401.6107 Z"/>
<path d="M 27.4466 399.9113 26.8007 401.1714 23.6692 398.5429 27.4466 399.9113 Z"/>
<path d="M 23.6692 398.5429 26.8007 401.1714 26.2905 404.3537 22.7115 401.6107 22.2159 398.4197 23.6692 398.5429 Z"/>
<path d="M 21.2405 398.5338 19.7885 402.2765 18.6707 401.8871 18.683 399.3332 21.2405 398.5338 Z"/>
<path d="M 14.1521 399.4502 17.2159 406.6012 18.3077 412.2779 8.2728 411.6115 14.1521 399.4502 Z"/>
<path d="M 18.683 399.3332 18.6707 401.8871 16.0603 400.0807 18.683 399.3332 Z"/>
<path d="M 16.0603 400.0807 18.6707 401.8871 19.7885 402.2765 23.1994 404.5279 17.2159 406.6012 14.1521 399.4502 16.0603 400.0807 Z"/>
<path d="M 604.6133 411.8104 619.1887 408.9617 628.8447 427.209 593.377 439.7479 561.9984 431.7713 548.5161 439.105 545.863 431.9162 548.0275 409.3401 564.1178 408.812 604.6133 411.8104 Z"/>
<path d="M 46.8322 417.6652 36.7258 420.3548 26.2905 404.3537 26.8007 401.1714 27.4466 399.9113 46.8322 417.6652 Z"/>
<g/>
</g>
</svg>