<?xml version="1.0"?>
<svg xmlns="http://www.w3.org/2000/svg" version="1.2" baseProfile="tiny" width="800" height="810" viewBox="0 0 800 810" stroke-linecap="round" stroke-linejoin="round">
<g id="sle_admbnda_adm3_1m_gov_ocha">
<path d="M 426.6472 730.8747 422.697 726.9396 428.6215 723.7704 426.6472 730.8747 Z M 416.9849 730.5189 415.0823 743.5574 399.2612 741.6657 371.4831 733.5056 375.6272 718.2586 387.1374 719.0518 396.9396 727.3923 410.0558 708.6938 416.9849 730.5189 Z"/>
<path d="M 156.9304 370.2536 160.8487 381.5208 174.2935 391.8697 186.4731 395.8225 178.1443 427.7561 174.6645 429.7401 168.6507 427.631 149.309 434.4941 136.8825 423.3675 119.6205 434.7021 112.4974 452.796 99.0105 457.4125 104.5943 447.8046 103.3465 430.7506 72.0562 428.946 71.0201 427.5982 47.1932 406.6255 67.2002 392.0339 74.4762 382.4602 84.203 379.1669 96.3423 387.4099 103.7968 380.9419 112.2 376.3906 135.9937 381.4324 142.2738 371.3488 156.9304 370.2536 Z"/>
<path d="M 150.6972 257.8494 182.2984 260.7393 181.6792 266.3118 157.3549 289.3978 159.4954 294.5634 121.1337 307.1325 104.2393 305.8942 102.5899 304.4123 100.3017 286.6062 117.0023 272.1413 122.0863 259.5225 131.3423 255.0883 142.0005 264.9713 150.6972 257.8494 Z"/>
<path d="M 449.3041 636.8508 455.237 642.9557 450.7658 657.0571 458.8719 667.7476 448.9602 677.5214 442.1733 678.7103 431.2904 682.6375 424.6354 694.5275 429.6137 701.2531 418.6937 711.9151 428.6215 723.7704 422.697 726.9396 416.9849 730.5189 410.0558 708.6938 407.3007 701.2961 388.9861 711.0983 387.1374 719.0518 375.6272 718.2586 370.4245 700.6354 373.8787 697.4364 389.502 681.6916 401.4538 676.8765 402.9155 662.5171 422.8639 662.2592 436.5784 657.573 443.9731 639.0004 449.3041 636.8508 Z"/>
<path d="M 484.5168 709.1878 472.4339 722.0613 475.7443 731.0467 464.7383 753.5746 468.4356 764.5806 462.3307 774.4688 456.9997 768.1059 439.5449 768.3639 450.2929 756.412 451.1957 745.707 444.5749 735.9908 448.0573 725.1997 443.1562 714.0217 428.9258 696.6099 428.8398 685.26 431.2904 682.6375 442.1733 678.7103 448.9602 677.5214 458.8719 667.7476 469.4244 661.6143 469.5104 669.1809 485.4605 695.2772 484.5168 709.1878 Z"/>
<path d="M 462.3307 774.4688 454.1281 797.9194 432.9431 778.5639 426.6472 730.8747 428.6215 723.7704 418.6937 711.9151 429.6137 701.2531 424.6354 694.5275 428.8398 685.26 428.9258 696.6099 443.1562 714.0217 448.0573 725.1997 444.5749 735.9908 451.1957 745.707 450.2929 756.412 439.5449 768.3639 456.9997 768.1059 462.3307 774.4688 Z"/>
<path d="M 372.2076 661.6714 376.6032 685.5682 373.8787 697.4364 370.4245 700.6354 341.4705 700.5609 325.9058 670.529 332.8589 657.1739 337.9911 650.3398 354.7494 649.6957 366.5342 648.3621 372.2076 661.6714 Z"/>
<path d="M 502.183 466.87 506.9157 475.2509 502.329 485.8631 485.132 482.0015 466.6127 483.2133 467.3134 463.7423 454.8396 458.0533 453.4625 450.8529 471.5537 433.4653 482.7936 441.5853 492.289 464.3168 502.183 466.87 Z"/>
<path d="M 471.5537 433.4653 453.4625 450.8529 454.8396 458.0533 458.048 475.7791 438.8634 472.3106 426.8368 483.3457 403.3614 488.635 392.8515 486.1981 396.061 462.237 401.9743 451.5095 400.3696 437.1768 391.0184 432.3333 408.4081 420.2888 416.3678 407.5441 415.8289 399.3117 427.035 402.5022 451.7154 397.8864 461.8365 413.195 463.7548 429.0207 471.5537 433.4653 Z"/>
<path d="M 515.0891 666.9391 524.7621 679.5444 510.9549 687.2376 514.7382 695.4921 509.1492 706.8421 496.4343 708.5635 484.5168 709.1878 485.4605 695.2772 469.5104 669.1809 469.4244 661.6143 474.5175 646.7409 488.5426 646.5174 509.4304 616.9463 513.3112 640.8087 510.9786 650.753 515.0891 666.9391 Z"/>
<path d="M 251.6711 289.1971 261.2399 309.6487 248.7518 326.0038 235.6351 327.5207 222.9864 334.8623 197.2327 341.4184 193.2576 326.707 201.0503 310.8033 201.2272 300.6313 225.9295 286.4854 231.9627 281.7451 251.6711 289.1971 Z"/>
<path d="M 190.2313 105.689 200.2325 110.9131 228.4067 132.0733 208.3111 141.3079 191.1263 155.2308 183.3947 168.0968 166.814 170.0599 147.6359 184.1036 144.0117 192.4393 126.1535 205.1393 109.8537 207.0871 106.0535 195.5966 113.6111 186.8764 132.0206 188.8142 148.1075 173.0248 147.823 158.3853 158.9065 160.0374 174.9684 129.2486 172.4738 122.5306 182.4523 104.6306 190.2313 105.689 Z"/>
<path d="M 351.5172 617.0511 342.9734 624.5529 345.2473 632.6932 357.1391 630.6256 347.3683 643.8525 354.7494 649.6957 337.9911 650.3398 332.8589 657.1739 328.2851 649.5155 329.6413 633.8529 321.9797 622.9377 315.5074 612.4722 316.1883 610.6198 331.4127 607.3935 351.5172 617.0511 Z"/>
<path d="M 370.4245 700.6354 375.6272 718.2586 371.4831 733.5056 360.7614 729.046 355.2909 738.4686 320.0454 725.4932 324.0304 706.1026 331.4932 697.791 341.4705 700.5609 370.4245 700.6354 Z"/>
<path d="M 331.4932 697.791 324.0304 706.1026 320.0454 725.4932 241.4402 695.8265 216.1384 689.0991 229.2216 676.5064 237.2734 677.3397 250.435 687.6093 263.463 670.3464 292.3086 660.3065 297.7046 687.1693 314.0586 685.3877 331.4932 697.791 Z"/>
<path d="M 209.1503 644.8992 213.1953 652.5556 205.2029 665.9846 205.0877 686.2544 195.138 685.3223 192.1772 670.4188 169.3211 659.4149 117.1256 644.3082 130.8465 635.6797 131.5431 626.6739 162.6509 621.1681 190.555 622.1423 211.7865 635.0703 209.1503 644.8992 Z"/>
<path d="M 526.0732 735.3993 520.7571 726.3605 497.4553 726.9624 496.4343 708.5635 509.1492 706.8421 514.7382 695.4921 510.9549 687.2376 524.7621 679.5444 541.4867 690.2232 569.6337 699.493 558.0524 720.3616 545.9231 722.8625 526.0732 735.3993 Z"/>
<path d="M 417.309 643.8193 402.9155 662.5171 401.4538 676.8765 389.502 681.6916 373.8787 697.4364 376.6032 685.5682 372.2076 661.6714 390.1114 635.4295 405.2667 630.8403 413.6814 614.2525 419.1853 622.6159 412.4175 635.0026 417.309 643.8193 Z"/>
<path d="M 426.6472 730.8747 432.9431 778.5639 400.0761 759.6089 355.2909 738.4686 360.7614 729.046 371.4831 733.5056 399.2612 741.6657 415.0823 743.5574 416.9849 730.5189 422.697 726.9396 426.6472 730.8747 Z"/>
<path d="M 449.3041 636.8508 443.9731 639.0004 436.5784 657.573 422.8639 662.2592 402.9155 662.5171 417.309 643.8193 431.6284 622.729 454.5748 624.1164 460.765 613.3369 472.9642 613.2198 471.5931 618.01 469.0805 631.1758 457.3006 629.6281 449.3041 636.8508 Z"/>
<path d="M 410.0558 708.6938 396.9396 727.3923 387.1374 719.0518 388.9861 711.0983 407.3007 701.2961 410.0558 708.6938 Z"/>
<path d="M 689.9948 450.851 687.6045 460.396 674.473 457.3605 668.9042 455.1058 664.7001 427.8594 669.3945 418.0418 683.0068 410.155 701.0224 406.9525 701.9959 421.8773 691.6787 428.7181 686.6322 443.6331 689.9948 450.851 Z"/>
<path d="M 474.5175 646.7409 469.4244 661.6143 458.8719 667.7476 450.7658 657.0571 455.237 642.9557 449.3041 636.8508 457.3006 629.6281 469.0805 631.1758 471.5931 618.01 478.8322 626.3901 474.5175 646.7409 Z"/>
<path d="M 496.4343 708.5635 497.4553 726.9624 520.7571 726.3605 526.0732 735.3993 514.5997 752.4353 510.3612 783.8848 493.8737 797.451 492.249 804.3677 476.6177 809.2051 454.1281 797.9194 462.3307 774.4688 468.4356 764.5806 464.7383 753.5746 475.7443 731.0467 472.4339 722.0613 484.5168 709.1878 496.4343 708.5635 Z"/>
<path d="M 263.1835 650.7212 267.2265 659.84 263.463 670.3464 250.435 687.6093 237.2734 677.3397 229.2216 676.5064 216.0158 671.3343 231.6568 649.8462 244.8615 647.8972 252.5115 643.1221 263.1835 650.7212 Z"/>
<path d="M 599.8089 79.5668 573.8537 74.065 570.7778 87.8906 564.2227 94.6056 548.4221 95.6914 531.0132 80.9144 508.7209 93.4082 483.6156 95.6214 482.0613 87.7016 488.2307 75.5099 505.4513 60.5079 506.05 38.2514 510.3815 21.3478 498.4786 14.0933 491.5762 1 549.3988 1 563.5863 11.7328 566.1353 33.8693 581.5638 41.0469 605.7109 67.0316 599.8089 79.5668 Z"/>
<path d="M 131.5431 626.6739 130.8465 635.6797 117.1256 644.3082 105.9102 635.9618 115.3227 626.5785 131.5431 626.6739 Z"/>
<path d="M 270.8538 594.783 279.4989 606.6592 265.751 628.736 269.7053 643.8453 263.1835 650.7212 252.5115 643.1221 244.8615 647.8972 222.8012 643.2956 217.1555 625.4613 203.3804 618.1634 215.6784 593.3485 227.1415 591.3746 232.5606 589.3413 247.1284 584.4167 251.437 576.8107 266.2533 578.5693 270.8538 594.783 Z"/>
<path d="M 315.5074 612.4722 321.9797 622.9377 311.5855 631.8054 310.3889 655.7113 298.529 654.0095 292.3086 660.3065 263.463 670.3464 267.2265 659.84 263.1835 650.7212 269.7053 643.8453 265.751 628.736 279.4989 606.6592 295.6441 614.5769 315.5074 612.4722 Z"/>
<path d="M 352.1989 133.2959 347.782 157.2385 346.3854 166.5636 320.8421 163.2446 315.1152 175.9349 307.0656 178.4079 295.494 176.6508 286.3504 167.6049 278.6061 174.0477 247.0771 167.16 247.2413 158.4986 281.738 148.2603 297.2836 132.3323 308.6398 127.126 332.6213 126.6705 331.7101 120.2274 335.8135 118.7764 352.1989 133.2959 Z"/>
<path d="M 332.8589 657.1739 325.9058 670.529 313.6331 668.6881 310.3889 655.7113 311.5855 631.8054 321.9797 622.9377 329.6413 633.8529 328.2851 649.5155 332.8589 657.1739 Z"/>
<path d="M 310.3889 655.7113 313.6331 668.6881 325.9058 670.529 341.4705 700.5609 331.4932 697.791 314.0586 685.3877 297.7046 687.1693 292.3086 660.3065 298.529 654.0095 310.3889 655.7113 Z"/>
<path d="M 326.6673 503.4408 331.968 508.3846 335.4 529.6705 329.9811 533.241 310.5704 533.0212 307.8085 540.7756 297.1714 551.8333 277.1886 528.2836 273.4821 521.683 277.6952 506.9757 306.3786 498.875 326.6673 503.4408 Z"/>
<path d="M 419.5645 507.7262 400.2919 512.6864 403.3614 488.635 426.8368 483.3457 431.6552 496.4192 419.5645 507.7262 Z"/>
<path d="M 273.4821 521.683 277.1886 528.2836 267.2621 538.4694 272.8765 547.4725 266.2617 555.0002 253.7198 557.6261 241.6281 551.9991 231.9872 573.0064 224.147 582.1847 232.5606 589.3413 227.1415 591.3746 213.7893 592.3762 190.5172 609.0836 180.9873 606.0966 187.1801 594.6739 197.9401 592.4605 196.7522 579.631 184.3979 553.5469 175.0571 549.4955 192.5758 536.8661 193.1911 522.7601 193.5886 519.0348 205.9804 515.3336 216.9468 518.9348 224.4744 523.5864 240.8301 514.9334 257.2108 528.038 273.4821 521.683 Z"/>
<g/>
<path d="M 178.2922 454.5499 186.8861 474.0802 178.3292 488.9252 197.1814 509.3679 193.5886 519.0348 193.1911 522.7601 148.1091 521.1058 132.0434 514.8423 106.906 517.8644 108.539 502.696 124.2757 492.7967 127.3335 478.6669 147.357 466.781 157.8619 451.5168 174.581 448.1138 178.2922 454.5499 Z"/>
<path d="M 533.5868 493.294 519.2069 501.0479 516.5071 492.5153 502.329 485.8631 506.9157 475.2509 502.183 466.87 515.5761 466.7552 519.1862 452.3146 526.6681 453.518 544.8055 445.6985 540.2687 472.5975 547.1542 484.3057 533.5868 493.294 Z"/>
<path d="M 301.0817 437.2351 290.6205 437.8562 287.8445 465.3408 293.0839 475.7694 287.1193 492.7003 280.0605 497.5054 275.6153 490.8747 252.3822 487.1234 244.3669 479.7958 239.015 459.5137 226.9733 462.4147 223.0729 449.3876 240.1358 443.0706 252.0635 433.1736 267.8194 440.4096 273.5848 434.6675 301.0817 437.2351 Z"/>
<path d="M 630.7131 588.9316 625.3624 608.807 629.9604 616.9344 612.6638 630.0588 598.1906 627.6943 580.3141 631.0619 559.7216 617.8321 568.7364 606.502 587.4511 604.8384 595.0261 582.3808 608.4911 573.8067 621.8313 588.7683 630.7131 588.9316 Z"/>
<path d="M 193.1911 522.7601 192.5758 536.8661 175.0571 549.4955 170.6056 564.1256 160.4645 574.8543 142.3332 573.929 135.968 578.1458 117.4635 572.896 96.1061 550.8601 115.4941 538.2995 106.906 517.8644 132.0434 514.8423 148.1091 521.1058 193.1911 522.7601 Z"/>
<path d="M 754.5776 439.1282 751.0087 446.9043 765.1503 455.1726 768.7427 458.765 753.1082 485.2922 738.8911 488.042 718.9856 513.4985 711.1209 515.8937 706.0904 499.4044 710.0443 489.2943 693.8531 481.987 678.749 481.9264 690.8822 469.0483 687.6045 460.396 689.9948 450.851 696.1644 434.4374 715.5653 437.4652 723.8639 446.2124 744.3601 430.6164 754.5776 439.1282 Z"/>
<path d="M 533.5868 493.294 544.8182 512.1822 552.1553 514.9476 546.9329 534.7621 538.4999 537.7205 513.6955 537.3451 508.1147 519.4669 518.9528 510.7332 519.2069 501.0479 533.5868 493.294 Z"/>
<path d="M 375.5511 527.9212 346.7978 522.7773 335.4 529.6705 331.968 508.3846 338.6081 497.7749 352.7728 494.4037 371.7394 481.8254 376.7822 490.2429 367.3516 510.9946 375.6391 518.6445 375.5511 527.9212 Z"/>
<path d="M 280.0605 497.5054 277.6952 506.9757 273.4821 521.683 257.2108 528.038 240.8301 514.9334 224.4744 523.5864 216.9468 518.9348 221.5214 499.1526 208.7669 480.346 213.2935 467.2414 226.9733 462.4147 239.015 459.5137 244.3669 479.7958 252.3822 487.1234 275.6153 490.8747 280.0605 497.5054 Z"/>
<path d="M 307.8085 540.7756 308.6826 576.999 280.674 586.1399 270.8538 594.783 266.2533 578.5693 251.437 576.8107 247.1284 584.4167 232.5606 589.3413 224.147 582.1847 231.9872 573.0064 241.6281 551.9991 253.7198 557.6261 266.2617 555.0002 272.8765 547.4725 267.2621 538.4694 277.1886 528.2836 297.1714 551.8333 307.8085 540.7756 Z"/>
<path d="M 223.0729 449.3876 226.9733 462.4147 213.2935 467.2414 208.7669 480.346 221.5214 499.1526 216.9468 518.9348 205.9804 515.3336 193.5886 519.0348 197.1814 509.3679 178.3292 488.9252 186.8861 474.0802 178.2922 454.5499 197.0828 453.7855 200.8672 448.925 223.0729 449.3876 Z"/>
<path d="M 391.0184 432.3333 400.3696 437.1768 401.9743 451.5095 396.061 462.237 392.8515 486.1981 376.7822 490.2429 371.7394 481.8254 352.7728 494.4037 338.6081 497.7749 331.968 508.3846 326.6673 503.4408 342.1493 490.0976 354.0052 471.8818 355.6199 454.9692 353.4875 431.3044 391.0184 432.3333 Z"/>
<path d="M 491.5696 606.9398 490.8345 616.3339 478.8322 626.3901 471.5931 618.01 472.9642 613.2198 482.9374 601.4727 491.5696 606.9398 Z"/>
<path d="M 372.2076 661.6714 366.5342 648.3621 354.7494 649.6957 347.3683 643.8525 357.1391 630.6256 364.2395 624.4032 395.8752 613.5659 403.7815 601.091 413.7605 614.1359 413.6814 614.2525 405.2667 630.8403 390.1114 635.4295 372.2076 661.6714 Z"/>
<path d="M 353.4875 431.3044 355.6199 454.9692 354.0052 471.8818 342.1493 490.0976 326.6673 503.4408 306.3786 498.875 277.6952 506.9757 280.0605 497.5054 287.1193 492.7003 293.0839 475.7694 287.8445 465.3408 290.6205 437.8562 301.0817 437.2351 309.9283 446.1984 334.6008 460.9506 326.8512 442.5104 345.5248 423.4633 353.4875 431.3044 Z"/>
<path d="M 608.4911 573.8067 595.0261 582.3808 587.4511 604.8384 568.7364 606.502 559.7216 617.8321 549.5762 621.7649 536.0303 618.8002 539.0603 603.769 553.3204 581.6522 563.0632 574.7677 574.2194 560.0776 596.539 559.7823 600.7016 558.4519 608.4911 573.8067 Z"/>
<path d="M 174.6645 429.7401 188.9235 444.938 200.8672 448.925 197.0828 453.7855 178.2922 454.5499 174.581 448.1138 157.8619 451.5168 147.357 466.781 127.3335 478.6669 124.2757 492.7967 108.539 502.696 83.5114 471.4258 88.4802 457.3063 99.0105 457.4125 112.4974 452.796 119.6205 434.7021 136.8825 423.3675 149.309 434.4941 168.6507 427.631 174.6645 429.7401 Z"/>
<path d="M 518.9528 510.7332 508.1147 519.4669 513.6955 537.3451 506.2443 548.6245 489.8911 551.7897 482.5705 564.5127 471.5846 571.7018 454.9722 575.4016 458.5357 556.2632 437.2752 562.4872 445.5756 551.142 459.6168 540.271 468.2978 526.9627 486.0765 523.7478 514.271 509.1067 518.9528 510.7332 Z"/>
<path d="M 563.8687 502.5121 562.7038 511.0226 552.1553 514.9476 544.8182 512.1822 533.5868 493.294 547.1542 484.3057 540.2687 472.5975 544.8055 445.6985 546.8601 437.7799 560.3016 430.4683 568.1453 459.1052 569.8848 480.1576 563.8687 502.5121 Z"/>
<path d="M 180.9873 606.0966 157.8245 604.9697 138.524 589.1704 135.968 578.1458 142.3332 573.929 160.4645 574.8543 170.6056 564.1256 175.0571 549.4955 184.3979 553.5469 196.7522 579.631 197.9401 592.4605 187.1801 594.6739 180.9873 606.0966 Z"/>
<path d="M 316.1883 610.6198 315.5074 612.4722 295.6441 614.5769 279.4989 606.6592 270.8538 594.783 280.674 586.1399 308.6826 576.999 308.8557 588.5934 316.1883 610.6198 Z"/>
<path d="M 513.3407 381.2736 538.8811 391.0306 546.3729 408.105 541.4945 412.9834 544.215 430.6128 536.809 426.3954 517.755 428.3518 496.9955 425.9232 482.7936 441.5853 471.5537 433.4653 463.7548 429.0207 461.8365 413.195 451.7154 397.8864 454.9418 387.8078 477.9672 385.8827 500.1421 381.0743 513.3407 381.2736 Z"/>
<path d="M 540.0814 579.2032 553.3204 581.6522 539.0603 603.769 536.0303 618.8002 549.5762 621.7649 546.0228 635.5711 549.0862 645.0096 532.3826 658.5256 515.0891 666.9391 510.9786 650.753 513.3112 640.8087 509.4304 616.9463 521.7479 609.4252 527.0057 593.6999 538.048 590.0541 540.0814 579.2032 Z"/>
<path d="M 627.7469 426.4843 619.4031 439.1441 618.7184 449.7735 627.3915 463.794 621.151 483.1593 610.5018 489.2916 611.9043 505.2788 600.2535 506.9251 563.8687 502.5121 569.8848 480.1576 568.1453 459.1052 560.3016 430.4683 572.333 436.6785 591.5853 438.4208 608.4854 429.0125 626.9457 425.9199 627.7469 426.4843 Z"/>
<path d="M 642.1642 462.8438 632.3778 488.0001 616.9577 504.364 611.9043 505.2788 610.5018 489.2916 621.151 483.1593 627.3915 463.794 618.7184 449.7735 619.4031 439.1441 627.7469 426.4843 645.4219 423.2629 640.5494 440.0571 644.8844 452.4019 642.1642 462.8438 Z"/>
<path d="M 527.0057 593.6999 521.7479 609.4252 509.4304 616.9463 488.5426 646.5174 474.5175 646.7409 478.8322 626.3901 490.8345 616.3339 491.5696 606.9398 501.5446 590.155 515.5414 580.6907 527.0057 593.6999 Z"/>
<path d="M 656.6561 518.6963 645.1492 532.193 615.556 551.7857 600.7016 558.4519 596.539 559.7823 619.2475 508.4413 616.9577 504.364 632.3778 488.0001 639.9016 492.5696 636.085 500.5775 655.5662 508.6151 656.6561 518.6963 Z"/>
<path d="M 658.6025 627.2265 648.2902 644.8082 628.9253 656.7608 624.3956 654.3537 605.9704 669.9122 594.4649 652.5567 598.1906 627.6943 612.6638 630.0588 629.9604 616.9344 651.1142 621.324 658.6025 627.2265 Z"/>
<path d="M 611.9043 505.2788 616.9577 504.364 619.2475 508.4413 596.539 559.7823 574.2194 560.0776 563.0632 574.7677 553.3204 581.6522 540.0814 579.2032 550.6806 565.4686 539.4273 557.2088 534.4659 545.4013 546.9329 534.7621 552.1553 514.9476 562.7038 511.0226 563.8687 502.5121 600.2535 506.9251 611.9043 505.2788 Z"/>
<path d="M 540.0814 579.2032 538.048 590.0541 527.0057 593.6999 515.5414 580.6907 501.5446 590.155 495.55 572.8906 481.367 584.0876 482.5705 564.5127 489.8911 551.7897 506.2443 548.6245 513.6955 537.3451 538.4999 537.7205 546.9329 534.7621 534.4659 545.4013 539.4273 557.2088 550.6806 565.4686 540.0814 579.2032 Z"/>
<path d="M 544.215 430.6128 546.8601 437.7799 544.8055 445.6985 526.6681 453.518 519.1862 452.3146 515.5761 466.7552 502.183 466.87 492.289 464.3168 482.7936 441.5853 496.9955 425.9232 517.755 428.3518 536.809 426.3954 544.215 430.6128 Z"/>
<path d="M 559.7216 617.8321 580.3141 631.0619 598.1906 627.6943 594.4649 652.5567 605.9704 669.9122 592.3156 682.4947 580.4662 686.7072 569.6337 699.493 541.4867 690.2232 524.7621 679.5444 515.0891 666.9391 532.3826 658.5256 549.0862 645.0096 546.0228 635.5711 549.5762 621.7649 559.7216 617.8321 Z"/>
<g/>
<path d="M 710.8193 531.8065 710.8827 560.8473 700.4628 560.5705 692.031 553.406 684.8094 529.5974 686.6572 517.4089 695.8568 516.5166 710.8193 531.8065 Z"/>
<path d="M 655.2767 555.2142 648.9261 570.6021 630.7131 588.9316 621.8313 588.7683 608.4911 573.8067 600.7016 558.4519 615.556 551.7857 645.1492 532.193 656.6561 518.6963 656.7604 518.592 664.0957 526.3165 654.8872 545.868 655.2767 555.2142 Z"/>
<path d="M 754.5776 439.1282 744.3601 430.6164 776.0993 399.3169 775.441 418.4074 767.6895 430.6138 754.5776 439.1282 Z"/>
<path d="M 796.5864 403.9354 791.352 416.9106 776.1841 435.6709 765.1503 455.1726 751.0087 446.9043 754.5776 439.1282 767.6895 430.6138 775.441 418.4074 776.0993 399.3169 785.7671 393.3929 796.5864 403.9354 Z"/>
<path d="M 753.1082 485.2922 768.7427 458.765 765.1503 455.1726 776.1841 435.6709 791.352 416.9106 796.5864 403.9354 799 409.3172 791.0939 448.231 786.1596 451.5953 792.1032 467.1833 777.4685 486.9205 753.1082 485.2922 Z"/>
<path d="M 687.6045 460.396 690.8822 469.0483 678.749 481.9264 670.9796 489.4831 666.5329 504.2557 656.7604 518.592 656.6561 518.6963 655.5662 508.6151 636.085 500.5775 639.9016 492.5696 659.1657 495.8689 657.9417 481.2879 673.055 464.2589 674.473 457.3605 687.6045 460.396 Z"/>
<path d="M 674.473 457.3605 673.055 464.2589 657.9417 481.2879 659.1657 495.8689 639.9016 492.5696 632.3778 488.0001 642.1642 462.8438 654.0038 463.6203 668.9042 455.1058 674.473 457.3605 Z"/>
<path d="M 692.031 553.406 700.4628 560.5705 710.8827 560.8473 710.6309 585.3825 700.9866 586.7282 684.1651 597.6061 681.6979 604.2226 658.6025 627.2265 651.1142 621.324 629.9604 616.9344 625.3624 608.807 630.7131 588.9316 648.9261 570.6021 655.2767 555.2142 676.4367 542.8721 683.8778 555.1385 692.031 553.406 Z"/>
<path d="M 686.6572 517.4089 684.8094 529.5974 692.031 553.406 683.8778 555.1385 676.4367 542.8721 655.2767 555.2142 654.8872 545.868 664.0957 526.3165 656.7604 518.592 666.5329 504.2557 673.3445 504.1876 686.6572 517.4089 Z"/>
<path d="M 106.0535 195.5966 109.8537 207.0871 106.8335 221.5235 87.9192 251.42 72.9472 251.6648 67.816 241.2623 82.1102 231.1689 93.3607 215.1688 93.8713 190.1698 106.0535 195.5966 Z"/>
<path d="M 711.1209 515.8937 710.8193 531.8065 695.8568 516.5166 686.6572 517.4089 673.3445 504.1876 666.5329 504.2557 670.9796 489.4831 678.749 481.9264 693.8531 481.987 710.0443 489.2943 706.0904 499.4044 711.1209 515.8937 Z"/>
<path d="M 482.5705 564.5127 481.367 584.0876 462.9246 595.5758 453.2176 607.8429 444.3853 609.0803 419.1853 622.6159 413.6814 614.2525 413.7605 614.1359 420.3412 584.2085 418.0758 572.2801 433.3615 563.3356 437.2752 562.4872 458.5357 556.2632 454.9722 575.4016 471.5846 571.7018 482.5705 564.5127 Z"/>
<path d="M 669.3945 418.0418 664.7001 427.8594 668.9042 455.1058 654.0038 463.6203 642.1642 462.8438 644.8844 452.4019 640.5494 440.0571 645.4219 423.2629 649.7776 418.3845 669.3945 418.0418 Z"/>
<path d="M 502.329 485.8631 516.5071 492.5153 519.2069 501.0479 518.9528 510.7332 514.271 509.1067 486.0765 523.7478 476.1469 515.3282 485.0598 502.5642 481.464 495.4237 485.132 482.0015 502.329 485.8631 Z"/>
<path d="M 485.132 482.0015 481.464 495.4237 485.0598 502.5642 476.1469 515.3282 486.0765 523.7478 468.2978 526.9627 457.26 526.0119 450.5417 517.5724 443.2985 505.9724 452.8024 493.9052 466.6127 483.2133 485.132 482.0015 Z"/>
<path d="M 375.5511 527.9212 379.2864 531.345 384.5538 537.5669 383.686 562.0712 367.4202 582.6641 360.9054 588.1664 364.3767 598.4357 351.5172 617.0511 331.4127 607.3935 316.1883 610.6198 308.8557 588.5934 308.6826 576.999 307.8085 540.7756 310.5704 533.0212 329.9811 533.241 335.4 529.6705 346.7978 522.7773 375.5511 527.9212 Z"/>
<path d="M 392.8515 486.1981 403.3614 488.635 400.2919 512.6864 397.7347 513.5938 379.2864 531.345 375.5511 527.9212 375.6391 518.6445 367.3516 510.9946 376.7822 490.2429 392.8515 486.1981 Z"/>
<path d="M 419.5645 507.7262 437.6297 516.9847 450.5417 517.5724 457.26 526.0119 468.2978 526.9627 459.6168 540.271 445.5756 551.142 437.2752 562.4872 433.3615 563.3356 423.898 556.7113 417.1044 542.7722 408.511 539.3222 402.3575 531.7583 397.7347 513.5938 400.2919 512.6864 419.5645 507.7262 Z"/>
<path d="M 437.6323 249.4255 436.089 264.2155 423.9512 268.0726 422.0201 276.6212 408.4902 281.8993 394.3064 259.6351 406.5714 247.4985 393.6655 241.775 386.0342 231.6747 388.355 222.2155 397.9858 202.8636 409.972 199.1469 418.9119 187.4416 421.3863 224.7297 418.8653 233.7397 435.835 242.7964 437.6323 249.4255 Z"/>
<path d="M 260.3758 334.4684 239.1805 350.7474 221.6597 352.1989 201.8464 362.8132 196.7161 355.2947 184.2444 355.3832 173.7628 370.2874 156.9304 370.2536 142.2738 371.3488 146.7406 350.253 155.232 345.4765 175.9299 346.3611 191.807 338.7099 197.2327 341.4184 222.9864 334.8623 235.6351 327.5207 248.7518 326.0038 260.3758 334.4684 Z"/>
<path d="M 403.7815 601.091 395.8752 613.5659 364.2395 624.4032 357.1391 630.6256 345.2473 632.6932 342.9734 624.5529 351.5172 617.0511 364.3767 598.4357 360.9054 588.1664 367.4202 582.6641 372.2084 591.7349 394.78 590.4207 403.7815 601.091 Z"/>
<path d="M 408.511 539.3222 417.1044 542.7722 423.898 556.7113 433.3615 563.3356 418.0758 572.2801 420.3412 584.2085 413.7605 614.1359 403.7815 601.091 394.78 590.4207 372.2084 591.7349 367.4202 582.6641 383.686 562.0712 384.5538 537.5669 379.2864 531.345 397.7347 513.5938 402.3575 531.7583 408.511 539.3222 Z"/>
<path d="M 466.6127 483.2133 452.8024 493.9052 443.2985 505.9724 450.5417 517.5724 437.6297 516.9847 419.5645 507.7262 431.6552 496.4192 426.8368 483.3457 438.8634 472.3106 458.048 475.7791 454.8396 458.0533 467.3134 463.7423 466.6127 483.2133 Z"/>
<path d="M 159.4954 294.5634 164.2542 302.4888 165.5809 317.791 193.2576 326.707 197.2327 341.4184 191.807 338.7099 175.9299 346.3611 155.232 345.4765 146.7406 350.253 142.2738 371.3488 135.9937 381.4324 112.2 376.3906 103.7968 380.9419 95.8448 371.7599 108.2639 358.6559 114.6325 345.565 113.0845 331.3684 102.028 320.5772 104.2393 305.8942 121.1337 307.1325 159.4954 294.5634 Z"/>
<path d="M 501.5446 590.155 491.5696 606.9398 482.9374 601.4727 472.9642 613.2198 460.765 613.3369 454.5748 624.1164 431.6284 622.729 417.309 643.8193 412.4175 635.0026 419.1853 622.6159 444.3853 609.0803 453.2176 607.8429 462.9246 595.5758 481.367 584.0876 495.55 572.8906 501.5446 590.155 Z"/>
<g/>
<path d="M 202.2886 263.6454 196.6277 271.3536 199.9004 288.8671 179.2026 296.1202 170.7112 291.9629 164.2542 302.4888 159.4954 294.5634 157.3549 289.3978 181.6792 266.3118 182.2984 260.7393 189.5833 257.7886 202.2886 263.6454 Z"/>
<path d="M 454.9418 387.8078 451.7154 397.8864 427.035 402.5022 415.8289 399.3117 410.9726 385.9172 416.9595 373.2163 410.5606 359.9336 414.5963 347.0025 421.9984 346.2034 433.8434 354.0187 460.4795 348.1114 462.418 370.9925 454.9418 387.8078 Z"/>
<path d="M 410.9726 385.9172 415.8289 399.3117 416.3678 407.5441 408.4081 420.2888 391.0184 432.3333 353.4875 431.3044 345.5248 423.4633 326.9454 408.0615 318.5654 396.9657 326.2501 393.2665 338.662 387.5252 349.0577 375.5494 365.2833 381.6997 390.5155 369.3381 402.5862 373.9192 410.9726 385.9172 Z"/>
<path d="M 394.3064 259.6351 408.4902 281.8993 422.0201 276.6212 426.3047 280.2976 431.3276 300.7706 459.7981 305.7282 456.3768 327.7811 447.4424 336.781 429.0395 335.8766 420.1953 328.0317 407.3368 313.4588 374.7098 311.3654 379.5251 295.3063 378.0662 286.5347 380.2546 265.0056 394.3064 259.6351 Z"/>
<path d="M 297.0235 331.3112 308.9356 341.2064 314.4346 351.8677 296.2639 365.8253 268.305 375.3539 239.1805 350.7474 260.3758 334.4684 263.664 328.0536 278.1186 331.8244 284.1339 338.2885 297.0235 331.3112 Z"/>
<path d="M 296.2639 365.8253 332.9265 370.9857 323.5126 382.2383 326.2501 393.2665 318.5654 396.9657 316.2795 407.74 305.3537 407.2793 301.4441 399.3065 278.9547 395.9047 268.3617 375.4926 268.305 375.3539 296.2639 365.8253 Z"/>
<path d="M 407.3368 313.4588 392.5394 318.9344 380.1536 347.3661 368.0707 351.2078 352.437 366.8416 349.0577 375.5494 338.662 387.5252 326.2501 393.2665 323.5126 382.2383 332.9265 370.9857 296.2639 365.8253 314.4346 351.8677 326.9744 341.0941 335.5329 347.7154 370.1543 328.5249 374.7098 311.3654 407.3368 313.4588 Z"/>
<path d="M 515.1977 353.0172 518.4656 373.0446 513.3407 381.2736 500.1421 381.0743 477.9672 385.8827 454.9418 387.8078 462.418 370.9925 460.4795 348.1114 433.8434 354.0187 421.9984 346.2034 420.1953 328.0317 429.0395 335.8766 447.4424 336.781 456.3768 327.7811 459.7981 305.7282 460.6008 301.152 477.337 305.1195 491.1088 299.8909 502.6397 323.4196 508.3585 344.9876 515.1977 353.0172 Z"/>
<path d="M 482.0613 87.7016 466.9322 52.3178 472.8284 38.0598 464.8418 17.7984 449.2973 9.2222 444.2588 1 491.5762 1 498.4786 14.0933 510.3815 21.3478 506.05 38.2514 505.4513 60.5079 488.2307 75.5099 482.0613 87.7016 Z"/>
<path d="M 488.9624 220.1268 491.7624 256.8949 482.3089 284.1117 468.2803 287.3329 460.6008 301.152 459.7981 305.7282 431.3276 300.7706 426.3047 280.2976 422.0201 276.6212 423.9512 268.0726 436.089 264.2155 437.6323 249.4255 457.6364 227.6708 477.3604 214.7393 488.9624 220.1268 Z"/>
<path d="M 420.1953 328.0317 421.9984 346.2034 414.5963 347.0025 410.5606 359.9336 416.9595 373.2163 410.9726 385.9172 402.5862 373.9192 390.5155 369.3381 365.2833 381.6997 349.0577 375.5494 352.437 366.8416 368.0707 351.2078 380.1536 347.3661 392.5394 318.9344 407.3368 313.4588 420.1953 328.0317 Z"/>
<path d="M 318.5654 396.9657 326.9454 408.0615 345.5248 423.4633 326.8512 442.5104 334.6008 460.9506 309.9283 446.1984 301.0817 437.2351 273.5848 434.6675 267.8194 440.4096 252.0635 433.1736 240.1358 443.0706 223.0729 449.3876 200.8672 448.925 188.9235 444.938 174.6645 429.7401 178.1443 427.7561 186.4731 395.8225 196.0122 409.3984 213.2411 405.0964 227.446 397.6852 246.2297 393.4685 268.3617 375.4926 278.9547 395.9047 301.4441 399.3065 305.3537 407.2793 316.2795 407.74 318.5654 396.9657 Z"/>
<path d="M 54.2311 366.8016 45.8563 387.2064 38.5919 388.1839 18.3366 353.4878 17.3076 339.4836 36.5291 341.0539 37.679 352.2874 54.2311 366.8016 Z"/>
<path d="M 43.0101 301.783 67.103 304.3094 82.4119 302.1778 102.5899 304.4123 104.2393 305.8942 102.028 320.5772 113.0845 331.3684 114.6325 345.565 108.2639 358.6559 95.8448 371.7599 75.8876 367.963 67.5792 375.4472 54.2311 366.8016 37.679 352.2874 36.5291 341.0539 17.3076 339.4836 16.3728 314.9457 27.9377 300.0326 43.0101 301.783 Z"/>
<path d="M 268.305 375.3539 268.3617 375.4926 246.2297 393.4685 227.446 397.6852 213.2411 405.0964 196.0122 409.3984 186.4731 395.8225 174.2935 391.8697 160.8487 381.5208 156.9304 370.2536 173.7628 370.2874 184.2444 355.3832 196.7161 355.2947 201.8464 362.8132 221.6597 352.1989 239.1805 350.7474 268.305 375.3539 Z"/>
<path d="M 229.4564 195.4466 239.1451 197.4237 237.0492 215.606 226.0372 227.3025 224.098 235.4904 219.4294 227.7334 189.5833 257.7886 182.2984 260.7393 150.6972 257.8494 150.9145 251.6002 162.3442 235.3223 169.4209 235.1286 171.5525 211.2931 198.4885 202.9604 209.7279 192.4961 229.4564 195.4466 Z"/>
<path d="M 670.9556 336.7618 671.1104 354.7663 666.1618 360.8196 666.0323 377.4211 650.0478 375.4347 643.2116 383.1663 627.9812 383.4464 631.5142 358.3734 636.1041 345.9478 651.6997 324.1243 656.1165 331.7773 670.9556 336.7618 Z"/>
<path d="M 225.9295 286.4854 201.2272 300.6313 201.0503 310.8033 193.2576 326.707 165.5809 317.791 164.2542 302.4888 170.7112 291.9629 179.2026 296.1202 199.9004 288.8671 196.6277 271.3536 202.2886 263.6454 210.0204 256.9658 214.0785 275.8555 225.9295 286.4854 Z"/>
<path d="M 735.325 326.7422 727.8344 333.3173 720.4143 338.3936 704.0985 332.5127 694.2602 337.3502 670.9556 336.7618 656.1165 331.7773 651.6997 324.1243 650.5304 320.5742 656.4947 311.6957 659.068 280.9395 693.0734 280.2302 716.2871 275.9963 723.2239 313.6563 735.325 326.7422 Z"/>
<path d="M 720.4143 338.3936 710.2428 358.4924 710.496 383.6261 701.0224 406.9525 683.0068 410.155 666.0049 391.8837 666.0323 377.4211 666.1618 360.8196 671.1104 354.7663 670.9556 336.7618 694.2602 337.3502 704.0985 332.5127 720.4143 338.3936 Z"/>
<path d="M 683.0068 410.155 669.3945 418.0418 649.7776 418.3845 645.4219 423.2629 627.7469 426.4843 626.9457 425.9199 623.5507 411.5807 617.3189 407.7278 619.3522 394.9818 627.9812 383.4464 643.2116 383.1663 650.0478 375.4347 666.0323 377.4211 666.0049 391.8837 683.0068 410.155 Z"/>
<path d="M 733.4927 363.4234 722.814 368.9816 710.496 383.6261 710.2428 358.4924 720.4143 338.3936 727.8344 333.3173 726.6263 342.9669 733.4927 363.4234 Z"/>
<path d="M 650.5304 320.5742 651.6997 324.1243 636.1041 345.9478 631.5142 358.3734 621.8102 356.6393 609.1171 357.5467 604.5253 354.4417 609.0869 341.8812 620.3848 332.6206 610.1316 323.8068 615.6489 318.2431 634.3394 313.9166 650.5304 320.5742 Z"/>
<path d="M 610.1316 323.8068 620.3848 332.6206 609.0869 341.8812 604.5253 354.4417 600.5672 355.3645 582.9351 338.9919 582.7869 333.4147 591.9108 325.4539 610.1316 323.8068 Z"/>
<path d="M 733.4927 363.4234 726.6263 342.9669 727.8344 333.3173 735.325 326.7422 739.2748 339.4669 747.5574 347.4869 746.2633 355.7795 733.4927 363.4234 Z"/>
<path d="M 582.7869 333.4147 582.9351 338.9919 600.5672 355.3645 604.5253 354.4417 609.1171 357.5467 608.8554 364.6797 607.9386 383.1462 601.8266 398.2594 602.7876 410.5678 582.9352 416.8321 576.0766 406.8781 562.4146 407.5785 553.1532 373.2188 559.0799 361.069 559.3873 348.5632 574.1721 334.2223 582.7869 333.4147 Z"/>
<path d="M 631.5142 358.3734 627.9812 383.4464 619.3522 394.9818 617.3189 407.7278 602.7876 410.5678 601.8266 398.2594 607.9386 383.1462 608.8554 364.6797 621.8102 356.6393 631.5142 358.3734 Z"/>
<path d="M 621.8102 356.6393 608.8554 364.6797 609.1171 357.5467 621.8102 356.6393 Z"/>
<path d="M 559.3873 348.5632 559.0799 361.069 553.1532 373.2188 562.4146 407.5785 546.3729 408.105 538.8811 391.0306 513.3407 381.2736 518.4656 373.0446 515.1977 353.0172 519.9466 352.0475 526.9844 353.9512 542.3002 342.2985 559.3873 348.5632 Z"/>
<path d="M 659.068 280.9395 656.4947 311.6957 650.5304 320.5742 634.3394 313.9166 615.6489 318.2431 610.1316 323.8068 591.9108 325.4539 582.7869 333.4147 574.1721 334.2223 559.3873 348.5632 542.3002 342.2985 526.9844 353.9512 519.9466 352.0475 515.2731 342.0724 518.0608 322.3846 526.9465 315.7639 530.2568 300.2576 548.725 279.8728 561.0953 280.047 574.7722 269.2449 571.719 261.3463 579.8248 245.724 592.7177 243.1106 623.8175 257.2231 625.2114 266.8057 642.6888 277.0554 659.068 280.9395 Z"/>
<path d="M 716.2871 275.9963 693.0734 280.2302 687.6723 272.5552 691.8538 259.4881 715.7444 252.0887 716.2871 275.9963 Z"/>
<path d="M 460.5813 141.8703 465.3425 149.1797 466.168 165.9331 486.2769 166.4187 489.427 181.9632 505.7112 196.226 500.6785 212.2504 488.9624 220.1268 477.3604 214.7393 457.6364 227.6708 437.6323 249.4255 435.835 242.7964 418.8653 233.7397 421.3863 224.7297 418.9119 187.4416 423.5953 175.4034 415.1953 167.9011 420.2026 148.7482 433.319 138.4645 444.7208 137.0482 460.5813 141.8703 Z"/>
<path d="M 482.0613 87.7016 483.6156 95.6214 473.266 95.86 466.1818 89.0885 450.5302 94.0198 439.1317 92.3927 441.6859 76.9745 426.7847 66.3614 429.6256 58.75 408.9354 42.0263 406.4697 10.8303 409.5768 1.1013 444.2588 1 449.2973 9.2222 464.8418 17.7984 472.8284 38.0598 466.9322 52.3178 482.0613 87.7016 Z"/>
<path d="M 375.3065 78.7426 380.3452 100.1391 391.9169 98.2672 404.8073 116.2202 420.2683 118.4305 414.2294 125.9485 426.3143 134.0308 420.2026 148.7482 415.1953 167.9011 423.5953 175.4034 418.9119 187.4416 409.972 199.1469 397.9858 202.8636 387.5492 202.1596 384.463 182.408 395.0122 172.4199 393.8899 159.0652 386.3147 146.2715 377.8979 140.9969 374.8117 122.0309 361.9058 122.592 352.1989 133.2959 335.8135 118.7764 331.7101 120.2274 327.1722 112.3795 308.9917 108.5639 321.2803 94.3113 342.8275 88.0267 350.5711 82.5277 375.3065 78.7426 Z"/>
<path d="M 439.1317 92.3927 436.1189 105.074 420.2683 118.4305 404.8073 116.2202 391.9169 98.2672 380.3452 100.1391 375.3065 78.7426 377.1965 61.0646 373.1984 44.3712 374.7415 31.6056 368.4289 15.4732 371.4263 1.5625 409.5768 1.1013 406.4697 10.8303 408.9354 42.0263 429.6256 58.75 426.7847 66.3614 441.6859 76.9745 439.1317 92.3927 Z"/>
<path d="M 599.8089 79.5668 610.2071 80.4231 627.6144 98.2664 647.3025 126.7085 648.2081 145.4239 680.4402 165.9504 698.7866 182.318 703.0462 190.8372 697.1096 212.37 685.2338 223.6771 675.1831 219.7812 668.7004 194.9351 658.0404 188.6964 655.4364 180.2878 641.6842 180.1793 635.9881 187.0147 606.4494 180.6675 602.219 182.8546 588.5211 176.9415 557.8876 178.2805 563.8703 170.718 568.3249 137.9299 559.7524 129.7976 564.2227 94.6056 570.7778 87.8906 573.8537 74.065 599.8089 79.5668 Z"/>
<path d="M 685.2338 223.6771 678.8302 243.0257 700.6984 241.7512 715.7444 252.0887 691.8538 259.4881 687.6723 272.5552 693.0734 280.2302 659.068 280.9395 642.6888 277.0554 625.2114 266.8057 623.8175 257.2231 592.7177 243.1106 579.8248 245.724 571.719 261.3463 565.1381 255.4362 569.2436 244.1019 585.9176 223.4395 588.3202 203.8102 602.219 182.8546 606.4494 180.6675 635.9881 187.0147 641.6842 180.1793 655.4364 180.2878 658.0404 188.6964 668.7004 194.9351 675.1831 219.7812 685.2338 223.6771 Z"/>
<path d="M 564.2227 94.6056 559.7524 129.7976 568.3249 137.9299 563.8703 170.718 557.8876 178.2805 545.0417 181.2848 542.6849 147.7197 515.7759 145.2334 486.2769 166.4187 466.168 165.9331 465.3425 149.1797 460.5813 141.8703 466.0811 132.1411 465.5038 110.9732 473.266 95.86 483.6156 95.6214 508.7209 93.4082 531.0132 80.9144 548.4221 95.6914 564.2227 94.6056 Z"/>
<path d="M 557.8876 178.2805 588.5211 176.9415 602.219 182.8546 588.3202 203.8102 585.9176 223.4395 569.2436 244.1019 565.1381 255.4362 571.719 261.3463 574.7722 269.2449 561.0953 280.047 548.725 279.8728 530.2568 300.2576 526.9465 315.7639 518.0608 322.3846 515.2731 342.0724 519.9466 352.0475 515.1977 353.0172 508.3585 344.9876 502.6397 323.4196 491.1088 299.8909 477.337 305.1195 460.6008 301.152 468.2803 287.3329 482.3089 284.1117 491.7624 256.8949 488.9624 220.1268 500.6785 212.2504 505.7112 196.226 489.427 181.9632 486.2769 166.4187 515.7759 145.2334 542.6849 147.7197 545.0417 181.2848 557.8876 178.2805 Z"/>
<path d="M 100.3017 286.6062 102.5899 304.4123 82.4119 302.1778 67.103 304.3094 43.0101 301.783 45.2029 290.5171 59.5423 282.5495 66.7559 284.2524 81.0454 277.0285 100.3017 286.6062 Z"/>
<path d="M 473.266 95.86 465.5038 110.9732 466.0811 132.1411 460.5813 141.8703 444.7208 137.0482 433.319 138.4645 420.2026 148.7482 426.3143 134.0308 414.2294 125.9485 420.2683 118.4305 436.1189 105.074 439.1317 92.3927 450.5302 94.0198 466.1818 89.0885 473.266 95.86 Z"/>
<path d="M 397.9858 202.8636 388.355 222.2155 376.9398 225.2645 376.6469 250.58 365.8113 259.4958 355.7242 259.0402 349.5742 249.3435 333.5886 250.0475 332.7514 239.9071 341.3743 214.4614 340.9584 204.15 344.6283 191.2284 352.1123 185.5015 360.6701 169.8826 360.54 161.1621 347.782 157.2385 352.1989 133.2959 361.9058 122.592 374.8117 122.0309 377.8979 140.9969 386.3147 146.2715 393.8899 159.0652 395.0122 172.4199 384.463 182.408 387.5492 202.1596 397.9858 202.8636 Z"/>
<path d="M 307.0656 178.4079 304.609 200.9175 289.7878 198.3524 274.9861 204.5818 249.8899 206.0697 237.0492 215.606 239.1451 197.4237 229.4564 195.4466 238.6986 188.6204 235.9857 176.412 247.0771 167.16 278.6061 174.0477 286.3504 167.6049 295.494 176.6508 307.0656 178.4079 Z"/>
<path d="M 343.3408 299.1717 347.7358 299.7657 337.8804 311.2025 350.7773 324.7612 326.9744 341.0941 314.4346 351.8677 308.9356 341.2064 297.0235 331.3112 317.3277 313.9471 327.9632 297.6517 336.9257 291.3564 343.3408 299.1717 Z"/>
<path d="M 340.9584 204.15 341.3743 214.4614 332.7514 239.9071 333.5886 250.0475 327.0394 268.1812 311.9513 271.7041 290.6618 282.6489 272.5666 278.0539 256.4353 271.8961 249.5678 251.5696 243.6132 244.4355 274.4601 238.2935 296.0722 214.9753 298.136 224.381 314.261 213.9061 315.425 201.5909 340.9584 204.15 Z"/>
<path d="M 224.098 235.4904 243.6132 244.4355 249.5678 251.5696 256.4353 271.8961 272.5666 278.0539 270.756 287.5252 251.6711 289.1971 231.9627 281.7451 225.9295 286.4854 214.0785 275.8555 210.0204 256.9658 202.2886 263.6454 189.5833 257.7886 219.4294 227.7334 224.098 235.4904 Z"/>
<path d="M 340.9584 204.15 315.425 201.5909 314.261 213.9061 298.136 224.381 296.0722 214.9753 304.609 200.9175 307.0656 178.4079 315.1152 175.9349 320.8421 163.2446 346.3854 166.5636 347.782 157.2385 360.54 161.1621 360.6701 169.8826 352.1123 185.5015 344.6283 191.2284 340.9584 204.15 Z"/>
<path d="M 378.0662 286.5347 379.5251 295.3063 374.7098 311.3654 370.1543 328.5249 335.5329 347.7154 326.9744 341.0941 350.7773 324.7612 337.8804 311.2025 347.7358 299.7657 361.5869 286.3451 378.0662 286.5347 Z"/>
<path d="M 343.3408 299.1717 336.9257 291.3564 327.9632 297.6517 317.3277 313.9471 297.0235 331.3112 284.1339 338.2885 278.1186 331.8244 263.664 328.0536 260.3758 334.4684 248.7518 326.0038 261.2399 309.6487 251.6711 289.1971 270.756 287.5252 272.5666 278.0539 290.6618 282.6489 311.9513 271.7041 327.0394 268.1812 329.2566 273.5282 347.6899 281.4008 343.3408 299.1717 Z"/>
<path d="M 394.3064 259.6351 380.2546 265.0056 378.0662 286.5347 361.5869 286.3451 347.7358 299.7657 343.3408 299.1717 347.6899 281.4008 329.2566 273.5282 327.0394 268.1812 333.5886 250.0475 349.5742 249.3435 355.7242 259.0402 365.8113 259.4958 376.6469 250.58 376.9398 225.2645 388.355 222.2155 386.0342 231.6747 393.6655 241.775 406.5714 247.4985 394.3064 259.6351 Z"/>
<path d="M 304.609 200.9175 296.0722 214.9753 274.4601 238.2935 243.6132 244.4355 224.098 235.4904 226.0372 227.3025 237.0492 215.606 249.8899 206.0697 274.9861 204.5818 289.7878 198.3524 304.609 200.9175 Z"/>
<path d="M 308.9917 108.5639 327.1722 112.3795 331.7101 120.2274 332.6213 126.6705 308.6398 127.126 297.2836 132.3323 281.738 148.2603 247.2413 158.4986 238.1173 153.5455 234.8207 139.3605 242.9499 127.0211 263.9495 116.1152 294.6947 106.7176 308.9917 108.5639 Z"/>
<path d="M 375.3065 78.7426 350.5711 82.5277 342.8275 88.0267 321.2803 94.3113 308.9917 108.5639 294.6947 106.7176 263.9495 116.1152 242.9499 127.0211 234.8207 139.3605 228.4067 132.0733 200.2325 110.9131 190.2313 105.689 196.1635 79.5818 205.9832 74.3914 216.0834 50.263 214.6806 41.285 233.8991 28.2388 253.2579 32.5875 270.5827 23.8901 287.8373 24.5915 306.635 34.6918 350.4027 16.876 366.4649 8.3189 371.4263 1.5625 368.4289 15.4732 374.7415 31.6056 373.1984 44.3712 377.1965 61.0646 375.3065 78.7426 Z"/>
<g/>
<path d="M 126.1928 210.1979 114.8671 221.7047 115.441 231.5807 125.7699 245.2318 122.0863 259.5225 117.0023 272.1413 100.3017 286.6062 81.0454 277.0285 92.6085 265.7085 87.9192 251.42 106.8335 221.5235 109.8537 207.0871 126.1535 205.1393 126.1928 210.1979 Z"/>
<path d="M 162.3442 235.3223 150.9145 251.6002 150.6972 257.8494 142.0005 264.9713 131.3423 255.0883 122.0863 259.5225 125.7699 245.2318 115.441 231.5807 114.8671 221.7047 126.1928 210.1979 138.4546 208.2046 157.9045 219.8624 162.3442 235.3223 Z"/>
<path d="M 67.816 241.2623 72.9472 251.6648 87.9192 251.42 92.6085 265.7085 81.0454 277.0285 66.7559 284.2524 59.5423 282.5495 46.6691 282.0485 30.1477 286.4907 19.3048 275.6697 4.3699 275.7026 6.1862 264.4986 1 251.0846 29.3238 237.8973 44.3094 249.8559 57.2401 249.1553 67.816 241.2623 Z"/>
<path d="M 247.2413 158.4986 247.0771 167.16 235.9857 176.412 238.6986 188.6204 229.4564 195.4466 209.7279 192.4961 198.4885 202.9604 171.5525 211.2931 169.4209 235.1286 162.3442 235.3223 157.9045 219.8624 138.4546 208.2046 126.1928 210.1979 126.1535 205.1393 144.0117 192.4393 147.6359 184.1036 166.814 170.0599 183.3947 168.0968 191.1263 155.2308 208.3111 141.3079 228.4067 132.0733 234.8207 139.3605 238.1173 153.5455 247.2413 158.4986 Z"/>
<path d="M 99.0105 457.4125 88.4802 457.3063 77.3062 463.3169 71.4802 455.5737 72.0562 428.946 103.3465 430.7506 104.5943 447.8046 99.0105 457.4125 Z"/>
<path d="M 26.214 403.1337 36.6177 419.0864 31.1751 425.2779 18.2554 411.0339 17.1669 405.3744 23.1323 403.3074 22.6459 400.3991 26.214 403.1337 Z"/>
<path d="M 71.0201 427.5982 72.0562 428.946 71.4802 455.5737 58.209 453.9992 31.1751 425.2779 36.6177 419.0864 46.6935 416.4049 57.6181 418.1627 71.0201 427.5982 Z"/>
<path d="M 18.2554 411.0339 31.1751 425.2779 58.209 453.9992 71.4802 455.5737 77.3062 463.3169 61.9073 465.0229 48.3469 474.309 40.5563 470.5691 36.4004 451.9075 28.6372 438.4827 20.3204 435.4595 7.6775 416.3851 8.2508 410.3695 18.2554 411.0339 Z"/>
<path d="M 22.6459 400.3991 23.1323 403.3074 19.7316 401.0628 21.1793 397.3314 22.1518 397.2176 22.6459 400.3991 Z"/>
<path d="M 27.3666 398.7047 26.7226 399.9611 23.6007 397.3405 27.3666 398.7047 Z"/>
<path d="M 23.6007 397.3405 26.7226 399.9611 26.214 403.1337 22.6459 400.3991 22.1518 397.2176 23.6007 397.3405 Z"/>
<path d="M 21.1793 397.3314 19.7316 401.0628 18.6173 400.6745 18.6295 398.1284 21.1793 397.3314 Z"/>
<path d="M 14.1123 398.245 17.1669 405.3744 18.2554 411.0339 8.2508 410.3695 14.1123 398.245 Z"/>
<path d="M 18.6295 398.1284 18.6173 400.6745 16.0147 398.8736 18.6295 398.1284 Z"/>
<path d="M 16.0147 398.8736 18.6173 400.6745 19.7316 401.0628 23.1323 403.3074 17.1669 405.3744 14.1123 398.245 16.0147 398.8736 Z"/>
<path d="M 602.7876 410.5678 617.3189 407.7278 623.5507 411.5807 626.9457 425.9199 608.4854 429.0125 591.5853 438.4208 572.333 436.6785 560.3016 430.4683 546.8601 437.7799 544.215 430.6128 541.4945 412.9834 546.3729 408.105 562.4146 407.5785 576.0766 406.8781 582.9352 416.8321 602.7876 410.5678 Z"/>
<path d="M 46.6935 416.4049 36.6177 419.0864 26.214 403.1337 26.7226 399.9611 27.3666 398.7047 32.5419 399.589 46.6935 416.4049 Z"/>
<g/>
</g>
</svg>