<?xml version="1.0"?>
<svg xmlns="http://www.w3.org/2000/svg" version="1.2" baseProfile="tiny" width="800" height="810" viewBox="0 0 800 810" stroke-linecap="round" stroke-linejoin="round">
<g id="sle_admbnda_adm2_1m_gov_ocha">
<path d="M 569.6337 699.493 558.0524 720.3616 535.7321 728.0518 514.5997 752.4353 510.3612 783.8848 476.6177 809.2051 450.904 797.1608 433.266 778.7641 400.0761 759.6089 355.2909 738.4686 371.1543 733.7874 376.3046 716.3957 371.117 701.6164 376.6032 685.5682 372.2076 661.6714 390.1114 635.4295 405.2667 630.8403 417.6471 644.6081 431.6284 622.729 454.5748 624.1164 460.765 613.3369 472.9642 613.2198 478.9666 626.0764 474.7925 646.9471 488.5426 646.5174 502.5689 624.0507 520.217 634.4861 510.9786 650.753 517.7616 675.7978 541.4867 690.2232 569.6337 699.493 Z"/>
<path d="M 229.4564 195.4466 239.1451 197.4237 237.1699 215.7388 219.4294 227.7334 189.2633 257.4685 210.0204 256.9658 214.0785 275.8555 251.409 288.6402 261.2399 309.6487 248.0872 325.45 260.3758 334.4684 239.1805 350.7474 268.3617 375.4926 246.2297 393.4685 196.0122 409.3984 185.7685 396.9185 174.6645 429.7401 149.309 434.4941 136.8825 423.3675 119.6205 434.7021 112.4974 452.796 99.0105 457.4125 104.5943 447.8046 103.3465 430.7506 71.0201 427.5982 47.1932 406.6255 74.4762 382.4602 90.2902 385.2606 89.8159 370.5123 75.8876 367.963 67.5792 375.4472 48.031 376.7379 38.5919 388.1839 18.3366 353.4878 16.3728 314.9457 27.9377 300.0326 43.0101 301.783 67.103 304.3094 104.6971 303.5343 99.9493 286.0937 117.0023 272.1413 121.2656 259.1578 131.3423 255.0883 142.0005 264.9713 161.8633 235.3223 169.4209 235.1286 171.5525 211.2931 198.4885 202.9604 209.7279 192.4961 229.4564 195.4466 Z"/>
<path d="M 185.7454 621.5366 211.7865 635.0703 216.0734 654.7082 205.2029 665.9846 205.0877 686.2544 195.138 685.3223 192.1772 670.4188 169.3211 659.4149 97.1463 639.2209 115.3227 626.5785 162.6509 621.1681 185.7454 621.5366 Z M 316.1883 610.6198 331.4127 607.3935 342.9734 624.5529 347.3683 643.8525 366.5342 648.3621 372.2076 661.6714 376.6032 685.5682 371.117 701.6164 376.3046 716.3957 371.1543 733.7874 355.2909 738.4686 241.4402 695.8265 216.1384 689.0991 216.0158 671.3343 224.421 656.1562 217.1555 625.4613 203.3804 618.1634 215.6784 593.3485 227.1415 591.3746 247.1284 584.4167 266.3852 587.1865 279.355 606.5312 295.6441 614.5769 316.1883 610.6198 Z"/>
<path d="M 472.9642 613.2198 460.765 613.3369 454.5748 624.1164 431.6284 622.729 417.6471 644.6081 405.2667 630.8403 390.1114 635.4295 372.2076 661.6714 366.5342 648.3621 347.3683 643.8525 342.9734 624.5529 331.4127 607.3935 316.1883 610.6198 308.8557 588.5934 310.5704 533.0212 329.9811 533.241 339.8293 523.8324 367.7253 525.9867 367.3516 510.9946 377.5296 489.3197 395.6433 479.9111 396.061 462.237 401.9743 451.5095 400.3696 437.1768 391.0184 432.3333 408.4081 420.2888 416.3678 407.5441 451.7154 397.8864 461.8365 413.195 463.7548 429.0207 475.8398 434.2959 492.289 464.3168 506.9157 475.2509 501.3528 490.2134 516.5071 492.5153 518.5692 520.6179 506.2443 548.6245 489.8911 551.7897 480.0121 570.3968 495.55 572.8906 501.9282 587.0857 495.5021 604.6379 482.9374 601.4727 472.9642 613.2198 Z"/>
<path d="M 190.2313 105.689 233.3696 134.1671 238.1173 153.5455 247.4189 158.7777 235.9857 176.412 238.6986 188.6204 229.4564 195.4466 209.7279 192.4961 198.4885 202.9604 171.5525 211.2931 169.4209 235.1286 161.8633 235.3223 142.0005 264.9713 131.3423 255.0883 121.2656 259.1578 117.0023 272.1413 99.9493 286.0937 104.6971 303.5343 67.103 304.3094 43.0101 301.783 19.3048 275.6697 4.3699 275.7026 1 251.0846 29.3238 237.8973 44.3094 249.8559 57.2401 249.1553 82.1102 231.1689 93.3607 215.1688 93.8713 190.1698 113.6111 186.8764 132.0206 188.8142 158.9065 160.0374 174.9684 129.2486 172.4738 122.5306 182.4523 104.6306 190.2313 105.689 Z"/>
<path d="M 658.6025 627.2265 630.2429 617.9938 627.2285 598.0125 612.1564 579.1222 601.5055 559.1983 604.8357 535.5423 624.8744 496.7281 636.9033 482.1441 644.7121 458.4307 640.3771 429.9516 645.4219 423.2629 649.7776 418.3845 674.8665 417.3392 679.7449 410.0216 701.0224 406.9525 696.1644 434.4374 715.5653 437.4652 723.8639 446.2124 736.2557 438.9231 765.1887 408.7565 785.7671 393.3929 799 409.3172 791.0939 448.231 792.1032 467.1833 777.4685 486.9205 752.2362 484.5655 738.8911 488.042 718.9856 513.4985 711.1356 515.6292 710.6309 585.3825 700.9866 586.7282 658.6025 627.2265 Z"/>
<path d="M 715.7444 252.0887 691.8538 259.4881 693.0734 280.744 642.6888 277.0554 625.2114 266.8057 623.8175 257.2231 592.7177 243.1106 579.8248 245.724 571.8103 259.4881 574.7722 269.2449 561.0953 280.047 548.725 279.8728 530.2568 300.2576 526.9465 315.7639 518.0608 322.3846 515.1977 353.0172 508.3585 344.9876 502.6397 323.4196 491.1088 299.8909 477.337 305.1195 461.8613 303.1587 468.2803 287.3329 482.3089 284.1117 491.7624 256.8949 490.6186 223.796 477.3604 214.7393 457.6364 227.6708 439.1729 246.7645 418.8653 233.7397 421.3863 224.7297 419.869 189.2966 397.9858 202.8636 387.5492 202.1596 384.463 182.408 395.0122 172.4199 393.8899 159.0652 377.8979 140.9969 374.8117 122.0309 361.9058 122.592 352.5911 133.5901 327.1722 112.3795 308.9917 108.5639 321.2803 94.3113 350.5711 82.5277 375.3728 79.2732 377.1965 61.0646 374.7415 31.6056 368.4289 15.4732 371.4263 1.5625 549.3988 1 563.5863 11.7328 566.1353 33.8693 581.5638 41.0469 605.7109 67.0316 610.2071 80.4231 627.6144 98.2664 647.3025 126.7085 648.2081 145.4239 680.4402 165.9504 703.0462 190.8372 697.1096 212.37 684.8675 224.2432 678.8302 243.0257 700.6984 241.7512 715.7444 252.0887 Z"/>
<path d="M 397.9858 202.8636 386.0342 231.6747 406.5714 247.4985 400.0062 257.711 380.2546 265.0056 379.5251 295.3063 370.1543 328.5249 335.5329 347.7154 325.4327 341.3186 314.4346 351.8677 296.9724 331.2857 284.1339 338.2885 263.664 328.0536 260.3758 334.4684 248.0872 325.45 261.2399 309.6487 251.409 288.6402 214.0785 275.8555 210.0204 256.9658 189.2633 257.4685 219.4294 227.7334 237.1699 215.7388 239.1451 197.4237 229.4564 195.4466 238.6986 188.6204 235.9857 176.412 247.4189 158.7777 238.1173 153.5455 233.3696 134.1671 190.2313 105.689 196.1635 79.5818 205.9832 74.3914 216.0834 50.263 214.6806 41.285 233.8991 28.2388 253.2579 32.5875 270.5827 23.8901 287.8373 24.5915 306.635 34.6918 350.4027 16.876 371.4263 1.5625 368.4289 15.4732 374.7415 31.6056 377.1965 61.0646 375.3728 79.2732 350.5711 82.5277 321.2803 94.3113 308.9917 108.5639 327.1722 112.3795 352.5911 133.5901 361.9058 122.592 374.8117 122.0309 377.8979 140.9969 393.8899 159.0652 395.0122 172.4199 384.463 182.408 387.5492 202.1596 397.9858 202.8636 Z"/>
<path d="M 174.6645 429.7401 188.9235 444.938 209.0443 450.8668 240.1358 443.0706 252.0635 433.1736 267.8194 440.4096 273.5848 434.6675 298.6775 431.3529 309.9283 446.1984 326.8512 442.5104 338.1721 429.0187 362.6812 434.6675 391.0184 432.3333 400.3696 437.1768 401.9743 451.5095 396.061 462.237 395.6433 479.9111 377.5296 489.3197 367.3516 510.9946 367.7253 525.9867 339.8293 523.8324 329.9811 533.241 310.5704 533.0212 308.8557 588.5934 316.1883 610.6198 295.6441 614.5769 279.355 606.5312 266.3852 587.1865 247.1284 584.4167 227.1415 591.3746 213.7893 592.3762 190.5172 609.0836 157.8245 604.9697 132.7267 581.7913 117.4635 572.896 96.1061 550.8601 115.4941 538.2995 106.4173 515.6549 105.6215 501.5795 83.5114 471.4258 88.4802 457.3063 99.0105 457.4125 112.4974 452.796 119.6205 434.7021 136.8825 423.3675 149.309 434.4941 174.6645 429.7401 Z"/>
<path d="M 513.3407 381.2736 538.8811 391.0306 543.7595 433.194 555.4328 430.2321 591.5853 438.4208 623.6433 423.7856 645.4219 423.2629 640.3771 429.9516 644.7121 458.4307 636.9033 482.1441 624.8744 496.7281 604.8357 535.5423 601.5055 559.1983 612.1564 579.1222 627.2285 598.0125 630.2429 617.9938 658.6025 627.2265 648.2902 644.8082 624.3956 654.3537 592.3156 682.4947 580.4662 686.7072 569.6337 699.493 541.4867 690.2232 517.7616 675.7978 510.9786 650.753 520.217 634.4861 502.5689 624.0507 488.5426 646.5174 474.7925 646.9471 478.9666 626.0764 472.9642 613.2198 482.9374 601.4727 495.5021 604.6379 501.9282 587.0857 495.55 572.8906 480.0121 570.3968 489.8911 551.7897 506.2443 548.6245 518.5692 520.6179 516.5071 492.5153 501.3528 490.2134 506.9157 475.2509 492.289 464.3168 475.8398 434.2959 463.7548 429.0207 461.8365 413.195 451.7154 397.8864 454.4852 388.357 500.1421 381.0743 513.3407 381.2736 Z"/>
<path d="M 515.1977 353.0172 518.4656 373.0446 513.3407 381.2736 500.1421 381.0743 454.4852 388.357 451.7154 397.8864 416.3678 407.5441 408.4081 420.2888 391.0184 432.3333 362.6812 434.6675 338.1721 429.0187 326.8512 442.5104 309.9283 446.1984 298.6775 431.3529 273.5848 434.6675 267.8194 440.4096 252.0635 433.1736 240.1358 443.0706 209.0443 450.8668 188.9235 444.938 174.6645 429.7401 185.7685 396.9185 196.0122 409.3984 246.2297 393.4685 268.3617 375.4926 239.1805 350.7474 260.3758 334.4684 263.664 328.0536 284.1339 338.2885 296.9724 331.2857 314.4346 351.8677 325.4327 341.3186 335.5329 347.7154 370.1543 328.5249 379.5251 295.3063 380.2546 265.0056 400.0062 257.711 406.5714 247.4985 386.0342 231.6747 397.9858 202.8636 419.869 189.2966 421.3863 224.7297 418.8653 233.7397 439.1729 246.7645 457.6364 227.6708 477.3604 214.7393 490.6186 223.796 491.7624 256.8949 482.3089 284.1117 468.2803 287.3329 461.8613 303.1587 477.337 305.1195 491.1088 299.8909 502.6397 323.4196 508.3585 344.9876 515.1977 353.0172 Z"/>
<path d="M 715.7444 252.0887 714.6349 266.0507 723.2239 313.6563 733.6072 320.626 739.2748 339.4669 747.5574 347.4869 740.9642 361.5 727.847 364.7364 705.3214 393.5869 701.0224 406.9525 679.7449 410.0216 674.8665 417.3392 649.7776 418.3845 645.4219 423.2629 623.6433 423.7856 591.5853 438.4208 555.4328 430.2321 543.7595 433.194 538.8811 391.0306 513.3407 381.2736 518.4656 373.0446 515.1977 353.0172 518.0608 322.3846 526.9465 315.7639 530.2568 300.2576 548.725 279.8728 561.0953 280.047 574.7722 269.2449 571.8103 259.4881 579.8248 245.724 592.7177 243.1106 623.8175 257.2231 625.2114 266.8057 642.6888 277.0554 693.0734 280.744 691.8538 259.4881 715.7444 252.0887 Z"/>
<path d="M 46.6935 416.4049 71.0201 427.5982 103.3465 430.7506 104.5943 447.8046 99.0105 457.4125 88.4802 457.3063 48.3469 474.309 40.5563 470.5691 36.4004 451.9075 20.3204 435.4595 8.2508 410.3695 27.2377 405.4391 34.7555 417.5736 46.6935 416.4049 Z"/>
<path d="M 46.6935 416.4049 34.7555 417.5736 27.2377 405.4391 8.2508 410.3695 5.9295 394.9883 26.7485 396.5081 46.6935 416.4049 Z"/>
</g>
</svg>