<?xml version="1.0"?>
<svg xmlns="http://www.w3.org/2000/svg" version="1.2" baseProfile="tiny" width="800" height="798" viewBox="0 0 800 798" stroke-linecap="round" stroke-linejoin="round">
<g id="cod_admbnda_adm0_rgc_itos_20190911">
<path d="M 555.8095 1 594.2389 14.4464 620.2509 8.2887 635.176 13.6349 667.682 44.5766 688.9341 39.2622 709.9315 44.1527 722.429 30.2497 737.0731 35.1553 754.8022 61.0738 783.0976 80.5338 775.6539 125.2394 799 137.1665 787.5807 153.9998 759.1607 177.6231 732.4309 225.6441 727.2707 286.2163 712.5889 297.887 698.0481 341.7935 712.267 357.5195 711.2859 395.4935 717.5447 406.1168 717.2927 440.5856 726.8467 467.9539 726.6775 492.8232 755.4896 528.7994 777.3536 578.2396 699.9912 586.8193 698.6962 597.4109 679.5819 619.2992 687.0495 634.0461 688.6884 679.3681 675.5162 718.8362 703.0351 751.7941 735.771 742.743 735.7287 797.4723 724.2246 787.7446 701.6822 795.823 694.4921 779.3703 673.0486 753.9089 644.2882 747.9876 635.9562 732.2962 618.7843 719.1425 612.0172 735.2992 574.2058 733.4382 546.948 719.9218 545.952 703.4771 505.853 710.5661 506.3283 697.1335 489.4894 689.071 456.3303 697.9529 430.1921 695.1614 413.1136 647.6575 396.7397 626.8514 403.6295 588.239 395.2736 566.5058 396.1317 536.0772 343.8208 537.1018 333.4259 524.881 301.5737 524.4174 296.9925 566.6925 245.4485 566.2893 217.6749 572.145 194.2088 537.1503 176.5249 476.8937 73.0594 475.2094 33.796 476.1438 1 484.5888 4.0078 446.6267 17.0757 430.6655 32.5334 424.5905 42.2354 434.7645 55.688 417.4231 74.9115 414.3978 87.6243 433.5281 102.4262 432.6902 117.7851 411.3529 147.3814 395.6632 161.0869 367.8113 161.9163 318.1881 187.4624 281.8569 208.3983 270.2681 223.5821 252.4197 227.2618 222.3481 234.325 212.9587 229.7149 189.5274 239.1466 164.0659 240.7538 132.514 263.4238 92.6724 261.0976 69.7486 268.1185 43.1452 282.7102 20.2214 295.6101 11.8047 313.4585 12.989 357.1067 40.3537 416.7001 54.3956 428.7304 50.1065 446.678 23.3948 462.1232 33.1495 510.5786 12.7186 523.2213 20.9182 545.7825 15.3904 555.8095 1 Z"/>
</g>
</svg>