<?xml version="1.0"?>
<svg xmlns="http://www.w3.org/2000/svg" version="1.2" baseProfile="tiny" width="800" height="721" viewBox="0 0 800 721" stroke-linecap="round" stroke-linejoin="round">
<g id="mli_admbnda_adm0_1m_dnct_20190802">
<path d="M 359.4409 1 382.6758 16.096 419.5817 38.8781 480.8112 77.665 537.7868 114.3337 592.3898 150.5128 605.3216 158.5462 636.3582 180.3453 650.5839 189.1318 649.9607 207.4553 670.6438 214.1465 674.482 223.6185 685.4093 231.3637 699.3645 227.0005 717.2718 240.7957 737.3676 244.7085 751.2707 251.9549 749.8752 263.3072 753.1417 273.0145 744.5965 282.6889 756.0033 293.1881 798.8932 284.694 798.8938 332.6942 799 388.4317 796.6632 397.6353 796.8284 417.699 792.6464 420.1108 786.441 433.3216 782.3527 449.1195 773.0241 453.7722 764.7572 461.8514 762.6802 468.0627 740.1394 464.6434 739.5895 469.0551 722.8882 468.6011 656.9642 471.9135 641.5713 485.6116 626.7664 488.0618 618.6481 485.442 612.682 487.1293 595.9187 486.4986 581.7419 481.6009 574.7098 485.1221 571.682 481.3299 557.4606 482.154 540.4162 495.683 528.6088 497.7845 510.6931 506.4715 497.6405 509.3827 496.3477 522.4221 491.7572 526.6819 473.7014 519.3299 455.9801 531.2423 452.7537 542.5002 454.255 550.5396 436.2867 549.2877 434.7195 555.2861 436.9268 568.2649 427.3321 568.838 421.9469 574.1716 409.6523 564.2631 394.9428 563.4664 383.0111 576.5437 389.16 583.9743 388.4251 595.2611 376.3784 598.754 381.9609 604.5868 372.8228 623.9534 364.1628 630.5975 345.496 632.5545 335.0106 639.0305 337.1762 648.5225 341.6943 653.2041 338.7848 667.4668 335.479 672.0584 327.6397 675.0937 329.4184 683.9039 329.3073 700.5537 326.3404 706.7084 314.1324 706.3157 303.0624 718.0712 292.3117 714.6989 294.2364 709.3058 290.8807 691.6942 282.8546 693.8645 282.2305 700.2679 270.4988 697.2852 270.0662 710.9631 257.444 710.2774 252.1671 720.4224 247.6242 715.3944 240.6627 714.937 232.6851 708.5557 224.1275 705.1509 213.9805 717.0806 200.7434 705.4356 194.9793 707.1004 190.0572 690.0845 193.5426 684.3021 189.6931 676.1618 174.815 681.5204 173.2189 679.053 186.2652 659.6961 176.3999 656.1712 172.1751 647.8373 165.0196 647.3485 168.6766 631.8326 161.9135 627.8307 159.2723 621.6692 160.9532 614.9986 150.0631 606.8187 140.5547 606.2823 142.9655 612.9034 141.0212 618.6979 134.2994 618.2891 126.9163 622.2096 123.0672 629.418 94.2337 619.9162 84.7353 624.5499 78.57 634.7946 72.7231 633.4781 70.8712 624.9413 63.916 619.4813 58.6379 620.1796 50.0677 630.754 38.7302 623.9584 37.051 620.1573 43.5893 606.3233 39.3654 598.3581 43.6808 585.4664 35.7938 574.8783 35.4381 569.925 29.7044 563.1037 24.9393 563.4083 13.8708 556.2 8.8998 547.3699 14.7131 542.6183 11.9427 534.3772 13.696 524.8414 1.6825 509.6853 5.4708 502.4195 1 497.0738 15.128 496.1421 22.0989 490.3243 19.8405 480.6458 26.4263 459.1013 30.8586 459.6391 41.058 454.6104 48.7997 465.1489 66.7203 478.9565 69.0257 472.206 78.2918 465.0256 92.981 464.3143 96.7894 462.234 124.8136 464.6984 138.2564 464.162 141.7544 461.1157 209.5074 461.1797 269.8082 461.1309 326.3259 460.9676 335.2342 420.8311 321.9176 412.7692 314.4792 344.6352 307.6297 284.5307 303.1538 245.5564 299.1975 207.6838 290.8731 134.9634 286.4138 94.2955 280.7282 49.5647 275.2628 1.1715 359.4409 1 Z"/>
</g>
</svg>