<?xml version="1.0"?>
<svg xmlns="http://www.w3.org/2000/svg" version="1.2" baseProfile="tiny" width="800" height="722" viewBox="0 0 800 722" stroke-linecap="round" stroke-linejoin="round">
<g id="mli_admbnda_adm0_1m_dnct_20190802">
<path d="M 359.0646 1 419.2569 38.9106 480.5388 77.7306 592.2129 150.6408 650.4569 189.2928 649.8332 207.632 670.5339 214.3289 685.312 231.5609 699.2792 227.194 717.2019 241.001 751.2298 252.1698 753.1024 273.2473 744.55 282.9301 755.9665 293.4383 798.8931 284.9369 799 388.7633 796.8265 418.0558 782.3385 449.5031 762.6491 468.4625 740.089 465.0403 722.8231 469.0014 656.8426 472.3166 641.4365 486.0264 595.7449 486.9142 581.5559 482.0124 557.2539 482.5659 540.1948 496.1065 497.3825 509.8179 491.4942 527.1319 473.423 519.7736 455.6864 531.6962 453.9599 551.01 435.9762 549.7571 436.6168 568.7504 421.6242 574.6622 409.319 564.7452 394.5969 563.9479 382.655 577.0364 388.0736 595.7698 372.458 624.4867 334.6135 639.5766 341.3028 653.7624 338.3909 668.0373 327.2362 675.6707 328.9052 701.1526 302.6379 718.685 281.7881 700.8665 251.699 721.0382 223.6354 705.7536 213.4797 717.6936 194.4623 707.7049 185.7407 660.26 164.4769 647.9018 168.137 632.3726 149.5076 607.3373 122.4886 629.9559 93.6304 620.4461 70.2479 625.4754 58.0041 620.7097 49.4266 631.2931 36.3988 620.6873 42.9426 606.8415 43.0342 585.9668 29.0458 563.5849 13.1987 556.6752 13.0238 525.2898 1 510.1207 21.4338 490.7432 25.7649 459.4934 40.4091 454.9987 66.0935 479.3657 77.6749 465.4228 124.2365 465.0953 141.1918 461.5096 209.0027 461.5736 325.9212 461.3613 334.8372 421.1905 321.5092 413.1217 307.2091 284.7734 298.7696 207.8607 290.4382 135.0781 274.8144 1.1716 359.0646 1 Z"/>
</g>
</svg>