<?xml version="1.0"?>
<svg xmlns="http://www.w3.org/2000/svg" version="1.2" baseProfile="tiny" width="800" height="722" viewBox="0 0 800 722" stroke-linecap="round" stroke-linejoin="round">
<g id="mli_admbnda_adm0_1m_dnct_20190802">
<path d="M 359.1125 1 480.603 77.7409 650.5439 189.3181 649.9201 207.6597 685.4037 231.5918 751.3303 252.2034 756.0676 293.4774 799 284.9749 796.9331 418.1116 782.4431 449.5632 762.7512 468.5251 656.9304 472.3798 641.5223 486.0914 557.3284 482.6304 540.2671 496.1728 473.4863 519.8431 454.0205 551.0837 421.6805 574.7391 394.6496 564.0233 372.5078 624.5702 334.6581 639.6622 328.9492 701.2464 302.6783 718.7812 281.8257 700.9603 251.7326 721.1347 223.6652 705.848 194.4882 707.7995 185.7655 660.3483 149.5274 607.4185 122.5048 630.0402 93.6429 620.529 49.4331 631.3775 36.4035 620.7704 43.0398 586.0451 13.2004 556.7497 13.0254 525.36 1 510.1889 21.4366 490.8088 40.4144 455.0595 66.1022 479.4297 77.6851 465.485 141.2106 461.5713 325.9648 461.423 334.8819 421.2467 321.5522 413.1769 307.2501 284.8114 290.4769 135.096 274.8511 1.1717 359.1125 1 Z"/>
</g>
</svg>