<svg xmlns="http://www.w3.org/2000/svg" viewBox="0 0 400 108.8"><defs><style>.cls-1{fill:#fff;}</style></defs><title>cvisb_logo_white</title><g id="Layer_2" data-name="Layer 2"><g id="Layer_1-2" data-name="Layer 1"><g id="CViSB_icon_RGB"><path class="cls-1" d="M16.66,49.82a25,25,0,0,1,4.41.45l.07-1.59a23.35,23.35,0,0,0-4.6-.54,8,8,0,0,0-3.18.54,3.88,3.88,0,0,0-1.89,1.71,8,8,0,0,0-.93,2.7,23.46,23.46,0,0,0-.26,3.78,22.89,22.89,0,0,0,.26,3.75,7.81,7.81,0,0,0,.93,2.67A4,4,0,0,0,13.37,65a8.05,8.05,0,0,0,3.25.55A23.06,23.06,0,0,0,21.14,65l-.07-1.61a23,23,0,0,1-4.08.44,6.54,6.54,0,0,1-2.61-.41A2.77,2.77,0,0,1,13,62.12,6.71,6.71,0,0,1,12.4,60a23.44,23.44,0,0,1-.16-3.11,12.34,12.34,0,0,1,.86-5.46C13.68,50.36,14.87,49.82,16.66,49.82Z"/><polygon class="cls-1" points="31.02 63.65 27.13 48.38 25.18 48.38 29.6 65.31 33.81 65.31 38.24 48.38 36.28 48.38 32.39 63.65 31.02 63.65"/><path class="cls-1" d="M67.27,49.78a47.31,47.31,0,0,1,4.82.41l.17-1.59-.83-.12a30.78,30.78,0,0,0-4.28-.37q-5.45,0-5.45,4.55a3.92,3.92,0,0,0,1.2,3.24A9.9,9.9,0,0,0,67,57.48a7.74,7.74,0,0,1,3,1,2.3,2.3,0,0,1,.79,2c0,2.26-1.2,3.4-3.62,3.4A42.73,42.73,0,0,1,62,63.43L61.85,65l.88.12a29.89,29.89,0,0,0,4.47.42c3.6,0,5.41-1.74,5.41-5.21a3.76,3.76,0,0,0-1.08-3,8.71,8.71,0,0,0-3.66-1.49,11.49,11.49,0,0,1-3.42-1.15,2.4,2.4,0,0,1-.85-2.12C63.6,50.7,64.83,49.78,67.27,49.78Z"/><path class="cls-1" d="M88.94,55.17a4.8,4.8,0,0,0,.54-2.48,4,4,0,0,0-1.26-3.27,5.85,5.85,0,0,0-3.77-1H78.31V65.31h6.45a6,6,0,0,0,3.89-1.1A4.46,4.46,0,0,0,90,60.56a3.8,3.8,0,0,0-2.69-4A3.78,3.78,0,0,0,88.94,55.17Zm-1.2,3.75a3.28,3.28,0,0,1,.35,1.57A3,3,0,0,1,87.22,63a4,4,0,0,1-2.53.7h-4.5V57.53h4.38a5.24,5.24,0,0,1,2.22.49A2.06,2.06,0,0,1,87.74,58.92Zm-.91-3.77a3.09,3.09,0,0,1-2.29.74H80.19V50.05h4.18a3.58,3.58,0,0,1,2.41.67,2.76,2.76,0,0,1,.77,2.18A3.14,3.14,0,0,1,86.83,55.15Z"/><path class="cls-1" d="M91.92,22,56.82,1.73a16,16,0,0,0-14.48,0L7.24,22A16,16,0,0,0,0,34.54V75.07a13.73,13.73,0,0,0,7.16,12.5l32.43,18.61a.95.95,0,0,0,.93-1.65L8.73,84A12,12,0,0,1,3.34,74.9L1.9,34.54a14.14,14.14,0,0,1,6.29-10.9L43.29,5.31a14.18,14.18,0,0,1,12.59,0L91,23.64a14.14,14.14,0,0,1,6.29,10.9l-1.38,39A12.24,12.24,0,0,1,89.6,84.43s-31.43,20-32.41,20.61c-1.15.66-3,1-4,.43a4.77,4.77,0,0,1-2.08-4.3l-.53-36a.95.95,0,0,0-1.9,0l-.87,37a6.62,6.62,0,0,0,3,5.94,5.06,5.06,0,0,0,2.56.68A11.24,11.24,0,0,0,57,107.72c2.32-1.21,34.88-20.11,34.88-20.11a13.49,13.49,0,0,0,7.24-12.54V34.54A16,16,0,0,0,91.92,22Z"/><path class="cls-1" d="M53.49,54.42a3.91,3.91,0,1,0-3.91,3.91A3.91,3.91,0,0,0,53.49,54.42Z"/></g><path class="cls-1" d="M139.65,46.54a27.18,27.18,0,0,1-5.39.62,9.53,9.53,0,0,1-3.86-.66,4.89,4.89,0,0,1-2.27-2,9.44,9.44,0,0,1-1.1-3.17,26.62,26.62,0,0,1-.31-4.47,27,27,0,0,1,.31-4.5,9.65,9.65,0,0,1,1.1-3.22,4.81,4.81,0,0,1,2.26-2,9.59,9.59,0,0,1,3.78-.64,28.51,28.51,0,0,1,5.48.64l-.09,1.9a30.25,30.25,0,0,0-5.24-.53c-2.13,0-3.55.64-4.24,1.91s-1,3.44-1,6.51a28.21,28.21,0,0,0,.19,3.7,8.08,8.08,0,0,0,.74,2.51,3.29,3.29,0,0,0,1.62,1.61,7.89,7.89,0,0,0,3.12.48,26.8,26.8,0,0,0,4.84-.53Z"/><path class="cls-1" d="M153.13,45.06,154,45l.05,1.72a41.86,41.86,0,0,1-5.67.47q-3.15,0-4.46-1.82t-1.31-5.67q0-7.65,6.09-7.66a5.54,5.54,0,0,1,4.39,1.65q1.45,1.65,1.46,5.17l-.12,1.66H144.8a5.92,5.92,0,0,0,.88,3.58,3.55,3.55,0,0,0,3,1.16C150.17,45.23,151.64,45.18,153.13,45.06Zm-.78-6.32a6.3,6.3,0,0,0-.86-3.78,3.34,3.34,0,0,0-2.8-1.11A3.6,3.6,0,0,0,145.78,35a5.9,5.9,0,0,0-1,3.73Z"/><path class="cls-1" d="M160.7,46.86h-2.18V32.3h2.15v1A9.38,9.38,0,0,1,165.19,32c1.94,0,3.24.53,3.91,1.58s1,2.91,1,5.59v7.68H168V39.23a10,10,0,0,0-.59-4.14A2.62,2.62,0,0,0,164.81,34a7.86,7.86,0,0,0-2,.28,10.39,10.39,0,0,0-1.58.54l-.56.26Z"/><path class="cls-1" d="M182.2,34.2h-4.63v7a9.51,9.51,0,0,0,.36,3.29c.24.52.82.78,1.73.78l2.59-.17.15,1.8a19.05,19.05,0,0,1-3,.32,3.81,3.81,0,0,1-3.15-1.1c-.58-.74-.87-2.15-.87-4.22V34.2h-2.07V32.3h2.07V27.85h2.16V32.3h4.63Z"/><path class="cls-1" d="M195.36,45.06l.84-.09.06,1.72a42,42,0,0,1-5.68.47q-3.15,0-4.45-1.82c-.88-1.22-1.31-3.11-1.31-5.67q0-7.65,6.08-7.66a5.57,5.57,0,0,1,4.4,1.65q1.45,1.65,1.45,5.17l-.11,1.66H187a6,6,0,0,0,.87,3.58,3.56,3.56,0,0,0,3,1.16C192.39,45.23,193.86,45.18,195.36,45.06Zm-.79-6.32a6.3,6.3,0,0,0-.86-3.78,3.3,3.3,0,0,0-2.79-1.11A3.6,3.6,0,0,0,188,35a5.9,5.9,0,0,0-1,3.73Z"/><path class="cls-1" d="M200.74,46.86V32.3h2.16v2a14.24,14.24,0,0,1,5.33-2.3V34.2a15,15,0,0,0-2.55.73,16.35,16.35,0,0,0-2,.87l-.73.38V46.86Z"/><path class="cls-1" d="M221.18,34.2V46.86H219V34.2h-1.84V32.3H219V31c0-2,.29-3.46.87-4.2a3.65,3.65,0,0,1,3.06-1.12l2.94.2,0,1.81c-1.09,0-2-.06-2.69-.06a1.64,1.64,0,0,0-1.51.7,5.33,5.33,0,0,0-.46,2.7V32.3h4.23v1.9Z"/><path class="cls-1" d="M227.71,39.56c0-2.66.47-4.59,1.42-5.77S231.69,32,234,32s3.87.6,4.81,1.78,1.41,3.11,1.41,5.77-.45,4.59-1.34,5.79-2.52,1.81-4.89,1.81-4-.61-4.89-1.81S227.71,42.21,227.71,39.56Zm2.24-.05a9.31,9.31,0,0,0,.77,4.47c.52.86,1.59,1.28,3.23,1.28s2.72-.42,3.22-1.26a9.34,9.34,0,0,0,.76-4.47c0-2.14-.28-3.61-.85-4.42a3.57,3.57,0,0,0-3.13-1.2,3.62,3.62,0,0,0-3.14,1.2C230.24,35.92,230,37.39,230,39.51Z"/><path class="cls-1" d="M244.3,46.86V32.3h2.16v2a14.24,14.24,0,0,1,5.33-2.3V34.2a15,15,0,0,0-2.55.73,17.07,17.07,0,0,0-2,.87l-.73.38V46.86Z"/><path class="cls-1" d="M138.92,61.66h2.33L136,81.81h-5L125.7,61.66H128l4.63,18.17h1.63Z"/><path class="cls-1" d="M144.63,64V61.42h2.18V64Zm0,17.85V67.25h2.18V81.81Z"/><path class="cls-1" d="M151.59,81.81V67.25h2.15v2a14.15,14.15,0,0,1,5.33-2.3v2.21a16.59,16.59,0,0,0-2.55.73,17.84,17.84,0,0,0-2,.87l-.73.38V81.81Z"/><path class="cls-1" d="M172.52,71.65V79.1c.06.72.63,1.15,1.69,1.28l-.08,1.72a4.7,4.7,0,0,1-3.47-1.17,12.76,12.76,0,0,1-5.24,1.17A4,4,0,0,1,162.36,81a4.61,4.61,0,0,1-1.05-3.26,4.1,4.1,0,0,1,1.08-3.13,5.74,5.74,0,0,1,3.38-1.24l4.57-.43V71.65a2.92,2.92,0,0,0-.64-2.13,2.36,2.36,0,0,0-1.75-.64,42.79,42.79,0,0,0-4.83.29l-.9.09-.09-1.66a29.09,29.09,0,0,1,5.68-.64,4.05,4.05,0,0,1,4.71,4.69Zm-9,5.94c0,1.78.73,2.67,2.21,2.67a11.68,11.68,0,0,0,3.9-.67l.67-.23v-4.8L166,75a2.81,2.81,0,0,0-1.89.76A2.69,2.69,0,0,0,163.56,77.59Z"/><path class="cls-1" d="M177.59,81.81V60.9h2.18V81.81Z"/><path class="cls-1" d="M197.65,63.32c-2.91,0-4.37,1.09-4.37,3.29a2.85,2.85,0,0,0,1,2.52,13.48,13.48,0,0,0,4.08,1.36,10.44,10.44,0,0,1,4.35,1.78,4.52,4.52,0,0,1,1.28,3.6q0,6.19-6.44,6.2a36.09,36.09,0,0,1-5.32-.5l-1.05-.14.23-1.86a51.68,51.68,0,0,0,6,.52q4.31,0,4.31-4a2.74,2.74,0,0,0-.95-2.34,9.1,9.1,0,0,0-3.54-1.21,11.93,11.93,0,0,1-4.83-1.88A4.69,4.69,0,0,1,191,66.75q0-5.41,6.5-5.41a35.86,35.86,0,0,1,5.09.43l1,.15-.2,1.89A54.26,54.26,0,0,0,197.65,63.32Z"/><path class="cls-1" d="M206.42,67.25h2.18l3.64,12.66h1l3.67-12.66h2.18l-6.05,21h-2.19l1.9-6.46h-2.16Z"/><path class="cls-1" d="M226.8,68.91c-2.11,0-3.17.74-3.17,2.21a1.52,1.52,0,0,0,.73,1.44,12.21,12.21,0,0,0,3.32.88,9,9,0,0,1,3.67,1.26,3.68,3.68,0,0,1,1.07,3.06A3.8,3.8,0,0,1,231,81.05a7.09,7.09,0,0,1-4.21,1,26.59,26.59,0,0,1-4.25-.41l-.87-.14.11-1.9a37.52,37.52,0,0,0,5,.5,5,5,0,0,0,2.58-.54,2,2,0,0,0,.89-1.81,1.81,1.81,0,0,0-.76-1.71,10.79,10.79,0,0,0-3.32-.86,8.65,8.65,0,0,1-3.64-1.2,3.38,3.38,0,0,1-1.08-2.91,3.53,3.53,0,0,1,1.5-3.14,6.52,6.52,0,0,1,3.75-1,30.74,30.74,0,0,1,4.45.4l.82.15-.06,1.86A38,38,0,0,0,226.8,68.91Z"/><path class="cls-1" d="M243.89,69.14h-4.63v7a9.4,9.4,0,0,0,.37,3.29c.24.52.82.79,1.73.79L244,80l.15,1.81a20.38,20.38,0,0,1-3,.32A3.8,3.8,0,0,1,238,81c-.58-.74-.87-2.14-.87-4.22V69.14H235V67.25h2.07V62.79h2.15v4.46h4.63Z"/><path class="cls-1" d="M257.05,80l.85-.09.06,1.72a42.12,42.12,0,0,1-5.68.47c-2.1,0-3.58-.61-4.46-1.82s-1.31-3.1-1.31-5.67q0-7.65,6.09-7.65A5.61,5.61,0,0,1,257,68.6q1.46,1.65,1.45,5.17l-.11,1.66h-9.61A6,6,0,0,0,249.6,79a3.56,3.56,0,0,0,3,1.17Q254.82,80.18,257.05,80Zm-.78-6.32a6.34,6.34,0,0,0-.86-3.78,3.31,3.31,0,0,0-2.8-1.11A3.57,3.57,0,0,0,249.7,70a5.85,5.85,0,0,0-1,3.72Z"/><path class="cls-1" d="M264.63,81.81h-2.19V67.25h2.16v1A8.17,8.17,0,0,1,268.85,67c1.8,0,3.07.49,3.78,1.48a10.56,10.56,0,0,1,2.49-1,9.73,9.73,0,0,1,2.7-.45c1.94,0,3.24.52,3.91,1.55s1,2.91,1,5.61v7.69h-2.19V74.18A10,10,0,0,0,280,70a2.51,2.51,0,0,0-2.47-1.12,7.72,7.72,0,0,0-2,.27,11.24,11.24,0,0,0-1.58.54l-.55.27a14.59,14.59,0,0,1,.38,4.25v7.57h-2.18V74.29A10.67,10.67,0,0,0,271,70c-.38-.75-1.21-1.12-2.49-1.12a7.16,7.16,0,0,0-1.91.27,10.06,10.06,0,0,0-1.5.54l-.49.27Z"/><path class="cls-1" d="M291.94,68.91c-2.12,0-3.18.74-3.18,2.21a1.54,1.54,0,0,0,.73,1.44,12.45,12.45,0,0,0,3.32.88,8.89,8.89,0,0,1,3.67,1.26,3.65,3.65,0,0,1,1.08,3.06,3.8,3.8,0,0,1-1.44,3.29,7.11,7.11,0,0,1-4.21,1,26.59,26.59,0,0,1-4.25-.41l-.87-.14.11-1.9a37.37,37.37,0,0,0,5,.5,5,5,0,0,0,2.58-.54,2,2,0,0,0,.89-1.81,1.83,1.83,0,0,0-.76-1.71,10.88,10.88,0,0,0-3.32-.86,8.65,8.65,0,0,1-3.64-1.2,3.38,3.38,0,0,1-1.08-2.91,3.53,3.53,0,0,1,1.5-3.14,6.51,6.51,0,0,1,3.74-1,30.75,30.75,0,0,1,4.46.4l.81.15L297,69.37A37.71,37.71,0,0,0,291.94,68.91Z"/><path class="cls-1" d="M308.86,61.66h7.31a7,7,0,0,1,4.5,1.23,4.8,4.8,0,0,1,1.49,3.89,5.63,5.63,0,0,1-.65,3,4.45,4.45,0,0,1-1.94,1.67,4.54,4.54,0,0,1,3.21,4.75c0,2-.54,3.46-1.6,4.34a7.19,7.19,0,0,1-4.63,1.31h-7.69Zm7.22,2h-5v7h5.18a3.67,3.67,0,0,0,2.73-.89,3.74,3.74,0,0,0,.86-2.68,3.28,3.28,0,0,0-.92-2.59A4.26,4.26,0,0,0,316.08,63.64Zm.23,8.91H311.1v7.28h5.36a4.73,4.73,0,0,0,3-.83,3.58,3.58,0,0,0,1-2.93,3.76,3.76,0,0,0-.43-1.86A2.38,2.38,0,0,0,319,73.13,6.3,6.3,0,0,0,316.31,72.55Z"/><path class="cls-1" d="M327,64V61.42h2.18V64Zm0,17.85V67.25h2.18V81.81Z"/><path class="cls-1" d="M333.32,74.5c0-2.66.47-4.58,1.43-5.77S337.3,67,339.56,67s3.87.59,4.81,1.77,1.41,3.11,1.41,5.77-.45,4.59-1.34,5.79-2.52,1.81-4.89,1.81-4-.6-4.89-1.81S333.32,77.16,333.32,74.5Zm2.24,0a9.31,9.31,0,0,0,.77,4.47c.52.86,1.59,1.29,3.23,1.29s2.72-.43,3.22-1.27a9.31,9.31,0,0,0,.76-4.47c0-2.14-.28-3.61-.85-4.41a3.55,3.55,0,0,0-3.13-1.21,3.59,3.59,0,0,0-3.14,1.21C335.85,70.86,335.56,72.33,335.56,74.45Z"/><path class="cls-1" d="M350.09,81.81V60.9h2.18V81.81Z"/><path class="cls-1" d="M356.58,74.5q0-4,1.43-5.77T362.83,67q3.39,0,4.81,1.77t1.41,5.77q0,4-1.34,5.79t-4.89,1.81q-3.56,0-4.9-1.81T356.58,74.5Zm2.25,0a9.19,9.19,0,0,0,.77,4.47c.51.86,1.59,1.29,3.23,1.29s2.71-.43,3.22-1.27a9.46,9.46,0,0,0,.75-4.47q0-3.21-.84-4.41a4.67,4.67,0,0,0-6.27,0C359.11,70.86,358.83,72.33,358.83,74.45Z"/><path class="cls-1" d="M378.8,88.65c-2.33,0-3.95-.32-4.87-1s-1.39-1.78-1.39-3.45a3.34,3.34,0,0,1,.52-1.93,8.39,8.39,0,0,1,1.78-1.68,2.27,2.27,0,0,1-.81-2,5,5,0,0,1,.72-1.83l.27-.47c-1.54-.7-2.3-2.16-2.3-4.39q0-5,5.44-5a10.59,10.59,0,0,1,2.59.29l.44.09,4.31-.12v1.86L382.73,69a4,4,0,0,1,1,2.92c0,1.82-.45,3.1-1.35,3.83a6.83,6.83,0,0,1-4.27,1.09,7.68,7.68,0,0,1-1.42-.12,6.17,6.17,0,0,0-.53,1.66c0,.6.19,1,.56,1.12a13.54,13.54,0,0,0,3.35.22,7.07,7.07,0,0,1,4,.87c.82.59,1.23,1.72,1.23,3.41Q385.27,88.66,378.8,88.65Zm-4.1-4.57a2.41,2.41,0,0,0,.86,2.14,5.92,5.92,0,0,0,3.17.6,6.52,6.52,0,0,0,3.32-.64,2.35,2.35,0,0,0,1-2.15c0-1-.24-1.64-.72-1.93a6.27,6.27,0,0,0-2.86-.44l-3.14-.14a5,5,0,0,0-1.3,1.22A2.49,2.49,0,0,0,374.7,84.08Zm.2-12.14a3.26,3.26,0,0,0,.77,2.44,3.63,3.63,0,0,0,2.55.73,3.56,3.56,0,0,0,2.53-.73,4.36,4.36,0,0,0,0-4.92,4.73,4.73,0,0,0-5.08,0A3.31,3.31,0,0,0,374.9,71.94Z"/><path class="cls-1" d="M387.36,67.25h2.19l3.64,12.66h1l3.67-12.66H400l-6.06,21h-2.18l1.89-6.46H391.5Z"/></g></g></svg>