<?xml version="1.0" encoding="utf-8"?>
<!-- Generator: Adobe Illustrator 21.0.0, SVG Export Plug-In . SVG Version: 6.00 Build 0)  -->
<svg version="1.1" id="Layer_2" xmlns="http://www.w3.org/2000/svg" xmlns:xlink="http://www.w3.org/1999/xlink" x="0px" y="0px"
	 viewBox="0 0 600 133" enable-background="new 0 0 600 133" xml:space="preserve">
<g>
	<g id="Illustration">
		<g id="Inner_lines">
			<line fill="none" stroke="#5A9FD6" stroke-width="1.14" stroke-miterlimit="10" x1="73.3" y1="28" x2="59.9" y2="105.2"/>
			<line fill="none" stroke="#5A9FD6" stroke-width="1.1462" stroke-miterlimit="10" x1="43.5" y1="34.9" x2="89.2" y2="99.7"/>
			<line fill="none" stroke="#5A9FD6" stroke-width="1.1501" stroke-miterlimit="10" x1="99.7" y1="44" x2="34.5" y2="89.9"/>
			<line fill="none" stroke="#5A9FD6" stroke-width="1.1295" stroke-miterlimit="10" x1="106.1" y1="74.3" x2="30.2" y2="61.2"/>
		</g>
		<g id="Outer_lines">
			<line fill="none" stroke="#5A9FD6" stroke-width="1.1462" stroke-miterlimit="10" x1="44.3" y1="34.8" x2="42.7" y2="9.3"/>
			<line fill="none" stroke="#5A9FD6" stroke-width="1.1462" stroke-miterlimit="10" x1="44.3" y1="34.8" x2="22.6" y2="22.8"/>
			<line fill="none" stroke="#5A9FD6" stroke-width="1.1462" stroke-miterlimit="10" x1="73.3" y1="28" x2="66.4" y2="4.6"/>
			<line fill="none" stroke="#5A9FD6" stroke-width="1.1462" stroke-miterlimit="10" x1="73.3" y1="28" x2="90.1" y2="9.3"/>
			<line fill="none" stroke="#5A9FD6" stroke-width="1.1462" stroke-miterlimit="10" x1="98.2" y1="44.3" x2="110.2" y2="22.6"/>
			<line fill="none" stroke="#5A9FD6" stroke-width="1.1462" stroke-miterlimit="10" x1="98.2" y1="44.3" x2="123.6" y2="42.7"/>
			<line fill="none" stroke="#5A9FD6" stroke-width="1.1462" stroke-miterlimit="10" x1="104.6" y1="73.2" x2="128.4" y2="66.4"/>
			<line fill="none" stroke="#5A9FD6" stroke-width="1.1462" stroke-miterlimit="10" x1="104.6" y1="73.2" x2="123.7" y2="90.1"/>
			<line fill="none" stroke="#5A9FD6" stroke-width="1.1462" stroke-miterlimit="10" x1="88.7" y1="98.2" x2="110.9" y2="110.3"/>
			<line fill="none" stroke="#5A9FD6" stroke-width="1.1462" stroke-miterlimit="10" x1="88.7" y1="98.2" x2="90.3" y2="123.6"/>
			<line fill="none" stroke="#5A9FD6" stroke-width="1.1462" stroke-miterlimit="10" x1="59.7" y1="104.6" x2="66.6" y2="128.4"/>
			<line fill="none" stroke="#5A9FD6" stroke-width="1.1462" stroke-miterlimit="10" x1="59.7" y1="104.6" x2="42.9" y2="123.7"/>
			<line fill="none" stroke="#5A9FD6" stroke-width="1.1462" stroke-miterlimit="10" x1="34.8" y1="88.7" x2="22.8" y2="110.3"/>
			<line fill="none" stroke="#5A9FD6" stroke-width="1.1462" stroke-miterlimit="10" x1="34.8" y1="88.7" x2="9.3" y2="90.3"/>
			<line fill="none" stroke="#5A9FD6" stroke-width="1.1462" stroke-miterlimit="10" x1="28.4" y1="59.7" x2="4.6" y2="66.6"/>
			<line fill="none" stroke="#5A9FD6" stroke-width="1.1462" stroke-miterlimit="10" x1="28.4" y1="59.7" x2="9.3" y2="42.9"/>
		</g>
		<g id="Green_dot">
			
				<radialGradient id="SVGID_1_" cx="163.1859" cy="66.4853" r="10.7264" gradientTransform="matrix(1.7069 0 0 1.7069 -212.057 -46.9938)" gradientUnits="userSpaceOnUse">
				<stop  offset="0" style="stop-color:#8CCEAC"/>
				<stop  offset="0.2385" style="stop-color:#88CDA8"/>
				<stop  offset="0.5359" style="stop-color:#7EC99E"/>
				<stop  offset="0.8633" style="stop-color:#6CC38E"/>
				<stop  offset="1" style="stop-color:#62C085"/>
			</radialGradient>
			<circle fill="url(#SVGID_1_)" cx="66.5" cy="66.5" r="18.3"/>
		</g>
		<g id="Inner_dots">
			<g>
				
					<radialGradient id="SVGID_2_" cx="164.9319" cy="80.1183" r="5.363" gradientTransform="matrix(1.6775 0.3153 -0.3153 1.6775 -146.8249 -113.1639)" gradientUnits="userSpaceOnUse">
					<stop  offset="0" style="stop-color:#76BCE8"/>
					<stop  offset="0.3524" style="stop-color:#6FB5E4"/>
					<stop  offset="0.9253" style="stop-color:#5DA2D8"/>
					<stop  offset="1" style="stop-color:#5A9FD6"/>
				</radialGradient>
				<circle fill="url(#SVGID_2_)" cx="104.6" cy="73.2" r="9.2"/>
			</g>
			<g>
				
					<radialGradient id="SVGID_3_" cx="862.4686" cy="468.2859" r="5.3629" gradientTransform="matrix(1.409 -0.9632 0.9632 1.409 -1568.0739 215.1988)" gradientUnits="userSpaceOnUse">
					<stop  offset="0" style="stop-color:#76BCE8"/>
					<stop  offset="0.3524" style="stop-color:#6FB5E4"/>
					<stop  offset="0.9253" style="stop-color:#5DA2D8"/>
					<stop  offset="1" style="stop-color:#5A9FD6"/>
				</radialGradient>
				<circle fill="url(#SVGID_3_)" cx="98.2" cy="44.3" r="9.2"/>
			</g>
			<g>
				
					<radialGradient id="SVGID_4_" cx="1080.4968" cy="1234.7622" r="5.3625" gradientTransform="matrix(0.3153 -1.6775 1.6775 0.3153 -2338.7249 1451.6404)" gradientUnits="userSpaceOnUse">
					<stop  offset="0" style="stop-color:#76BCE8"/>
					<stop  offset="0.3524" style="stop-color:#6FB5E4"/>
					<stop  offset="0.9253" style="stop-color:#5DA2D8"/>
					<stop  offset="1" style="stop-color:#5A9FD6"/>
				</radialGradient>
				<circle fill="url(#SVGID_4_)" cx="73.2" cy="28.4" r="9.2"/>
			</g>
			<g>
				
					<radialGradient id="SVGID_5_" cx="693.4153" cy="1932.2371" r="5.3632" gradientTransform="matrix(-0.9632 -1.409 1.409 -0.9632 -2010.3622 2872.8904)" gradientUnits="userSpaceOnUse">
					<stop  offset="0" style="stop-color:#76BCE8"/>
					<stop  offset="0.3524" style="stop-color:#6FB5E4"/>
					<stop  offset="0.9253" style="stop-color:#5DA2D8"/>
					<stop  offset="1" style="stop-color:#5A9FD6"/>
				</radialGradient>
				<circle fill="url(#SVGID_5_)" cx="44.3" cy="34.8" r="9.2"/>
			</g>
			<g>
				
					<radialGradient id="SVGID_6_" cx="-74.1478" cy="2150.3279" r="5.3626" gradientTransform="matrix(-1.6775 -0.3153 0.3153 -1.6775 -773.9214 3643.5408)" gradientUnits="userSpaceOnUse">
					<stop  offset="0" style="stop-color:#76BCE8"/>
					<stop  offset="0.3524" style="stop-color:#6FB5E4"/>
					<stop  offset="0.9253" style="stop-color:#5DA2D8"/>
					<stop  offset="1" style="stop-color:#5A9FD6"/>
				</radialGradient>
				<circle fill="url(#SVGID_6_)" cx="28.4" cy="59.7" r="9.2"/>
			</g>
			<g>
				
					<radialGradient id="SVGID_7_" cx="-770.5374" cy="1763.1847" r="5.3631" gradientTransform="matrix(-1.409 0.9632 -0.9632 -1.409 647.3287 3315.1794)" gradientUnits="userSpaceOnUse">
					<stop  offset="0" style="stop-color:#76BCE8"/>
					<stop  offset="0.3524" style="stop-color:#6FB5E4"/>
					<stop  offset="0.9253" style="stop-color:#5DA2D8"/>
					<stop  offset="1" style="stop-color:#5A9FD6"/>
				</radialGradient>
				<circle fill="url(#SVGID_7_)" cx="34.8" cy="88.7" r="9.2"/>
			</g>
			<g>
				
					<radialGradient id="SVGID_8_" cx="-989.712" cy="995.6847" r="5.3628" gradientTransform="matrix(-0.3153 1.6775 -1.6775 -0.3153 1417.9825 2078.7371)" gradientUnits="userSpaceOnUse">
					<stop  offset="0" style="stop-color:#76BCE8"/>
					<stop  offset="0.3524" style="stop-color:#6FB5E4"/>
					<stop  offset="0.9253" style="stop-color:#5DA2D8"/>
					<stop  offset="1" style="stop-color:#5A9FD6"/>
				</radialGradient>
				<circle fill="url(#SVGID_8_)" cx="59.7" cy="104.6" r="9.2"/>
			</g>
			<g>
				
					<radialGradient id="SVGID_9_" cx="-601.4829" cy="299.2326" r="5.3633" gradientTransform="matrix(0.9632 1.409 -1.409 0.9632 1089.6177 657.4862)" gradientUnits="userSpaceOnUse">
					<stop  offset="0" style="stop-color:#76BCE8"/>
					<stop  offset="0.3524" style="stop-color:#6FB5E4"/>
					<stop  offset="0.9253" style="stop-color:#5DA2D8"/>
					<stop  offset="1" style="stop-color:#5A9FD6"/>
				</radialGradient>
				<circle fill="url(#SVGID_9_)" cx="88.7" cy="98.2" r="9.2"/>
			</g>
		</g>
		<g id="Outer_dots">
			<g>
				
					<radialGradient id="SVGID_10_" cx="40.2059" cy="51.263" r="2.6814" gradientTransform="matrix(1.6872 0.2579 -0.2579 1.6872 73.7629 -30.4726)" gradientUnits="userSpaceOnUse">
					<stop  offset="0" style="stop-color:#76BCE8"/>
					<stop  offset="0.3524" style="stop-color:#6FB5E4"/>
					<stop  offset="0.9253" style="stop-color:#5DA2D8"/>
					<stop  offset="1" style="stop-color:#5A9FD6"/>
				</radialGradient>
				<circle fill="url(#SVGID_10_)" cx="128.4" cy="66.4" r="4.6"/>
			</g>
			<g>
				
					<radialGradient id="SVGID_11_" cx="446.1686" cy="125.4664" r="2.6813" gradientTransform="matrix(1.6575 -0.4074 0.4074 1.6575 -667.0264 16.5254)" gradientUnits="userSpaceOnUse">
					<stop  offset="0" style="stop-color:#76BCE8"/>
					<stop  offset="0.3524" style="stop-color:#6FB5E4"/>
					<stop  offset="0.9253" style="stop-color:#5DA2D8"/>
					<stop  offset="1" style="stop-color:#5A9FD6"/>
				</radialGradient>
				<circle fill="url(#SVGID_11_)" cx="123.6" cy="42.7" r="4.6"/>
			</g>
			<g>
				
					<radialGradient id="SVGID_12_" cx="792.5601" cy="350.0825" r="2.6812" gradientTransform="matrix(1.3754 -1.0108 1.0108 1.3754 -1333.7596 342.2694)" gradientUnits="userSpaceOnUse">
					<stop  offset="0" style="stop-color:#76BCE8"/>
					<stop  offset="0.3524" style="stop-color:#6FB5E4"/>
					<stop  offset="0.9253" style="stop-color:#5DA2D8"/>
					<stop  offset="1" style="stop-color:#5A9FD6"/>
				</radialGradient>
				<circle fill="url(#SVGID_12_)" cx="110.2" cy="22.6" r="4.6"/>
			</g>
			<g>
				
					<radialGradient id="SVGID_13_" cx="1027.272" cy="689.1021" r="2.6811" gradientTransform="matrix(0.884 -1.4602 1.4602 0.884 -1824.251 900.1462)" gradientUnits="userSpaceOnUse">
					<stop  offset="0" style="stop-color:#76BCE8"/>
					<stop  offset="0.3524" style="stop-color:#6FB5E4"/>
					<stop  offset="0.9253" style="stop-color:#5DA2D8"/>
					<stop  offset="1" style="stop-color:#5A9FD6"/>
				</radialGradient>
				<circle fill="url(#SVGID_13_)" cx="90.1" cy="9.3" r="4.6"/>
			</g>
			<g>
				
					<radialGradient id="SVGID_14_" cx="1114.8551" cy="1093.3026" r="2.681" gradientTransform="matrix(0.2579 -1.6872 1.6872 0.2579 -2065.7986 1603.6312)" gradientUnits="userSpaceOnUse">
					<stop  offset="0" style="stop-color:#76BCE8"/>
					<stop  offset="0.3524" style="stop-color:#6FB5E4"/>
					<stop  offset="0.9253" style="stop-color:#5DA2D8"/>
					<stop  offset="1" style="stop-color:#5A9FD6"/>
				</radialGradient>
				<circle fill="url(#SVGID_14_)" cx="66.4" cy="4.6" r="4.6"/>
			</g>
			<g>
				
					<radialGradient id="SVGID_15_" cx="1040.2151" cy="1499.4081" r="2.6811" gradientTransform="matrix(-0.4074 -1.6575 1.6575 -0.4074 -2018.8013 2344.4204)" gradientUnits="userSpaceOnUse">
					<stop  offset="0" style="stop-color:#76BCE8"/>
					<stop  offset="0.3524" style="stop-color:#6FB5E4"/>
					<stop  offset="0.9253" style="stop-color:#5DA2D8"/>
					<stop  offset="1" style="stop-color:#5A9FD6"/>
				</radialGradient>
				<circle fill="url(#SVGID_15_)" cx="42.7" cy="9.3" r="4.6"/>
			</g>
			<g>
				
					<radialGradient id="SVGID_16_" cx="815.5178" cy="1846.7717" r="2.681" gradientTransform="matrix(-1.0108 -1.3754 1.3754 -1.0108 -1693.0577 3011.1543)" gradientUnits="userSpaceOnUse">
					<stop  offset="0" style="stop-color:#76BCE8"/>
					<stop  offset="0.3524" style="stop-color:#6FB5E4"/>
					<stop  offset="0.9253" style="stop-color:#5DA2D8"/>
					<stop  offset="1" style="stop-color:#5A9FD6"/>
				</radialGradient>
				<circle fill="url(#SVGID_16_)" cx="22.6" cy="22.8" r="4.6"/>
			</g>
			<g>
				
					<radialGradient id="SVGID_17_" cx="475.8141" cy="2080.6145" r="2.6809" gradientTransform="matrix(-1.4602 -0.884 0.884 -1.4602 -1135.1809 3501.6455)" gradientUnits="userSpaceOnUse">
					<stop  offset="0" style="stop-color:#76BCE8"/>
					<stop  offset="0.3524" style="stop-color:#6FB5E4"/>
					<stop  offset="0.9253" style="stop-color:#5DA2D8"/>
					<stop  offset="1" style="stop-color:#5A9FD6"/>
				</radialGradient>
				<circle fill="url(#SVGID_17_)" cx="9.3" cy="42.9" r="4.6"/>
			</g>
			<g>
				
					<radialGradient id="SVGID_18_" cx="72.8147" cy="2167.9524" r="2.6812" gradientTransform="matrix(-1.6872 -0.2579 0.2579 -1.6872 -431.696 3743.1929)" gradientUnits="userSpaceOnUse">
					<stop  offset="0" style="stop-color:#76BCE8"/>
					<stop  offset="0.3524" style="stop-color:#6FB5E4"/>
					<stop  offset="0.9253" style="stop-color:#5DA2D8"/>
					<stop  offset="1" style="stop-color:#5A9FD6"/>
				</radialGradient>
				<circle fill="url(#SVGID_18_)" cx="4.6" cy="66.6" r="4.6"/>
			</g>
			<g>
				
					<radialGradient id="SVGID_19_" cx="-333.7268" cy="2093.4551" r="2.6812" gradientTransform="matrix(-1.6575 0.4074 -0.4074 -1.6575 309.0933 3696.1956)" gradientUnits="userSpaceOnUse">
					<stop  offset="0" style="stop-color:#76BCE8"/>
					<stop  offset="0.3524" style="stop-color:#6FB5E4"/>
					<stop  offset="0.9253" style="stop-color:#5DA2D8"/>
					<stop  offset="1" style="stop-color:#5A9FD6"/>
				</radialGradient>
				<circle fill="url(#SVGID_19_)" cx="9.3" cy="90.3" r="4.6"/>
			</g>
			<g>
				
					<radialGradient id="SVGID_20_" cx="-681.1704" cy="1869.7295" r="2.6812" gradientTransform="matrix(-1.3754 1.0108 -1.0108 -1.3754 975.8271 3370.4514)" gradientUnits="userSpaceOnUse">
					<stop  offset="0" style="stop-color:#76BCE8"/>
					<stop  offset="0.3524" style="stop-color:#6FB5E4"/>
					<stop  offset="0.9253" style="stop-color:#5DA2D8"/>
					<stop  offset="1" style="stop-color:#5A9FD6"/>
				</radialGradient>
				<circle fill="url(#SVGID_20_)" cx="22.8" cy="110.3" r="4.6"/>
			</g>
			<g>
				
					<radialGradient id="SVGID_21_" cx="-915.6976" cy="1529.157" r="2.6811" gradientTransform="matrix(-0.884 1.4602 -1.4602 -0.884 1466.3185 2812.5747)" gradientUnits="userSpaceOnUse">
					<stop  offset="0" style="stop-color:#76BCE8"/>
					<stop  offset="0.3524" style="stop-color:#6FB5E4"/>
					<stop  offset="0.9253" style="stop-color:#5DA2D8"/>
					<stop  offset="1" style="stop-color:#5A9FD6"/>
				</radialGradient>
				<circle fill="url(#SVGID_21_)" cx="42.9" cy="123.7" r="4.6"/>
			</g>
			<g>
				
					<radialGradient id="SVGID_22_" cx="-1001.8332" cy="1125.9124" r="2.6811" gradientTransform="matrix(-0.2579 1.6872 -1.6872 -0.2579 1707.8658 2109.0894)" gradientUnits="userSpaceOnUse">
					<stop  offset="0" style="stop-color:#76BCE8"/>
					<stop  offset="0.3524" style="stop-color:#6FB5E4"/>
					<stop  offset="0.9253" style="stop-color:#5DA2D8"/>
					<stop  offset="1" style="stop-color:#5A9FD6"/>
				</radialGradient>
				<circle fill="url(#SVGID_22_)" cx="66.6" cy="128.4" r="4.6"/>
			</g>
			<g>
				
					<radialGradient id="SVGID_23_" cx="-927.7728" cy="719.5118" r="2.6812" gradientTransform="matrix(0.4074 1.6575 -1.6575 0.4074 1660.8668 1368.301)" gradientUnits="userSpaceOnUse">
					<stop  offset="0" style="stop-color:#76BCE8"/>
					<stop  offset="0.3524" style="stop-color:#6FB5E4"/>
					<stop  offset="0.9253" style="stop-color:#5DA2D8"/>
					<stop  offset="1" style="stop-color:#5A9FD6"/>
				</radialGradient>
				<circle fill="url(#SVGID_23_)" cx="90.3" cy="123.6" r="4.6"/>
			</g>
			<g>
				
					<radialGradient id="SVGID_24_" cx="-704.1277" cy="373.0393" r="2.681" gradientTransform="matrix(1.0108 1.3754 -1.3754 1.0108 1335.1226 701.5692)" gradientUnits="userSpaceOnUse">
					<stop  offset="0" style="stop-color:#76BCE8"/>
					<stop  offset="0.3524" style="stop-color:#6FB5E4"/>
					<stop  offset="0.9253" style="stop-color:#5DA2D8"/>
					<stop  offset="1" style="stop-color:#5A9FD6"/>
				</radialGradient>
				<circle fill="url(#SVGID_24_)" cx="110.3" cy="110.2" r="4.6"/>
			</g>
			<g>
				
					<radialGradient id="SVGID_25_" cx="-364.2396" cy="137.6428" r="2.6808" gradientTransform="matrix(1.4602 0.884 -0.884 1.4602 777.2468 211.0791)" gradientUnits="userSpaceOnUse">
					<stop  offset="0" style="stop-color:#76BCE8"/>
					<stop  offset="0.3524" style="stop-color:#6FB5E4"/>
					<stop  offset="0.9253" style="stop-color:#5DA2D8"/>
					<stop  offset="1" style="stop-color:#5A9FD6"/>
				</radialGradient>
				<circle fill="url(#SVGID_25_)" cx="123.7" cy="90.1" r="4.6"/>
			</g>
		</g>
	</g>
	<g id="Text">
		<path fill="#5A9FD6" d="M187.2,0l-8.6,31.2h-5.2L164.5,0h1.6l8.6,29.7h2.6L185.6,0H187.2z"/>
		<path fill="#5A9FD6" d="M193,0h1.6v31.2H193V0z"/>
		<path fill="#5A9FD6" d="M215.6,18.3H205v12.9h-1.6V0h11.2c6.2,0,9.3,2.7,9.3,8.9c0,4.9-1.7,8.2-6.5,9.1l7,13.1h-1.8L215.6,18.3z
			 M214.6,1.5H205v15.2h9.6c5.8,0,7.6-3.1,7.6-7.8C222.1,3.7,219.8,1.5,214.6,1.5z"/>
		<path fill="#5A9FD6" d="M238,0h4.7l9.5,31.1h-1.6l-3-9.5H233l-3,9.6h-1.6L238,0z M233.5,20.1h13.7l-5.7-18.6h-2.4L233.5,20.1z"/>
		<path fill="#5A9FD6" d="M258.4,31.2V0h1.6v29.7h15.2v1.5H258.4z"/>
		<path fill="#5A9FD6" d="M187.7,66.7h-18.6v14.9h-1.6V50.4h1.6v14.8h18.6V50.4h1.6v31.2h-1.6V66.7z"/>
		<path fill="#5A9FD6" d="M198.5,50.4h18.2v1.5h-16.6v12.9h13.9v1.5h-13.9V80h16.6v1.5h-18.2V50.4z"/>
		<path fill="#5A9FD6" d="M224,50.4h3.4l10.9,28.7l11-28.7h3.4v31.2h-1.6V51.9h-0.6l-11.1,28.7h-2.2l-11-28.7h-0.6v29.7H224V50.4z"
			/>
		<path fill="#5A9FD6" d="M260,66.1c0-10.2,2.4-16.1,11.9-16.1c9.5,0,11.9,5.9,11.9,16.1c0,10.8-2.4,15.9-11.9,15.9
			C262.3,81.9,260,76.4,260,66.1z M282.2,66.1c0-9.2-1.9-14.6-10.2-14.6c-8.5,0-10.2,5.3-10.2,14.6c0,9.4,1.6,14.3,10.2,14.3
			C280.5,80.4,282.2,75.9,282.2,66.1z"/>
		<path fill="#5A9FD6" d="M303.4,68.6h-10.6v12.9h-1.6V50.4h11.2c6.2,0,9.3,2.7,9.3,8.9c0,4.9-1.7,8.2-6.5,9.1l7,13.1h-1.8
			L303.4,68.6z M302.3,51.9h-9.6v15.2h9.6c5.8,0,7.6-3.1,7.6-7.8C309.9,54.1,307.5,51.9,302.3,51.9z"/>
		<path fill="#5A9FD6" d="M331.5,68.6h-10.6v12.9h-1.6V50.4h11.2c6.2,0,9.3,2.7,9.3,8.9c0,4.9-1.7,8.2-6.5,9.1l7,13.1h-1.8
			L331.5,68.6z M330.4,51.9h-9.6v15.2h9.6c5.8,0,7.6-3.1,7.6-7.8C338,54.1,335.6,51.9,330.4,51.9z"/>
		<path fill="#5A9FD6" d="M367.5,66.7h-18.6v14.9h-1.6V50.4h1.6v14.8h18.6V50.4h1.6v31.2h-1.6V66.7z"/>
		<path fill="#5A9FD6" d="M384.8,50.4h4.7l9.5,31.1h-1.6l-3-9.5h-14.6l-3,9.6h-1.6L384.8,50.4z M380.3,70.4H394l-5.7-18.6h-2.4
			L380.3,70.4z"/>
		<path fill="#5A9FD6" d="M416.5,66.1h8.3v14.7c0,0-6.3,1.1-9.8,1.1c-9.2,0-11.7-6-11.7-15.9c0-9.7,2.2-16.1,11.7-16.1
			c4.7,0,9.8,1.1,9.8,1.1l-0.1,1.6c0,0-5.6-1.2-9.7-1.2c-8.4,0-10,5.7-10,14.6c0,8.9,1.8,14.3,10,14.3c3.2,0,7.9-0.9,8.2-0.9V67.6
			h-6.7V66.1z"/>
		<path fill="#5A9FD6" d="M432.3,50.4h1.6v31.2h-1.6V50.4z"/>
		<path fill="#5A9FD6" d="M460.1,81.1c0,0-4.7,0.9-8.2,0.9c-9.2,0-11.1-6-11.1-15.9c0-9.7,1.6-16.1,11.1-16.1c4.2,0,8.2,0.8,8.2,0.8
			l-0.1,1.6c0,0-4.5-0.9-8.1-0.9c-8.4,0-9.4,5.7-9.4,14.6c0,8.9,1.2,14.3,9.4,14.3c3.2,0,8.1-0.9,8.1-0.9L460.1,81.1z"/>
		<path fill="#5A9FD6" d="M477.1,50.4h18.3v1.5h-16.7V66h14v1.5h-14v14.1h-1.6V50.4z"/>
		<path fill="#5A9FD6" d="M502.2,50.4h18.2v1.5h-16.6v12.9h13.9v1.5h-13.9V80h16.6v1.5h-18.2V50.4z"/>
		<path fill="#5A9FD6" d="M547.3,50.4l-8.6,31.2h-5.2l-8.9-31.2h1.6l8.6,29.7h2.6l8.3-29.7H547.3z"/>
		<path fill="#5A9FD6" d="M553.5,50.4h18.2v1.5h-16.6v12.9H569v1.5h-13.9V80h16.6v1.5h-18.2V50.4z"/>
		<path fill="#5A9FD6" d="M591.2,68.6h-10.6v12.9H579V50.4h11.2c6.2,0,9.3,2.7,9.3,8.9c0,4.9-1.7,8.2-6.5,9.1l7,13.1h-1.8
			L591.2,68.6z M590.2,51.9h-9.6v15.2h9.6c5.8,0,7.6-3.1,7.6-7.8C597.7,54.1,595.4,51.9,590.2,51.9z"/>
		<path fill="#818285" d="M184.8,131.4c0,0-4.7,0.9-8.2,0.9c-9.2,0-11.1-6-11.1-15.9c0-9.7,1.6-16.1,11.1-16.1
			c4.2,0,8.2,0.8,8.2,0.8l-0.1,1.6c0,0-4.5-0.9-8.1-0.9c-8.4,0-9.4,5.7-9.4,14.6c0,8.9,1.2,14.3,9.4,14.3c3.2,0,8.1-0.9,8.1-0.9
			L184.8,131.4z"/>
		<path fill="#818285" d="M189.5,116.4c0-10.2,2.4-16.1,11.9-16.1c9.5,0,11.9,5.9,11.9,16.1c0,10.8-2.4,15.9-11.9,15.9
			C191.8,132.3,189.5,126.8,189.5,116.4z M211.7,116.4c0-9.2-1.9-14.6-10.2-14.6c-8.5,0-10.2,5.3-10.2,14.6
			c0,9.4,1.6,14.3,10.2,14.3C210.1,130.8,211.7,126.2,211.7,116.4z"/>
		<path fill="#818285" d="M220.7,100.7h3.8l14.8,29.7h1.2v-29.7h1.6v31.2h-3.8l-14.9-29.7h-1.2v29.7h-1.6V100.7z"/>
		<path fill="#818285" d="M267.4,102.5c0,0-6.1-0.8-8.7-0.8c-5.1,0-7.9,1.8-7.9,6.2c0,5.4,2.8,6.1,8.4,7c5.9,0.9,9.1,2.3,9.1,7.9
			c0,6.9-3.3,9.4-9.4,9.4c-3.3,0-9.5-0.7-9.5-0.7l0.2-1.6c0,0,6.1,0.8,9.3,0.8c5.1,0,7.8-2.1,7.8-7.7c0-4.5-2.3-5.6-7.8-6.4
			c-6.1-0.9-9.7-2-9.7-8.5c0-5.7,3.7-7.8,9.6-7.8c3.4,0,8.9,0.7,8.9,0.7L267.4,102.5z"/>
		<path fill="#818285" d="M273.2,116.4c0-10.2,2.4-16.1,11.9-16.1c9.5,0,11.9,5.9,11.9,16.1c0,10.8-2.4,15.9-11.9,15.9
			C275.6,132.3,273.2,126.8,273.2,116.4z M295.4,116.4c0-9.2-1.9-14.6-10.2-14.6c-8.5,0-10.2,5.3-10.2,14.6
			c0,9.4,1.6,14.3,10.2,14.3C293.8,130.8,295.4,126.2,295.4,116.4z"/>
		<path fill="#818285" d="M316.6,119H306v12.9h-1.6v-31.2h11.2c6.2,0,9.3,2.7,9.3,8.9c0,4.9-1.7,8.2-6.5,9.1l7,13.1h-1.8L316.6,119z
			 M315.6,102.2H306v15.2h9.6c5.8,0,7.6-3.1,7.6-7.8C323.1,104.5,320.8,102.2,315.6,102.2z"/>
		<path fill="#818285" d="M327.9,100.7h22.3v1.5h-10.3v29.7h-1.6v-29.7h-10.4V100.7z"/>
		<path fill="#818285" d="M354.4,100.7h1.6v31.2h-1.6V100.7z"/>
		<path fill="#818285" d="M374.3,130.8c5.6,0,8.9-2,8.9-7.6v-22.4h1.6v22.4c0,6.7-3.8,9.1-10.5,9.1c-6.2,0-10.1-2.4-10.1-9.1v-22.4
			h1.6v22.4C365.8,128.8,369.1,130.8,374.3,130.8z"/>
		<path fill="#818285" d="M393.4,100.7h3.4l10.9,28.7l11-28.7h3.4v31.2h-1.6v-29.7h-0.6L408.8,131h-2.2l-11-28.7H395v29.7h-1.6
			V100.7z"/>
	</g>
	
		<line id="Seperator" fill="none" stroke="#BDBEC0" stroke-width="0.3865" stroke-miterlimit="10" x1="151.8" y1="14.8" x2="151.8" y2="120"/>
</g>
</svg>
