<?xml version="1.0"?>
<svg xmlns="http://www.w3.org/2000/svg" version="1.2" baseProfile="tiny" width="800" height="838" viewBox="0 0 800 838" stroke-linecap="round" stroke-linejoin="round">
<g id="civ_admbnda_adm0_cntig_20180706">
<path d="M 308.5535 1 307.9213 57.2355 340.1097 71.5368 368.8566 39.5582 440.4907 56.1448 493.9409 115.3187 549.0022 148.5416 615.6436 109.3972 679.1404 106.2846 721.0211 122.1987 754.1057 167.6656 787.327 256.6013 799 329.7262 754.3461 383.1045 738.4445 459.8463 701.8792 514.0561 698.8551 542.0134 738.4745 659.7644 763.2478 676.5731 768.7162 735.7173 717.758 741.6698 601.0222 720.079 364.4405 747.0321 143.9593 836.6985 132.2694 831.3766 133.376 741.704 157.9671 671.309 145.6805 646.2859 103.7316 623.9736 76.5354 579.6727 39.7429 579.6948 1 556.2897 33.5487 516.9934 48.8275 420.8933 76.5676 346.3482 45.4096 329.183 53.6107 293.7783 106.2075 298.0277 82.8732 251.7623 104.1849 218.9495 59.2367 158.8164 62.692 89.8875 125.999 36.7501 163.7918 66.1033 249.3691 51.8872 308.5535 1 Z"/>
</g>
</svg>