<?xml version="1.0"?>
<svg xmlns="http://www.w3.org/2000/svg" version="1.2" baseProfile="tiny" width="800" height="838" viewBox="0 0 800 838" stroke-linecap="round" stroke-linejoin="round">
<g id="civ_admbnda_adm0_cntig_20180706">
<path d="M 308.5535 1 315.3374 30.9126 307.9213 57.2355 315.6899 66.9637 340.1097 71.5368 368.8566 39.5582 396.9818 36.6327 416.5592 57.5085 440.4907 56.1448 458.5612 68.2235 461.613 83.3491 476.2023 97.2478 474.9156 109.9728 493.9409 115.3187 509.9004 138.2202 521.7745 133.5263 549.0022 148.5416 564.4883 144.5418 570.5916 127.8539 584.4252 117.2724 595.8974 122.1058 615.6436 109.3972 679.1404 106.2846 721.0211 122.1987 731.3552 131.0241 754.1057 167.6656 774.7525 180.4948 776.8169 193.9902 762.9495 208.9494 777.3188 227.0609 787.327 256.6013 799 329.7262 781.7955 345.6015 754.3461 383.1045 742.2546 409.7744 735.7364 446.6516 738.4445 459.8463 701.8792 514.0561 698.8551 542.0134 721.7909 621.8405 738.4745 659.7644 763.2478 676.5731 762.0514 709.1338 768.7162 735.7173 717.758 741.6698 601.0222 720.079 501.3146 733.1868 415.8589 739.4793 364.4405 747.0321 307.6013 770.4053 265.5065 782.7114 245.6505 792.9442 218.9618 796.9648 198.3345 813.9717 143.9593 836.6985 132.2694 831.3766 133.376 741.704 143.622 735.9059 148.3334 696.8424 157.9671 671.309 145.6805 646.2859 117.7657 635.4426 103.7316 623.9736 98.6511 594.7405 76.5354 579.6727 60.8032 584.7432 39.7429 579.6948 1 556.2897 33.5487 516.9934 39.7509 467.3432 28.5271 458.4945 20.8342 421.4436 36.8511 413.617 48.8275 420.8933 64.4729 386.2774 59.7376 375.0828 76.5676 346.3482 45.4096 329.183 45.6676 304.5945 53.6107 293.7783 86.4214 293.4791 106.2075 298.0277 122.8546 311.1689 121.4627 278.6563 107.4352 260.1347 82.8732 251.7623 85.6373 230.9127 104.1849 218.9495 88.3083 199.6211 96.3257 173.5166 73.0705 176.8252 59.2367 158.8164 64.0776 114.4547 62.692 89.8875 80.5814 75.1477 94.4637 74.749 125.999 36.7501 149.8713 39.8811 163.7918 66.1033 187.517 64.2772 201.2966 77.7503 216.3458 49.8668 233.3519 45.7222 249.3691 51.8872 250.4745 18.0808 282.3881 21.5723 283.9729 4.7247 308.5535 1 Z"/>
</g>
</svg>