<?xml version="1.0"?>
<svg xmlns="http://www.w3.org/2000/svg" version="1.2" baseProfile="tiny" width="800" height="839" viewBox="0 0 800 839" stroke-linecap="round" stroke-linejoin="round">
<g id="civ_admbnda_adm0_cntig_20180706">
<path d="M 308.5535 2.7695 307.5103 11.5948 311.0233 22.1199 305.6936 28.3126 315.3374 32.6822 313.487 47.3091 316.1712 50.119 307.9213 59.005 315.6899 68.7332 340.1097 73.3063 349.2328 62.7234 356.63 49.9544 368.8566 41.3277 376.7458 42.3801 383.9134 37.8093 396.9818 38.4022 406.236 46.1787 416.5592 59.278 423.3358 61.8315 440.4907 57.9143 458.5612 69.993 461.613 85.1186 467.201 86.153 476.2023 99.0173 474.9156 111.7424 493.9409 117.0882 499.7742 131.6559 505.1189 131.7585 509.9004 139.9897 521.7745 135.2958 535.0632 145.1574 547.8139 144.8857 549.0022 150.3111 564.4883 146.3114 565.0492 139.1193 570.5916 129.6234 576.4221 128.4639 584.4252 119.0419 595.8974 123.8753 604.7795 121.0052 606.2418 115.7529 615.6436 111.1667 627.9921 112.4167 630.7112 108.804 654.8268 106.9515 679.1404 108.0541 697.5434 118.1866 708.0303 106.9795 708.7718 120.4614 714.4646 118.6554 721.0211 123.9682 725.233 134.8349 731.3552 132.7937 741.109 153.9125 754.1057 169.4352 764.3763 176.4172 773.0817 166.8378 774.7525 182.2644 769.2609 190.6337 776.8169 195.7598 762.9495 210.7189 764.757 226.0482 777.3188 228.8304 778.2925 237.3567 787.327 258.3708 799 331.4958 790.7005 341.8321 784.6533 340.8291 781.7955 347.371 784.256 357.6294 774.0664 359.1393 766.1134 371.6475 754.3461 384.874 742.2546 411.5439 741.3486 426.2095 735.7364 448.4212 738.4445 461.6158 729.2732 473.8136 728.0385 482.167 720.1057 485.9177 701.8792 515.8257 705.3029 527.8905 698.8551 543.7829 705.653 571.3086 712.0636 591.4786 718.0891 602.9635 721.7909 623.61 729.6136 643.3546 727.9086 660.9168 738.4745 661.534 736.5314 671.9287 740.7 674.5396 750.744 670.4119 763.2478 678.3426 763.8091 696.1423 768.3995 703.8336 762.0514 710.9034 764.4603 726.3781 768.7162 737.4868 764.3596 742.3266 753.142 741.2788 735.2973 744.0768 729.5226 739.9473 717.758 743.4394 668.9895 734.0904 658.3361 733.5297 601.0222 721.8485 575.69 725.7757 543.1733 728.7946 501.3146 734.9563 445.1466 738.6493 415.8589 741.2488 403.6768 743.9854 364.4405 748.8017 343.348 755.1524 307.6013 772.1749 287.4002 777.9086 279.8366 782.1333 265.5065 784.4809 245.6505 794.7138 218.9618 798.7343 198.3345 815.7413 182.9368 817.6886 174.3228 825.0199 153.3688 835.8824 143.9593 838.468 135.0433 837.283 132.2694 833.1462 134.6779 818.6048 131.8783 808.3075 135.3043 805.8249 132.317 795.9077 132.905 784.9264 129.5328 781.353 129.1984 766.8296 135.2669 764.422 135.9623 755.7579 133.376 743.4736 143.622 737.6755 143.7299 726.2228 146.9261 717.7291 156.1203 716.1489 156.8624 709.2929 148.3334 698.6119 153.7071 690.9055 157.9671 673.0786 153.4445 668.4392 145.6805 648.0555 130.8511 637.103 117.7657 637.2122 103.7316 625.7432 103.8587 613.3491 95.9559 606.7036 98.6511 596.51 90.1175 588.4541 76.5354 581.4422 60.8032 586.5127 39.7429 581.4643 33.348 575.102 26.4308 573.0947 19.4322 559.0393 14.082 566.6573 7.5835 559.7349 1 558.0592 3.3552 548.9622 23.4136 534.1396 33.5487 518.763 36.3766 505.167 34.254 497.2506 38.9553 494.7398 36.5738 480.8238 39.7509 469.1127 28.5271 460.264 24.8516 449.722 20.8342 423.2132 15.2249 420.3803 24.333 410.3901 26.7674 415.6998 36.8511 415.3866 48.8275 422.6628 61.4179 398.024 64.4729 388.0469 59.7376 376.8524 64.1478 365.4065 70.1319 356.8236 85.0906 355.3626 76.5676 348.1177 78.6894 336.0302 68.6065 340.7477 54.3557 337.004 45.4096 330.9525 49.2509 315.2948 45.6676 306.364 53.6107 295.5478 63.617 298.5426 70.0221 295.0357 80.7952 297.4862 86.4214 295.2486 93.7267 306.3147 106.2075 299.7973 111.6867 312.0413 122.8546 312.9385 120.4796 305.4643 122.0953 295.4164 117.5004 288.7313 121.4627 280.4258 111.5113 271.3629 107.4352 261.9042 92.5252 258.1571 82.8732 253.5318 87.7711 238.5737 85.6373 232.6823 104.1849 220.719 101.1382 207.4786 93.5498 209.1395 88.3083 201.3906 93.4692 191.6126 96.3257 175.2861 73.0705 178.5948 65.6565 171.9836 59.2367 160.5859 58.2207 153.319 61.8621 144.5838 64.0776 116.2242 57.3013 106.8798 62.692 91.657 75.548 87.0626 80.5814 76.9172 85.9619 79.4377 94.4637 76.5185 105.8747 62.7355 111.0244 53.4897 125.999 38.5196 135.7361 44.5522 140.9631 38.8888 149.8713 41.6506 153.4738 54.801 159.9197 53.4347 163.7918 67.8729 173.7718 65.1817 187.517 66.0468 201.2966 79.5199 208.8342 75.9214 205.7066 65.0663 216.3458 51.6363 226.9118 52.9393 233.3519 47.4917 249.3691 53.6568 256.255 42.6073 250.6064 37.1458 250.4745 19.8504 253.1716 11.1382 258.4807 11.9014 267.5244 20.6987 282.3881 23.3418 285.303 19.7602 283.9729 6.4942 296.4924 8.3218 304.7287 1 308.5535 2.7695 Z"/>
</g>
</svg>