<?xml version="1.0"?>
<svg xmlns="http://www.w3.org/2000/svg" version="1.2" baseProfile="tiny" width="800" height="536" viewBox="0 0 800 536" stroke-linecap="round" stroke-linejoin="round">
<g id="USA_albers">
<path d="M 787.0792 532.1643 798.7615 527.6897 799 532.5477 788.3549 535.3934 787.0792 532.1643 Z M 341.1769 261.8101 352.5599 267.6145 354.8169 259.8677 378.7697 266.2835 410.5531 273.1912 449.624 279.2111 465.7552 280.9455 497.0598 283.0545 527.1564 283.5417 537.9318 287.6041 541.1695 286.7026 550.4006 291.7779 553.3831 303.0436 558.3052 305.4564 573.0124 300.577 578.4571 304.4625 586.3291 302.1201 599.6684 302.0659 600.5628 307.1712 590.8396 307.2838 580.4728 312.3195 577.6282 335.0479 581.4943 350.0288 587.7982 347.42 589.6942 339.1262 586.5614 330.9955 588.5909 318.6765 592.9855 316.9064 596.5792 309.5049 606.0029 313.1272 607.5105 321.9501 612.9097 326.0261 615.5043 333.6033 609.9771 345.8999 617.3931 348.948 631.2894 340.5146 640.2187 331.6375 641.2881 325.8393 652.2565 324.6663 654.9205 315.041 660.428 307.4896 684.6253 300.0963 690.4543 289.8946 690.0704 282.0951 692.9663 273.7876 702.9251 274.6773 706.6808 287.264 714.562 293.3691 706.8779 302.7038 696.6878 310.0144 694.63 323.6223 700.8817 329.0938 683.8862 337.2246 684.6817 342.7273 678.7412 347.4232 679.1239 353.1481 674.8743 360.1397 674.8552 370.416 667.7059 373.9904 678.0639 394.186 678.2595 397.7697 671.9452 405.3384 667.2886 405.8582 662.4205 414.3973 656.9947 415.7655 653.9105 422.7392 642.6874 434.8392 639.8502 448.0742 642.9309 457.046 650.2236 467.2442 657.3967 482.6493 657.3895 498.8618 651.237 500.1857 647.6783 494.5129 634.3151 480.7315 631.0415 465.3634 619.6353 457.3088 612.1841 463.1169 603.6566 457.5452 579.9351 458.519 575.7704 468.191 564.4896 472.2004 559.9126 468.2588 545.0917 466.2491 533.4389 469.3728 526.9552 475.1293 514.3377 482.997 510.0592 492.0849 509.5136 503.5239 495.112 497.6859 491.705 486.3915 485.9628 480.1568 482.9412 471.9841 477.2547 465.6357 469.9222 463.8594 461.2212 471.73 451.3644 464.3218 448.4621 454.5697 437.2062 442.799 423.8068 441.1912 423.2573 445.4341 400.295 442.1262 372.687 425.9251 354.7375 421.7087 353.809 414.3233 347.2495 405.3432 339.8388 399.64 333.612 397.7735 332.2427 389.4979 326.1903 368.5877 324.7885 357.1329 321.4745 350.0029 323.0225 341.2895 320.866 334.5724 326.0306 326.1422 326.6774 312.3498 330.7916 306.4696 336.8704 292.5276 340.579 277.9129 341.1769 261.8101 Z M 312.9548 177.6668 318.2144 175.8611 320.737 188.0492 314.3731 190.17 312.9548 177.6668 Z M 307.1173 154.61 315.1637 158.1687 307.892 166.5238 307.1173 154.61 Z M 217.6979 109.8671 232.8426 108.5707 230.0889 114.5862 225.0366 117.5105 217.6912 117.2184 217.6979 109.8671 Z M 3.6631 390.3987 10.7377 392.8832 10.5947 399.327 1 396.1685 3.6631 390.3987 Z M 208.6729 12.6797 222.2052 17.0997 226.4611 24.5475 235.4926 30.1159 234.9326 22.3258 227.7386 2.736 231.6516 1 238.5923 6.6354 247.048 5.5306 262.7251 9.739 274.5953 14.667 280.6858 22.9287 289.1687 29.0328 314.4874 51.3154 320.5168 53.182 327.8494 61.0508 314.9529 86.2201 300.4527 114.5217 294.2921 126.5462 300.5333 129.362 306.428 142.6824 319.4319 148.1956 324.3671 158.3541 325.5787 173.6404 333.7018 184.0392 331.5527 191.413 326.5906 194.2357 321.8535 190.7689 322.8662 175.5315 319.7515 158.5905 315.8408 154.522 307.6395 153.0846 302.6442 142.9191 295.4643 133.0916 285.3304 123.8985 279.5489 121.812 275.4714 116.2501 267.0514 111.6471 262.3977 113.3513 255.6918 107.9586 246.9459 108.7888 240.2273 107.0212 239.6367 97.9845 229.2464 99.1734 224.0913 106.1185 210.8044 104.5014 207.7755 106.8464 195.6846 104.8834 194.0438 107.5449 161.4484 96.7981 178.5678 96.3419 196.2853 99.7038 205.8605 99.0011 211.5822 93.2281 204.4793 88.4048 200.1425 79.399 193.8434 78.3995 200.2239 66.7618 193.9 64.1738 190.2975 53.076 198.3052 41.7682 207.6619 39.3362 213.2454 44.7639 225.5559 47.6345 229.9073 42.1944 219.9099 36.3431 209.6047 25.1044 208.6729 12.6797 Z"/>
</g>
</svg>