<?xml version="1.0" encoding="utf-8"?>
<!-- Generator: Adobe Illustrator 23.1.1, SVG Export Plug-In . SVG Version: 6.00 Build 0)  -->
<svg version="1.1" xmlns="http://www.w3.org/2000/svg" xmlns:xlink="http://www.w3.org/1999/xlink" x="0px" y="0px"
	 viewBox="0 0 104.9 113.8" style="enable-background:new 0 0 104.9 113.8;" xml:space="preserve">
<style type="text/css">
	.st0{display:none;}
	.st1{display:inline;}
	.st2{fill:url(#SVGID_1_);}
	.st3{display:inline;fill:url(#SVGID_2_);}
	.st4{display:inline;fill:url(#SVGID_3_);}
	.st5{fill:url(#SVGID_4_);}
	.st6{fill:url(#filled-hex_1_);}
	.st7{fill:none;stroke:#FFFFFF;stroke-width:10;stroke-linecap:round;stroke-miterlimit:10;}
</style>
<g id="Layer_1" class="st0">
	<g class="st1">
		<linearGradient id="SVGID_1_" gradientUnits="userSpaceOnUse" x1="372.4793" y1="104.6076" x2="372.4793" y2="-4.1174">
			<stop  offset="0" style="stop-color:#456EB5"/>
			<stop  offset="0.5175" style="stop-color:#0080C5"/>
			<stop  offset="1" style="stop-color:#00ABE5"/>
		</linearGradient>
		<path class="st2" d="M372.4,11.9l33.7,19.5c0,0,0,0,0,0.1V70c-10.2,5.9-25.4,14.7-31.3,18l-6.8-1.3L338.8,70V31.3L372.4,11.9
			 M372.4-4.1c-2.6,0-5.2,0.6-7.2,1.7L330,17.9c-4,2.3-7.2,7.9-7.2,12.5v40.5c0,6.1,3,10.1,7.2,12.5l32.4,18.6l13.9,2.6
			c0.9,0,2.9-0.7,3.7-1.1c2.3-1.2,34.9-20.1,34.9-20.1c4.6-2.6,7.2-6.7,7.2-12.5V30.4c-0.1-4.6-3.4-10.2-7.4-12.5L379.6-2.4
			C377.6-3.5,375-4.1,372.4-4.1L372.4-4.1z"/>
	</g>
	
		<linearGradient id="SVGID_2_" gradientUnits="userSpaceOnUse" x1="255.0535" y1="104.3403" x2="255.0535" y2="176.73" gradientTransform="matrix(1 0 0 -1 0 113.1337)">
		<stop  offset="0" style="stop-color:#456EB5"/>
		<stop  offset="0.5175" style="stop-color:#0080C5"/>
		<stop  offset="1" style="stop-color:#00ABE5"/>
	</linearGradient>
	<path class="st3" d="M258.9,26.1c0.9,0,2.9-0.7,3.7-1.1c2.3-1.2,34.9-20.1,34.9-20.1c4.6-2.6,7.2-6.7,7.2-12.5v-40.5
		c-0.1-4.6-3.4-10.2-7.4-12.5l-35.1-20.3c-4-2.3-10.5-2.3-14.5,0l-35.1,20.3c-4,2.3-7.2,7.9-7.2,12.5v40.5c0,6.1,3,10.1,7.2,12.5
		L245,23.5L258.9,26.1z"/>
	
		<linearGradient id="SVGID_3_" gradientUnits="userSpaceOnUse" x1="102.1788" y1="278.5774" x2="102.1788" y2="350.9671" gradientTransform="matrix(1 0 0 -1 0 113.1337)">
		<stop  offset="0" style="stop-color:#456EB5"/>
		<stop  offset="0.5175" style="stop-color:#0080C5"/>
		<stop  offset="1" style="stop-color:#00ABE5"/>
	</linearGradient>
	<path class="st4" d="M144.4-234.8l-35.1-20.3c-4-2.3-10.5-2.3-14.5,0l-35.1,20.3c-4,2.3-7.2,7.9-7.2,12.5v40.5
		c0,6.1,3,10.1,7.2,12.5l32.4,18.6c0.5,0.3,1,0.1,1.3-0.4c0.3-0.5,0.1-1-0.4-1.3l-31.8-20.4c-3-2.1-5-5-5.4-9.1l-1.4-40.4
		c0-3.9,2.9-8.9,6.3-10.9l35.1-18.3c3.4-2,9.2-2,12.6,0l35.1,18.3c3.4,2,6.3,7,6.3,10.9l-1.4,39c0,4.9-2.4,8.6-6.3,10.9
		c0,0-31.4,20-32.4,20.6c-1.1,0.7-3,1-4,0.4c-1.3-0.7-2.1-2.4-2.1-4.3l-0.5-36c0-0.5-0.4-0.9-0.9-0.9s-0.9,0.4-0.9,0.9l-0.9,37
		c0,2.6,1.1,4.9,3,5.9c0.8,0.5,1.7,0.7,2.6,0.7c0.9,0,2.9-0.7,3.7-1.1c2.3-1.2,34.9-20.1,34.9-20.1c4.6-2.6,7.2-6.7,7.2-12.5v-40.5
		C151.7-226.9,148.4-232.5,144.4-234.8z"/>
</g>
<g id="preliminary">
	<g>
		<linearGradient id="SVGID_4_" gradientUnits="userSpaceOnUse" x1="52.5288" y1="111.3294" x2="52.5288" y2="2.6044">
			<stop  offset="0" style="stop-color:#456EB5"/>
			<stop  offset="0.5175" style="stop-color:#0080C5"/>
			<stop  offset="1" style="stop-color:#00ABE5"/>
		</linearGradient>
		<path class="st5" d="M52.4,16.6c0.3,0,0.5,0,0.6,0l34.5,19.9c0.2,0.3,0.5,0.8,0.7,1.1V55v2v19.5c-0.1,0.3-0.3,0.7-0.5,0.9
			L53.2,97.3c-0.1,0-0.3,0-0.6,0c-0.3,0-0.5,0-0.6,0L17.6,77.3c-0.2-0.3-0.5-0.8-0.7-1.1V57v-2V37.5c0.1-0.3,0.3-0.7,0.5-0.9
			l34.4-19.9C52,16.6,52.2,16.6,52.4,16.6 M52.4,2.6c-2.6,0-5.2,0.6-7.2,1.7L10.1,24.6c-4,2.3-7.2,7.9-7.2,12.5V55v2v19.8
			C3,81.4,6.3,87,10.3,89.3l35.1,20.3c2,1.2,4.6,1.7,7.2,1.7s5.2-0.6,7.2-1.7L95,89.3c4-2.3,7.2-7.9,7.2-12.5V57v-2V37.1
			c-0.1-4.6-3.4-10.2-7.4-12.5L59.7,4.3C57.7,3.2,55.1,2.6,52.4,2.6L52.4,2.6z"/>
	</g>
</g>
<g id="verfied">
	<linearGradient id="filled-hex_1_" gradientUnits="userSpaceOnUse" x1="52.5288" y1="111.3294" x2="52.5288" y2="2.6044">
		<stop  offset="0" style="stop-color:#456EB5"/>
		<stop  offset="0.5175" style="stop-color:#0080C5"/>
		<stop  offset="1" style="stop-color:#00ABE5"/>
	</linearGradient>
	<path id="filled-hex" class="st6" d="M94.8,24.6L59.7,4.3c-4-2.3-10.5-2.3-14.5,0L10.1,24.6c-4,2.3-7.2,7.9-7.2,12.5V55v2v19.8
		C3,81.4,6.3,87,10.3,89.3l35.1,20.3c4,2.3,10.5,2.3,14.5,0L95,89.3c4-2.3,7.2-7.9,7.2-12.5V57v-2V37.1
		C102.1,32.5,98.8,26.9,94.8,24.6z"/>
	<g id="checkmark">
		<path class="st7" d="M29.5,58.1L43.2,71c0.8,0.8,2.1,0.7,2.9,0l29.5-29.5"/>
	</g>
</g>
</svg>
