<?xml version="1.0" encoding="utf-8"?>
<!-- Generator: Adobe Illustrator 23.0.3, SVG Export Plug-In . SVG Version: 6.00 Build 0)  -->
<svg version="1.1" id="Layer_1" xmlns="http://www.w3.org/2000/svg" xmlns:xlink="http://www.w3.org/1999/xlink" x="0px" y="0px"
	 viewBox="0 0 99.2 108.8" style="enable-background:new 0 0 99.2 108.8;" xml:space="preserve">
<style type="text/css">
	.st0{fill:url(#SVGID_1_);}
	.st1{fill:url(#SVGID_2_);}
	.st2{fill:url(#SVGID_3_);}
	.st3{fill:url(#SVGID_4_);}
	.st4{fill:url(#SVGID_5_);}
	.st5{fill:url(#SVGID_6_);}
</style>
<g>
	<g id="CViSB_x5F_icon_x5F_RGB">
		<linearGradient id="SVGID_1_" gradientUnits="userSpaceOnUse" x1="15.7098" y1="88.6072" x2="15.7098" y2="20.5401">
			<stop  offset="0" style="stop-color:#456EB5"/>
			<stop  offset="0.5175" style="stop-color:#0080C5"/>
			<stop  offset="1" style="stop-color:#00ABE5"/>
		</linearGradient>
		<path class="st0" d="M16.7,49.8c1.3,0,2.8,0.1,4.4,0.4l0.1-1.6c-1.8-0.4-3.3-0.5-4.6-0.5c-1.3,0-2.4,0.2-3.2,0.5
			c-0.8,0.4-1.4,0.9-1.9,1.7c-0.4,0.8-0.8,1.7-0.9,2.7c-0.2,1-0.3,2.3-0.3,3.8c0,1.5,0.1,2.8,0.3,3.8c0.2,1,0.5,1.9,0.9,2.7
			c0.4,0.8,1.1,1.3,1.9,1.7c0.8,0.4,1.9,0.6,3.2,0.6c1.3,0,2.8-0.2,4.5-0.5l-0.1-1.6c-1.6,0.3-2.9,0.4-4.1,0.4c-1.1,0-2-0.1-2.6-0.4
			c-0.6-0.3-1-0.7-1.4-1.3c-0.3-0.6-0.5-1.3-0.6-2.1s-0.2-1.8-0.2-3.1c0-2.6,0.3-4.4,0.9-5.5S14.9,49.8,16.7,49.8z"/>
		<linearGradient id="SVGID_2_" gradientUnits="userSpaceOnUse" x1="31.708" y1="88.6072" x2="31.708" y2="20.5401">
			<stop  offset="0" style="stop-color:#456EB5"/>
			<stop  offset="0.5175" style="stop-color:#0080C5"/>
			<stop  offset="1" style="stop-color:#00ABE5"/>
		</linearGradient>
		<polygon class="st1" points="31,63.6 27.1,48.4 25.2,48.4 29.6,65.3 33.8,65.3 38.2,48.4 36.3,48.4 32.4,63.6 		"/>
		<linearGradient id="SVGID_3_" gradientUnits="userSpaceOnUse" x1="67.1522" y1="88.6072" x2="67.1522" y2="20.5401">
			<stop  offset="0" style="stop-color:#456EB5"/>
			<stop  offset="0.5175" style="stop-color:#0080C5"/>
			<stop  offset="1" style="stop-color:#00ABE5"/>
		</linearGradient>
		<path class="st2" d="M67.3,49.8c0.9,0,2.6,0.1,4.8,0.4l0.2-1.6l-0.8-0.1c-1.7-0.2-3.1-0.4-4.3-0.4c-3.6,0-5.5,1.5-5.5,4.5
			c0,1.5,0.4,2.6,1.2,3.2c0.8,0.6,2.2,1.2,4.1,1.6c1.5,0.3,2.4,0.6,3,1c0.5,0.4,0.8,1.1,0.8,2c0,2.3-1.2,3.4-3.6,3.4
			c-1.2,0-2.8-0.1-5.1-0.4L61.8,65l0.9,0.1c1.8,0.3,3.3,0.4,4.5,0.4c3.6,0,5.4-1.7,5.4-5.2c0-1.4-0.4-2.4-1.1-3
			c-0.7-0.6-1.9-1.1-3.7-1.5c-1.7-0.4-2.9-0.8-3.4-1.1c-0.6-0.4-0.8-1.1-0.8-2.1C63.6,50.7,64.8,49.8,67.3,49.8z"/>
		<linearGradient id="SVGID_4_" gradientUnits="userSpaceOnUse" x1="84.1517" y1="88.6072" x2="84.1517" y2="20.5401">
			<stop  offset="0" style="stop-color:#456EB5"/>
			<stop  offset="0.5175" style="stop-color:#0080C5"/>
			<stop  offset="1" style="stop-color:#00ABE5"/>
		</linearGradient>
		<path class="st3" d="M88.9,55.2c0.4-0.6,0.5-1.4,0.5-2.5c0-1.5-0.4-2.6-1.3-3.3c-0.8-0.7-2.1-1-3.8-1h-6.1v16.9h6.5
			c1.7,0,3-0.4,3.9-1.1c0.9-0.7,1.3-1.9,1.3-3.6c0-2-0.9-3.4-2.7-4C88,56.2,88.6,55.8,88.9,55.2z M87.7,58.9
			c0.2,0.4,0.4,0.9,0.4,1.6c0,1.2-0.3,2-0.9,2.5c-0.6,0.5-1.4,0.7-2.5,0.7h-4.5v-6.1h4.4c0.8,0,1.5,0.2,2.2,0.5
			C87.2,58.2,87.5,58.5,87.7,58.9z M86.8,55.1c-0.5,0.5-1.2,0.7-2.3,0.7h-4.4V50h4.2c1.1,0,1.9,0.2,2.4,0.7c0.5,0.4,0.8,1.2,0.8,2.2
			C87.6,53.9,87.3,54.6,86.8,55.1z"/>
		<linearGradient id="SVGID_5_" gradientUnits="userSpaceOnUse" x1="49.5823" y1="91.3811" x2="49.5823" y2="18.9914">
			<stop  offset="0" style="stop-color:#456EB5"/>
			<stop  offset="0.5175" style="stop-color:#0080C5"/>
			<stop  offset="1" style="stop-color:#00ABE5"/>
		</linearGradient>
		<path class="st4" d="M91.9,22L56.8,1.7c-4-2.3-10.5-2.3-14.5,0L7.2,22C3.2,24.3,0,29.9,0,34.5v40.5c0,6.1,3,10.1,7.2,12.5
			l32.4,18.6c0.5,0.3,1,0.1,1.3-0.4c0.3-0.5,0.1-1-0.4-1.3L8.7,84c-3-2.1-5-5-5.4-9.1L1.9,34.5c0-3.9,2.9-8.9,6.3-10.9L43.3,5.3
			c3.4-2,9.2-2,12.6,0L91,23.6c3.4,2,6.3,7,6.3,10.9l-1.4,39c0,4.9-2.4,8.6-6.3,10.9c0,0-31.4,20-32.4,20.6c-1.1,0.7-3,1-4,0.4
			c-1.3-0.7-2.1-2.4-2.1-4.3l-0.5-36c0-0.5-0.4-0.9-0.9-0.9c-0.5,0-0.9,0.4-0.9,0.9l-0.9,37c0,2.6,1.1,4.9,3,5.9
			c0.8,0.5,1.7,0.7,2.6,0.7c0.9,0,2.9-0.7,3.7-1.1c2.3-1.2,34.9-20.1,34.9-20.1c4.6-2.6,7.2-6.7,7.2-12.5V34.5
			C99.2,29.9,95.9,24.3,91.9,22z"/>
		<linearGradient id="SVGID_6_" gradientUnits="userSpaceOnUse" x1="49.5828" y1="87.0941" x2="49.5828" y2="22.2683">
			<stop  offset="0" style="stop-color:#456EB5"/>
			<stop  offset="0.5175" style="stop-color:#0080C5"/>
			<stop  offset="1" style="stop-color:#00ABE5"/>
		</linearGradient>
		<path class="st5" d="M53.5,54.4c0-2.2-1.7-3.9-3.9-3.9c-2.2,0-3.9,1.7-3.9,3.9c0,2.2,1.7,3.9,3.9,3.9
			C51.7,58.3,53.5,56.6,53.5,54.4z"/>
	</g>
</g>
</svg>
