<?xml version="1.0" encoding="utf-8"?>
<!-- Generator: Adobe Illustrator 23.1.1, SVG Export Plug-In . SVG Version: 6.00 Build 0)  -->
<svg version="1.1" id="Layer_1" xmlns="http://www.w3.org/2000/svg" xmlns:xlink="http://www.w3.org/1999/xlink" x="0px" y="0px"
	 viewBox="0 0 40 40" style="enable-background:new 0 0 40 40;" xml:space="preserve">
<style type="text/css">
	.st0{clip-path:url(#SVGID_2_);fill:#F06292;}
	.st1{clip-path:url(#SVGID_2_);fill:#F8BBD0;}
	.st2{clip-path:url(#SVGID_4_);}
	.st3{fill:none;stroke:#484D51;stroke-width:0.75;stroke-miterlimit:10;}
	.st4{fill:none;stroke:#484D51;stroke-width:0.4;stroke-miterlimit:10;}
</style>
<g id="ebola">
	<defs>
		<rect id="SVGID_1_" width="40" height="40"/>
	</defs>
	<clipPath id="SVGID_2_">
		<use xlink:href="#SVGID_1_"  style="overflow:visible;"/>
	</clipPath>
	<path class="st0" d="M30.3,45.8c-0.2,0-0.4,0-0.6,0.1c-3.9,0.3-8.3-0.5-13-2.3c-1.9-0.7-3.5-1.5-5-2.5c-1.3-0.9-2.2-1.9-3.2-2.9
		c-0.3-0.3-0.7-0.6-1-1.1c-0.9-1-0.9-2.4,0-3.3c0.8-1,2.4-1.1,3.3-0.1c0.4,0.4,0.8,0.7,1.1,1.2c0.8,0.9,1.5,1.6,2.4,2.1
		c1.3,0.8,2.7,1.5,4.2,2.2c4.1,1.6,7.7,2.2,10.9,2c2.6-0.2,6.4-1.5,6.5-4.5c0.1-1.6-1-3-1.7-3.7c-2-2.3-5.2-5.3-8.8-6.6
		c-1-0.5-2.2-0.7-3.4-1c-2.2-0.6-4.4-1.3-6.5-2.6c-1.2,0.6-2.6,0.9-4.1,0.7c-3.2-0.2-6.1-2.4-7.5-5.6c-1-2.3-1.1-5-0.4-7.6
		C2.7,9.5,2,8.9,1.4,8.1C0,6.2-0.3,3.8,0.7,2c1.2-2,4-2.9,6.2-1.9c1.9,0.7,3.3,2.7,3.3,5c0,1.2-0.3,2.3-0.7,3.3
		c1.3,0.9,2.4,2,3.3,3.1c-1.2-2.5-0.5-5.4,0.9-7.2c1-1.3,2.6-2.2,4.2-2.2c1.4,0,2.8,0.5,3.7,1.6c1.3,1.4,2,3.5,1.8,5.4
		c-0.2,2.4-1.7,4.2-2.8,5.7c-0.2,0.3-0.4,0.5-0.6,0.8l0,0c0,1.2-0.2,2.4-0.9,3.5c1.3,0.6,2.7,1,4.2,1.4c1.2,0.3,2.6,0.8,3.9,1.2
		c4.4,1.8,8.2,5.3,10.5,7.9c2,2.3,3.1,4.7,3,7.2C40.4,42.2,35.3,45.3,30.3,45.8z M7.7,13.2c0,1,0.1,1.8,0.4,2.6
		c0.8,1.5,2.2,2.6,3.6,2.7c-0.3-0.4-0.6-0.8-0.7-1.2c-0.4-0.8-0.9-1.4-1.4-2.1C9.1,14.5,8.5,13.9,7.7,13.2z M14.5,14
		c0.1,0.2,0.3,0.4,0.4,0.7C14.9,14.5,14.7,14.2,14.5,14L14.5,14z M18,6.8c-0.1,0-0.3,0.2-0.5,0.4c-0.5,0.7-0.6,1.9-0.3,2.4
		c0.1,0.2,0.4,0.5,0.7,0.8c0,0,0,0.1,0.1,0.1c0.5-0.7,0.8-1.3,0.9-2C18.7,7.8,18.2,6.9,18,6.8L18,6.8z M4.9,4.4l-0.1,0
		c0,0,0,0.4,0.3,0.8c0.1,0.1,0.1,0.2,0.3,0.3c0-0.1,0.1-0.2,0.1-0.4c0-0.4-0.2-0.7-0.4-0.8L4.9,4.4z"/>
	<path class="st1" d="M30.2,44.9c-0.2,0-0.4,0-0.6,0.1c-3.8,0.3-8-0.4-12.6-2.2c-1.7-0.6-3.4-1.5-4.9-2.4c-1.3-0.8-2.1-1.8-3-2.8
		c-0.3-0.3-0.7-0.8-1-1.1c-0.5-0.5-0.5-1.5,0-2.1c0.5-0.5,1.5-0.5,2.1,0c0.4,0.4,0.7,0.8,1.1,1.2c0.8,0.9,1.5,1.7,2.5,2.3
		c1.3,0.8,2.8,1.6,4.3,2.1c4.2,1.6,8,2.2,11.3,2.1c2.5-0.2,7.2-1.5,7.3-5.4c0-1.8-1.1-3.3-2-4.4c-2.2-2.3-5.3-5.4-9.1-6.9
		c-1.1-0.5-2.2-0.8-3.5-1.2c-2.3-0.7-4.7-1.3-6.6-2.8c-1.2,0.7-2.6,1-4.2,0.9c-2.9-0.3-5.5-2.3-6.7-5.1c-1-2.3-1-5-0.1-7.6
		C3.7,9.2,2.7,8.4,2,7.6C1,6.2,0.4,4.2,1.4,2.4c1-1.7,3.3-2.4,5.1-1.5c1.6,0.7,2.8,2.4,2.7,4.2c0,1.3-0.4,2.5-0.9,3.5
		c1.8,1.3,3.3,2.7,4.4,4.3c0.6,0.8,1.1,1.5,1.6,2.3c0.4,0.7,0.9,1.4,1.4,2.1l0,0c0.3-0.6,0.9-2.2-0.4-3.9c-0.1-0.1-0.3-0.3-0.4-0.4
		c-0.4-0.4-0.8-1-1.1-1.5c-1.2-2.1-0.4-4.9,0.7-6.5c0.8-1.2,2.2-1.9,3.5-1.9c1.2,0,2.2,0.5,3.1,1.3c1.1,1.2,1.8,3,1.6,4.7
		c-0.2,2.2-1.5,3.7-2.6,5.3c-0.2,0.3-0.4,0.5-0.6,0.8c-0.1,0.1-0.1,0.1-0.2,0.3c0.1,1.2-0.1,2.4-0.8,3.5c-0.1,0.2-0.3,0.5-0.4,0.8
		c1.5,0.9,3.2,1.4,5.2,2c1.2,0.3,2.6,0.7,3.8,1.2c4.2,1.7,7.8,5.1,10.2,7.7c1.3,1.4,2.9,3.7,2.7,6.5C39.5,41.7,34.8,44.4,30.2,44.9z
		 M7.1,11.5c-0.4,1.6-0.4,3.2,0.3,4.6c0.8,1.8,2.5,3.2,4.3,3.3c0.6,0.1,1.2,0,1.6-0.2c-0.6-0.8-1.1-1.5-1.6-2.4
		c-0.4-0.8-0.9-1.4-1.4-2.1C9.4,13.5,8.4,12.6,7.1,11.5z M17.9,5.9C17.4,6,17,6.3,16.6,6.7c-0.7,0.9-0.9,2.5-0.5,3.4
		c0.2,0.3,0.4,0.7,0.8,1c0.1,0.2,0.3,0.3,0.5,0.5c0.1,0.1,0.1,0.2,0.3,0.3c0.8-1,1.7-2.2,1.8-3.3c0-0.8-0.2-1.9-0.7-2.4
		C18.3,5.9,18.1,5.9,17.9,5.9L17.9,5.9z M4.8,3.5C4.4,3.5,4.2,3.6,4,3.9C3.7,4.3,3.9,5.1,4.3,5.8C4.7,6.2,5.2,6.6,5.8,7
		C6,6.4,6.2,5.8,6.3,5.2c0-0.7-0.4-1.4-0.9-1.7C5.1,3.5,5,3.4,4.8,3.5z"/>
</g>
<g id="dna_1_">
	<g>
		<g>
			<g>
				<defs>
					<rect id="SVGID_3_" width="40" height="40"/>
				</defs>
				<clipPath id="SVGID_4_">
					<use xlink:href="#SVGID_3_"  style="overflow:visible;"/>
				</clipPath>
				<g class="st2">
					<g>
						<path class="st3" d="M21.9,42.8c-0.3-1.3-0.6-2.3-0.1-4c0.1-0.4,0.3-0.8,0.5-1.2c0.2-0.3,0.5-0.6,0.7-0.8
							c1.1-0.9,2.2-1.4,3.2-1.7c1.3-0.3,2.6-0.6,3.9-0.9c1.2-0.3,2.5-0.6,3.7-1.5c0.3-0.2,0.6-0.4,0.8-0.7c0.6-0.6,0.9-1.4,1.2-2.2
							c0.1-0.2,0.1-0.4,0.2-0.6c0-0.1,0-0.3,0-0.4c-0.1-1.7-0.3-3.2-0.7-4.7c-0.4-1.6-1.1-3-1-5c0-0.7,0.2-1.4,0.5-2.2
							c0.9-1.8,2.9-2.7,4.1-3c1.7-0.5,3.3-0.7,4.9-1.1c0.6-0.2,1.3-0.3,2-0.7s1.5-1.2,2-2c0.3-0.5,0.8-1.5,0.6-2"/>
						<path class="st3" d="M20.8,42.1c2.1-0.7,4-1.1,6.1-1.6c1.3-0.3,2.3-0.6,3.6-1.8c0.3-0.3,0.6-0.6,0.8-1c0.2-0.3,0.3-0.7,0.4-1
							c0.3-1.4,0.3-2.6,0-3.6c-0.3-1.3-0.6-2.6-0.9-3.9c-0.3-1.2-0.6-2.5-0.4-4c0-0.3,0.1-0.7,0.3-1.1c0.3-0.8,0.8-1.5,1.4-2.1
							c0.1-0.1,0.3-0.3,0.4-0.4c0.1-0.1,0.2-0.1,0.4-0.2c1.5-0.7,3-1.2,4.5-1.5c1.6-0.4,3.1-0.4,4.9-1.4c0.6-0.3,1.2-0.8,1.7-1.5
							c1.2-1.6,1-3.8,0.8-5c-0.3-1.7-0.9-3.2-1.3-4.8c-0.4-0.6-0.5-1.3-0.5-2c0-0.8,0.3-1.9,0.9-2.7c0.4-0.5,1-1.4,1.5-1.4"/>
					</g>
					<line class="st4" x1="21.7" y1="39.4" x2="24.6" y2="41.2"/>
					<line class="st4" x1="23" y1="36.9" x2="28.1" y2="40"/>
					<line class="st4" x1="25.3" y1="35.5" x2="30.5" y2="38.6"/>
					<line class="st4" x1="28.7" y1="34.6" x2="31.7" y2="36.4"/>
					<line class="st4" x1="31.3" y1="31" x2="34" y2="32.7"/>
					<line class="st4" x1="30.4" y1="27.8" x2="35.4" y2="30.9"/>
					<line class="st4" x1="30.5" y1="24.6" x2="35.9" y2="27.9"/>
					<line class="st4" x1="31.7" y1="22.5" x2="35.4" y2="24.8"/>
					<line class="st4" x1="34.5" y1="18.4" x2="37.2" y2="20.1"/>
					<line class="st4" x1="35.6" y1="16.1" x2="40.9" y2="19.3"/>
					<line class="st4" x1="37.9" y1="14.5" x2="43.2" y2="17.7"/>
					<line class="st4" x1="41.2" y1="13.5" x2="44.5" y2="15.6"/>
					<line class="st4" x1="44.1" y1="10.1" x2="46.7" y2="11.7"/>
					<line class="st4" x1="43.2" y1="6.8" x2="48.2" y2="9.9"/>
				</g>
			</g>
		</g>
	</g>
</g>
</svg>
