<?xml version="1.0" encoding="utf-8"?>
<!-- Generator: Adobe Illustrator 22.1.0, SVG Export Plug-In . SVG Version: 6.00 Build 0)  -->
<svg version="1.1" id="Layer_1" xmlns="http://www.w3.org/2000/svg" xmlns:xlink="http://www.w3.org/1999/xlink" x="0px" y="0px"
	 viewBox="0 0 40 40" style="enable-background:new 0 0 40 40;" xml:space="preserve">
<style type="text/css">
	.st0{clip-path:url(#SVGID_2_);}
	.st1{fill:none;stroke:#FF7266;stroke-width:0.75;stroke-miterlimit:10;}
	.st2{fill:none;stroke:#FF7266;stroke-width:0.4;stroke-miterlimit:10;}
	.st3{fill:#FFFFFF;}
	.st4{fill:#B3AFB1;}
	.st5{fill:#B2AFB1;}
	.st6{fill:none;stroke:#000000;stroke-width:1.2376;stroke-miterlimit:10;}
</style>
<g id="dna">
	<g>
		<g>
			<g>
				<defs>
					<rect id="SVGID_1_" width="40" height="40"/>
				</defs>
				<clipPath id="SVGID_2_">
					<use xlink:href="#SVGID_1_"  style="overflow:visible;"/>
				</clipPath>
				<g class="st0">
					<g>
						<path class="st1" d="M21.9,42.8c-0.3-1.3-0.6-2.3-0.1-4c0.1-0.4,0.3-0.8,0.5-1.2c0.2-0.3,0.5-0.6,0.7-0.8
							c1.1-0.9,2.2-1.4,3.2-1.7c1.3-0.3,2.6-0.6,3.9-0.9c1.2-0.3,2.5-0.6,3.7-1.5c0.3-0.2,0.6-0.4,0.8-0.7c0.6-0.6,0.9-1.4,1.2-2.2
							c0.1-0.2,0.1-0.4,0.2-0.6c0-0.1,0-0.3,0-0.4c-0.1-1.7-0.3-3.2-0.7-4.7c-0.4-1.6-1.1-3-1-5c0-0.7,0.2-1.4,0.5-2.2
							c0.9-1.8,2.9-2.7,4.1-3c1.7-0.5,3.3-0.7,4.9-1.1c0.6-0.2,1.3-0.3,2-0.7s1.5-1.2,2-2c0.3-0.5,0.8-1.5,0.6-2"/>
						<path class="st1" d="M20.8,42.1c2.1-0.7,4-1.1,6.1-1.6c1.3-0.3,2.3-0.6,3.6-1.8c0.3-0.3,0.6-0.6,0.8-1c0.2-0.3,0.3-0.7,0.4-1
							c0.3-1.4,0.3-2.6,0-3.6c-0.3-1.3-0.6-2.6-0.9-3.9c-0.3-1.2-0.6-2.5-0.4-4c0-0.3,0.1-0.7,0.3-1.1c0.3-0.8,0.8-1.5,1.4-2.1
							c0.1-0.1,0.3-0.3,0.4-0.4c0.1-0.1,0.2-0.1,0.4-0.2c1.5-0.7,3-1.2,4.5-1.5c1.6-0.4,3.1-0.4,4.9-1.4c0.6-0.3,1.2-0.8,1.7-1.5
							c1.2-1.6,1-3.8,0.8-5c-0.3-1.7-0.9-3.2-1.3-4.8c-0.4-0.6-0.5-1.3-0.5-2c0-0.8,0.3-1.9,0.9-2.7c0.4-0.5,1-1.4,1.5-1.4"/>
					</g>
					<line class="st2" x1="21.7" y1="39.4" x2="24.6" y2="41.2"/>
					<line class="st2" x1="23" y1="36.9" x2="28.1" y2="40"/>
					<line class="st2" x1="25.3" y1="35.5" x2="30.5" y2="38.6"/>
					<line class="st2" x1="28.7" y1="34.6" x2="31.7" y2="36.4"/>
					<line class="st2" x1="31.3" y1="31" x2="34" y2="32.7"/>
					<line class="st2" x1="30.4" y1="27.8" x2="35.4" y2="30.9"/>
					<line class="st2" x1="30.5" y1="24.6" x2="35.9" y2="27.9"/>
					<line class="st2" x1="31.7" y1="22.5" x2="35.4" y2="24.8"/>
					<line class="st2" x1="34.5" y1="18.4" x2="37.2" y2="20.1"/>
					<line class="st2" x1="35.6" y1="16.1" x2="40.9" y2="19.3"/>
					<line class="st2" x1="37.9" y1="14.5" x2="43.2" y2="17.7"/>
					<line class="st2" x1="41.2" y1="13.5" x2="44.5" y2="15.6"/>
					<line class="st2" x1="44.1" y1="10.1" x2="46.7" y2="11.7"/>
					<line class="st2" x1="43.2" y1="6.8" x2="48.2" y2="9.9"/>
				</g>
			</g>
		</g>
	</g>
</g>
<g id="white_background">
	<path class="st3" d="M14.9,19.4c0-1.6,2.3-3,5.1-3s5.1,1.3,5.1,3V36c0,1.6-2.3,3-5.1,3s-5.1-1.3-5.1-3V19.4z"/>
	<path class="st3" d="M25.1,12.7c0,1.6-2.3,3-5.1,3s-5.1-1.3-5.1-3V4c0-1.6,2.3-3,5.1-3s5.1,1.3,5.1,3V12.7z"/>
</g>
<g id="chromosome-bands">
	<rect x="14.9" y="4.1" class="st4" width="10" height="0.8"/>
	<rect x="14.9" y="8.4" class="st4" width="10" height="0.3"/>
	<rect x="14.9" y="5.4" class="st4" width="10" height="1.7"/>
	<rect x="14.9" y="10.8" class="st4" width="10" height="2.1"/>
	<rect x="14.9" y="18.4" class="st4" width="10" height="3.1"/>
	<rect x="14.9" y="25.9" class="st4" width="10" height="3.1"/>
	<rect x="14.9" y="29.9" class="st4" width="10" height="3.1"/>
</g>
<g id="chromosome-light">
	<path class="st5" d="M19.9,15.7c2.3,0,4.1-0.9,4.9-2h-9.6C15.6,14.8,17.6,15.7,19.9,15.7z"/>
	<path class="st5" d="M24.9,18.4L24.9,18.4c-0.6-1.3-2.6-2.1-4.9-2.1s-4.3,0.9-4.9,2.1"/>
</g>
<g id="outer_outline">
	<path class="st6" d="M14.9,19.4c0-1.6,2.3-3,5.1-3s5.1,1.3,5.1,3V36c0,1.6-2.3,3-5.1,3s-5.1-1.3-5.1-3V19.4z"/>
	<path class="st6" d="M25.1,12.7c0,1.6-2.3,3-5.1,3s-5.1-1.3-5.1-3V4c0-1.6,2.3-3,5.1-3s5.1,1.3,5.1,3V12.7z"/>
</g>
</svg>
