<?xml version="1.0" encoding="utf-8"?>
<!-- Generator: Adobe Illustrator 23.1.1, SVG Export Plug-In . SVG Version: 6.00 Build 0)  -->
<svg version="1.1" id="Layer_1" xmlns="http://www.w3.org/2000/svg" xmlns:xlink="http://www.w3.org/1999/xlink" x="0px" y="0px"
	 viewBox="0 0 40 40" style="enable-background:new 0 0 40 40;" xml:space="preserve">
<style type="text/css">
	.st0{clip-path:url(#SVGID_2_);}
	.st1{fill:none;stroke:#41875E;stroke-width:1.3261;stroke-miterlimit:10;}
	.st2{fill:#41875E;}
	.st3{fill:none;stroke:#41875E;stroke-width:0.663;stroke-miterlimit:10;}
	.st4{fill:#B4EEC9;stroke:#70B78B;stroke-width:1.6576;stroke-miterlimit:10;}
	.st5{clip-path:url(#SVGID_4_);}
	.st6{fill:none;stroke:#484D51;stroke-width:0.75;stroke-miterlimit:10;}
	.st7{fill:none;stroke:#484D51;stroke-width:0.4;stroke-miterlimit:10;}
</style>
<g id="lassa">
	<g>
		<g>
			<g>
				<defs>
					<rect id="SVGID_1_" width="40" height="40"/>
				</defs>
				<clipPath id="SVGID_2_">
					<use xlink:href="#SVGID_1_"  style="overflow:visible;"/>
				</clipPath>
				<g class="st0">
					<line class="st1" x1="25.2" y1="7.9" x2="23.2" y2="9.8"/>
					<ellipse transform="matrix(0.7071 -0.7071 0.7071 0.7071 2.5066 20.4973)" class="st2" cx="26" cy="7.2" rx="1.3" ry="2.4"/>
					<line class="st1" x1="11.4" y1="1.7" x2="12" y2="4.3"/>
					<ellipse transform="matrix(0.9747 -0.2234 0.2234 0.9747 0.121 2.5399)" class="st2" cx="11.3" cy="0.7" rx="2.4" ry="1.3"/>
					<line class="st1" x1="0.3" y1="19" x2="2.9" y2="18.8"/>
					
						<ellipse transform="matrix(0.9925 -0.1221 0.1221 0.9925 -2.3311 4.813439e-02)" class="st2" cx="-0.8" cy="19" rx="1.3" ry="2.4"/>
					<line class="st1" x1="31.9" y1="22.4" x2="29.1" y2="22.2"/>
					
						<ellipse transform="matrix(2.003173e-03 -1 1 2.003173e-03 10.3552 55.0991)" class="st2" cx="32.8" cy="22.4" rx="2.4" ry="1.3"/>
					<line class="st1" x1="2.9" y1="29.3" x2="5.3" y2="28.1"/>
					<ellipse transform="matrix(0.8676 -0.4973 0.4973 0.8676 -14.5387 4.9512)" class="st2" cx="2" cy="29.8" rx="1.3" ry="2.4"/>
					<line class="st1" x1="15.7" y1="37.7" x2="15.7" y2="35.1"/>
					
						<ellipse transform="matrix(0.9996 -2.933024e-02 2.933024e-02 0.9996 -1.1275 0.4803)" class="st2" cx="15.8" cy="38.7" rx="2.4" ry="1.3"/>
					<line class="st1" x1="26.4" y1="33.8" x2="24.7" y2="31.6"/>
					<ellipse transform="matrix(0.7633 -0.646 0.646 0.7633 -15.9297 25.5951)" class="st2" cx="27" cy="34.5" rx="2.4" ry="1.3"/>
					<line class="st1" x1="1.9" y1="11" x2="4.3" y2="12.2"/>
					<ellipse transform="matrix(0.3956 -0.9184 0.9184 0.3956 -9.1212 7.2563)" class="st2" cx="1" cy="10.6" rx="2.4" ry="1.3"/>
					<path class="st3" d="M24.6,10.7c2.1,2.1,3.2,4.2,4,7.2c0.3,1.2,0.7,2.5,0.5,3.8c-0.1,2.5-1.3,6.1-2.9,8.1
						C25.2,31,24,32,22.7,33c-2.5,1.9-5.7,2.4-8.8,1.7c-2.7-0.5-6.2-2.7-7.8-4.9c-1.3-1.9-1.7-4.5-2.4-6.8c-0.7-2.4-0.9-5-0.4-7.6
						C4,12.5,5.6,9.9,7.1,7.2c1.3-2.3,6.2-3.8,8.8-3.2c1.7,0.4,2.9,1.9,4.2,3c0.4,0.4,0.7,0.7,1.1,0.9C22.3,9,23.5,9.8,24.6,10.7z"
						/>
					<path class="st4" d="M23.4,12.3c1.9,1.6,2.7,3.4,3.3,5.8c0.3,1.1,0.5,2.1,0.4,3.2c-0.3,2.1-1.2,4.9-2.5,6.6
						c-0.8,1.1-1.9,1.9-2.9,2.7c-2.1,1.6-4.8,2-7.3,1.5c-2.3-0.5-5.2-2.4-6.5-4.1c-1.2-1.6-1.5-3.7-2-5.6c-0.7-2-0.9-4.1-0.4-6.2
						c0.5-2.4,1.9-4.6,3-6.8c1.2-2,5.2-3.2,7.3-2.7c1.5,0.3,2.5,1.5,3.6,2.5c0.3,0.3,0.5,0.5,0.8,0.8C21.1,10.8,22.2,11.5,23.4,12.3
						z"/>
				</g>
			</g>
		</g>
	</g>
</g>
<g id="dna_1_">
	<g>
		<g>
			<g>
				<defs>
					<rect id="SVGID_3_" width="40" height="40"/>
				</defs>
				<clipPath id="SVGID_4_">
					<use xlink:href="#SVGID_3_"  style="overflow:visible;"/>
				</clipPath>
				<g class="st5">
					<g>
						<path class="st6" d="M21.9,42.8c-0.3-1.3-0.6-2.3-0.1-4c0.1-0.4,0.3-0.8,0.5-1.2c0.2-0.3,0.5-0.6,0.7-0.8
							c1.1-0.9,2.2-1.4,3.2-1.7c1.3-0.3,2.6-0.6,3.9-0.9c1.2-0.3,2.5-0.6,3.7-1.5c0.3-0.2,0.6-0.4,0.8-0.7c0.6-0.6,0.9-1.4,1.2-2.2
							c0.1-0.2,0.1-0.4,0.2-0.6c0-0.1,0-0.3,0-0.4c-0.1-1.7-0.3-3.2-0.7-4.7c-0.4-1.6-1.1-3-1-5c0-0.7,0.2-1.4,0.5-2.2
							c0.9-1.8,2.9-2.7,4.1-3c1.7-0.5,3.3-0.7,4.9-1.1c0.6-0.2,1.3-0.3,2-0.7s1.5-1.2,2-2c0.3-0.5,0.8-1.5,0.6-2"/>
						<path class="st6" d="M20.8,42.1c2.1-0.7,4-1.1,6.1-1.6c1.3-0.3,2.3-0.6,3.6-1.8c0.3-0.3,0.6-0.6,0.8-1c0.2-0.3,0.3-0.7,0.4-1
							c0.3-1.4,0.3-2.6,0-3.6c-0.3-1.3-0.6-2.6-0.9-3.9c-0.3-1.2-0.6-2.5-0.4-4c0-0.3,0.1-0.7,0.3-1.1c0.3-0.8,0.8-1.5,1.4-2.1
							c0.1-0.1,0.3-0.3,0.4-0.4c0.1-0.1,0.2-0.1,0.4-0.2c1.5-0.7,3-1.2,4.5-1.5c1.6-0.4,3.1-0.4,4.9-1.4c0.6-0.3,1.2-0.8,1.7-1.5
							c1.2-1.6,1-3.8,0.8-5c-0.3-1.7-0.9-3.2-1.3-4.8c-0.4-0.6-0.5-1.3-0.5-2c0-0.8,0.3-1.9,0.9-2.7c0.4-0.5,1-1.4,1.5-1.4"/>
					</g>
					<line class="st7" x1="21.7" y1="39.4" x2="24.6" y2="41.2"/>
					<line class="st7" x1="23" y1="36.9" x2="28.1" y2="40"/>
					<line class="st7" x1="25.3" y1="35.5" x2="30.5" y2="38.6"/>
					<line class="st7" x1="28.7" y1="34.6" x2="31.7" y2="36.4"/>
					<line class="st7" x1="31.3" y1="31" x2="34" y2="32.7"/>
					<line class="st7" x1="30.4" y1="27.8" x2="35.4" y2="30.9"/>
					<line class="st7" x1="30.5" y1="24.6" x2="35.9" y2="27.9"/>
					<line class="st7" x1="31.7" y1="22.5" x2="35.4" y2="24.8"/>
					<line class="st7" x1="34.5" y1="18.4" x2="37.2" y2="20.1"/>
					<line class="st7" x1="35.6" y1="16.1" x2="40.9" y2="19.3"/>
					<line class="st7" x1="37.9" y1="14.5" x2="43.2" y2="17.7"/>
					<line class="st7" x1="41.2" y1="13.5" x2="44.5" y2="15.6"/>
					<line class="st7" x1="44.1" y1="10.1" x2="46.7" y2="11.7"/>
					<line class="st7" x1="43.2" y1="6.8" x2="48.2" y2="9.9"/>
				</g>
			</g>
		</g>
	</g>
</g>
</svg>
