<?xml version="1.0" encoding="utf-8"?>
<!-- Generator: Adobe Illustrator 23.1.1, SVG Export Plug-In . SVG Version: 6.00 Build 0)  -->
<svg version="1.1" xmlns="http://www.w3.org/2000/svg" xmlns:xlink="http://www.w3.org/1999/xlink" x="0px" y="0px"
	 viewBox="0 0 40 40" style="enable-background:new 0 0 40 40;" xml:space="preserve">
<style type="text/css">
	.st0{fill:#EDFFC7;}
	.st1{clip-path:url(#SVGID_2_);fill:#D3D9DE;}
	.st2{clip-path:url(#SVGID_4_);fill:#A2A8AC;}
	.st3{clip-path:url(#SVGID_6_);fill:#BAC0C5;}
	.st4{clip-path:url(#SVGID_8_);fill:#EEF1F4;}
	.st5{clip-path:url(#SVGID_10_);fill:none;stroke:#BAC0C5;stroke-width:1.2625;stroke-linecap:round;stroke-miterlimit:10;}
	.st6{clip-path:url(#SVGID_12_);fill:none;stroke:#BAC0C5;stroke-width:1.2625;stroke-linecap:round;stroke-miterlimit:10;}
	.st7{clip-path:url(#SVGID_14_);fill:none;stroke:#BAC0C5;stroke-width:1.2625;stroke-linecap:round;stroke-miterlimit:10;}
	.st8{clip-path:url(#SVGID_16_);fill:none;stroke:#FFFFFF;stroke-width:0.6312;stroke-miterlimit:10;}
	.st9{clip-path:url(#SVGID_18_);fill:#FFFFFF;}
	.st10{display:none;}
	.st11{display:inline;fill:#010101;}
	.st12{display:inline;}
	.st13{clip-path:url(#SVGID_20_);fill:#212529;}
	.st14{display:inline;fill:none;stroke:#212529;stroke-width:1.5;stroke-miterlimit:10;}
	.st15{clip-path:url(#SVGID_22_);}
	.st16{fill-rule:evenodd;clip-rule:evenodd;fill:#212529;}
</style>
<g id="Layer_1">
	<g id="background">
		<rect class="st0" width="40" height="40"/>
	</g>
	<g id="PhysIQ">
		<g>
			<g>
				<defs>
					<rect id="SVGID_1_" width="40" height="40"/>
				</defs>
				<clipPath id="SVGID_2_">
					<use xlink:href="#SVGID_1_"  style="overflow:visible;"/>
				</clipPath>
				<path class="st1" d="M18.3,20.7c0.1-0.1,0.2-0.1,0.2-0.2c1.2-1,2.3-1.9,3.3-3.1s1.9-2.5,2.8-3.8c1.5-2.2,3.1-4.4,5.4-5.8
					c0.5-0.3,1-0.6,1.6-0.8c0.9-0.3,1.9-0.4,2.9-0.4c1.4,0,3,0.2,4.2,0.9c1,0.5,2.4,1.5,2.8,2.5c0.6,1.2,0.8,2.7,0.6,4
					c-0.3,1.9-1.7,3.9-3.3,4.9c-0.6,0.4-1.3,0.7-2,1c-2.2,0.9-4.4,1.7-6.7,2.4c-2.2,0.7-4.5,1.5-6.5,2.7c-3,1.8-5.2,4.5-7.3,7.2
					c-1.4,1.9-2.8,3.8-4.3,5.5c-1.5,1.8-3,3.3-5.4,4c-2.2,0.6-4.8-0.1-6.3-1.7c-2-2-1.9-5.6-0.9-8c2.2-5.5,8.5-6.3,13.4-8.1
					c1.2-0.4,2.4-0.9,3.4-1.6C17,21.9,17.6,21.2,18.3,20.7z"/>
			</g>
			<g>
				<defs>
					<rect id="SVGID_3_" width="40" height="40"/>
				</defs>
				<clipPath id="SVGID_4_">
					<use xlink:href="#SVGID_3_"  style="overflow:visible;"/>
				</clipPath>
				<path class="st2" d="M4,28c1-0.6,2.2-1.1,3.4-1.4c4.8-1.3,9.5-2.5,13.4-5.8c2.1-1.8,3.4-4.3,4.8-6.6c0.8-1.4,1.6-2.7,2.7-3.9
					c1.1-1.3,2.3-2,3.9-2.4c0.2,0,0.4-0.1,0.6-0.1c1.5-0.3,3-0.2,4.4,0.3s2.8,1.3,3.2,2.8c0.4,1.3,0.4,3-0.1,4.3
					c-0.6,1.2-1.6,2.2-2.8,2.9c-1.8,1.1-3.9,1.7-5.8,2.5c-1.1,0.4-2.4,0.7-3.6,1c-1.3,0.4-2.6,0.8-3.9,1.3c-1.2,0.4-2.2,1.2-3.2,2
					c-3.4,2.7-5.6,6.5-8.2,9.9c-0.9,1.2-1.9,2.5-3.1,3.5S7.1,40,5.5,40.2c-1.5,0.2-3.2-0.3-4.2-1.4c-1-1.1-1.4-2.6-1.3-4.1
					C0.1,31.6,1.7,29.4,4,28z"/>
			</g>
			<g>
				<defs>
					<rect id="SVGID_5_" width="40" height="40"/>
				</defs>
				<clipPath id="SVGID_6_">
					<use xlink:href="#SVGID_5_"  style="overflow:visible;"/>
				</clipPath>
				<path class="st3" d="M2.6,29c-0.2,0.2-0.4,0.4-0.6,0.6c-1,1.2-1.6,2.7-1.5,4.3c0,1.4,0.6,2.9,1.7,3.7c1,0.7,2.4,0.9,3.7,0.6
					c2.1-0.5,3.8-2,5.2-3.6s2.4-3.5,3.8-5.2c3.2-3.9,7.9-6.7,12.3-8.9c1.4-0.7,2.8-1.2,4.2-1.8c2.9-1.2,6.1-1.9,7.5-5
					c0.6-1.3,0.3-3.3-0.7-4.4c-0.4-0.5-1-0.8-1.6-1c-2.2-0.8-4.1-0.6-6.3,0.3c-0.3,0.2-0.7,0.3-1,0.5s-0.5,0.5-0.8,0.7
					c-1.2,1.3-2.2,2.9-3.2,4.4l-1.7,2.9c-0.7,1.2-1.8,2.4-2.9,3.3c-1.3,1.1-2.7,2.2-4.3,2.9c-1.1,0.5-2.3,0.9-3.4,1.4
					c-0.8,0.4-1.7,0.6-2.5,0.8c-1.3,0.4-2.8,0.7-4.1,1.2C5,27.3,3.7,28.1,2.6,29z"/>
			</g>
			<g>
				<defs>
					<rect id="SVGID_7_" width="40" height="40"/>
				</defs>
				<clipPath id="SVGID_8_">
					<use xlink:href="#SVGID_7_"  style="overflow:visible;"/>
				</clipPath>
				<path class="st4" d="M27.5,14.7c1.2,2.7,5.3,3.6,8,2.3c1.1-0.5,2.1-1.2,2.8-2.1c0.9-1.1,1.3-2.7,0.8-4.1
					c-1.7-5-11.1-3.3-11.9,1.6C27,13.3,27.2,14,27.5,14.7z"/>
			</g>
			<g>
				<defs>
					<rect id="SVGID_9_" width="40" height="40"/>
				</defs>
				<clipPath id="SVGID_10_">
					<use xlink:href="#SVGID_9_"  style="overflow:visible;"/>
				</clipPath>
				<path class="st5" d="M29.3,13.2c1.3,0.2,1.7,1.2,2.1,2.2"/>
			</g>
			<g>
				<defs>
					<rect id="SVGID_11_" width="40" height="40"/>
				</defs>
				<clipPath id="SVGID_12_">
					<use xlink:href="#SVGID_11_"  style="overflow:visible;"/>
				</clipPath>
				<path class="st6" d="M30.4,11.6c1.5,0.4,2.2,1.5,2.9,2.8"/>
			</g>
			<g>
				<defs>
					<rect id="SVGID_13_" width="40" height="40"/>
				</defs>
				<clipPath id="SVGID_14_">
					<use xlink:href="#SVGID_13_"  style="overflow:visible;"/>
				</clipPath>
				<path class="st7" d="M31.8,10c1.7,0.3,3.7,1.9,3.6,3.8"/>
			</g>
			<g>
				<defs>
					<rect id="SVGID_15_" width="40" height="40"/>
				</defs>
				<clipPath id="SVGID_16_">
					<use xlink:href="#SVGID_15_"  style="overflow:visible;"/>
				</clipPath>
				<circle class="st8" cx="26.6" cy="17.5" r="1.1"/>
			</g>
			<g>
				<defs>
					<rect id="SVGID_17_" width="40" height="40"/>
				</defs>
				<clipPath id="SVGID_18_">
					<use xlink:href="#SVGID_17_"  style="overflow:visible;"/>
				</clipPath>
				<circle class="st9" cx="26.7" cy="17.5" r="0.3"/>
			</g>
		</g>
	</g>
	<g id="ECG_1_" class="st10">
		<path id="ECG" class="st11" d="M20.6,33.3l-0.1-0.1c0,0-0.2-2.1-0.6-9.4c-0.3-5.1-0.5-9.4-0.5-9.4c0-0.1,0-0.1-0.1,0
			c0,0-0.2,3.1-0.5,8.1c-0.4,6.4-0.5,8-0.6,8.1l-0.1,0.1c-0.2,0.1-0.2,0-1-1.4L16.4,28h-1.9c-1.1,0-2,0-2,0s-0.2-0.2-0.3-0.4
			c-0.5-0.7-1.2-1.3-1.7-1.6c-0.3-0.1-0.3-0.1-0.6-0.1c-0.2,0-0.4,0-0.6,0.1c-0.7,0.2-1.8,0.9-2.9,1.6L5.9,28H3.2
			c-1.9,0-2.8,0-2.9,0c-0.2-0.1-0.3-0.3-0.1-0.5l0.1-0.1H3h2.7L6,27.2c0.5-0.3,1.1-0.8,1.6-1c1.1-0.7,2.1-0.9,2.6-0.8
			c0.7,0.2,1.5,0.7,2.2,1.6l0.3,0.4h2c1.2,0,2,0,2.1,0s0.2,0.2,0.5,0.9c0.4,0.8,0.5,0.9,0.5,0.7c0,0,0.3-4.6,0.6-10.2
			c0.3-5.6,0.6-10.2,0.7-10.3c0.1-0.2,0.4-0.2,0.5,0c0,0.1,0.2,2.9,0.7,11.2c0.4,6.9,0.6,11.1,0.7,11.1c0,0,0,0,0.1,0
			c0,0,0.2-0.8,0.4-1.7c0.3-1.3,0.4-1.6,0.5-1.7s0.3-0.1,2.8-0.1h2.7l0.4-0.5c0.5-0.6,1.6-1.7,2-2c0.7-0.6,1.3-0.9,1.7-0.9
			c0.2,0,0.5,0.1,0.8,0.2c0.6,0.3,1.3,1.3,1.9,2.6l0.3,0.5h2.7H40l0.1,0.1c0.1,0.1,0.1,0.3,0,0.4L40,27.8h-2.8c-3,0-2.9,0-3-0.2
			c-0.5-1-0.8-1.6-1-1.9c-0.5-0.7-1-1.2-1.3-1.3c-0.3-0.1-0.7,0.1-1.4,0.6c-0.4,0.3-1.7,1.6-2.3,2.3c-0.2,0.3-0.5,0.5-0.5,0.5
			s-1.2,0-2.7,0c-2,0-2.6,0-2.6,0s-0.3,1.2-0.7,2.6C21.3,31.9,21,33,21,33.1C20.8,33.3,20.7,33.3,20.6,33.3z"/>
	</g>
	<g id="ECG_copy" class="st10">
		<g class="st12">
			<g>
				<defs>
					<rect id="SVGID_19_" y="3" width="40" height="40"/>
				</defs>
				<clipPath id="SVGID_20_">
					<use xlink:href="#SVGID_19_"  style="overflow:visible;"/>
				</clipPath>
				<path id="ECG_3_" class="st13" d="M15.7,36.3l-0.2-0.1c0,0-0.3-2.1-0.9-9.4c-0.5-5.1-0.8-9.4-0.8-9.4c0-0.1,0-0.1-0.2,0
					c0,0-0.3,3.1-0.8,8.1c-0.6,6.4-0.8,8-0.9,8.1l-0.2,0.1c-0.3,0.1-0.3,0-1.5-1.4L9.3,31H6.5c-1.7,0-3,0-3,0S3.2,30.8,3,30.6
					c-0.8-0.7-1.8-1.3-2.6-1.6C0,28.9,0,28.9-0.4,28.9c-0.3,0-0.6,0-0.9,0.1c-1.1,0.2-2.7,0.9-4.4,1.6L-6.4,31h-4.1
					c-2.9,0-4.2,0-4.4,0c-0.3-0.1-0.5-0.3-0.2-0.5l0.2-0.1h4.1h4.1l0.5-0.2c0.8-0.3,1.7-0.8,2.4-1c1.7-0.7,3.2-0.9,3.9-0.8
					c1.1,0.2,2.3,0.7,3.3,1.6l0.5,0.4h3c1.8,0,3,0,3.2,0s0.3,0.2,0.8,0.9c0.6,0.8,0.8,0.9,0.8,0.7c0,0,0.5-4.6,0.9-10.2
					c0.5-5.6,0.9-10.2,1.1-10.3c0.2-0.2,0.6-0.2,0.8,0c0,0.1,0.3,2.9,1.1,11.2c0.6,6.9,0.9,11.1,1.1,11.1c0,0,0,0,0.2,0
					c0,0,0.3-0.8,0.6-1.7c0.5-1.3,0.6-1.6,0.8-1.7c0.2-0.1,0.5-0.1,4.2-0.1H26l0.6-0.5c0.8-0.6,2.4-1.7,3-2c1.1-0.6,2-0.9,2.6-0.9
					c0.3,0,0.8,0.1,1.2,0.2c0.9,0.3,2,1.3,2.9,2.6l0.5,0.5h4.1H45l0.2,0.1c0.2,0.1,0.2,0.3,0,0.4L45,30.8h-4.2c-4.5,0-4.4,0-4.5-0.2
					c-0.8-1-1.2-1.6-1.5-1.9c-0.8-0.7-1.5-1.2-2-1.3c-0.5-0.1-1.1,0.1-2.1,0.6c-0.6,0.3-2.6,1.6-3.5,2.3c-0.3,0.3-0.8,0.5-0.8,0.5
					s-1.8,0-4.1,0c-3,0-3.9,0-3.9,0s-0.5,1.2-1.1,2.6c-0.6,1.5-1.1,2.6-1.1,2.7C16,36.3,15.8,36.3,15.7,36.3z"/>
			</g>
		</g>
	</g>
	<g id="ecg_path" class="st10">
		<path class="st14" d="M0,25.7h0.2c1.5,0.3,2.5,1.2,3.7,2.1H10l1.9,2.4l2-20.6L14,8.4l0.1,1.2l3.8,22.1l1.4-4c0,0,6.8,0,6.9,0
			c0.2,0,0.6-0.4,0.8-0.5c0.4-0.3,0.7-0.6,1.1-0.9c0.7-0.6,1.5-1.1,2.3-1.5s1.8-0.7,2.6-0.5c0.6,0.2,1.2,0.6,1.6,1
			c0.7,0.7,1.3,1.4,1.9,2.2H40"/>
	</g>
	<g id="image" class="st10">
		<g id="_x36_5tDyy_1_" class="st12">
		</g>
	</g>
</g>
<g id="ECG_x5F_fat">
	<g>
		<defs>
			<rect id="SVGID_21_" width="40" height="40"/>
		</defs>
		<clipPath id="SVGID_22_">
			<use xlink:href="#SVGID_21_"  style="overflow:visible;"/>
		</clipPath>
		<g class="st15">
			<path class="st16" d="M-3,29.7l9.6-0.4c0.4,0,0.8-0.3,1-0.6L9,26l2.1,11.1c0.1,0.5,0.5,0.9,1.1,0.9h0c0.5,0,1-0.4,1-0.9L15,22.7
				l1.5,9.4c0.1,0.5,0.5,0.8,1,0.9c0.5,0,0.9-0.2,1.1-0.7l1.6-3.9l1.8,5.4c0.1,0.4,0.5,0.7,0.9,0.7c0.4,0,0.9-0.2,1-0.6l2.5-4.6h2.7
				l11.7-0.1c0.4,0,0.8-0.3,1-0.6l1.3-2.7L45.4,37c0.1,0.5,0.5,0.9,1.1,0.9h0c0.5,0,1-0.4,1-0.9l1.8-14.3l1.5,9.4
				c0.1,0.5,0.5,0.8,0.9,0.9c0.5,0.1,0.9-0.2,1.1-0.7l1.6-3.9l1.8,5.3c0.1,0.4,0.5,0.7,0.9,0.7c0.4,0,0.9-0.2,1-0.6l2.5-4.6h1.8l0,0
				l13.6,0.1c0.4,0,0.8-0.3,1-0.7l1.3-2.7L80.7,37c0.1,0.5,0.5,0.9,1.1,0.9h0c0.5,0,1-0.4,1-0.9l1.8-14.3l1.5,9.4
				c0.1,0.5,0.5,0.8,1,0.9c0.5,0,0.9-0.2,1.1-0.7l1.6-3.9l1.8,5.4c0.2,0.4,0.5,0.7,0.9,0.7c0.4,0,0.9-0.2,1-0.6l2.5-4.6h7.7v-2.2
				h-8.3c-0.4,0-0.8,0.2-1,0.6l-1.5,3l-2-5.7c-0.2-0.4-0.5-0.7-1-0.7c-0.5,0-0.9,0.2-1,0.7l-1.3,3.2l-2.1-12.6
				c-0.1-0.5-0.5-0.9-1-0.9h-0.1c-0.5,0-1,0.4-1,0.9l-1.9,14.5l-1.5-7.8c-0.1-0.5-0.5-0.8-0.9-0.9c-0.4-0.1-0.9,0.2-1.1,0.6
				l-2.4,5.1l-13.9,0h-1.5c-0.4,0-0.8,0.2-1,0.6l-1.5,3l-2-5.7c-0.2-0.4-0.5-0.7-1-0.7c-0.5,0-0.9,0.3-1.1,0.7l-1.3,3.2l-2.1-12.6
				c-0.1-0.5-0.5-0.9-1-0.9h-0.1c-0.5,0-1,0.3-1,0.9l-1.9,14.6l-1.5-7.8c-0.1-0.5-0.5-0.8-0.9-0.9c-0.5-0.1-0.9,0.2-1.1,0.6
				l-2.4,5.1l-11.5,0.1l0,0h-2.8c-0.4,0-0.8,0.2-1,0.6l-1.5,3l-2-5.7c-0.2-0.4-0.5-0.7-1-0.7c-0.5,0-0.9,0.3-1.1,0.7L18,28.1
				L16,15.6c-0.1-0.5-0.5-0.9-1-0.9h-0.1c-0.5,0-1,0.3-1,0.9L12,30.1l-1.5-7.8c-0.1-0.5-0.5-0.8-0.9-0.9c-0.4-0.1-0.9,0.2-1.1,0.6
				L6,27.2l-9,0V29.7z"/>
		</g>
	</g>
</g>
<g id="Layer_2" class="st10">
	<g class="st12">
		<path class="st16" d="M-0.4,28.5l3.6-0.1c0.2,0,0.3-0.1,0.4-0.2l0.5-1l0.8,4.1c0,0.2,0.2,0.3,0.4,0.3h0c0.2,0,0.4-0.2,0.4-0.4
			l0.7-5.4l0.6,3.5c0,0.2,0.2,0.3,0.4,0.3c0.2,0,0.3-0.1,0.4-0.2L8.3,28L9,30c0,0.2,0.2,0.3,0.4,0.3c0.2,0,0.3-0.1,0.4-0.2l0.9-1.7
			h1l4.4,0c0.2,0,0.3-0.1,0.4-0.2l0.5-1l0.8,4.2c0,0.2,0.2,0.3,0.4,0.3h0c0.2,0,0.4-0.2,0.4-0.4l0.7-5.4l0.6,3.5
			c0,0.2,0.2,0.3,0.4,0.3c0.2,0,0.4-0.1,0.4-0.2l0.6-1.5l0.7,2c0,0.2,0.2,0.3,0.4,0.3c0.2,0,0.3-0.1,0.4-0.2l0.9-1.7h0.7l0,0l5.1,0
			c0.2,0,0.3-0.1,0.4-0.2l0.5-1l0.8,4.1c0,0.2,0.2,0.3,0.4,0.3h0c0.2,0,0.4-0.2,0.4-0.4l0.7-5.4l0.6,3.5c0,0.2,0.2,0.3,0.4,0.3
			c0.2,0,0.3-0.1,0.4-0.2l0.6-1.5l0.7,2c0.1,0.2,0.2,0.3,0.4,0.3c0.2,0,0.3-0.1,0.4-0.2l0.9-1.7h2.9v-0.8h-3.1
			c-0.2,0-0.3,0.1-0.4,0.2l-0.6,1.1l-0.7-2.1c-0.1-0.2-0.2-0.3-0.4-0.3c-0.2,0-0.3,0.1-0.4,0.2l-0.5,1.2l-0.8-4.7
			c0-0.2-0.2-0.3-0.4-0.3h0c-0.2,0-0.4,0.1-0.4,0.3l-0.7,5.4l-0.6-2.9c0-0.2-0.2-0.3-0.4-0.3c-0.2,0-0.3,0.1-0.4,0.2L29,27.5l-5.2,0
			h-0.6c-0.2,0-0.3,0.1-0.4,0.2l-0.6,1.1l-0.7-2.1c-0.1-0.2-0.2-0.3-0.4-0.3c-0.2,0-0.3,0.1-0.4,0.2l-0.5,1.2l-0.8-4.7
			c0-0.2-0.2-0.3-0.4-0.3h0c-0.2,0-0.4,0.1-0.4,0.3l-0.7,5.5l-0.6-2.9c0-0.2-0.2-0.3-0.4-0.3c-0.2,0-0.3,0.1-0.4,0.2l-0.9,1.9
			l-4.3,0l0,0h-1.1c-0.2,0-0.3,0.1-0.4,0.2l-0.6,1.1l-0.7-2.1c-0.1-0.2-0.2-0.3-0.4-0.3c-0.2,0-0.3,0.1-0.4,0.2l-0.5,1.2l-0.8-4.7
			c0-0.2-0.2-0.3-0.4-0.3h0c-0.2,0-0.4,0.1-0.4,0.3l-0.7,5.5l-0.6-2.9c0-0.2-0.2-0.3-0.4-0.3c-0.2,0-0.3,0.1-0.4,0.2L3,27.5l-3.4,0
			V28.5z"/>
	</g>
</g>
</svg>
