<?xml version="1.0" encoding="utf-8"?>
<!-- Generator: Adobe Illustrator 22.1.0, SVG Export Plug-In . SVG Version: 6.00 Build 0)  -->
<svg version="1.1" id="Layer_1" xmlns="http://www.w3.org/2000/svg" xmlns:xlink="http://www.w3.org/1999/xlink" x="0px" y="0px"
	 viewBox="0 0 40 40" style="enable-background:new 0 0 40 40;" xml:space="preserve">
<style type="text/css">
	.st0{fill:none;stroke:#FFB2DD;stroke-width:1.0256;stroke-miterlimit:10;}
	.st1{fill:none;stroke:#E91E63;stroke-width:1.0256;stroke-miterlimit:10;}
	.st2{fill:none;stroke:#A6A8A9;stroke-width:1.0256;stroke-miterlimit:10;}
	.st3{fill:#A6A8A9;}
</style>
<g id="copied_dna">
	<line class="st0" x1="15.9" y1="10" x2="24.1" y2="10"/>
	<line class="st0" x1="31.5" y1="4.2" x2="39.6" y2="4.2"/>
	<line class="st0" x1="31.5" y1="12.6" x2="39.6" y2="12.6"/>
	<line class="st0" x1="31.5" y1="15.8" x2="39.6" y2="15.8"/>
	<line class="st0" x1="31.5" y1="24.2" x2="39.6" y2="24.2"/>
	<line class="st0" x1="31.5" y1="27.4" x2="39.6" y2="27.4"/>
	<line class="st0" x1="31.5" y1="35.8" x2="39.6" y2="35.8"/>
	<line class="st0" x1="15.9" y1="30" x2="24.1" y2="30"/>
</g>
<g id="primary_dna">
	<line class="st1" x1="0.6" y1="18.4" x2="8.7" y2="18.4"/>
	<line class="st1" x1="0.6" y1="21.6" x2="8.7" y2="21.6"/>
	<line class="st1" x1="15.9" y1="6.8" x2="24.1" y2="6.8"/>
	<line class="st1" x1="31.5" y1="1" x2="39.6" y2="1"/>
	<line class="st1" x1="31.5" y1="39" x2="39.6" y2="39"/>
	<line class="st1" x1="15.9" y1="33.2" x2="24.1" y2="33.2"/>
</g>
<g id="arrows">
	<g>
		<g>
			<line class="st2" x1="10.2" y1="17.4" x2="13.9" y2="12.2"/>
			<g>
				<path class="st3" d="M13.9,16.1c-0.1,0-0.2-0.1-0.2-0.2l0.2-3.5l-3.3,1.3c-0.1,0-0.3,0-0.3-0.1c0-0.1,0-0.3,0.1-0.3l3.6-1.5
					c0.1,0,0.2,0,0.2,0s0.1,0.1,0.1,0.2l-0.2,3.9c0,0,0,0.1,0,0.1C14.1,16,14,16.1,13.9,16.1z"/>
			</g>
		</g>
	</g>
	<g>
		<g>
			<line class="st2" x1="10.2" y1="21.4" x2="13.9" y2="26.6"/>
			<g>
				<path class="st3" d="M10.3,25.3c0-0.1,0.2-0.2,0.3-0.1l3.3,1.3L13.7,23c0-0.1,0.1-0.2,0.2-0.2c0.1,0,0.2,0.1,0.2,0.2l0.2,3.9
					c0,0.1,0,0.2-0.1,0.2s-0.1,0.1-0.2,0l-3.6-1.5c0,0-0.1,0-0.1-0.1C10.3,25.5,10.3,25.4,10.3,25.3z"/>
			</g>
		</g>
	</g>
	<g>
		<g>
			<line class="st2" x1="25.5" y1="10.4" x2="29.6" y2="13.2"/>
			<g>
				<path class="st3" d="M25.7,13.2c0-0.1,0.1-0.2,0.2-0.2l3.5,0.1l-1.4-3.2c-0.1-0.1,0-0.3,0.1-0.3c0.1,0,0.3,0,0.3,0.1l1.5,3.6
					c0,0.1,0,0.2,0,0.2c0,0.1-0.1,0.1-0.2,0.1L26,13.5c0,0-0.1,0-0.1,0C25.8,13.4,25.7,13.3,25.7,13.2z"/>
			</g>
		</g>
	</g>
	<g>
		<g>
			<line class="st2" x1="25.5" y1="7" x2="29.6" y2="4.2"/>
			<g>
				<path class="st3" d="M28.2,7.8c-0.1,0-0.2-0.2-0.1-0.3l1.4-3.2L26,4.4c-0.1,0-0.2-0.1-0.2-0.2c0-0.1,0.1-0.2,0.2-0.2l3.9-0.1
					c0.1,0,0.2,0,0.2,0.1s0.1,0.1,0,0.2l-1.5,3.6c0,0,0,0.1-0.1,0.1C28.4,7.8,28.3,7.8,28.2,7.8z"/>
			</g>
		</g>
	</g>
	<g>
		<g>
			<line class="st2" x1="25.5" y1="33.5" x2="29.6" y2="36.2"/>
			<g>
				<path class="st3" d="M25.7,36.3c0-0.1,0.1-0.2,0.2-0.2l3.5,0.1l-1.4-3.2c-0.1-0.1,0-0.3,0.1-0.3c0.1,0,0.3,0,0.3,0.1l1.5,3.6
					c0,0.1,0,0.2,0,0.2c0,0.1-0.1,0.1-0.2,0.1L26,36.5c0,0-0.1,0-0.1,0C25.8,36.5,25.7,36.4,25.7,36.3z"/>
			</g>
		</g>
	</g>
	<g>
		<g>
			<line class="st2" x1="25.5" y1="30.1" x2="29.6" y2="27.3"/>
			<g>
				<path class="st3" d="M28.2,30.9c-0.1,0-0.2-0.2-0.1-0.3l1.4-3.2L26,27.4c-0.1,0-0.2-0.1-0.2-0.2c0-0.1,0.1-0.2,0.2-0.2l3.9-0.1
					c0.1,0,0.2,0,0.2,0.1c0,0.1,0.1,0.1,0,0.2l-1.5,3.6c0,0,0,0.1-0.1,0.1C28.4,30.9,28.3,30.9,28.2,30.9z"/>
			</g>
		</g>
	</g>
</g>
</svg>
