<?xml version="1.0" encoding="utf-8"?>
<!-- Generator: Adobe Illustrator 23.0.1, SVG Export Plug-In . SVG Version: 6.00 Build 0)  -->
<svg version="1.1" xmlns="http://www.w3.org/2000/svg" xmlns:xlink="http://www.w3.org/1999/xlink" x="0px" y="0px"
	 viewBox="0 0 40 40" style="enable-background:new 0 0 40 40;" xml:space="preserve">
<style type="text/css">
	.st0{fill:#FBFCC5;}
	.st1{clip-path:url(#SVGID_2_);fill:#F06292;}
	.st2{clip-path:url(#SVGID_2_);fill:#F8BBD0;}
	.st3{clip-path:url(#SVGID_4_);}
	.st4{fill:none;stroke:#70B78B;stroke-width:1.25;stroke-miterlimit:10;}
	.st5{fill:#41875E;}
	.st6{fill:#E7FAEE;stroke:#70B78B;stroke-width:0.3723;stroke-miterlimit:10;}
	.st7{fill:#B4EEC9;stroke:#70B78B;stroke-width:1.25;stroke-miterlimit:10;}
	.st8{clip-path:url(#SVGID_6_);}
	.st9{fill:none;stroke:#484D51;stroke-width:0.75;stroke-miterlimit:10;}
	.st10{fill:none;stroke:#484D51;stroke-width:0.4;stroke-miterlimit:10;}
</style>
<g id="Layer_4">
	<rect class="st0" width="40" height="40"/>
</g>
<g id="ebola">
	<g>
		<defs>
			<rect id="SVGID_1_" width="40" height="40"/>
		</defs>
		<clipPath id="SVGID_2_">
			<use xlink:href="#SVGID_1_"  style="overflow:visible;"/>
		</clipPath>
		<path class="st1" d="M20.4,41c-0.2,0-0.3,0-0.5,0c-3.3-0.1-6.9-1.2-10.7-3.1c-1.5-0.8-2.8-1.6-4-2.6c-1-0.9-1.7-1.8-2.4-2.7
			c-0.2-0.3-0.5-0.6-0.7-1c-0.7-0.9-0.5-2.1,0.3-2.8C3.2,28,4.5,28.1,5.2,29c0.3,0.4,0.6,0.7,0.8,1.1c0.6,0.8,1.1,1.5,1.8,2
			c1,0.8,2.1,1.5,3.3,2.2c3.3,1.7,6.3,2.6,9,2.7c2.2,0.1,5.5-0.7,5.9-3.2c0.2-1.3-0.6-2.6-1.1-3.3c-1.5-2.1-3.9-4.9-6.8-6.4
			c-0.8-0.5-1.8-0.8-2.8-1.2c-1.8-0.7-3.6-1.5-5.2-2.8c-1.1,0.4-2.3,0.5-3.5,0.2c-2.7-0.5-4.9-2.6-5.8-5.4c-0.6-2-0.5-4.3,0.4-6.4
			C0.5,7.9,0,7.3-0.5,6.6c-1-1.7-1-3.8,0-5.2c1.2-1.6,3.6-2.1,5.4-1C6.4,1.2,7.4,3,7.2,4.9c-0.1,1-0.5,1.9-0.9,2.7
			c1,0.9,1.8,1.9,2.5,2.9C8,8.3,8.9,5.9,10.2,4.5c1-1,2.4-1.6,3.7-1.5c1.2,0.1,2.3,0.7,3,1.7c1,1.3,1.4,3.1,1,4.7
			c-0.4,2-1.8,3.4-2.9,4.5c-0.2,0.2-0.4,0.4-0.6,0.6c0,0,0,0,0,0c-0.1,1-0.4,2-1.1,2.9c1,0.6,2.2,1.1,3.4,1.6c1,0.4,2.1,0.9,3.2,1.4
			c3.5,1.9,6.4,5.2,8.1,7.6c1.5,2.1,2.2,4.2,1.9,6.3C29.2,38.9,24.6,41,20.4,41z M4.4,11.5c-0.1,0.8-0.1,1.5,0.1,2.2
			C5,15,6.1,16.1,7.3,16.3c-0.2-0.4-0.4-0.7-0.5-1.1c-0.3-0.7-0.6-1.3-1-1.9C5.4,12.7,5,12.1,4.4,11.5z M10,12.8
			c0.1,0.2,0.2,0.4,0.3,0.6C10.3,13.2,10.2,13,10,12.8C10,12.8,10,12.8,10,12.8z M13.6,7c-0.1,0-0.3,0.1-0.5,0.3
			c-0.5,0.5-0.7,1.5-0.5,2c0.1,0.2,0.3,0.5,0.5,0.7c0,0,0,0.1,0.1,0.1c0.5-0.5,0.8-1,0.9-1.6C14.1,7.9,13.8,7.1,13.6,7
			C13.6,7,13.6,7,13.6,7z M2.8,3.8c0,0-0.1,0-0.1,0c0,0,0,0.3,0.2,0.7C3,4.6,3,4.7,3.1,4.8c0-0.1,0.1-0.2,0.1-0.3
			c0-0.3-0.1-0.6-0.3-0.7C2.9,3.8,2.8,3.8,2.8,3.8z"/>
		<path class="st2" d="M20.4,40.2c-0.2,0-0.3,0-0.5,0c-3.2-0.1-6.7-1.1-10.4-3c-1.4-0.7-2.7-1.6-3.9-2.5c-1-0.8-1.6-1.7-2.3-2.6
			c-0.2-0.3-0.5-0.7-0.7-1c-0.4-0.5-0.3-1.3,0.2-1.8c0.5-0.4,1.3-0.3,1.8,0.2c0.3,0.4,0.5,0.7,0.8,1.1c0.6,0.8,1.1,1.6,1.9,2.2
			c1,0.8,2.2,1.6,3.4,2.2c3.4,1.7,6.5,2.6,9.3,2.8c2.1,0.1,6.2-0.6,6.6-3.9c0.2-1.5-0.6-2.9-1.3-3.9c-1.6-2.1-4-5-7-6.6
			c-0.9-0.5-1.8-0.9-2.8-1.3c-1.9-0.8-3.8-1.5-5.3-3c-1.1,0.5-2.3,0.6-3.6,0.4c-2.4-0.5-4.4-2.4-5.2-4.9c-0.6-2-0.4-4.3,0.6-6.4
			C1.4,7.7,0.6,7,0.1,6.2c-0.7-1.2-1-3,0-4.4c1-1.3,3-1.7,4.4-0.8c1.3,0.7,2.1,2.3,1.9,3.8C6.3,5.9,5.8,6.9,5.3,7.7
			c1.4,1.3,2.5,2.6,3.3,4c0.4,0.7,0.8,1.4,1.1,2.1c0.3,0.6,0.6,1.3,1,1.9c0,0,0,0,0,0c0.3-0.5,1-1.8,0-3.3c-0.1-0.1-0.2-0.3-0.3-0.4
			c-0.3-0.4-0.6-0.9-0.8-1.4c-0.8-1.9,0.1-4.2,1.2-5.4c0.8-0.9,2-1.4,3.1-1.3c1,0.1,1.8,0.6,2.5,1.4c0.8,1.1,1.2,2.7,0.9,4.1
			c-0.4,1.8-1.6,3-2.7,4.2c-0.2,0.2-0.4,0.4-0.6,0.6c-0.1,0.1-0.1,0.1-0.2,0.2c0,1-0.3,2-1,2.9c-0.1,0.2-0.3,0.4-0.4,0.6
			c1.2,0.9,2.6,1.5,4.2,2.2c1,0.4,2.1,0.8,3.1,1.4c3.4,1.8,6.1,5,7.9,7.4c1,1.3,2.1,3.4,1.7,5.7C28.5,38.4,24.3,40.2,20.4,40.2z
			 M4,10c-0.5,1.3-0.6,2.7-0.2,3.9c0.5,1.6,1.8,2.9,3.3,3.2c0.5,0.1,1,0.1,1.4,0c-0.4-0.7-0.8-1.4-1.1-2.2c-0.3-0.7-0.6-1.3-1-1.9
			C5.8,11.9,5,11,4,10z M13.6,6.3c-0.4,0-0.8,0.2-1.1,0.5c-0.7,0.7-1,2-0.7,2.8c0.1,0.3,0.3,0.6,0.6,0.9c0.1,0.2,0.2,0.3,0.4,0.5
			c0.1,0.1,0.1,0.2,0.2,0.3c0.8-0.8,1.6-1.7,1.8-2.6c0.1-0.7,0-1.6-0.4-2.1C14,6.3,13.8,6.3,13.6,6.3C13.6,6.3,13.6,6.3,13.6,6.3z
			 M2.8,3C2.5,3,2.3,3.1,2.1,3.3c-0.3,0.3-0.2,1,0.1,1.6c0.3,0.4,0.7,0.8,1.1,1.2c0.3-0.5,0.5-1,0.6-1.5C4,4,3.7,3.4,3.3,3.1
			C3.1,3.1,3,3,2.8,3z"/>
	</g>
</g>
<g id="LSV">
	<g>
		<defs>
			<rect id="SVGID_3_" width="40" height="40"/>
		</defs>
		<clipPath id="SVGID_4_">
			<use xlink:href="#SVGID_3_"  style="overflow:visible;"/>
		</clipPath>
		<g class="st3">
			<line class="st4" x1="23" y1="7.2" x2="21.5" y2="5.8"/>
			<ellipse transform="matrix(0.7071 -0.7071 0.7071 0.7071 2.4026 16.3441)" class="st5" cx="20.9" cy="5.3" rx="1.8" ry="1"/>
			<line class="st4" x1="31.5" y1="3.1" x2="31.9" y2="1.1"/>
			<ellipse transform="matrix(0.2234 -0.9747 0.9747 0.2234 24.5059 31.5439)" class="st5" cx="32" cy="0.4" rx="1" ry="1.8"/>
			<line class="st4" x1="38.3" y1="14" x2="40.3" y2="14.2"/>
			<ellipse transform="matrix(0.1221 -0.9925 0.9925 0.1221 21.9055 53.2803)" class="st5" cx="41.1" cy="14.3" rx="1.8" ry="1"/>
			<line class="st4" x1="18.6" y1="16.6" x2="16.5" y2="16.7"/>
			
				<ellipse transform="matrix(1 -2.003287e-03 2.003287e-03 1 -3.344246e-02 3.166639e-02)" class="st5" cx="15.8" cy="16.7" rx="1" ry="1.8"/>
			<line class="st4" x1="36.5" y1="21" x2="38.3" y2="21.9"/>
			<ellipse transform="matrix(0.4973 -0.8676 0.8676 0.4973 0.2717 45.0281)" class="st5" cx="39" cy="22.3" rx="1.8" ry="1"/>
			<line class="st4" x1="28.7" y1="26.3" x2="28.7" y2="28.3"/>
			
				<ellipse transform="matrix(2.933202e-02 -0.9996 0.9996 2.933202e-02 -1.2092 56.8433)" class="st5" cx="28.7" cy="29" rx="1" ry="1.8"/>
			<line class="st4" x1="21.9" y1="23.7" x2="20.6" y2="25.3"/>
			<ellipse transform="matrix(0.646 -0.7633 0.7633 0.646 -12.6021 24.558)" class="st5" cx="20.2" cy="25.9" rx="1" ry="1.8"/>
			<line class="st4" x1="37.3" y1="9" x2="39.1" y2="8.1"/>
			<ellipse transform="matrix(0.9184 -0.3956 0.3956 0.9184 0.1642 16.3832)" class="st5" cx="39.8" cy="7.8" rx="1" ry="1.8"/>
			<path class="st6" d="M24.6,5.9c0.3-0.2,0.5-0.4,0.8-0.7c1-0.9,1.9-2,3.2-2.3c1.9-0.5,5.6,0.7,6.6,2.4c1.1,2,2.3,4,2.8,6.2
				c0.4,1.9,0.2,3.9-0.3,5.7c-0.5,1.7-0.8,3.7-1.8,5.1C34.7,24,32,25.6,30,26c-2.3,0.5-4.7,0.1-6.6-1.3c-1-0.7-1.9-1.5-2.6-2.4
				c-1.2-1.5-2.1-4.2-2.2-6.1c-0.1-1,0.2-2,0.4-2.9c0.6-2.2,1.4-3.8,3-5.4C22.8,7.2,23.7,6.6,24.6,5.9z"/>
			<path class="st7" d="M25.3,7.4c0.2-0.2,0.4-0.4,0.6-0.6c0.8-0.8,1.6-1.7,2.7-1.9c1.6-0.4,4.6,0.5,5.5,2C35,8.5,36,10.2,36.4,12
				c0.4,1.6,0.2,3.2-0.3,4.7c-0.4,1.4-0.6,3-1.5,4.2c-1,1.3-3.2,2.7-4.9,3.1c-1.9,0.4-3.9,0.1-5.5-1.1c-0.8-0.6-1.6-1.2-2.2-2
				c-1-1.3-1.7-3.4-1.9-5c-0.1-0.8,0.1-1.6,0.3-2.4c0.5-1.8,1.1-3.2,2.5-4.4C23.8,8.5,24.6,8,25.3,7.4z"/>
		</g>
	</g>
</g>
<g id="dna_1_">
	<g>
		<defs>
			<rect id="SVGID_5_" width="40" height="40"/>
		</defs>
		<clipPath id="SVGID_6_">
			<use xlink:href="#SVGID_5_"  style="overflow:visible;"/>
		</clipPath>
		<g class="st8">
			<g>
				<path class="st9" d="M21.9,42.8c-0.3-1.3-0.6-2.3-0.1-4c0.1-0.4,0.3-0.8,0.5-1.2c0.2-0.3,0.5-0.6,0.7-0.8
					c1.1-0.9,2.2-1.4,3.2-1.7c1.3-0.3,2.6-0.6,3.9-0.9c1.2-0.3,2.5-0.6,3.7-1.5c0.3-0.2,0.6-0.4,0.8-0.7c0.6-0.6,0.9-1.4,1.2-2.2
					c0.1-0.2,0.1-0.4,0.2-0.6c0-0.1,0-0.3,0-0.4c-0.1-1.7-0.3-3.2-0.7-4.7c-0.4-1.6-1.1-3-1-5c0-0.7,0.2-1.4,0.5-2.2
					c0.9-1.8,2.9-2.7,4.1-3c1.7-0.5,3.3-0.7,4.9-1.1c0.6-0.2,1.3-0.3,2-0.7s1.5-1.2,2-2c0.3-0.5,0.8-1.5,0.6-2"/>
				<path class="st9" d="M20.8,42.1c2.1-0.7,4-1.1,6.1-1.6c1.3-0.3,2.3-0.6,3.6-1.8c0.3-0.3,0.6-0.6,0.8-1c0.2-0.3,0.3-0.7,0.4-1
					c0.3-1.4,0.3-2.6,0-3.6c-0.3-1.3-0.6-2.6-0.9-3.9c-0.3-1.2-0.6-2.5-0.4-4c0-0.3,0.1-0.7,0.3-1.1c0.3-0.8,0.8-1.5,1.4-2.1
					c0.1-0.1,0.3-0.3,0.4-0.4c0.1-0.1,0.2-0.1,0.4-0.2c1.5-0.7,3-1.2,4.5-1.5c1.6-0.4,3.1-0.4,4.9-1.4c0.6-0.3,1.2-0.8,1.7-1.5
					c1.2-1.6,1-3.8,0.8-5c-0.3-1.7-0.9-3.2-1.3-4.8c-0.4-0.6-0.5-1.3-0.5-2c0-0.8,0.3-1.9,0.9-2.7c0.4-0.5,1-1.4,1.5-1.4"/>
			</g>
			<line class="st10" x1="21.7" y1="39.4" x2="24.6" y2="41.2"/>
			<line class="st10" x1="23" y1="36.9" x2="28.1" y2="40"/>
			<line class="st10" x1="25.3" y1="35.5" x2="30.5" y2="38.6"/>
			<line class="st10" x1="28.7" y1="34.6" x2="31.7" y2="36.4"/>
			<line class="st10" x1="31.3" y1="31" x2="34" y2="32.7"/>
			<line class="st10" x1="30.4" y1="27.8" x2="35.4" y2="30.9"/>
			<line class="st10" x1="30.5" y1="24.6" x2="35.9" y2="27.9"/>
			<line class="st10" x1="31.7" y1="22.5" x2="35.4" y2="24.8"/>
			<line class="st10" x1="34.5" y1="18.4" x2="37.2" y2="20.1"/>
			<line class="st10" x1="35.6" y1="16.1" x2="40.9" y2="19.3"/>
			<line class="st10" x1="37.9" y1="14.5" x2="43.2" y2="17.7"/>
			<line class="st10" x1="41.2" y1="13.5" x2="44.5" y2="15.6"/>
			<line class="st10" x1="44.1" y1="10.1" x2="46.7" y2="11.7"/>
			<line class="st10" x1="43.2" y1="6.8" x2="48.2" y2="9.9"/>
		</g>
	</g>
</g>
</svg>
