<?xml version="1.0" encoding="utf-8"?>
<!-- Generator: Adobe Illustrator 23.0.1, SVG Export Plug-In . SVG Version: 6.00 Build 0)  -->
<svg version="1.1" id="Layer_1" xmlns="http://www.w3.org/2000/svg" xmlns:xlink="http://www.w3.org/1999/xlink" x="0px" y="0px"
	 viewBox="0 0 40 40" style="enable-background:new 0 0 40 40;" xml:space="preserve">
<style type="text/css">
	.st0{clip-path:url(#ebola_rect_mask);fill:#F06292;}
	.st1{clip-path:url(#SVGID_4_);fill:#F8BBD0;}
	.st2{clip-path:url(#lassa_rect_mask);}
	.st3{fill:none;stroke:#41875E;stroke-miterlimit:10;}
	.st4{fill:#41875E;}
	.st5{fill:none;stroke:#41875E;stroke-width:0.5;stroke-miterlimit:10;}
	.st6{fill:#B4EEC9;stroke:#70B78B;stroke-width:1.25;stroke-miterlimit:10;}
	.st7{clip-path:url(#dna_rect_mask);}
	.st8{fill:none;stroke:#484D51;stroke-width:0.75;stroke-miterlimit:10;}
	.st9{fill:none;stroke:#484D51;stroke-width:0.4;stroke-miterlimit:10;}
</style>
<g id="ebola">
	<g>
		<g>
			<defs>
				<rect id="ebola_rect" x="0" y="0" width="40" height="40"/>
			</defs>
			<clipPath id="ebola_rect_mask">
				<use xlink:href="#ebola_rect"  style="overflow:visible;"/>
			</clipPath>
			<path class="st0" d="M10.1,34.3c-0.3-2.1,0.4-4.2,1.9-6.3c1.7-2.4,4.6-5.7,8.1-7.6c1.1-0.5,2.2-1,3.2-1.4c1.2-0.5,2.4-1,3.4-1.6
				c-0.7-0.9-1-1.9-1.1-2.9l0,0c-0.2-0.2-0.4-0.4-0.6-0.6c-1.1-1.1-2.5-2.5-2.9-4.5c-0.4-1.6,0-3.4,1-4.7c0.7-1,1.8-1.6,3-1.7
				c1.3-0.1,2.7,0.5,3.7,1.5c1.3,1.4,2.2,3.8,1.4,6c0.7-1,1.5-2,2.5-2.9c-0.4-0.8-0.8-1.7-0.9-2.7c-0.2-1.9,0.8-3.7,2.3-4.5
				c1.8-1.1,4.2-0.6,5.4,1c1,1.4,1,3.5,0,5.2c-0.5,0.7-1,1.3-1.7,1.9c0.9,2.1,1,4.4,0.4,6.4c-0.9,2.8-3.1,4.9-5.8,5.4
				c-1.2,0.3-2.4,0.2-3.5-0.2c-1.6,1.3-3.4,2.1-5.2,2.8c-1,0.4-2,0.7-2.8,1.2c-2.9,1.5-5.3,4.3-6.8,6.4c-0.5,0.7-1.3,2-1.1,3.3
				c0.4,2.5,3.7,3.3,5.9,3.2c2.7-0.1,5.7-1,9-2.7c1.2-0.7,2.3-1.4,3.3-2.2c0.7-0.5,1.2-1.2,1.8-2c0.2-0.4,0.5-0.7,0.8-1.1
				c0.7-0.9,2-1,2.8-0.2c0.8,0.7,1,1.9,0.3,2.8c-0.2,0.4-0.5,0.7-0.7,1c-0.7,0.9-1.4,1.8-2.4,2.7c-1.2,1-2.5,1.8-4,2.6
				c-3.8,1.9-7.4,3-10.7,3.1c-0.2,0-0.3,0-0.5,0C15.4,41,10.8,38.9,10.1,34.3z M34.2,13.3c-0.4,0.6-0.7,1.2-1,1.9
				c-0.1,0.4-0.3,0.7-0.5,1.1c1.2-0.2,2.3-1.3,2.8-2.6c0.2-0.7,0.2-1.4,0.1-2.2C35,12.1,34.6,12.7,34.2,13.3z M30,12.8
				c-0.2,0.2-0.3,0.4-0.3,0.6C29.8,13.2,29.9,13,30,12.8L30,12.8z M26.4,7c-0.2,0.1-0.5,0.9-0.5,1.5c0.1,0.6,0.4,1.1,0.9,1.6
				c0.1,0,0.1-0.1,0.1-0.1c0.2-0.2,0.4-0.5,0.5-0.7c0.2-0.5,0-1.5-0.5-2C26.7,7.1,26.5,7,26.4,7L26.4,7z M37.1,3.8
				c-0.2,0.1-0.3,0.4-0.3,0.7c0,0.1,0.1,0.2,0.1,0.3C37,4.7,37,4.6,37.1,4.5c0.2-0.4,0.2-0.7,0.2-0.7h-0.1
				C37.2,3.8,37.1,3.8,37.1,3.8z"/>
		</g>
		<g>
			<defs>
				<rect id="SVGID_3_" x="0" y="0" width="40" height="40"/>
			</defs>
			<clipPath id="SVGID_4_">
				<use xlink:href="#SVGID_3_"  style="overflow:visible;"/>
			</clipPath>
			<path class="st1" d="M10.7,34.6c-0.4-2.3,0.7-4.4,1.7-5.7c1.8-2.4,4.5-5.6,7.9-7.4c1-0.6,2.1-1,3.1-1.4c1.6-0.7,3-1.3,4.2-2.2
				c-0.1-0.2-0.3-0.4-0.4-0.6c-0.7-0.9-1-1.9-1-2.9c-0.1-0.1-0.1-0.1-0.2-0.2c-0.2-0.2-0.4-0.4-0.6-0.6c-1.1-1.2-2.3-2.4-2.7-4.2
				c-0.3-1.4,0.1-3,0.9-4.1c0.7-0.8,1.5-1.3,2.5-1.4c1.1-0.1,2.3,0.4,3.1,1.3c1.1,1.2,2,3.5,1.2,5.4c-0.2,0.5-0.5,1-0.8,1.4
				c-0.1,0.1-0.2,0.3-0.3,0.4c-1,1.5-0.3,2.8,0,3.3l0,0c0.4-0.6,0.7-1.3,1-1.9c0.3-0.7,0.7-1.4,1.1-2.1c0.8-1.4,1.9-2.7,3.3-4
				c-0.5-0.8-1-1.8-1.1-2.9c-0.2-1.5,0.6-3.1,1.9-3.8c1.4-0.9,3.4-0.5,4.4,0.8c1,1.4,0.7,3.2,0,4.4c-0.5,0.8-1.3,1.5-1.9,2
				c1,2.1,1.2,4.4,0.6,6.4c-0.8,2.5-2.8,4.4-5.2,4.9c-1.3,0.2-2.5,0.1-3.6-0.4c-1.5,1.5-3.4,2.2-5.3,3c-1,0.4-1.9,0.8-2.8,1.3
				c-3,1.6-5.4,4.5-7,6.6c-0.7,1-1.5,2.4-1.3,3.9c0.4,3.3,4.5,4,6.6,3.9c2.8-0.2,5.9-1.1,9.3-2.8c1.2-0.6,2.4-1.4,3.4-2.2
				c0.8-0.6,1.3-1.4,1.9-2.2c0.3-0.4,0.5-0.7,0.8-1.1c0.5-0.5,1.3-0.6,1.8-0.2c0.5,0.5,0.6,1.3,0.2,1.8c-0.2,0.3-0.5,0.7-0.7,1
				c-0.7,0.9-1.3,1.8-2.3,2.6c-1.2,0.9-2.5,1.8-3.9,2.5c-3.7,1.9-7.2,2.9-10.4,3c-0.2,0-0.3,0-0.5,0C15.7,40.2,11.5,38.4,10.7,34.6z
				 M33.6,13c-0.4,0.6-0.7,1.2-1,1.9c-0.3,0.8-0.7,1.5-1.1,2.2c0.4,0.1,0.9,0.1,1.4,0c1.5-0.3,2.8-1.6,3.3-3.2
				c0.4-1.2,0.3-2.6-0.2-3.9C35,11,34.2,11.9,33.6,13z M26.4,6.3c-0.2,0-0.4,0-0.8,0.3c-0.4,0.5-0.5,1.4-0.4,2.1
				c0.2,0.9,1,1.8,1.8,2.6c0.1-0.1,0.1-0.2,0.2-0.3c0.2-0.2,0.3-0.3,0.4-0.5c0.3-0.3,0.5-0.6,0.6-0.9c0.3-0.8,0-2.1-0.7-2.8
				C27.2,6.5,26.8,6.3,26.4,6.3L26.4,6.3z M36.7,3.1C36.3,3.4,36,4,36.1,4.6c0.1,0.5,0.3,1,0.6,1.5c0.4-0.4,0.8-0.8,1.1-1.2
				c0.3-0.6,0.4-1.3,0.1-1.6C37.7,3.1,37.5,3,37.2,3C37,3,36.9,3.1,36.7,3.1z"/>
		</g>
	</g>
</g>
<g id="lassa">
	<g>
		<g>
			<defs>
				<rect id="lassa_rect" x="0" y="0" width="40" height="40"/>
			</defs>
			<clipPath id="lassa_rect_mask">
				<use xlink:href="#lassa_rect"  style="overflow:visible;"/>
			</clipPath>
			<g class="st2">
				<line class="st3" x1="18.5" y1="5.8" x2="17" y2="7.2"/>
				<ellipse transform="matrix(0.7071 -0.7071 0.7071 0.7071 1.8288 15.0417)" class="st4" cx="19.1" cy="5.3" rx="1" ry="1.8"/>
				<line class="st3" x1="8.1" y1="1.1" x2="8.5" y2="3.1"/>
				<ellipse transform="matrix(0.9747 -0.2234 0.2234 0.9747 0.1021 1.7885)" class="st4" cx="8" cy="0.4" rx="1.8" ry="1"/>
				<line class="st3" x1="-0.3" y1="14.2" x2="1.7" y2="14"/>

					<ellipse transform="matrix(0.9925 -0.1221 0.1221 0.9925 -1.7464 -2.982475e-02)" class="st4" cx="-1.1" cy="14.2" rx="1" ry="1.8"/>
				<line class="st3" x1="23.5" y1="16.7" x2="21.4" y2="16.6"/>
				<ellipse transform="matrix(2.003177e-03 -1 1 2.003177e-03 7.4515 40.8665)" class="st4" cx="24.2" cy="16.7" rx="1.8" ry="1"/>
				<line class="st3" x1="1.7" y1="21.9" x2="3.5" y2="21"/>
				<ellipse transform="matrix(0.8676 -0.4973 0.4973 0.8676 -10.9498 3.4408)" class="st4" cx="1" cy="22.3" rx="1" ry="1.8"/>
				<line class="st3" x1="11.3" y1="28.3" x2="11.3" y2="26.3"/>

					<ellipse transform="matrix(0.9996 -2.933113e-02 2.933113e-02 0.9996 -0.8459 0.3462)" class="st4" cx="11.4" cy="29" rx="1.8" ry="1"/>
				<line class="st3" x1="19.4" y1="25.3" x2="18.1" y2="23.7"/>
				<ellipse transform="matrix(0.7633 -0.646 0.646 0.7633 -12.0307 18.9035)" class="st4" cx="19.8" cy="25.9" rx="1.8" ry="1"/>
				<line class="st3" x1="0.9" y1="8.1" x2="2.7" y2="9"/>
				<ellipse transform="matrix(0.3956 -0.9184 0.9184 0.3956 -7.0458 4.897)" class="st4" cx="0.2" cy="7.8" rx="1.8" ry="1"/>
				<path class="st5" d="M18,7.9c1.6,1.6,2.4,3.2,3,5.4c0.2,0.9,0.5,1.9,0.4,2.9c-0.1,1.9-1,4.6-2.2,6.1c-0.7,0.9-1.6,1.7-2.6,2.4
					c-1.9,1.4-4.3,1.8-6.6,1.3c-2-0.4-4.7-2-5.9-3.7c-1-1.4-1.3-3.4-1.8-5.1c-0.5-1.8-0.7-3.8-0.3-5.7c0.5-2.2,1.7-4.2,2.8-6.2
					c1-1.7,4.7-2.9,6.6-2.4c1.3,0.3,2.2,1.4,3.2,2.3c0.3,0.3,0.5,0.5,0.8,0.7C16.3,6.6,17.2,7.2,18,7.9z"/>
				<path class="st6" d="M17.1,9.1c1.4,1.2,2,2.6,2.5,4.4c0.2,0.8,0.4,1.6,0.3,2.4c-0.2,1.6-0.9,3.7-1.9,5c-0.6,0.8-1.4,1.4-2.2,2
					c-1.6,1.2-3.6,1.5-5.5,1.1c-1.7-0.4-3.9-1.8-4.9-3.1c-0.9-1.2-1.1-2.8-1.5-4.2c-0.5-1.5-0.7-3.1-0.3-4.7C4,10.2,5,8.5,5.9,6.9
					c0.9-1.5,3.9-2.4,5.5-2c1.1,0.2,1.9,1.1,2.7,1.9c0.2,0.2,0.4,0.4,0.6,0.6C15.4,8,16.2,8.5,17.1,9.1z"/>
			</g>
		</g>
	</g>
</g>
<g id="dna_1_">
	<g>
		<g>
			<defs>
				<rect id="dna_rect" width="40" height="40"/>
			</defs>
			<clipPath id="dna_rect_mask">
				<use xlink:href="#dna_rect"  style="overflow:visible;"/>
			</clipPath>
			<g class="st7">
				<g>
					<path class="st8" d="M21.9,42.8c-0.3-1.3-0.6-2.3-0.1-4c0.1-0.4,0.3-0.8,0.5-1.2c0.2-0.3,0.5-0.6,0.7-0.8
						c1.1-0.9,2.2-1.4,3.2-1.7c1.3-0.3,2.6-0.6,3.9-0.9c1.2-0.3,2.5-0.6,3.7-1.5c0.3-0.2,0.6-0.4,0.8-0.7c0.6-0.6,0.9-1.4,1.2-2.2
						c0.1-0.2,0.1-0.4,0.2-0.6c0-0.1,0-0.3,0-0.4c-0.1-1.7-0.3-3.2-0.7-4.7c-0.4-1.6-1.1-3-1-5c0-0.7,0.2-1.4,0.5-2.2
						c0.9-1.8,2.9-2.7,4.1-3c1.7-0.5,3.3-0.7,4.9-1.1c0.6-0.2,1.3-0.3,2-0.7s1.5-1.2,2-2c0.3-0.5,0.8-1.5,0.6-2"/>
					<path class="st8" d="M20.8,42.1c2.1-0.7,4-1.1,6.1-1.6c1.3-0.3,2.3-0.6,3.6-1.8c0.3-0.3,0.6-0.6,0.8-1c0.2-0.3,0.3-0.7,0.4-1
						c0.3-1.4,0.3-2.6,0-3.6c-0.3-1.3-0.6-2.6-0.9-3.9c-0.3-1.2-0.6-2.5-0.4-4c0-0.3,0.1-0.7,0.3-1.1c0.3-0.8,0.8-1.5,1.4-2.1
						c0.1-0.1,0.3-0.3,0.4-0.4c0.1-0.1,0.2-0.1,0.4-0.2c1.5-0.7,3-1.2,4.5-1.5c1.6-0.4,3.1-0.4,4.9-1.4c0.6-0.3,1.2-0.8,1.7-1.5
						c1.2-1.6,1-3.8,0.8-5c-0.3-1.7-0.9-3.2-1.3-4.8c-0.4-0.6-0.5-1.3-0.5-2c0-0.8,0.3-1.9,0.9-2.7c0.4-0.5,1-1.4,1.5-1.4"/>
				</g>
				<line class="st9" x1="21.7" y1="39.4" x2="24.6" y2="41.2"/>
				<line class="st9" x1="23" y1="36.9" x2="28.1" y2="40"/>
				<line class="st9" x1="25.3" y1="35.5" x2="30.5" y2="38.6"/>
				<line class="st9" x1="28.7" y1="34.6" x2="31.7" y2="36.4"/>
				<line class="st9" x1="31.3" y1="31" x2="34" y2="32.7"/>
				<line class="st9" x1="30.4" y1="27.8" x2="35.4" y2="30.9"/>
				<line class="st9" x1="30.5" y1="24.6" x2="35.9" y2="27.9"/>
				<line class="st9" x1="31.7" y1="22.5" x2="35.4" y2="24.8"/>
				<line class="st9" x1="34.5" y1="18.4" x2="37.2" y2="20.1"/>
				<line class="st9" x1="35.6" y1="16.1" x2="40.9" y2="19.3"/>
				<line class="st9" x1="37.9" y1="14.5" x2="43.2" y2="17.7"/>
				<line class="st9" x1="41.2" y1="13.5" x2="44.5" y2="15.6"/>
				<line class="st9" x1="44.1" y1="10.1" x2="46.7" y2="11.7"/>
				<line class="st9" x1="43.2" y1="6.8" x2="48.2" y2="9.9"/>
			</g>
		</g>
	</g>
</g>
</svg>
