<?xml version="1.0" encoding="utf-8"?>
<!-- Generator: Adobe Illustrator 23.1.1, SVG Export Plug-In . SVG Version: 6.00 Build 0)  -->
<svg version="1.1" xmlns="http://www.w3.org/2000/svg" xmlns:xlink="http://www.w3.org/1999/xlink" x="0px" y="0px"
	 viewBox="0 0 40 40" style="enable-background:new 0 0 40 40;" xml:space="preserve">
<style type="text/css">
	.st0{fill:#FADCFF;}
	.st1{display:none;}
	.st2{display:inline;}
	.st3{fill:#510860;}
	.st4{fill:#F4F4F4;}
	.st5{fill:#BAC0C5;}
	.st6{fill:#C2185B;}
	.st7{fill:none;stroke:#5D6267;stroke-width:0.75;stroke-miterlimit:10;}
	.st8{fill:none;stroke:#5D6267;stroke-width:0.8336;stroke-miterlimit:10;}
	.st9{fill:#A2A8AC;stroke:#484D51;stroke-width:0.5;stroke-miterlimit:10;}
	.st10{fill:#C2185B;stroke:#C21E5C;stroke-miterlimit:10;}
	.st11{fill:#BAC0C5;stroke:#484D51;stroke-width:0.4864;stroke-miterlimit:10;}
	.st12{fill:#484D51;}
	.st13{fill:none;stroke:#BAC0C5;stroke-width:0.75;stroke-miterlimit:10;}
	.st14{fill:#5D6267;}
	.st15{fill:#7C123D;}
	.st16{fill-rule:evenodd;clip-rule:evenodd;fill:#212529;}
	.st17{clip-path:url(#SVGID_2_);}
	.st18{display:inline;fill:none;stroke:#212529;stroke-width:1.5;stroke-miterlimit:10;}
</style>
<g id="background">
	<rect class="st0" width="40" height="40"/>
</g>
<g id="thermometer" class="st1">
	<g class="st2">
		<g>
			<path class="st3" d="M38.1,8.9c-0.2-0.1-0.5-0.2-0.8-0.2c-1.8-0.2-3.4,1-4.7,2c-0.9,0.7-1.7,1.5-2.6,2.3c0.1-0.1,0.3-0.1,0.4-0.2
				c1.5-0.5,3.5-0.4,4.5,1.1c0.7,1,0.5,2.1,0.2,3.1c-0.1,0.4-0.2,0.7-0.4,1.1c1.1-1.2,2-2.4,2.9-3.7c0.7-1,1.2-2.1,1.4-3.4
				c0-0.2,0.1-0.5,0-0.7C39.1,9.7,38.7,9.1,38.1,8.9z"/>
			<path class="st3" d="M19.4,28.8c-0.2-0.2-0.4-0.5-0.4-0.9c0-0.3,0-0.6,0.1-0.9c0.2-0.8,0.6-1.4,0.9-2.2c0,0,0-0.1,0-0.1
				c-0.2,0.2-0.3,0.4-0.5,0.7c0,0-5.1,7.1-5.2,7.3c-1.1,1.5-2.5,2.8-3.8,4.2c-0.4,0.4-0.7,0.7-1,1.1c-0.4,0.4-1.4,1.3-0.3,1.6
				c0.5,0.1,4.7-4.2,7.2-6.3c2-1.7,4.1-3.3,6.2-4.8c-0.5,0.2-0.9,0.4-1.4,0.5C20.6,29.1,19.9,29.2,19.4,28.8z"/>
			<path class="st4" d="M35,13.9c-1-1.5-2.9-1.6-4.5-1.1c-0.2,0.1-0.3,0.1-0.4,0.2c-0.6,0.5-1.1,1-1.6,1.6
				c-3.1,3.2-5.8,6.6-8.4,10.2c0,0,0,0.1,0,0.1c-0.2,0.8-0.6,1.4-0.9,2.2c-0.1,0.3-0.2,0.6-0.1,0.9c0,0.3,0.1,0.6,0.4,0.9
				c0.5,0.4,1.2,0.3,1.8,0.1c0.5-0.2,1-0.3,1.4-0.5c0.5-0.4,1.1-0.8,1.6-1.2c3.7-2.6,7.5-5.6,10.5-9.1c0.1-0.4,0.3-0.7,0.4-1.1
				C35.5,15.9,35.6,14.8,35,13.9z"/>
		</g>
		<g>
			<path class="st5" d="M30.9,18.5c0.2,0.2,0.2,0.6,0,0.9L26.3,24c-0.2,0.2-0.6,0.2-0.9,0L24,22.6c-0.2-0.2-0.2-0.6,0-0.9l4.6-4.6
				c0.2-0.2,0.6-0.2,0.9,0L30.9,18.5z"/>
		</g>
		<circle class="st3" cx="32.2" cy="15.8" r="0.8"/>
		<g>
			<path class="st5" d="M10.6,36.9c-0.4,0.4-0.7,0.7-1,1.1c-0.4,0.4-1.4,1.3-0.3,1.6c0.2,0,1.1-0.7,2.2-1.8L11,37.3L10.6,36.9z"/>
		</g>
	</g>
</g>
<g id="thermometer_copy" class="st1">
	<g class="st2">
		<g>
			<path class="st6" d="M2.3,4.4c0.2-0.1,0.4-0.1,0.6-0.2C4.4,4.1,5.7,5.1,6.8,6c0.7,0.6,1.4,1.2,2.1,1.9C8.8,7.8,8.7,7.7,8.6,7.7
				C7.3,7.2,5.7,7.4,4.9,8.6c-0.5,0.8-0.4,1.7-0.2,2.6c0.1,0.3,0.2,0.6,0.3,0.9c-0.9-1-1.7-2-2.4-3c-0.6-0.8-1-1.8-1.1-2.8
				c0-0.2-0.1-0.4,0-0.6C1.5,5.1,1.8,4.7,2.3,4.4z"/>
			<path class="st6" d="M17.7,20.9c0.2-0.2,0.3-0.4,0.3-0.7c0-0.3,0-0.5-0.1-0.8c-0.2-0.6-0.5-1.2-0.7-1.8c0,0,0-0.1,0-0.1
				c0.1,0.2,0.3,0.4,0.4,0.5c0,0,4.2,5.9,4.3,6c0.9,1.2,2,2.3,3.1,3.4c0.3,0.3,0.6,0.6,0.9,0.9c0.3,0.4,1.1,1.1,0.2,1.3
				c-0.4,0.1-3.9-3.5-5.9-5.2c-1.7-1.4-3.4-2.7-5.1-4c0.4,0.2,0.8,0.3,1.2,0.4C16.7,21.1,17.3,21.2,17.7,20.9z"/>
			<path class="st4" d="M4.9,8.6c0.8-1.2,2.4-1.3,3.7-0.9c0.1,0,0.2,0.1,0.4,0.1c0.5,0.4,0.9,0.9,1.3,1.3c2.6,2.6,4.8,5.5,6.9,8.4
				c0,0,0,0.1,0,0.1c0.2,0.6,0.5,1.2,0.7,1.8c0.1,0.3,0.1,0.5,0.1,0.8c0,0.3-0.1,0.5-0.3,0.7c-0.4,0.3-1,0.2-1.5,0.1
				c-0.4-0.1-0.8-0.3-1.2-0.4c-0.4-0.3-0.9-0.6-1.4-1c-3.1-2.1-6.1-4.6-8.7-7.5c-0.1-0.3-0.2-0.6-0.3-0.9C4.5,10.3,4.4,9.4,4.9,8.6z
				"/>
		</g>
		<g>
			<path class="st5" d="M8.2,12.4c-0.2,0.2-0.2,0.5,0,0.7l3.8,3.8c0.2,0.2,0.5,0.2,0.7,0l1.2-1.2c0.2-0.2,0.2-0.5,0-0.7l-3.8-3.8
				c-0.2-0.2-0.5-0.2-0.7,0L8.2,12.4z"/>
		</g>
		<circle class="st6" cx="7.2" cy="10.1" r="0.6"/>
		<g>
			<path class="st5" d="M25,27.5c0.3,0.3,0.6,0.6,0.9,0.9c0.3,0.4,1.1,1.1,0.2,1.3c-0.2,0-0.9-0.6-1.8-1.5l0.4-0.3L25,27.5z"/>
		</g>
	</g>
</g>
<g id="stethoscope">
	<path class="st7" d="M33.3,16c2.2-2.4,4.9-5.1,5.5-8.4c0.2-1.2-0.2-2.3-1.2-2.9c-0.7-0.5-1.5-0.7-2.4-1"/>
	<path class="st8" d="M21.6,13.3l0-0.5c0.1-1.8,0.3-3.6,0.7-5.4c0.2-1.1,0.5-2.3,1.3-3.3c0.4-0.5,0.9-0.9,1.6-1.2
		c0.7-0.3,1.5-0.4,2.2-0.6"/>
	<path class="st9" d="M26,35.7c-0.6,0.4-1.1,0.9-0.9,1.8c0.2,0.9,1.3,1.4,2,1.7c0.8,0.3,1.8,0.4,2.7,0.3c0.2,0,0.4,0,0.6-0.1
		c0.6-0.2,1.3-0.6,1.4-1.3c0.1-0.6-0.4-1.2-0.8-1.7c-0.1-0.1-0.1-0.2-0.2-0.2c-0.1,0-0.1,0-0.2-0.1c-0.8-0.2-1.6-0.4-2.4-0.6
		c-0.3-0.1-0.6-0.2-0.9-0.2c-0.1,0-0.3-0.1-0.4-0.1C26.6,35.3,26.3,35.5,26,35.7z"/>
	<g>
		<path class="st10" d="M24.8,21.6c0.2-0.2,0.3-0.4,0.6-0.5c0.1,0,0.2,0,0.4,0c0.4,0,0.9,0,1.3-0.1c0.6-0.1,1-0.2,1.5-0.5
			c1-0.5,1.9-1.1,2.7-1.8c0.9-0.8,1.8-1.7,2.6-2.6c0.1-0.1,0.1-0.1,0.1-0.2c0-0.3-0.6-0.6-0.9-0.7c-0.2,0-0.4,0.2-0.5,0.3
			c-0.2,0.2-0.4,0.3-0.5,0.5c-0.7,0.7-1.4,1.4-2.1,2c-0.7,0.6-1.5,1.1-2.4,1.5c-1,0.4-2.3,0.6-3.4,0.1c-1.2-0.5-1.8-1.7-2-2.7
			s0.1-2.1,0.1-3.2c0-0.1,0.1-0.3,0.1-0.4c0-0.1-0.1-0.3-0.1-0.4c0,0,0-0.1,0-0.1c-0.1-0.2-0.6-0.2-0.8-0.1c-0.1,0-0.1,0-0.2,0
			c0,0-0.1,0-0.1,0c-0.3,0.1-0.2,0.5-0.3,0.7c-0.1,0.6-0.1,1.3-0.1,1.9c-0.1,1.3,0,2.7,0.9,3.8c0.2,0.3,0.5,0.6,0.9,0.8
			c0.3,0.2,0.2,0.4,0.1,0.7c-0.1,0.3-0.2,0.7-0.3,1c-0.1,0.2-0.1,0.5-0.2,0.7c-0.1,0.2-0.1,0.5-0.2,0.6c-0.5-0.2-1-0.6-1.5-0.9
			c-0.5-0.3-1.1-0.5-1.6-0.6c-1.1-0.4-2.3-0.6-3.5-0.6c-2.3-0.1-4.9,0.4-6.8,1.4C7.1,23.2,6,24.3,5,25.3c-0.4,0.4-0.9,0.8-1.2,1.3
			c-0.3,0.5-0.5,1.1-0.7,1.7c-0.6,2.1-0.6,4.4,1.4,6.2c1,0.9,2.3,1.6,3.7,1.8c3.2,0.6,6.2-0.7,8.1-2.4c0,0,0.1,0,0.1-0.1
			c2.5-2.3,4.3-5.2,5.8-8c0.1-0.2,0.2-0.3,0.3-0.5c0.6,0.3,1.1,1.2,1.4,1.6c0.4,0.6,0.7,1.2,1.1,1.8c0.4,0.9,0.8,1.8,1.1,2.7
			c0.3,0.9,0.4,1.8,0.9,2.7c0,0,0,0.1,0.1,0.1c0,0,0.1,0,0.1,0c0.3,0,0.6,0.1,0.9,0.1c0.1,0,0.2,0,0.3,0c0.2-0.1,0-0.4,0-0.6
			c-0.1-0.4-0.2-0.7-0.4-1.1c-0.5-1.5-1.1-3.1-1.9-4.5c-0.4-0.7-0.8-1.4-1.3-2.1c-0.3-0.3-0.5-0.7-0.8-1c-0.1-0.1-0.9-0.9-0.9-0.9
			c0.3-0.6,0.7-1.2,1.1-1.7C24.4,22.1,24.6,21.9,24.8,21.6z M21.2,24.6c-0.4,0.7-0.7,1.4-1.1,2c-0.8,1.3-1.6,2.6-2.6,3.9
			c-0.4,0.5-0.7,0.9-1.1,1.3c-0.2,0.3-0.5,0.6-0.7,0.8c-0.5,0.5-1.1,1-1.7,1.4c-0.9,0.6-1.9,0.9-3,1.1c-0.6,0.1-1.3,0.2-1.9,0.2
			c-0.8-0.1-1.5-0.3-2.2-0.6c-1.5-0.6-2.4-1.9-2.7-3.2c-0.2-0.8-0.1-1.5,0.1-2.2c0.2-0.7,0.4-1.3,0.7-2c0.7-1.2,1.7-2.3,3-3.2
			c0.5-0.3,1-0.6,1.5-0.8c2.9-1.3,6.6-1.5,9.9-0.2c0.4,0.2,0.8,0.4,1.2,0.6c0.2,0.1,0.3,0.2,0.5,0.3c0.2,0.1,0.2,0.1,0.3,0.2
			C21.3,24.4,21.3,24.5,21.2,24.6z"/>
	</g>
	<path class="st11" d="M27.4,34.4c0,0,0.1,0,0.1,0c1.1-0.2,2.7,0,3.2,1.2c0.2,0.4,0.1,0.9-0.3,1.1c-0.2,0.1-0.4,0.2-0.6,0.3
		c-0.7,0.3-1.5,0.2-2.2-0.1c-0.4-0.2-0.9-0.5-1.2-0.9c0-0.1-0.1-0.1-0.1-0.2c-0.1-0.2-0.1-0.5,0-0.8C26.7,34.7,27.1,34.5,27.4,34.4z
		"/>
	<path class="st12" d="M33.2,3.6c0.1-0.3,0.3-0.7,0.6-0.8c0.2-0.1,0.5-0.1,0.7-0.1c0.2,0,0.3,0.1,0.5,0.1c0.2,0,0.5,0,0.7,0.2
		c0.1,0.2,0.1,0.4,0,0.6c-0.1,0.3-0.2,1-0.6,1c-0.3,0-0.5,0-0.8,0c-0.3,0-0.6,0.1-0.9-0.1C33.2,4.4,33.1,4,33.2,3.6
		C33.2,3.6,33.2,3.6,33.2,3.6z"/>
	<path class="st12" d="M29.6,2.2c-0.1-0.3-0.2-0.7-0.5-0.8c-0.2-0.1-0.5-0.1-0.7-0.1c-0.2,0-0.4,0-0.5,0.1c-0.2,0-0.5,0-0.7,0.2
		c-0.1,0.2-0.1,0.4-0.1,0.6c0.1,0.3,0.2,1,0.5,1c0.3,0,0.5,0,0.8,0.1c0.3,0.1,0.6,0.1,0.9,0C29.6,3.1,29.7,2.7,29.6,2.2
		C29.6,2.3,29.6,2.3,29.6,2.2z"/>
</g>
<g id="stethoscope_copy" class="st1">
	<g class="st2">
		<path class="st13" d="M10.8,14.3C9.1,11.6,7,8.3,7,5c0-1.2,0.7-2.2,1.8-2.7C9.6,2,10.5,2,11.3,1.9"/>
		<path class="st13" d="M20.3,13.9l0.1-0.5c0.2-1.8,0.3-3.6,0.3-5.4c0-1.2-0.1-2.4-0.5-3.5c-0.2-0.6-0.6-1.1-1.1-1.5
			c-0.5-0.4-1.1-0.7-1.7-1"/>
		<path class="st9" d="M14.1,35c0.5,0.5,0.9,1.1,0.5,1.9c-0.4,0.8-1.5,1.1-2.3,1.2c-0.9,0.1-1.8,0-2.7-0.2c-0.2-0.1-0.4-0.1-0.6-0.2
			c-0.5-0.3-1.2-0.8-1.1-1.5c0-0.6,0.7-1.1,1.1-1.5c0.1-0.1,0.2-0.1,0.3-0.2c0.1,0,0.1,0,0.2,0c0.8,0,1.7-0.1,2.5-0.1
			c0.3,0,0.6,0,1,0c0.1,0,0.3-0.1,0.4,0C13.5,34.5,13.8,34.7,14.1,35z"/>
		<path class="st14" d="M15.9,1.4c-0.1,0.3,0,0.7,0.3,0.9c0.1,0.1,0.3,0.1,0.4,0.2c0.2,0.1,0.4,0.2,0.6,0.1c0.2,0,0.3-0.2,0.4-0.3
			c0.1-0.2,0.3-0.5,0.1-0.7c-0.1-0.2-0.4-0.2-0.6-0.3C16.9,1,16.7,0.9,16.3,1C16.2,1,16,1,16,1.1C15.9,1.2,15.9,1.3,15.9,1.4z"/>
		<path class="st14" d="M13,1.5C13,1.5,13,1.5,13,1.5c0.1,0.7-0.4,0.9-0.9,0.9c-0.1,0-0.2,0-0.4-0.1c-0.2-0.1-0.5,0-0.7,0
			c-0.1,0-0.1,0-0.1-0.1c0-0.2,0-0.5,0-0.7c0-0.1,0-0.4,0.1-0.4c0,0,0.5,0,0.7-0.1C11.7,1,11.8,1,11.9,0.9C12.3,0.8,12.9,1.1,13,1.5
			z"/>
		<g>
			<path class="st15" d="M16.8,22.3c0.2,0.6,0.4,1.2,0.6,1.9c0,0.1-0.7,0.6-0.8,0.7c-0.3,0.3-0.5,0.5-0.8,0.8
				c-0.5,0.6-0.9,1.2-1.3,1.8c-0.9,1.3-1.6,2.7-2.2,4.1c-0.1,0.3-0.3,0.7-0.5,1c-0.1,0.2-0.3,0.4-0.1,0.6c0.1,0.1,0.1,0.1,0.2,0.1
				c0.2,0.1,0.5,0.1,0.7,0.1c0,0,0.1,0,0.1,0c0,0,0.1-0.1,0.1-0.1c0.5-0.8,0.7-1.6,1.1-2.5c0.4-0.9,0.8-1.7,1.3-2.5
				c0.3-0.6,0.7-1.1,1.1-1.6c0.3-0.4,0.8-1.2,1.3-1.3c0.1,0.2,0.1,0.4,0.1,0.5c0.8,3.1,1.7,6.2,3.3,9c0,0,0,0.1,0.1,0.1
				c1.3,2.1,3.4,4,6.1,4c1.2,0,2.3-0.4,3.2-1.1c1.9-1.3,2.2-3.6,2.1-5.8c0-0.6-0.1-1.2-0.3-1.8c-0.2-0.5-0.5-1-0.7-1.5
				c-0.7-1.2-1.4-2.4-2.4-3.4c-1.4-1.3-3.3-2.3-5.2-2.7c-0.9-0.2-1.9-0.2-2.9-0.1c-0.5,0.1-0.9,0.2-1.4,0.3
				c-0.5,0.1-0.9,0.4-1.3,0.6c-0.1-0.2-0.1-0.5-0.1-0.7c0-0.3,0-0.5,0-0.8c0-0.4,0-0.7-0.1-1.1c0-0.3-0.1-0.5,0.2-0.7
				c0.3-0.2,0.6-0.4,0.8-0.7c0.9-0.9,1.1-2.3,1.3-3.5c0.1-0.6,0.1-1.3,0.2-1.9c0-0.2,0.1-0.6-0.1-0.8c0,0-0.1,0-0.1-0.1
				c0,0-0.1,0-0.1-0.1c-0.2-0.1-0.5-0.1-0.6,0c0,0,0,0,0,0.1c-0.1,0.1-0.1,0.2-0.1,0.4c0,0.1,0,0.3,0,0.4c-0.2,1-0.1,2.1-0.4,3.1
				s-1,2-2,2.3c-0.9,0.3-1.9-0.2-2.7-0.8c-0.7-0.5-1.2-1.2-1.7-1.9c-0.5-0.8-0.9-1.6-1.4-2.4c-0.1-0.2-0.2-0.4-0.3-0.6
				c-0.1-0.2-0.2-0.4-0.4-0.4c-0.3,0-0.7,0.2-0.8,0.5c0,0.1,0,0.1,0.1,0.2c0.5,1,1,2.1,1.7,3c0.5,0.8,1.2,1.6,1.9,2.3
				c0.3,0.3,0.7,0.5,1.1,0.7c0.3,0.2,0.7,0.3,1,0.4c0.1,0,0.2,0,0.3,0.1c0.2,0.1,0.3,0.4,0.4,0.6C16.6,21.7,16.7,22,16.8,22.3z
				 M18.8,24.8c0-0.1,0.1-0.1,0.2-0.2c0.2-0.1,0.3-0.1,0.5-0.2c0.3-0.2,0.7-0.3,1.1-0.4c2.8-0.7,5.7,0.2,7.8,2.1
				c0.4,0.3,0.7,0.7,1,1.1c0.9,1.1,1.5,2.3,1.9,3.7c0.2,0.7,0.2,1.4,0.2,2c0.1,0.7,0,1.5-0.3,2.2c-0.4,1.2-1.4,2.2-2.6,2.6
				c-0.6,0.2-1.2,0.2-1.8,0.2c-0.5-0.1-1-0.3-1.5-0.5c-0.8-0.4-1.6-1-2.2-1.7c-0.4-0.5-0.7-1.1-1.1-1.7c-0.2-0.3-0.3-0.6-0.5-0.9
				c-0.3-0.5-0.5-1-0.7-1.5c-0.6-1.4-1-2.8-1.4-4.3c-0.2-0.7-0.4-1.5-0.6-2.2C18.8,24.9,18.8,24.8,18.8,24.8z"/>
		</g>
		<path class="st11" d="M12.9,33.5c0,0-0.1,0-0.1-0.1c-1.1-0.4-2.6-0.5-3.4,0.6c-0.3,0.4-0.3,0.9,0,1.2c0.2,0.2,0.4,0.3,0.6,0.4
			c0.7,0.4,1.4,0.5,2.1,0.3c0.5-0.1,1-0.3,1.3-0.7c0,0,0.1-0.1,0.1-0.1c0.1-0.2,0.2-0.5,0.1-0.8C13.6,33.9,13.3,33.6,12.9,33.5z"/>
	</g>
</g>
<g id="Layer_6" class="st1">
	<g id="_x37_0eiIY_1_" class="st2">
		
			<image style="overflow:visible;" width="380" height="585" id="_x37_0eiIY_2_" xlink:href="59B043CB8D241EFB.jpg"  transform="matrix(6.837607e-02 0 0 6.837607e-02 7.0085 0)">
		</image>
	</g>
</g>
<g id="thermo" class="st1">
	<g id="cqA0ZA.tif" class="st2">
		
			<image style="overflow:visible;" width="442" height="452" id="Layer_0_1_" xlink:href="59B043CB8D241EF9.png"  transform="matrix(9.049774e-02 0 0 9.049774e-02 0 0)">
		</image>
	</g>
</g>
<g id="ECG_1_" class="st1">
	<g class="st2">
		<path class="st16" d="M0,29.3l3.6-0.1c0.2,0,0.3-0.1,0.4-0.2l0.5-1L5.3,32c0,0.2,0.2,0.3,0.4,0.3h0c0.2,0,0.4-0.2,0.4-0.4l0.7-5.4
			l0.6,3.5c0,0.2,0.2,0.3,0.4,0.3c0.2,0,0.3-0.1,0.4-0.2l0.6-1.5l0.7,2c0,0.2,0.2,0.3,0.4,0.3c0.2,0,0.3-0.1,0.4-0.2l0.9-1.7h1
			l4.4,0c0.2,0,0.3-0.1,0.4-0.2l0.5-1l0.8,4.2c0,0.2,0.2,0.3,0.4,0.3h0c0.2,0,0.4-0.2,0.4-0.4l0.7-5.4l0.6,3.5
			c0,0.2,0.2,0.3,0.4,0.3c0.2,0,0.4-0.1,0.4-0.2l0.6-1.5l0.7,2c0,0.2,0.2,0.3,0.4,0.3c0.2,0,0.3-0.1,0.4-0.2l0.9-1.7h0.7l0,0l5.1,0
			c0.2,0,0.3-0.1,0.4-0.2l0.5-1l0.8,4.1c0,0.2,0.2,0.3,0.4,0.3h0c0.2,0,0.4-0.2,0.4-0.4l0.7-5.4l0.6,3.5c0,0.2,0.2,0.3,0.4,0.3
			c0.2,0,0.3-0.1,0.4-0.2l0.6-1.5l0.7,2c0.1,0.2,0.2,0.3,0.4,0.3c0.2,0,0.3-0.1,0.4-0.2l0.9-1.7H40v-0.8h-3.1
			c-0.2,0-0.3,0.1-0.4,0.2l-0.6,1.1l-0.7-2.1c-0.1-0.2-0.2-0.3-0.4-0.3c-0.2,0-0.3,0.1-0.4,0.2L34,28.7L33.2,24
			c0-0.2-0.2-0.3-0.4-0.3h0c-0.2,0-0.4,0.1-0.4,0.3l-0.7,5.4l-0.6-2.9c0-0.2-0.2-0.3-0.4-0.3c-0.2,0-0.3,0.1-0.4,0.2l-0.9,1.9
			l-5.2,0h-0.6c-0.2,0-0.3,0.1-0.4,0.2l-0.6,1.1L22,27.5c-0.1-0.2-0.2-0.3-0.4-0.3c-0.2,0-0.3,0.1-0.4,0.2l-0.5,1.2L19.9,24
			c0-0.2-0.2-0.3-0.4-0.3h0c-0.2,0-0.4,0.1-0.4,0.3l-0.7,5.5l-0.6-2.9c0-0.2-0.2-0.3-0.4-0.3c-0.2,0-0.3,0.1-0.4,0.2l-0.9,1.9
			l-4.3,0l0,0h-1.1c-0.2,0-0.3,0.1-0.4,0.2l-0.6,1.1l-0.7-2.1c-0.1-0.2-0.2-0.3-0.4-0.3c-0.2,0-0.3,0.1-0.4,0.2l-0.5,1.2L7.1,24
			c0-0.2-0.2-0.3-0.4-0.3h0c-0.2,0-0.4,0.1-0.4,0.3l-0.7,5.5L5,26.5c0-0.2-0.2-0.3-0.4-0.3c-0.2,0-0.3,0.1-0.4,0.2l-0.9,1.9l-3.4,0
			V29.3z"/>
	</g>
</g>
<g id="ECG_copy">
	<g>
		<defs>
			<rect id="SVGID_1_" width="40" height="40"/>
		</defs>
		<clipPath id="SVGID_2_">
			<use xlink:href="#SVGID_1_"  style="overflow:visible;"/>
		</clipPath>
		<g class="st17">
			<path class="st16" d="M-3,29.7l9.6-0.4c0.4,0,0.8-0.3,1-0.6L9,26l2.1,11.1c0.1,0.5,0.5,0.9,1.1,0.9h0c0.5,0,1-0.4,1-0.9L15,22.7
				l1.5,9.4c0.1,0.5,0.5,0.8,1,0.9c0.5,0,0.9-0.2,1.1-0.7l1.6-3.9l1.8,5.4c0.1,0.4,0.5,0.7,0.9,0.7c0.4,0,0.9-0.2,1-0.6l2.5-4.6h2.7
				l11.7-0.1c0.4,0,0.8-0.3,1-0.6l1.3-2.7L45.4,37c0.1,0.5,0.5,0.9,1.1,0.9h0c0.5,0,1-0.4,1-0.9l1.8-14.3l1.5,9.4
				c0.1,0.5,0.5,0.8,0.9,0.9c0.5,0.1,0.9-0.2,1.1-0.7l1.6-3.9l1.8,5.3c0.1,0.4,0.5,0.7,0.9,0.7c0.4,0,0.9-0.2,1-0.6l2.5-4.6h1.8l0,0
				l13.6,0.1c0.4,0,0.8-0.3,1-0.7l1.3-2.7L80.7,37c0.1,0.5,0.5,0.9,1.1,0.9h0c0.5,0,1-0.4,1-0.9l1.8-14.3l1.5,9.4
				c0.1,0.5,0.5,0.8,1,0.9c0.5,0,0.9-0.2,1.1-0.7l1.6-3.9l1.8,5.4c0.2,0.4,0.5,0.7,0.9,0.7c0.4,0,0.9-0.2,1-0.6l2.5-4.6h7.7v-2.2
				h-8.3c-0.4,0-0.8,0.2-1,0.6l-1.5,3l-2-5.7c-0.2-0.4-0.5-0.7-1-0.7c-0.5,0-0.9,0.2-1,0.7l-1.3,3.2l-2.1-12.6
				c-0.1-0.5-0.5-0.9-1-0.9h-0.1c-0.5,0-1,0.4-1,0.9l-1.9,14.5l-1.5-7.8c-0.1-0.5-0.5-0.8-0.9-0.9c-0.4-0.1-0.9,0.2-1.1,0.6
				l-2.4,5.1l-13.9,0h-1.5c-0.4,0-0.8,0.2-1,0.6l-1.5,3l-2-5.7c-0.2-0.4-0.5-0.7-1-0.7c-0.5,0-0.9,0.3-1.1,0.7l-1.3,3.2l-2.1-12.6
				c-0.1-0.5-0.5-0.9-1-0.9h-0.1c-0.5,0-1,0.3-1,0.9l-1.9,14.6l-1.5-7.8c-0.1-0.5-0.5-0.8-0.9-0.9c-0.5-0.1-0.9,0.2-1.1,0.6
				l-2.4,5.1l-11.5,0.1l0,0h-2.8c-0.4,0-0.8,0.2-1,0.6l-1.5,3l-2-5.7c-0.2-0.4-0.5-0.7-1-0.7c-0.5,0-0.9,0.3-1.1,0.7L18,28.1
				L16,15.6c-0.1-0.5-0.5-0.9-1-0.9h-0.1c-0.5,0-1,0.3-1,0.9L12,30.1l-1.5-7.8c-0.1-0.5-0.5-0.8-0.9-0.9c-0.4-0.1-0.9,0.2-1.1,0.6
				L6,27.2l-9,0V29.7z"/>
		</g>
	</g>
</g>
<g id="ecg_path" class="st1">
	<path class="st18" d="M0,25.7l0.2,0c1.5,0.3,2.5,1.2,3.7,2.1h6.1l1.9,2.4l2-20.6l0.1-1.2l0.1,1.2l3.8,22.1l1.4-4c0,0,6.8,0,6.9,0
		c0.2,0,0.6-0.4,0.8-0.5c0.4-0.3,0.7-0.6,1.1-0.9c0.7-0.6,1.5-1.1,2.3-1.5c0.8-0.4,1.8-0.7,2.6-0.5c0.6,0.2,1.2,0.6,1.6,1
		c0.7,0.7,1.3,1.4,1.9,2.2H40"/>
</g>
</svg>
