<?xml version="1.0"?>
<svg xmlns="http://www.w3.org/2000/svg" version="1.2" baseProfile="tiny" width="800" height="643" viewBox="0 0 800 643" stroke-linecap="round" stroke-linejoin="round">
<g id="nga_admbnda_adm0_osgof_20161215">
<path d="M 188.3037 1 250.0785 20.8379 282.4643 61.239 340.7372 38.5079 418.3678 71.7413 463.7108 73.6945 487.2106 49.4422 585.5074 36.0855 652.6458 55.9985 729.225 13.175 759.2917 55.1074 768.8068 103.2883 799 117.1971 793.8828 159.5824 752.1609 173.5514 680.6597 303.6888 674.3843 341.1826 636.9516 364.4897 635.1947 394.6034 590.0198 483.3082 494.5416 460.9845 410.1828 538.5696 406.6465 584.9456 371.7349 624.9068 226.1341 641.9944 191.1213 612.9336 152.419 532.1882 115.05 503.2228 1 502.2579 6.0578 322.8307 73.176 233.4892 53.8662 174.5008 63.6384 92.5086 118.3432 13.7763 188.3037 1 Z"/>
</g>
</svg>