<?xml version="1.0"?>
<svg xmlns="http://www.w3.org/2000/svg" version="1.2" baseProfile="tiny" width="800" height="810" viewBox="0 0 800 810" stroke-linecap="round" stroke-linejoin="round">
<g id="sle_admbnda_admint_1m_gov_ocha">
<path d="M 185.7454 621.2012 211.7865 634.7349 216.0734 654.3728 205.2029 665.6492 205.0877 685.919 195.138 684.9869 192.1772 670.0834 169.3211 659.0795 131.265 647.2878 97.1463 638.8855 115.3227 626.2431 162.6509 620.8327 185.7454 621.2012 Z M 549.7678 1.0671 563.5863 11.3974 566.1353 33.5339 581.5638 40.7115 605.7109 66.6962 610.2071 80.0877 627.6144 97.931 647.3025 126.3731 648.2081 145.0885 680.4402 165.615 698.7866 181.9826 703.0462 190.5018 697.1096 212.0346 684.8675 223.9078 678.8302 242.6903 700.6984 241.4158 719.4163 251.1524 714.6349 265.7153 723.2239 313.3209 733.6072 320.2906 739.2748 339.1315 747.5574 347.1515 740.9642 361.1646 727.847 364.401 709.9736 383.5519 701.334 401.8681 701.9959 421.5419 696.1644 434.102 715.5653 437.1298 723.8639 445.877 736.2557 438.5877 765.1887 408.4211 785.7671 393.0575 797.0936 398.1039 799 408.9818 791.0939 447.8956 792.1032 466.8479 777.4685 486.5851 752.2362 484.2301 738.8911 487.7065 718.9856 513.1631 711.1356 515.2938 710.6309 585.0471 700.9866 586.3928 681.6979 603.8872 648.2902 644.4728 628.9253 656.4254 624.3956 654.0183 592.3156 682.1593 580.4662 686.3718 558.0524 720.0262 535.7321 727.7164 514.5997 752.0999 510.3612 783.5494 493.8737 797.1156 492.249 804.0323 476.6177 808.8697 450.904 796.8254 433.266 778.4287 400.0761 759.2735 365.7484 742.7734 241.4402 695.4911 216.1384 688.7637 216.0158 670.9989 224.421 655.8208 217.1555 625.1259 203.3804 617.828 213.7893 592.0408 190.5172 608.7482 157.8245 604.6343 132.7267 581.4559 117.4635 572.5606 96.1061 550.5247 115.4941 537.9641 106.4173 515.3195 105.6215 501.2441 80.6606 464.6245 69.329 462.8377 48.3469 473.9736 40.5563 470.2336 36.4004 451.5721 20.3204 435.1241 7.6775 416.0497 5.9295 394.6529 32.5419 399.2536 47.1932 406.2901 67.2002 391.6985 74.4762 382.1248 90.2902 384.9252 89.8159 370.1769 75.8876 367.6276 67.5792 375.1118 48.031 376.4025 38.5919 387.8485 18.3366 353.1524 17.8936 309.1943 32.5438 293.6501 19.3048 275.3343 4.3699 275.3672 1 250.7492 29.3238 237.5619 44.3094 249.5205 57.2401 248.8199 82.1102 230.8335 93.3607 214.8334 93.8713 189.8344 113.6111 186.541 132.0206 188.4788 148.1075 172.6894 147.823 158.0499 158.9065 159.702 174.9684 128.9132 172.4738 122.1952 182.4523 104.2952 189.9911 103.0942 196.1635 79.2464 205.9832 74.056 216.0834 49.9276 214.6806 40.9496 233.8991 27.9034 253.2579 32.2521 270.5827 23.5547 287.8373 24.2561 306.635 34.3564 350.4027 16.5406 372.0385 1 549.7678 1.0671 Z"/>
</g>
</svg>