<?xml version="1.0"?>
<svg xmlns="http://www.w3.org/2000/svg" version="1.2" baseProfile="tiny" width="800" height="817" viewBox="0 0 800 817" stroke-linecap="round" stroke-linejoin="round">
<g id="sle_admbnda_admint_1m_gov_ocha">
<path d="M 554.5519 1.0677 709.1666 192.1539 684.7395 244.7973 720.8564 268.023 754.0658 350.1692 716.1544 386.8869 702.2249 437.8777 742.6657 442.4026 792.6087 396.4754 799 470.9091 717.3265 519.7774 716.8175 590.1388 653.9332 650.0825 585.5179 692.3468 519.0772 758.6479 480.7641 815.9127 368.9283 749.2401 218.014 694.7596 219.0399 630.567 159.1917 609.8967 96.9352 555.3155 116.4923 542.6454 81.355 468.6664 48.7596 478.0969 7.7357 419.6681 47.5959 409.8234 18.4878 356.2225 1 252.9265 57.7304 250.9804 160.2832 161.0856 216.5435 41.2979 290.3379 24.4589 309.2995 34.6472 375.2732 1 554.5519 1.0677 Z"/>
</g>
</svg>