<?xml version="1.0"?>
<svg xmlns="http://www.w3.org/2000/svg" version="1.2" baseProfile="tiny" width="800" height="2055" viewBox="0 0 800 2055" stroke-linecap="round" stroke-linejoin="round">
<g id="tgo_admbnda_adm0_1m_gaul">
<path d="M 61.1642 12.827 75.5518 15.9716 79.2961 16.535 80.3782 16.6978 85.1326 17.4132 92.7506 19.2006 94.7584 19.6716 95.3943 19.8697 98.5728 20.8601 100.6356 20.8404 101.1415 20.8355 107.8147 22.2772 114.1978 23.7229 138.6098 28.3976 139.0647 28.4847 145.5692 29.7183 157.5403 31.9887 168.1177 34.1532 169.6833 34.5508 171.086 34.9071 177.0737 36.4279 185.3599 37.5102 206.9801 42.1944 212.4935 43.3029 217.7453 44.3589 227.0771 46.07 228.1164 46.3266 230.2982 46.8653 232.9824 47.528 235.3726 48.0043 250.4535 51.0095 265.6496 54.0377 265.8986 54.0412 266.5219 54.05 266.5235 54.05 266.2182 55.0827 265.8824 56.2185 261.2635 63.3817 262.7949 64.9704 264.8529 64.9586 267.0708 64.9459 267.0716 64.947 267.158 65.0669 267.7446 65.8811 267.9488 68.699 265.6169 78.5943 265.5863 78.7198 265.5312 78.9455 263.187 85.9371 263.1885 85.9365 275.4462 81.1452 275.5569 81.1019 275.5572 81.1018 278.2117 80.3299 281.4036 78.7789 286.6409 76.2338 295.073 72.8074 301.7064 70.112 302.9003 70.1494 304.1813 70.1896 307.8731 68.0986 329.1952 58.8404 332.6175 58.722 336.3286 58.8193 338.2247 58.869 343.497 58.7691 353.5312 58.579 363.3285 59.3591 370.8348 58.8404 374.4154 58.8731 386.3724 58.9824 388.71 59.0038 394.3213 59.1549 394.3213 59.4073 394.3213 59.5306 394.3221 59.5306 401.0312 59.2506 407.5328 58.9793 410.1996 59.8083 424.6484 59.2488 426.239 58.9146 427.8747 58.5709 427.9092 58.5893 428.9243 59.1304 433.2174 59.1856 433.6801 59.1916 433.682 59.1916 432.3556 64.8281 431.734 67.4697 428.6548 76.6912 428.569 78.5165 428.4914 80.1666 426.0131 86.8799 424.8445 90.0456 424.9588 92.9574 426.6782 97.6472 428.1524 101.6684 428.6792 102.9497 429.116 104.012 429.1162 104.0125 428.2291 105.403 422.6228 114.1896 421.6568 117.6226 421.1404 119.4579 418.8381 132.722 418.0243 137.4107 416.5586 139.7858 415.5822 141.3681 415.5811 141.3689 413.8799 142.6597 408.9621 146.3913 402.9231 153.5531 395.6731 162.1511 393.9379 164.1504 391.2461 167.2519 389.7601 170.3998 388.6243 172.806 387.8075 178.3684 386.6232 186.434 387.5681 191.7551 388.3057 195.9087 390.2213 203.282 390.2537 203.4067 391.193 215.7932 390.9684 224.8064 390.4334 230.0665 388.2118 238.3446 386.2484 243.2289 385.2224 245.7814 382.6209 254.2473 381.0282 256.9794 380.8592 259.1372 380.5056 263.6502 380.5055 263.6526 380.884 263.6485 380.8853 263.6485 380.8332 266.6037 380.8158 267.5894 379.0393 285.5341 377.9153 295.5087 377.61 298.2188 378.0184 302.2537 377.7727 305.4078 377.4915 309.0166 380.9261 311.81 382.2122 312.4797 383.5929 313.1985 385.0621 314.6354 386.9335 316.4657 398.8045 324.946 400.0878 325.8627 404.8516 329.3348 418.4776 339.2661 421.2245 341.4556 422.1001 342.1535 430.9581 348.2017 432.6723 349.4579 442.0091 356.3001 468.2932 375.4863 468.8785 375.9644 468.9055 375.9864 470.0084 376.8871 471.3913 377.7418 472.8631 378.6514 475.6459 380.909 476.1955 381.3549 478.5387 382.8314 480.4796 384.0544 481.0573 384.4354 484.8575 386.9417 485.7865 387.7204 488.19 389.7351 491.0406 391.2216 491.0411 391.2222 491.4717 391.6436 492.7593 392.9037 492.7599 392.9042 495.5124 394.015 501.0593 398.0477 505.5058 401.2803 526.1458 414.4999 530.0419 416.1702 540.3337 422.1841 547.4448 426.3393 575.7572 442.8831 583.5493 447.7266 585.8852 448.9172 590.2959 451.1653 596.4661 455.2026 597.1364 455.6412 598.7619 456.5826 607.5872 461.6936 611.556 464.2096 614.6156 466.1491 615.853 487.4671 616.0082 500.3274 616.0547 501.3146 616.0611 501.449 616.2205 504.8319 616.8093 518.0122 616.8536 519.0031 617.3879 536.36 617.6336 544.3397 617.9162 547.2539 618.434 552.5932 617.7724 572.9638 617.8459 589.2912 618.5773 593.6595 620.3739 604.3895 619.2631 609.6495 619.0507 624.8539 616.7188 631.7108 615.6935 634.5511 614.8524 636.881 613.8782 639.3295 612.2347 643.4602 610.1273 648.761 609.0574 651.4524 610.5929 656.1367 616.1266 666.8079 616.1266 666.8094 616.0459 670.5209 615.9714 673.9425 617.021 675.9069 617.5534 676.0691 618.5361 676.3684 622.4934 674.0079 622.4949 674.0073 628.913 671.4474 628.9133 671.4473 630.6449 678.0999 630.8265 679.3589 633.3771 697.0411 633.457 700.807 633.56 705.6617 633.618 708.3944 633.5073 709.242 632.9809 713.2747 633.7569 718.0569 633.9692 722.7493 634.1269 727.7375 634.1857 729.598 636.2072 737.9374 637.1792 739.9875 641.455 748.9884 645.6669 752.9158 648.6043 755.6547 652.2733 759.0757 653.365 760.6239 654.6461 762.4408 654.6462 762.4412 657.3128 767.4028 657.5219 768.0763 658.2726 770.4943 663.5857 776.1015 664.1721 777.0476 664.6312 777.7882 666.8079 779.1849 668.8685 781.1895 674.7797 786.9402 684.3565 796.6599 695.7138 802.9941 697.0549 804.2598 697.8946 805.0523 697.8947 805.0524 698.268 805.7701 706.0747 820.7795 707.3081 822.3722 711.9083 827.1765 713.6626 829.0086 716.893 834.8118 718.3467 838.0158 721.7772 845.5767 721.7774 845.577 721.6465 846.154 721.4874 846.8553 721.1321 848.644 724.5013 856.7261 724.73 857.2692 726.0042 868.4755 726.7352 874.8995 724.6362 884.1792 724.4855 884.8457 724.485 884.8479 724.8372 885.6131 724.9587 885.877 724.9451 885.9556 724.877 886.3467 723.7417 893.0974 723.7418 893.0977 725.3549 898.3493 725.6894 903.3496 725.9634 907.4441 726.1226 909.7924 726.2025 910.0556 726.7066 911.7159 727.085 921.7997 727.1314 923.0365 727.1926 926.6018 727.2657 930.7957 727.3723 936.9177 726.5514 944.2361 727.5071 947.7033 727.9679 956.1389 728.1115 958.7666 727.4989 971.7085 727.5085 974.171 727.552 985.4019 727.4703 991.687 727.3315 1002.6564 727.1231 1009.2278 726.9925 1013.344 726.2637 1018.3687 726.2574 1018.4121 726.2787 1018.574 726.9353 1023.566 726.9081 1040.4707 726.9067 1041.2861 727.0149 1047.4637 727.2661 1061.82 727.2817 1066.2485 727.2988 1071.1027 731.2765 1077.0897 732.8413 1079.6457 734.5967 1082.5132 735.0868 1087.8549 734.303 1089.3039 733.307 1091.1451 733.3062 1091.1465 726.9232 1099.355 726.9231 1099.3552 727.0211 1099.7004 728.0788 1103.4269 727.3274 1105.6771 725.4455 1107.7426 725.4447 1107.7436 725.9225 1113.7428 724.621 1119.0247 723.9582 1121.7146 723.8684 1123.4119 723.7499 1125.6515 723.6805 1126.9624 722.9874 1129.1104 722.6513 1130.152 723.3718 1133.4766 724.5054 1138.7078 725.075 1139.6128 727.5643 1143.5676 728.2585 1152.6581 728.2585 1152.6584 728.2611 1153.3668 728.4219 1197.4589 728.4291 1197.8685 728.5113 1202.4994 728.6628 1211.046 728.5893 1217.1392 728.8425 1235.039 728.8487 1235.7567 729.0059 1254.0619 729.0442 1267.607 729.0876 1282.931 729.1558 1283.9714 729.3979 1287.6602 729.157 1293.0101 728.3459 1310.882 727.9441 1319.7352 728.5036 1323.3005 727.9868 1325.6718 727.748 1326.7677 727.1069 1344.4102 727.0413 1346.172 726.9639 1348.2491 727.0286 1352.0964 727.0538 1353.5949 727.5475 1355.1521 729.0181 1359.7902 729.2521 1362.0103 729.3938 1363.3555 728.6342 1379.1051 727.8379 1395.6143 727.4943 1402.7903 727.1681 1409.6016 727.4336 1421.3303 727.4336 1421.3306 728.003 1423.3074 729.8676 1429.7802 731.6138 1433.3033 735.2175 1440.574 735.0246 1444.7224 734.9847 1445.5809 734.7123 1451.5092 734.3435 1459.5315 734.4025 1460.3748 734.8949 1467.4135 736.2058 1473.233 739.0196 1478.681 740.9637 1479.3632 742.4991 1479.9021 743.0627 1481.5928 745.5947 1485.1621 745.5947 1485.1622 745.732 1485.7506 746.2522 1487.98 745.5456 1489.2061 745.4967 1489.291 745.4953 1489.291 743.6541 1489.3087 742.103 1489.3236 736.3732 1489.3726 734.3027 1490.2139 732.6486 1492.81 732.5099 1493.0277 729.4633 1520.7085 729.2466 1527.5952 729.2466 1527.5953 729.0712 1533.1685 728.9866 1535.9383 728.9732 1536.3784 729.5735 1580.0232 729.4706 1580.2961 729.1529 1581.1381 729.3612 1584.6748 730.1126 1597.486 730.1462 1625.8311 730.1575 1635.4092 730.182 1636.2586 731.5992 1687.8466 731.6537 1689.8477 731.7543 1693.5382 731.7543 1693.5395 724.2822 1693.1322 717.2973 1692.7513 711.9351 1693.9643 710.9498 1693.7297 709.9626 1693.4946 709.0244 1692.1771 709.0233 1692.1755 697.3682 1692.347 697.3678 1692.347 697.9192 1702.6793 698.0948 1702.9734 704.0164 1712.9218 705.1844 1720.0441 705.5642 1722.7681 706.6914 1724.7365 706.6931 1724.7378 707.5904 1725.4346 709.2316 1726.709 709.5309 1726.8338 709.531 1726.8338 716.6598 1729.8045 716.6602 1729.8047 716.7653 1730.1621 717.1299 1731.4015 716.8481 1732.9942 716.5357 1734.6726 716.2886 1735.9999 716.7154 1737.2027 717.3211 1738.9099 717.3218 1738.9118 716.5222 1739.6536 713.4748 1742.4811 712.845 1743.7884 712.3435 1744.8294 712.6294 1746.9897 715.1042 1751.2869 715.1696 1751.4004 715.3615 1754.6879 714.4263 1760.6953 716.1607 1761.882 716.211 1761.9164 716.7761 1761.8169 719.9682 1761.2548 720.6298 1762.7577 718.3714 1765.0161 713.9608 1768.0219 713.2093 1770.3701 713.9853 1772.6163 714.0228 1772.7226 714.1527 1773.09 716.191 1772.9768 717.5341 1772.9022 717.5342 1772.9021 718.9431 1773.7434 719.7926 1776.0917 718.7428 1778.4411 717.82 1780.5064 717.8201 1780.5076 717.8821 1781.8738 718.012 1784.7332 718.5029 1785.2687 719.0452 1785.8604 721.6773 1786.8697 723.9337 1787.7349 724.5247 1788.4103 725.2487 1789.2378 725.1498 1789.3305 722.2429 1792.0557 721.4915 1793.7464 722.231 1794.9241 722.9045 1795.9967 722.9034 1795.9978 721.8014 1797.1765 721.4956 1797.5036 719.0583 1798.4917 718.0202 1798.9126 715.9537 1800.7912 714.6387 1803.1394 713.3415 1803.259 711.5392 1803.4253 711.539 1803.4253 711.0612 1806.1329 711.0121 1806.4227 710.9795 1806.6148 711.1408 1808.5692 711.3593 1811.2174 710.9732 1811.7724 710.5098 1812.4385 708.6353 1813.4717 708.6348 1813.4726 707.4606 1815.4296 706.9446 1816.2896 705.8815 1816.4039 705.1599 1816.4815 703.9393 1818.641 703.9388 1818.6419 704.5024 1818.548 705.4376 1819.4805 705.9114 1819.9529 709.8549 1820.372 710.3294 1820.4224 710.3302 1820.4225 711.0674 1821.8253 712.3027 1824.1756 715.7474 1827.6081 715.7487 1827.6094 715.7495 1827.6102 718.5538 1835.7522 719.1754 1837.5571 719.1759 1837.5586 718.6703 1838.1025 718.0447 1838.7756 715.7903 1839.6169 715.7903 1839.6184 715.5984 1843.468 718.3183 1846.6657 718.7498 1848.2165 718.9717 1849.014 718.746 1849.7233 718.3142 1851.0804 718.5563 1852.1451 718.5919 1852.3015 721.5936 1855.9689 724.3175 1856.1608 725.8444 1855.7116 726.8568 1855.4137 726.8577 1855.4135 728.6383 1855.977 728.6392 1855.979 731.2643 1861.8089 734.5735 1863.0231 735.3155 1863.2954 735.536 1863.5159 737.2268 1863.7977 739.2076 1862.177 740.3219 1861.2653 740.3265 1861.2616 741.1776 1861.139 743.614 1860.7879 744.929 1861.5393 744.9294 1861.54 745.0905 1861.8602 745.5906 1862.8543 744.6513 1865.7662 744.651 1865.7665 743.3293 1867.4905 741.553 1869.8075 741.5516 1869.8092 742.0607 1870.8673 742.589 1871.9655 743.2465 1872.6231 744.5615 1872.717 745.0621 1872.4993 748.8821 1870.8385 748.8823 1870.8384 750.7649 1874.3097 753.9545 1874.0279 753.9547 1874.0285 754.3496 1875.1499 754.6161 1875.9065 753.6768 1877.879 753.979 1878.2629 754.2941 1878.6642 755.7432 1880.5091 756.217 1889.2446 756.1636 1889.8028 756.1271 1890.1839 754.0607 1890.1839 753.1214 1891.5928 752.9335 1893.7528 752.9335 1893.7532 753.6849 1895.35 756.6907 1896.1014 758.0057 1897.2245 758.0061 1897.2243 760.1309 1896.012 760.6382 1895.7226 760.6398 1895.7216 762.6123 1898.2577 762.6124 1898.2578 763.9274 1897.976 765.2424 1896.2852 766.8392 1896.1913 766.8443 1896.2015 767.3089 1897.1265 767.273 1897.4132 767.0271 1899.3808 767.0279 1899.3827 767.0758 1899.4908 767.7785 1901.0756 769.6606 1901.4512 769.6612 1901.4514 770.6005 1903.232 769.6057 1904.8662 769.2855 1905.3923 769.2856 1905.3925 770.4126 1906.5195 771.9155 1906.1438 771.9158 1906.1442 771.9875 1906.2442 772.1851 1906.5195 773.0468 1907.7243 774.0112 1908.5224 776.1014 1910.2521 776.1015 1910.2522 776.0754 1910.5604 775.9668 1911.8449 774.5006 1912.8781 774.5375 1913.1545 774.6885 1914.2871 776.2642 1915.1738 777.0327 1915.6062 777.0829 1915.9156 777.9638 1921.3359 777.964 1921.3362 780.4958 1924.8154 785.2821 1928.299 786.3594 1929.6329 786.4992 1929.806 786.3929 1930.0822 786.0295 1931.027 783.7752 1931.5865 783.767 1937.0345 785.3139 1938.2925 785.7347 1938.6348 785.7355 1938.6354 785.2964 1938.9843 784.3224 1939.7584 784.9718 1945.5862 786.8159 1946.7818 788.1654 1947.6567 789.3052 1949.9058 789.6887 1950.6625 790.8288 1953.7795 791.8532 1956.5801 791.4348 1958.6021 791.2896 1959.304 789.9746 1961.0887 789.2231 1961.2766 790.1409 1963.0291 791.3876 1965.4095 792.7965 1966.1609 793.8944 1968.5919 795.4266 1971.9846 795.2387 1974.2389 791.8613 1976.0236 791.8617 1976.0242 794.3974 1979.9686 797.0275 1981.0018 797.0278 1981.0022 799 1983.6319 795.9942 1985.1348 792.2805 1984.9732 787.4507 1984.7631 784.3865 1984.5147 783.9753 1984.4813 783.9753 1984.4814 783.892 1985.1479 783.5996 1987.4871 781.5331 1988.7082 777.8959 1988.8786 775.4318 1988.9941 773.4239 1990.0352 770.3595 1991.6241 764.5236 1993.0861 763.2198 1993.4952 759.4473 1994.6789 753.1623 1994.7592 753.0601 1994.7605 751.2754 1996.2593 749.0027 1995.9798 747.4243 1995.7856 747.2877 1995.8626 742.4419 1998.5953 737.4677 1998.1175 735.8008 1998.227 733.2409 1998.3952 730.371 1999.4142 726.6617 2000.7312 726.3265 2003.933 726.286 2003.9252 725.9707 2004.031 725.8658 2004.0314 724.7088 2004.0343 724.0778 2004.1413 723.7625 2004.2475 723.6572 2004.2479 723.4469 2004.2483 723.1316 2004.3545 722.9213 2004.3549 722.7109 2004.3553 722.2903 2004.4619 722.1853 2004.4619 722.08 2004.4623 721.6597 2004.5689 721.4494 2004.5693 721.2391 2004.5697 720.8185 2004.6763 720.7131 2004.6763 720.5028 2004.6771 719.9772 2004.6783 719.7664 2004.6787 719.3462 2004.7853 719.2408 2004.7853 719.0305 2004.7861 718.8206 2004.8919 718.1896 2004.9989 718.0847 2005.0516 718.0324 2005.2623 717.9275 2005.3677 717.8752 2005.473 717.7698 2005.4212 717.6649 2005.3685 717.6126 2005.5792 717.5076 2005.6846 717.4031 2005.8953 717.3508 2006.0007 717.1405 2006.0542 716.9302 2006.0546 716.8252 2006.055 716.6149 2006.1608 716.2996 2006.2669 716.1947 2006.2674 715.9843 2006.2678 715.774 2006.3735 715.3534 2006.4801 715.0385 2006.5859 714.4075 2006.6929 714.1972 2006.7987 713.5667 2006.9057 713.3563 2007.0114 713.2514 2007.0119 713.146 2007.0123 712.7258 2007.1184 712.5155 2007.2242 712.3055 2007.33 711.9903 2007.4362 711.7799 2007.4366 711.6746 2007.437 711.2543 2007.5436 711.044 2007.544 710.9387 2007.5444 710.6234 2007.6506 710.3081 2007.6514 710.2027 2007.6514 709.8875 2007.7576 709.3619 2007.8642 708.9412 2007.9708 708.8363 2007.9712 708.6259 2007.9716 708.3107 2008.0778 708.1003 2008.0782 707.995 2008.0786 707.6797 2008.1848 707.364 2008.1856 707.2591 2008.1856 706.9438 2008.2918 706.1025 2008.3992 705.8922 2008.4 705.6819 2008.4004 705.3666 2008.5066 705.1563 2008.5074 705.0509 2008.5074 704.7356 2008.6136 704.6311 2008.7189 704.4207 2008.7197 704.1051 2008.7206 703.7898 2008.8267 703.6844 2008.8267 703.3691 2008.8276 702.5278 2008.9354 702.2122 2008.9362 702.1072 2008.9366 701.7919 2009.0424 701.056 2009.1498 700.425 2009.2568 699.7941 2009.3638 699.3738 2009.47 699.2689 2009.4704 699.0582 2009.4712 698.6379 2009.5774 698.1123 2009.684 697.7966 2009.6848 697.6917 2009.6852 697.4814 2009.791 697.1661 2009.8971 697.0611 2009.8975 696.9558 2009.898 696.5355 2010.0041 696.1149 2010.1107 695.905 2010.2165 695.274 2010.3235 695.0641 2010.4293 694.5385 2010.5359 694.3286 2010.6416 694.1179 2010.6424 694.0129 2010.6424 693.2351 2010.9733 692.0274 2011.3131 691.0775 2011.5127 690.3868 2011.9587 689.7031 2012.106 689.0309 2012.2758 688.5296 2012.3325 688.0511 2012.6836 686.9459 2012.9781 686.5699 2013.0234 686.0231 2013.3406 685.3052 2013.4311 684.5077 2013.6237 683.243 2013.8163 682.2062 2013.9295 681.2606 2014.1221 680.5883 2014.2693 679.9291 2014.3657 679.5089 2014.4719 679.2986 2014.4727 678.9829 2014.4736 678.5622 2014.4748 678.3519 2014.4752 677.8259 2014.4768 677.721 2014.4772 677.4057 2014.5834 677.3007 2014.6888 676.7751 2014.7958 675.7239 2014.9036 675.6186 2014.904 675.3033 2014.9048 674.567 2015.0122 673.8314 2015.1196 673.5162 2015.2258 673.4108 2015.2262 673.2005 2015.2266 672.8852 2015.3328 672.2546 2015.4398 671.729 2015.5464 671.3084 2015.653 671.2034 2015.6534 670.9931 2015.6538 670.6778 2015.76 670.4675 2015.7608 670.3622 2015.7612 670.0469 2015.867 669.837 2015.9732 669.732 2015.9732 669.4163 2015.9744 669.101 2016.0806 668.9961 2016.0806 668.7858 2016.0814 668.4705 2016.1876 668.2602 2016.188 668.1548 2016.1884 667.7346 2016.295 667.3139 2016.4012 667.209 2016.5069 666.8941 2016.6131 666.7887 2016.6131 666.6838 2016.6135 666.3685 2016.7197 666.1971 2016.802 666.1582 2016.8255 666.0532 2016.8259 665.8429 2016.8263 665.633 2016.9325 665.4227 2017.0383 665.3177 2017.0387 665.1074 2017.0391 664.6868 2017.1457 664.5818 2017.1461 664.4764 2017.1461 664.1612 2017.2523 663.9512 2017.3584 663.8463 2017.3584 663.636 2017.3593 663.531 2017.4646 663.2157 2017.5708 662.7951 2017.6774 662.4802 2017.7836 662.3748 2017.7836 662.2699 2017.784 661.9546 2017.8902 661.7443 2017.9959 661.6393 2017.9963 661.534 2017.9968 661.3241 2018.1025 661.0088 2018.2087 660.9038 2018.2091 660.7985 2018.2095 660.3782 2018.3157 659.9576 2018.4223 659.7477 2018.5281 659.6427 2018.6338 659.4328 2018.7396 659.3274 2018.74 659.2225 2018.74 658.8022 2018.8466 658.5919 2018.8474 658.4866 2018.8474 658.1713 2018.9536 657.9614 2019.0594 657.856 2019.0598 657.6457 2019.0606 657.3304 2019.1668 657.1201 2019.1672 657.0151 2019.1676 656.8052 2019.2734 656.1742 2019.3804 655.859 2019.4866 655.4387 2019.5932 655.1235 2019.6993 654.9131 2019.7002 654.8082 2019.7002 654.4929 2019.8063 653.9673 2019.9133 653.652 2020.0195 653.4417 2020.0199 653.2314 2020.0207 653.0215 2020.1265 652.7058 2020.1273 652.6008 2020.1277 652.3905 2020.2335 652.0756 2020.3397 651.9703 2020.3401 651.655 2020.3409 651.3397 2020.4471 651.2344 2020.4475 651.024 2020.4479 650.7088 2020.5541 650.4984 2020.5549 650.3935 2020.5553 650.1832 2020.6611 649.8683 2020.7673 649.658 2020.8731 649.5534 2020.9788 649.2381 2021.085 648.8175 2021.1912 648.6076 2021.2974 648.3977 2021.4031 648.2927 2021.4036 648.1873 2021.4036 647.8721 2021.5097 647.6622 2021.6159 647.5568 2021.6159 647.3465 2021.6167 646.9262 2021.7233 646.8209 2021.7233 646.7159 2021.7237 646.4006 2021.8299 646.1907 2021.9357 646.0854 2021.9361 645.875 2021.9369 645.6651 2022.0427 645.4552 2022.1485 645.3498 2022.1489 645.2449 2022.1493 644.7193 2022.2559 644.6139 2022.2563 644.4036 2022.2571 644.1937 2022.3629 643.9838 2022.4686 643.8784 2022.469 643.6681 2022.4695 643.4582 2022.5756 643.2483 2022.6814 643.1429 2022.6818 642.9326 2022.6822 642.5123 2022.7888 642.407 2022.7892 642.302 2022.7892 642.0921 2022.8954 641.7768 2023.0016 641.6715 2023.0016 641.5665 2023.002 641.3566 2023.1078 641.1463 2023.2139 640.936 2023.2144 640.831 2023.2148 640.4104 2023.3214 640.2 2023.3218 640.0951 2023.3222 639.8852 2023.4279 639.6748 2023.5341 639.4645 2023.5345 639.3596 2023.5349 639.1497 2023.6407 638.9393 2023.7465 638.7294 2023.8527 638.6245 2023.8527 638.5191 2023.8531 638.2038 2023.9593 637.9939 2024.065 637.889 2024.0654 637.7836 2024.0659 637.5737 2024.1716 637.2584 2024.2778 637.153 2024.2782 637.0481 2024.2786 636.8382 2024.3844 636.5229 2024.4906 636.4175 2024.491 636.3126 2024.4914 636.1027 2024.5972 635.8923 2024.7029 635.7878 2024.8087 635.6824 2024.8087 635.5775 2024.8091 635.2622 2024.9153 634.7366 2025.0223 634.5267 2025.1281 634.3168 2025.2338 634.2114 2025.2343 634.0011 2025.2351 633.7912 2025.3408 633.5808 2025.4466 633.4759 2025.447 633.3705 2025.4474 633.0556 2025.5536 632.4247 2025.6606 632.0604 2025.7138 631.6892 2025.768 631.3739 2025.8742 631.2685 2025.8746 631.0582 2025.8754 630.638 2025.982 630.533 2025.982 630.4277 2025.9824 630.2177 2026.0882 629.9025 2026.1944 629.7975 2026.1948 629.4818 2026.196 629.2719 2026.3018 629.0616 2026.3022 628.9562 2026.3026 628.7463 2026.4088 628.6413 2026.5142 628.4314 2026.6199 628.0112 2026.7265 627.6959 2026.8327 627.591 2026.8331 627.3806 2026.8339 627.1703 2026.9397 626.6451 2027.0463 626.4352 2027.1525 625.9096 2027.2591 625.489 2027.3657 625.384 2027.3661 625.1737 2027.3665 625 2027.4544 624.9638 2027.4726 624.8588 2027.578 624.5431 2027.5792 624.4382 2027.5792 624.018 2027.6858 623.913 2027.7916 623.7031 2027.8974 623.4932 2028.0031 623.2829 2028.1093 622.7577 2028.2159 622.5477 2028.3217 622.337 2028.3225 622.2321 2028.3229 622.0221 2028.4287 621.4965 2028.5357 621.3916 2028.6411 621.0767 2028.7472 620.8664 2028.7481 620.761 2028.7485 620.6561 2028.8538 620.4462 2028.96 620.3416 2029.0654 619.816 2029.1724 619.5007 2029.2786 619.1855 2029.3847 618.9756 2029.4905 618.7656 2029.5963 618.6603 2029.5967 618.5553 2029.5971 618.24 2029.7033 617.7144 2029.8103 617.5045 2029.9161 616.9793 2030.0231 616.5587 2030.1296 616.4537 2030.1296 616.3484 2030.13 616.2438 2030.2358 616.0335 2030.3416 615.929 2030.4474 615.824 2030.5527 615.6137 2030.5535 615.5087 2030.5535 615.2984 2030.6597 614.9835 2030.7659 614.8782 2030.7663 614.7732 2030.7663 614.6683 2030.8721 614.353 2030.9783 613.9327 2031.0849 613.7228 2031.1906 613.1972 2031.2976 612.9873 2031.4034 612.4617 2031.5104 612.2518 2031.6162 611.7425 2031.8021 611.473 2031.8718 611.2539 2031.9043 611.0733 2031.93 610.6991 2031.99 610.5765 2032.0277 610.4655 2032.043 610.3757 2032.0737 610.2556 2032.1487 610.0457 2032.2545 609.9407 2032.3603 609.6722 2032.4612 609.2072 2032.5824 608.9304 2032.621 608.726 2032.6733 608.5971 2032.6672 608.3578 2032.6774 608.2453 2032.6835 608.1369 2032.712 608.0081 2032.7628 607.8895 2032.836 607.7892 2032.9438 607.7483 2033.0007 607.6297 2033.0414 607.554 2033.0597 607.4088 2033.0638 607.2758 2033.0699 607.0959 2033.1105 606.7768 2033.1939 606.652 2033.2264 606.4863 2033.2874 606.2654 2033.4583 606.2307 2033.4949 606.1591 2033.5172 606.0588 2033.5376 605.9443 2033.6108 605.8379 2033.6942 605.7234 2033.7714 605.5455 2033.8629 605.4269 2033.9199 605.2264 2033.9849 605.0341 2034.0236 604.9728 2034.05 604.8419 2034.0927 604.6844 2034.1497 604.3285 2034.2635 604.2119 2034.3001 604.0503 2034.3469 603.8949 2034.3978 603.5451 2034.5035 603.3836 2034.5767 603.1954 2034.6662 603.0686 2034.7333 602.772 2034.8167 602.5306 2034.9306 602.1666 2035.0912 601.7636 2035.2518 601.5264 2035.3494 601.281 2035.4674 600.88 2035.5955 600.4178 2035.7317 599.9842 2035.8477 599.7265 2035.925 599.4299 2036.0571 599.1661 2036.1669 598.8838 2036.2849 598.5115 2036.3845 598.1127 2036.47 597.9102 2036.5289 597.6525 2036.5655 597.5564 2036.5818 597.3621 2036.6123 597.1268 2036.6692 596.9612 2036.714 596.728 2036.8197 596.5705 2036.8868 596.3783 2036.9478 596.2821 2036.9946 595.9242 2037.0434 595.828 2037.0719 595.6092 2037.1736 595.3801 2037.2671 594.9608 2037.3871 594.562 2037.4989 594.3472 2037.5945 593.9136 2037.7633 593.7889 2037.81 593.6498 2037.8629 593.5107 2037.8812 593.3348 2037.8995 593.2264 2037.9158 593.0648 2037.9199 592.9053 2037.9443 592.4716 2038.1029 592.2917 2038.1436 592.1444 2038.1883 592.0032 2038.2595 591.6044 2038.3957 591.4204 2038.473 591.2485 2038.5401 590.8865 2038.6418 590.8272 2038.6743 590.6574 2038.7841 590.41 2038.9143 590.1543 2038.9509 589.8301 2039.0821 589.7258 2039.1421 589.5448 2039.2539 589.464 2039.4705 589.42 2039.5162 589.1562 2039.6382 588.6908 2039.8009 588.4117 2039.9229 588.2367 2040.0602 588.1447 2040.1843 588.1294 2040.5574 588.0109 2040.5624 587.9353 2040.5599 587.8238 2040.5634 587.7588 2040.5929 587.6505 2040.625 587.6331 2040.5731 587.6029 2040.5807 587.5927 2040.6585 587.4188 2040.72 587.3462 2040.327 587.2005 2040.3499 587.1473 2040.4399 587.09 2040.449 586.9857 2040.4343 586.8338 2040.4979 586.8441 2040.5405 586.6968 2040.6234 586.592 2040.6857 586.5577 2040.7225 586.5783 2040.8925 586.5911 2040.9809 586.6071 2041.0374 586.5303 2041.0612 586.5117 2040.9726 586.5248 2040.9377 586.5306 2040.9149 586.5314 2040.8964 586.515 2040.8706 586.4953 2040.8631 585.7674 2041.1124 585.6875 2041.1933 586.3966 2041.762 586.3895 2041.7727 586.2689 2041.6808 585.9705 2042.0723 586.0768 2042.1612 586.0681 2042.1743 585.2949 2041.5476 585.1657 2041.5433 585.0115 2041.5851 585.0399 2041.6907 585.1232 2041.6733 585.1276 2041.6897 584.9131 2041.749 584.9073 2041.7311 585.0273 2041.6928 584.9974 2041.5886 584.6605 2041.6799 584.4491 2041.7485 584.3853 2041.7959 584.3713 2041.8302 584.3855 2041.865 584.5564 2042.0099 585.3199 2042.6197 585.149 2042.8295 584.1402 2042.0208 583.9386 2042.2789 584.6114 2042.9456 585.0265 2043.3785 585.3635 2043.7265 585.6419 2044.0045 585.7178 2044.0802 585.9868 2044.3534 586.0736 2044.434 586.0215 2044.4896 585.6431 2044.5363 584.7768 2044.5697 584.1499 2044.6061 583.9355 2044.6186 583.0261 2044.6433 582.3095 2044.5281 581.6752 2044.4757 581.3231 2044.515 580.875 2044.6225 580.3294 2044.7354 579.9074 2044.8447 579.6881 2044.8979 579.4206 2044.9544 579.2441 2044.9341 579.1192 2044.9407 578.9374 2044.9581 578.6679 2044.969 578.2867 2044.9777 577.9318 2044.9755 577.5681 2044.9494 577.3666 2044.8993 577.2482 2044.9015 576.9766 2044.9363 576.8342 2044.9777 576.7334 2044.9929 576.6787 2045.0561 576.6121 2045.1603 576.5983 2045.1807 576.4652 2045.3883 574.878 2045.9574 573.1761 2046.6559 572.8622 2046.7521 572.4097 2046.8262 571.2868 2047.0255 570.6188 2047.2235 570.0024 2047.4465 565.9539 2048.52 563.627 2049.2069 562.9265 2049.4729 562.2073 2049.8038 561.9291 2049.9083 561.3686 2050.0868 560.6347 2050.3343 560.3402 2050.4644 559.2617 2050.896 558.6053 2051.1156 557.4967 2051.4078 556.1754 2051.8643 555.288 2052.3236 553.9107 2052.7885 553.1772 2053.064 552.4606 2053.3424 551.8699 2053.5038 551.5271 2053.6287 551.0901 2053.7965 551.0798 2053.7975 551.0737 2053.7999 551.0745 2053.5727 551.3638 2030.878 512.7385 2031.038 512.7384 2031.038 504.4477 2031.0723 503.9032 2030.2051 503.6606 2029.8188 503.6566 2029.1331 503.6217 2023.0651 500.6642 2019.0701 497.7317 2015.0173 496.4393 2010.2557 491.9886 2005.2123 488.743 2004.7653 485.4293 2003.434 482.242 1998.6919 479.4822 1995.9126 479.5114 1994.6299 477.1014 1988.8966 476.3337 1983.4645 473.0395 1980.491 472.884 1975.846 472.1649 1973.3292 472.8549 1972.1436 473.1464 1969.2673 473.408 1966.9351 471.7219 1963.8388 452.2177 1963.7444 426.7887 1963.6212 426.2127 1963.6185 425.7705 1962.2055 425.6651 1961.8685 425.1349 1961.3216 424.12 1960.2748 424.0853 1959.8622 423.9062 1957.7288 422.4097 1954.765 419.9706 1953.3559 418.0563 1949.6244 416.0494 1948.1061 411.7603 1944.3169 411.0781 1943.0548 399.4181 1936.3114 383.0344 1932.6868 380.2552 1923.1539 369.1383 1919.1892 367.331 1918.9205 366.8753 1918.8527 366.706 1918.8276 366.6479 1918.2481 365.1315 1903.1337 358.1255 1900.2866 357.3481 1899.2954 356.7676 1898.2677 354.8507 1894.8739 354.1413 1889.1795 352.8878 1884.9426 352.0753 1883.9077 354.083 1880.5406 354.4587 1880.1529 358.6502 1875.8276 362.9878 1872.9214 365.0468 1871.5418 363.7714 1861.7567 362.9454 1861.1542 358.0963 1858.0543 356.1723 1859.1232 351.2455 1860.0853 345.93 1859.1427 342.3778 1857.8753 342.0625 1857.7628 340.6476 1855.6028 341.5969 1855.843 342.6941 1856.1205 343.3063 1855.1682 335.8433 1848.6963 334.784 1849.4057 334.7088 1850.3313 334.6577 1850.9605 332.2964 1851.9031 331.022 1851.5793 329.3131 1851.1452 328.0012 1849.0753 327.632 1846.4807 325.4552 1843.2934 324.1045 1841.6317 321.7626 1840.2615 321.8015 1836.326 321.8501 1833.0317 324.0656 1830.34 323.4632 1829.0961 323.0842 1827.2595 323.0064 1826.1906 324.3377 1822.77 324.5224 1819.5633 323.8421 1815.5791 325.018 1812.0225 325.9897 1809.3502 323.8921 1806.1761 323.4146 1805.4534 323.5586 1804.8327 323.9782 1803.0241 324.9111 1801.1194 327.01 1798.6609 325.015 1797.0748 324.26 1796.4745 322.3367 1795.4639 320.062 1794.2686 316.9719 1794.7933 315.0381 1791.7323 312.4338 1793.3357 309.5088 1794.3949 307.06 1790.7411 303.1244 1789.0892 299.958 1788.2885 298.0519 1787.8065 295.02 1783.2975 295.3893 1782.9283 296.6526 1783.453 297.0996 1782.9671 294.0564 1780.1147 293.8442 1779.9159 292.406 1779.3425 292.7605 1778.6424 292.8426 1778.4802 293.1834 1777.8072 293.9125 1776.0305 294.1843 1775.3681 294.1795 1774.2117 293.0971 1772.2163 292.751 1771.5782 293.3733 1771.8651 296.6088 1773.3565 296.9483 1773.0494 297.8332 1772.2487 298.1897 1770.5762 298.2122 1770.4704 298.2705 1769.7805 295.8897 1769.0906 295.7535 1769.0862 294.986 1769.0614 294.0434 1768.7116 292.5566 1766.943 292.5634 1766.8592 292.6635 1765.6214 293.4118 1765.0481 292.4416 1763.4298 290.1191 1763.4104 288.6809 1762.1082 285.3187 1759.1152 283.9388 1759.6885 284.1429 1761.4863 282.6216 1762.1686 281.4997 1762.6718 280.6946 1762.2277 278.7691 1761.1656 279.7568 1759.5591 278.497 1759.7663 278.6233 1750.1265 282.9185 1747.9012 283.1866 1746.8381 281.5228 1744.3372 280.9847 1743.5283 279.4211 1742.4531 279.5756 1741.3808 285.1495 1740.1395 286.339 1739.8746 287.6898 1739.136 289.2963 1737.1617 289.6041 1734.0635 291.0131 1730.8273 291.052 1726.2215 292.1263 1724.4365 291.2075 1721.8583 289.0177 1720.3222 287.1184 1719.4872 285.751 1720.0723 285.7156 1720.0874 285.6853 1719.9883 284.7648 1716.9704 283.8902 1717.8838 282.7648 1716.919 275.2894 1715.1966 275.1967 1715.1753 274.9659 1715.1221 274.6683 1715.3476 274.4472 1714.6517 273.6771 1712.2283 275.193 1709.381 274.2796 1706.6213 275.7081 1705.2705 274.2796 1703.0647 274.6361 1702.1057 274.8432 1701.5487 275.1748 1701.6685 276.2425 1702.054 279.3813 1700.4604 280.1513 1699.1832 281.4317 1697.0592 284.998 1694.7368 285.456 1694.6452 287.3302 1694.2703 288.7295 1694.2606 293.8021 1692.4337 297.3392 1693.5998 303.2766 1689.742 303.6492 1689.0843 304.2289 1688.0608 302.6061 1686.6809 306.1097 1682.128 306.6292 1681.4529 306.7166 1679.9662 305.9489 1677.9741 306.9011 1676.4195 304.584 1666.6433 304.5287 1666.41 304.7067 1666.1223 307.1595 1662.1588 310.5842 1656.6247 311.7892 1653.5248 311.0312 1651.7854 311.14 1651.519 311.7892 1649.9293 311.4102 1648.7341 309.5639 1647.947 308.8464 1647.9543 307.6592 1647.9664 305.4534 1645.2164 304.3323 1645.555 303.0726 1645.9355 303.3058 1644.2543 304.7265 1642.1937 304.7634 1639.9453 305.1132 1636.4803 306.4673 1635.7571 307.6787 1635.1102 308.6698 1633.2541 309.1119 1629.8121 309.1266 1629.6975 308.3783 1628.58 308.6893 1626.2964 310.9892 1627.0992 311.7794 1627.375 313.2468 1625.1594 313.3699 1623.659 313.4509 1622.6718 312.1876 1619.4358 313.0136 1616.4137 315.2875 1615.4516 316.1329 1616.0055 318.1638 1611.2148 319.2328 1606.6476 319.3397 1602.0512 320.7722 1600.5348 321.3318 1599.9425 321.6427 1598.8639 321.3284 1597.1613 321.1763 1596.3373 321.8927 1593.7388 322.3229 1592.1782 322.2173 1591.7697 321.895 1590.5226 322.8262 1588.077 322.974 1587.6887 323.0306 1586.837 323.3771 1581.6243 323.6154 1578.0393 324.7637 1572.7397 326.3429 1572.7848 326.8044 1572.798 326.9421 1571.6958 327.2611 1569.1442 329.5447 1565.2184 329.8441 1563.5291 330.2249 1561.3799 327.4001 1551.9327 327.2902 1551.5653 327.2581 1550.6405 327.1736 1548.2127 326.9183 1547.5492 325.8423 1544.7533 325.3262 1541.2483 324.8495 1538.0105 325.8521 1536.8141 324.754 1534.3944 324.5272 1531.522 324.2875 1528.4862 323.1502 1527.5462 320.1479 1526.4552 319.4774 1527.1646 318.6318 1527.127 316.5135 1523.6372 313.8412 1522.8015 310.547 1524.2591 308.5549 1526.2414 306.9434 1525.091 304.94 1528.457 295.4081 1530.6495 292.6376 1529.6814 289.0713 1526.7759 286.3893 1523.5303 284.9414 1521.8589 283.6684 1520.8774 280.928 1517.9135 280.4324 1516.5239 281.3848 1514.94 280.4033 1512.5592 278.9943 1511.8887 278.8776 1509.9938 278.761 1507.6324 279.0623 1505.7667 278.8193 1504.0078 276.3025 1503.6094 275.3502 1504.7269 274.0286 1504.8921 273.5039 1502.2781 274.223 1501.491 274.8449 1500.6747 275.185 1499.5766 273.7662 1498.4494 274.7866 1496.9723 276.8078 1493.7558 276.4288 1489.0331 276.2093 1488.3458 275.4668 1486.0207 273.6788 1480.783 274.0869 1479.1018 275.8351 1477.6643 277.69 1452.339 277.9059 1450.8336 277.4103 1449.8327 275.9387 1449.514 274.1355 1449.1233 274.0675 1448.5209 279.7619 1445.2752 281.1224 1443.011 284.089 1441.9191 287.1539 1442.3505 287.9441 1441.8894 290.244 1439.7268 292.6245 1439.1233 297.1497 1437.0757 301.4708 1435.1204 301.8498 1418.8242 303.9802 1404.1217 305.5522 1403.8592 307.2132 1402.346 307.8455 1401.77 310.7608 1401.0411 313.1105 1402.1613 315.775 1403.4316 319.2927 1402.7965 314.881 1389.798 314.3757 1386.5038 313.8412 1385.4737 310.8385 1384.4922 310.8871 1383.8509 314.2547 1380.2103 315.2017 1379.1865 316.1133 1378.7651 318.5445 1377.6414 319.594 1373.9682 317.6894 1366.1261 313.5788 1365.9415 313.2387 1363.93 312.7237 1357.4193 313.6663 1354.368 313.7829 1350.1311 313.4988 1347.5306 313.4622 1347.1965 313.5866 1347.1717 315.3183 1346.8272 316.0957 1338.1397 314.949 1331.3861 313.2638 1325.122 312.0879 1320.7513 311.8589 1319.9 311.9764 1319.1241 312.4419 1316.0519 309.9154 1309.6383 310.0903 1305.5764 308.4189 1302.4376 307.1337 1301.7857 306.4268 1301.427 304.7425 1293.0147 304.629 1292.448 305.3578 1287.9197 303.9585 1286.1511 304.9886 1280.9717 304.629 1277.0749 305.7854 1272.9547 303.6864 1268.1932 304.2986 1264.4325 301.7818 1255.7062 301.3639 1250.2158 299.6342 1246.4065 299.4399 1244.1132 299.7212 1240.7779 300.3917 1240.1851 302.0048 1240.1268 302.5295 1226.4446 303.0057 1225.7935 306.7372 1225.2396 308.5738 1223.8014 309.4192 1215.561 308.6613 1212.4514 309.2181 1211.8741 310.5173 1210.5273 310.8733 1207.9134 308.224 1208.9628 306.7275 1208.9045 304.8714 1206.0475 303.5505 1205.3599 302.2769 1204.6968 300.9164 1202.4618 301.1691 1198.0306 302.5004 1197.2532 304.625 1197.0816 306.0667 1196.2329 309.9037 1195.7411 312.9661 1195.3486 313.8407 1194.6781 314.4429 1193.4883 316.5615 1189.3026 316.6393 1189.1488 316.6111 1188.9918 316.0077 1185.6311 321.4398 1181.9481 321.0608 1179.4216 321.6341 1177.1768 323.6945 1177.4148 325.8418 1177.6627 330.6245 1177.0293 330.9046 1176.9922 335.7925 1174.9224 337.2502 1173.0275 338.0567 1168.9947 340.6804 1167.3913 349.7853 1167.7048 355.4013 1167.5117 355.8594 1167.496 356.9049 1167.0569 357.3705 1166.8614 357.7997 1166.6812 359.7559 1164.3983 359.9114 1159.8408 359.4087 1157.6659 359.4061 1157.6544 359.4343 1157.2408 359.6684 1153.816 360.6693 1152.8345 360.6305 1151.0562 359.9211 1149.1321 359.6782 1145.0799 359.7073 1142.5534 359.7267 1141.5136 356.9087 1139.9199 356.0043 1138.6254 355.8268 1138.3713 355.4899 1137.889 353.5853 1137.1019 353.2029 1137.0954 351.3017 1137.063 350.9616 1134.3615 351.3114 1125.5283 351.0952 1125.0195 350.9685 1124.7212 350.3508 1123.2672 350.2133 1122.9435 348.3864 1122.7102 346.2583 1121.3206 347.9976 1120.1611 348.0657 1120.1157 349.1444 1120.0476 349.3776 1119.1633 345.0101 1119.1715 344.169 1119.1731 343.9261 1118.5026 343.9531 1118.1669 344.0621 1116.8117 343.4208 1115.5776 340.9817 1112.4777 338.1636 1112.9636 334.6264 1110.2718 332.0707 1109.1155 331.0669 1108.8604 329.6997 1108.513 327.28 1108.7559 326.6872 1108.2117 326.454 1107.5704 327.144 1106.3557 327.4841 1104.9564 327.416 1102.4298 326.7747 1096.677 328.174 1096.1815 328.3101 1094.9376 326.2791 1091.0603 323.6262 1087.115 324.5264 1082.822 324.6368 1082.2951 324.0732 1080.8181 321.673 1079.1175 319.748 1079.6627 318.8938 1079.9046 317.339 1079.4673 315.8911 1077.4655 316.7779 1076.2415 317.475 1075.2791 313.384 1073.0344 312.87 1073.0709 310.7894 1073.219 307.8801 1071.8053 306.6497 1071.2075 306.0652 1071.3454 303.0251 1072.0626 301.5286 1071.8683 300.3765 1069.708 299.7406 1068.5157 298.2441 1068.0104 297.7132 1068.0124 295.6107 1068.0201 293.2299 1068.3894 293.5991 1064.9397 292.2581 1063.9679 291.0143 1061.8204 290.4798 1059.8477 289.3769 1058.3437 289.304 1058.2443 289.1447 1058.2187 285.6211 1057.6516 284.4841 1057.36 281.1219 1056.019 279.2269 1054.6488 279.3533 1052.9969 278.4301 1051.0631 276.7976 1050.2565 274.7277 1052.6762 272.8425 1053.3856 269.6746 1052.8122 266.2541 1049.965 264.9519 1048.4782 263.5915 1044.7759 262.6878 1042.0258 263.2611 1041.1901 262.7558 1040.1698 261.3662 1039.0425 258.6647 1039.13 257.5861 1039.2855 256.6629 1039.6353 257.1196 1040.6459 256.4103 1040.8014 253.6116 1039.7811 252.9572 1038.4927 216.8909 980.9731 216.792 980.8153 217.9087 978.9299 218.2885 978.2887 217.0838 976.9684 215.8591 975.6261 214.4404 975.2374 214.6153 974.6349 217.3459 975.1985 218.7136 975.1028 222.7585 974.8196 224.945 973.5563 224.634 971.2727 222.8474 970.8499 218.3799 969.7927 218.269 969.7665 216.8309 968.1242 216.0632 966.4042 217.0058 963.0517 216.3839 960.1364 217.6666 959.5048 220.5332 959.5436 221.1649 958.4747 222.5237 959.2504 223.4971 959.806 227.1045 959.3667 227.9419 959.2648 229.8815 959.0286 232.1359 959.291 233.7004 960.4765 234.2446 963.6347 235.8383 964.2469 236.9979 962.9206 237.4611 962.3909 238.9782 962.0153 240.4833 961.6426 241.7757 960.6903 241.0177 958.8245 239.5309 957.6682 238.7385 958.047 237.0919 958.8343 237.2668 957.056 238.1489 956.6729 239.4824 956.0939 240.8525 955.919 242.7183 954.7238 242.8275 954.1804 243.1459 952.5956 245.1768 950.9242 247.3049 951.4975 248.1407 953.3536 248.1366 953.7925 248.1212 955.472 250.0453 956.5604 251.6098 959.1938 252.6787 958.6691 252.6595 958.2311 252.6301 957.5613 253.6699 956.4923 255.5317 956.6242 255.8661 956.6478 256.5269 957.2017 261.201 955.8413 261.58 954.267 263.0167 952.2537 264.3117 950.4391 264.5341 950.1274 264.385 949.856 263.1348 947.5814 263.9996 945.3172 265.0949 944.3446 265.3018 944.1608 265.1888 943.9898 263.504 941.4399 263.3971 940.0309 266.0271 937.6099 266.3318 937.3294 268.1781 936.9213 269.3637 934.5016 271.6117 935.0555 272.0457 935.1624 273.5228 933.2481 273.6588 931.8682 272.8262 929.9639 272.6093 929.468 272.7745 927.816 273.1244 926.2806 275.2525 923.4528 273.5131 920.6153 272.9689 918.3414 269.1207 914.3378 268.2559 907.6522 269.2957 905.252 269.6397 902.9703 270.0342 900.3543 268.4794 898.2068 267.8963 895.7191 264.5146 893.2314 263.1328 893.2441 262.4059 893.2508 258.648 885.2518 252.8828 872.9801 251.6636 871.9927 252.3386 866.8775 249.3456 863.3209 249.1971 860.6726 246.994 860.017 246.7899 853.9824 247.3147 851.7668 250.3174 851.9223 250.3951 847.2676 248.6751 847.0635 251.4026 837.2775 254.1461 834.596 257.5861 834.2559 258.4218 833.0412 258.8979 830.3008 259.0826 828.2602 258.0719 823.9262 256.4977 820.7583 255.9924 816.5506 254.9721 815.5302 261.6383 810.8464 263.0959 810.759 264.573 812.0028 265.9431 811.8473 266.7108 809.3013 267.6048 808.3296 269.1693 807.9603 270.1119 804.4231 272.347 800.3321 273.3284 796.4645 275.4304 794.6013 277.9928 790.1773 272.6112 781.6416 270.3566 777.8306 266.994 772.0675 266.6914 771.5488 267.0315 769.4984 267.2689 769.1327 270.3937 764.319 273.5325 761.7439 276.2437 758.5565 280.7137 750.6951 281.7146 750.3064 283.0556 751.4336 286.6608 751.3073 287.6715 748.9751 287.9241 744.8063 285.4753 742.9988 283.5124 734.1559 284.0393 733.3948 286.0486 730.4924 291.0683 712.0078 291.7015 709.676 290.8223 708.9985 290.0776 708.4247 286.9621 706.0237 286.8739 703.1395 286.8649 702.8461 286.2041 701.9035 285.6634 701.9174 282.8127 701.9909 278.6342 699.1631 275.2233 698.8716 273.756 697.5403 273.7074 696.141 272.7065 695.1595 270.0828 696.1507 267.7506 696.2382 264.8548 696.0924 262.6295 691.0685 266.1278 686.783 266.4034 686.121 267.0218 684.6355 265.535 681.0789 260.443 676.0063 259.0145 675.4427 258.0525 676.7837 256.8767 676.706 255.2927 675.0832 250.5214 674.6945 248.6362 673.2854 247.4021 671.4683 244.2537 671.1865 242.9224 672.3623 239.4629 672.3914 237.0433 671.7987 235.848 670.8658 231.6695 671.3128 230.1244 670.5548 227.7339 673.1785 218.9007 674.1503 213.2743 672.3526 208.1726 670.9046 204.9464 673.6936 202.3346 675.9933 202.0991 676.2007 202.0117 677.0461 204.2467 681.3218 203.6539 682.4782 201.8756 683.4985 198.9604 690.5826 197.4785 691.2566 195.7342 692.0499 193.023 691.8653 187.8435 693.8963 185.7251 694.9166 182.324 696.7629 177.7082 699.3478 173.6171 699.066 169.4483 699.7268 167.4659 697.5015 162.8793 696.2673 162.7404 695.6164 162.131 692.7593 156.5467 687.0001 155.4454 684.9076 154.9965 678.3548 154.979 678.0988 156.1321 676.0776 158.6846 676.3497 164.9167 679.6795 167.1841 680.1849 171.2045 679.7288 171.5246 679.6925 172.8462 679.2131 173.5924 677.4825 174.0738 676.3659 175.0618 675.7019 178.7804 676.0128 181.0889 674.3595 181.1697 674.3016 182.7062 673.2012 184.6225 672.1922 188.3165 670.2471 189.5473 668.174 188.9384 666.0232 187.85 664.6757 181.5272 661.0608 176.9794 660.5037 173.4163 661.7346 166.2124 662.7841 161.4314 661.1645 159.0214 657.0313 158.4384 653.3127 159.9284 645.9274 159.734 642.0275 159.9915 641.6253 160.356 641.0557 161.3666 640.6022 163.9579 640.9002 169.6186 643.8137 170.5788 644.3078 179.4662 640.6592 179.9205 640.4727 180.9878 640.7266 183.678 641.3667 187.2799 640.4079 192.8902 641.1723 194.7465 640.141 194.7559 640.1358 199.0964 639.9026 203.7779 642.0947 203.994 642.1959 204.2121 642.1886 204.759 642.1704 207.4923 642.0793 213.6986 639.2418 215.8623 637.7388 218.0132 635.1863 217.9743 633.2947 214.6444 629.0967 213.9069 626.8864 217.4949 613.0434 216.8195 612.7785 215.2939 610.8738 212.2523 608.94 211.1639 605.5972 209.2204 600.0777 204.8767 599.2128 205.1099 592.2551 203.7203 589.1455 202.9527 584.1701 202.1558 582.4793 199.6973 580.905 193.8474 580.3997 192.0496 578.6214 196.0046 566.1344 196.0241 563.7148 195.1236 560.5867 194.9163 559.8666 195.8879 559.4397 198.1231 558.4576 198.4146 557.5442 198.4826 556.0574 196.8889 553.4045 196.7335 550.4018 200.5136 546.5537 201.0577 541.9087 203.283 538.3327 204.7601 537.5941 207.2575 529.2565 206.4995 520.1512 205.1294 515.5257 205.2849 511.3957 204.6727 508.3347 205.0614 503.3885 206.1303 499.2975 207.2006 497.3754 207.9863 495.9643 208.9872 495.3521 214.2055 494.4776 216.5978 493.4879 218.5978 492.6604 219.1517 491.8927 218.6173 487.4518 211.1834 480.29 207.9183 472.8658 206.966 467.7836 208.7832 464.4116 209.4537 461.7587 208.0446 454.6552 208.5085 453.6253 208.5305 453.5766 210.1436 453.1004 213.8654 455.6367 221.3187 456.1323 225.2446 458.4645 227.5072 458.0564 227.6279 458.0346 227.628 458.0346 228.3153 457.9106 229.1608 457.2109 230.0645 452.5757 229.6524 447.7808 229.6369 447.6003 229.7849 447.2376 231.5124 443.004 231.2986 441.8573 229.1802 439.2919 222.203 433.4614 214.0015 431.79 208.6957 431.343 206.1789 428.6026 205.3917 424.5796 205.4209 421.6838 207.2381 418.0105 207.996 413.9583 209.716 411.4998 209.4245 407.4573 205.1974 400.7911 204.5949 397.7884 205.5764 395.4465 205.829 391.9482 204.8573 388.032 206.5093 385.0779 206.4543 380.1283 206.451 379.8305 206.7518 379.3549 208.0738 377.265 208.5111 375.2924 208.2778 369.0538 209.0939 360.7159 209.1719 359.9193 210.1339 358.656 213.5253 357.7912 214.5601 356.9916 217.3734 354.8176 216.0907 352.398 213.2241 351.9607 212.6845 351.0325 212.0774 349.988 214.6525 348.647 217.6941 344.0409 219.7153 342.5153 220.9689 342.904 221.6031 342.6644 223.2331 342.0488 223.6315 341.009 223.0193 338.6185 222.6597 338.0161 220.3373 337.6565 209.4828 340.047 205.4889 338.6768 204.2017 340.7742 204.0993 340.941 203.1081 341.4366 202.4727 341.2859 196.5099 339.8721 192.4383 340.562 193.898 337.3412 194.2263 336.6167 196.5498 335.8505 198.7936 335.1105 199.571 333.3905 197.6663 329.2509 194.79 327.9973 193.4936 329.249 193.0991 329.6298 192.2724 329.4024 191.6512 329.2314 189.5036 318.5908 186.841 315.5103 181.5644 313.6251 181.0786 310.9431 183.1192 309.2037 184.7323 306.2981 184.0618 301.6143 182.9346 299.457 181.0397 300.04 180.1748 299.5639 179.1739 295.6963 178.2702 295.0258 175.9769 294.8606 173.5086 295.2396 172.4573 296.0945 170.7003 297.5232 170.0006 299.6222 168.5916 300.351 167.6679 300.4104 165.5694 300.5454 163.9369 299.078 160.8661 297.5718 158.8935 297.6884 158.3785 298.9906 154.0542 295.055 151.9843 293.6168 150.8182 293.1406 145.8429 296.5806 146.0513 297.4592 146.9701 301.3325 144.8128 301.3422 144.6728 301.4015 141.5089 302.7415 140.1193 302.1487 139.2253 298.252 136.7862 294.676 135.1925 293.7334 133.9487 293.8889 131.9566 292.3438 130.7808 287.0186 132.6951 283.9284 129.3717 282.2084 126.3787 278.681 125.5819 277.2039 127.4574 273.1614 125.8637 272.0245 123.6481 268.2152 123.755 263.9784 122.103 262.3847 120.9855 254.2026 119.8385 251.7738 119.7506 251.5876 115.5558 250.2969 114.4165 249.9463 110.1568 246.4278 109.5577 245.933 88.655 238.1405 86.245 237.242 85.8702 234.7887 85.4292 231.9009 84.1465 228.2569 79.0059 224.3115 77.7648 221.1055 60.495 215.9966 57.676 214.9244 56.9701 215.1283 56.3641 215.3034 56.094 214.7596 54.8677 212.2911 44.0131 209.9679 36.8416 208.433 35.8984 205.1734 35.3063 203.1274 33.1826 198.5636 32.3716 196.8207 32.5477 194.0224 32.5562 193.886 32.4975 193.6634 32.0169 191.8427 28.7373 184.1685 24.1312 177.308 24.7336 175.0924 25.2415 174.7943 27.1339 173.6834 30.3504 173.4501 31.4679 172.1091 30.8071 167.9112 32.2453 163.859 31.293 161.9349 30.4806 157.31 30.4378 157.0664 30.5929 156.7314 31.1662 155.4929 32.6826 152.2174 32.8272 152.0792 34.0605 150.9009 34.6455 150.3419 37.6339 145.6652 37.862 145.3082 41.4658 143.1223 42.6041 142.4319 43.6439 139.468 45.8498 137.7675 48.6484 136.6305 49.4161 133.3654 52.205 131.3345 51.5831 125.2999 49.8534 120.5675 49.1829 119.3042 49.3967 115.0577 50.4073 110.6168 50.9126 106.7686 53.1768 104.2809 55.8005 98.295 55.6936 96.3417 58.2007 92.9212 58.3951 91.5802 57.6274 87.5863 56.5779 83.5146 56.7528 81.921 58.706 80.2204 58.3271 76.382 58.7643 74.2539 58.7804 74.2381 59.8624 73.1752 62.4084 72.3006 64.9562 72.4806 65.0224 72.4853 65.3482 72.1039 67.0145 70.1531 67.8678 69.6821 70.4254 68.2706 70.8529 68.0347 72.8468 67.4431 74.3901 66.9852 75.3327 61.9223 73.4568 58.1709 72.2766 55.196 72.2724 55.1853 71.8084 39.2614 71.7088 35.8439 71.3273 34.0145 70.8103 31.5354 70.455 24.3069 68.4172 20.1004 65.195 16.331 60.2698 14.8281 46.8705 14.7628 41.1734 15.7552 38.6807 16.8137 31.2291 19.9779 28.9998 20.1972 26.9532 20.3986 22.8775 21.5625 15.5469 20.9744 15.5464 20.9741 13.1552 19.3092 13.1537 19.3082 8.9432 16.5311 2.7561 16.3106 1.6521 14.9764 1.6003 14.9139 1.4974 14.3838 1 11.8224 1.0176 11.7346 3.1684 1.0006 3.1686 1 7.8446 2.2701 17.5767 4.1243 19.5695 4.504 21.439 5.1392 22.5263 5.5086 26.4592 6.11 31.7682 6.9217 35.9477 8.0407 37.8695 8.5552 39.6578 8.8383 46.2538 9.8825 48.2836 10.6281 49.5005 11.075 53.4006 11.1322 56.6465 11.8408 61.1642 12.827 Z"/>
</g>
</svg>