<?xml version="1.0"?>
<svg xmlns="http://www.w3.org/2000/svg" version="1.2" baseProfile="tiny" width="800" height="2068" viewBox="0 0 800 2068" stroke-linecap="round" stroke-linejoin="round">
<g id="tgo_admbnda_adm0_1m_gaul">
<path d="M 59.3741 12.9042 265.1941 54.3839 262.7154 86.4915 329.1545 59.2179 434.3232 59.5714 425.4279 90.6267 429.7276 104.6848 418.5633 138.301 391.6103 168.3369 386.9572 187.6442 390.7923 231.5615 381.3257 258.6501 377.766 311.0269 477.1142 383.8373 527.3905 417.1986 616.4376 469.1849 620.9016 628.9255 610.8431 655.6976 620.3837 680.7761 630.8287 675.8229 636.1354 734.3532 643.4522 753.8701 686.6337 801.8527 700.2602 810.2999 724.2987 851.0891 729.289 880.6029 730.6742 965.0174 729.8562 1078.0867 737.6951 1094.9482 729.4781 1106.5235 725.1784 1137.5213 730.1234 1151.0245 731.9691 1296.0575 729.6096 1362.4225 731.9649 1372.2468 729.9919 1430.6003 737.8266 1449.9693 738.8214 1482.8414 731.5416 1546.399 734.3408 1704.5858 699.7299 1703.3855 707.9798 1734.0051 719.1482 1741.0876 716.6243 1784.6554 727.7927 1800.9086 717.1135 1814.9009 721.0925 1864.3839 758.4863 1892.7755 756.4146 1907.7133 770.6001 1913.4763 788.218 1940.8774 799 1998.0841 786.9026 1997.4264 728.8776 2017.005 622.6231 2041.9824 552.481 2067.1973 552.773 2044.1258 505.5507 2044.3214 493.0103 2018.2926 480.4223 2008.9323 472.6113 1976.6492 426.8051 1976.4273 411.5717 1955.7295 383.345 1945.2938 366.9101 1931.3441 352.1839 1896.1964 365.24 1883.7497 321.6733 1852.2653 323.3361 1817.2301 314.9049 1803.4194 297.8079 1799.4679 293.7732 1780.2484 279.211 1752.7392 290.9188 1733.0894 273.8804 1714.173 303.0667 1700.7634 311.2533 1659.4879 304.9153 1647.1542 319.127 1617.1267 330.1909 1571.5636 324.2147 1538.4552 313.7002 1532.7334 295.1468 1540.6327 280.5723 1527.8136 273.2757 1490.4407 280.7679 1452.4222 301.2491 1444.4801 303.7749 1413.2791 313.7002 1394.5094 315.9694 1346.8665 303.753 1294.5385 299.4005 1254.5346 312.8194 1203.1434 321.544 1184.8531 359.9146 1171.9912 359.8852 1148.9571 341.0178 1119.7317 326.3954 1114.7923 324.5663 1089.3521 292.9544 1075.3556 289.0029 1065.1443 252.4189 1045.2638 216.0176 987.2099 215.6068 966.3961 233.5842 969.9173 244.5877 957.1238 260.7165 962.073 273.2556 937.9434 269.6073 906.2239 246.4167 865.6233 254.4469 820.8462 268.7368 813.2269 277.6179 795.3278 266.2427 776.5777 280.3565 755.5879 291.416 714.3012 272.2971 699.6899 259.9535 680.4117 207.342 675.2767 198.0696 695.0831 176.6788 703.9055 161.7531 700.8049 175.9452 664.8079 160.2957 665.473 158.5873 646.2111 206.6573 646.2632 217.2468 639.3253 201.2859 586.2743 191.1138 582.3912 195.8282 553.9874 206.4209 532.7041 203.8192 511.6458 218.3928 495.0965 206.1275 470.83 207.2132 457.616 228.4671 460.1884 230.8341 445.8887 207.8685 434.1516 204.3474 403.4003 208.3478 362.2618 219.586 339.8537 195.6032 342.0837 177.2444 296.9448 140.2432 304.7108 130.6285 294.2452 118.3429 253.223 84.6186 238.7838 76.0831 222.542 34.8928 209.7868 22.0994 178.4586 28.4472 158.085 50.3565 132.1851 49.0556 107.4589 56.9586 74.7319 72.6864 67.4158 68.7256 24.459 58.4739 14.9184 13.4591 21.1048 1 1 59.3741 12.9042 Z"/>
</g>
</svg>