<?xml version="1.0"?>
<svg xmlns="http://www.w3.org/2000/svg" version="1.2" baseProfile="tiny" width="800" height="2112" viewBox="0 0 800 2112" stroke-linecap="round" stroke-linejoin="round">
<g id="tgo_admbnda_adm0_1m_gaul">
<path d="M 39.287 1 250.6968 43.6062 248.1508 76.5858 316.3942 48.5715 424.4191 48.9346 408.2312 129.8024 380.5463 160.654 379.7061 225.5957 366.3259 307.2192 520.014 416.2744 611.4795 469.6726 616.0648 633.7515 639.2278 762.0894 697.5786 820.0518 727.3957 892.2641 727.5899 1124.3203 730.1486 1319.0017 728.1177 1457.1985 737.187 1510.8585 729.7095 1576.1421 732.5848 1738.625 716.9796 1776.1181 718.9767 1902.763 757.386 1931.9257 787.9252 1981.3339 799 2040.0943 617.833 2085.1848 545.786 2111.0845 497.5811 2087.5874 463.7471 2018.0772 416.6969 2017.8494 355.1752 1971.5418 353.4598 1922.6548 308.7099 1890.3153 310.4178 1854.3286 284.1963 1836.084 265.0944 1788.0863 289.5979 1734.6988 317.4588 1601.9902 311.3203 1567.9826 266.4926 1557.052 266.6935 1479.6131 287.731 1471.4553 302.8511 1371.1906 285.8322 1276.3511 308.5771 1204.7772 347.9596 1167.9063 311.6814 1106.6826 237.5746 1061.3969 200.1847 1001.7664 258.9772 951.1619 231.4094 876.8776 251.7738 785.4137 277.6308 721.4458 245.3139 686.636 159.024 670.6084 201.4473 644.4337 174.6045 585.9534 202.6244 496.2879 190.026 471.3624 192.3066 359.8456 160.3585 292.7547 122.3524 300.7316 99.8573 247.8455 56.4498 216.3312 14.1409 203.2297 1 171.0507 30.0245 123.5204 39.287 1 Z"/>
</g>
</svg>