<?xml version="1.0"?>
<svg xmlns="http://www.w3.org/2000/svg" version="1.2" baseProfile="tiny" width="800" height="2147" viewBox="0 0 800 2147" stroke-linecap="round" stroke-linejoin="round">
<g id="tgo_admbnda_adm0_1m_gaul">
<path d="M 26.5672 1 241.5165 44.3196 418.1476 49.7372 373.5401 163.3271 359.0817 312.3462 608.3398 477.5195 636.5527 774.8323 726.1969 907.1864 731.4728 1767.718 717.6368 1934.6042 799 2074.2347 541.5464 2146.4136 458.134 2051.8491 347.7443 2004.5345 256.1552 1818.0074 309.3963 1628.7955 257.5768 1583.1049 294.5441 1394.1317 277.2402 1297.7043 340.4078 1187.4438 190.1588 1018.5222 249.9356 967.0704 221.9063 891.5424 268.9015 733.5082 164.1503 595.7473 192.6393 504.5805 149.6658 297.6395 1 206.6156 26.5672 1 Z"/>
</g>
</svg>